<?xml version="1.0" encoding="UTF-8" ?>
<!DOCTYPE svg PUBLIC "-//W3C//DTD SVG 1.1//EN" "http://www.w3.org/Graphics/SVG/1.1/DTD/svg11.dtd">
<svg width="841pt" height="1189pt" viewBox="0 0 841 1189" version="1.1" xmlns="http://www.w3.org/2000/svg">
<g id="#286a86ff">
</g>
<g id="#ffffffff">
<path fill="#ffffff" stroke="#ffffff" stroke-width="0.09375" opacity="1.00" d=" M 319.66 64.69 C 386.31 45.11 458.70 45.58 525.07 66.10 C 586.70 85.00 642.83 121.20 685.71 169.31 C 729.24 217.91 759.06 278.67 770.50 342.93 C 784.25 418.52 772.89 498.51 738.00 567.03 C 722.05 598.47 701.52 627.66 676.92 652.95 C 671.97 653.93 668.47 657.71 664.52 660.50 C 644.06 675.16 622.14 687.87 598.97 697.72 C 587.14 702.16 575.51 707.26 563.25 710.42 C 535.63 719.13 506.93 724.61 478.00 726.17 C 439.19 728.25 399.94 724.81 362.42 714.42 C 322.92 704.07 285.62 686.07 252.07 662.90 C 239.14 653.27 226.14 643.66 214.32 632.65 C 201.42 620.17 188.72 607.40 177.77 593.14 C 163.91 576.48 152.34 558.06 141.76 539.19 C 133.95 524.50 127.41 509.17 121.36 493.68 C 106.60 453.56 99.26 410.77 99.71 368.04 C 100.10 360.71 100.32 353.38 100.47 346.05 C 102.37 318.97 107.47 292.13 115.19 266.11 C 117.71 256.78 121.62 247.91 124.87 238.83 C 127.75 230.72 131.54 222.98 135.08 215.15 C 137.28 210.26 140.88 206.20 143.28 201.42 C 147.61 192.68 153.12 184.60 158.25 176.32 C 164.62 165.95 172.21 156.41 179.83 146.94 C 181.75 144.54 183.30 141.88 184.90 139.27 C 197.34 127.73 211.15 117.66 225.28 108.27 C 254.38 89.23 286.28 74.47 319.66 64.69 M 373.90 445.08 C 328.46 446.49 283.02 449.47 237.94 455.47 C 215.08 458.60 192.24 462.41 169.97 468.57 C 158.24 472.04 146.26 475.79 136.20 482.99 C 137.59 484.76 138.97 486.55 140.35 488.34 C 148.11 482.94 157.09 479.70 166.03 476.85 C 176.87 473.49 187.94 470.93 199.07 468.74 C 213.73 484.83 228.36 500.96 243.02 517.05 C 261.13 496.72 279.27 476.42 297.33 456.05 C 335.47 452.96 373.74 451.53 412.00 451.16 C 460.07 450.88 508.18 452.43 556.05 456.98 C 571.82 476.09 587.54 495.24 603.33 514.34 C 616.94 499.73 630.57 485.12 644.17 470.49 C 663.61 475.13 683.10 480.70 700.67 490.44 C 701.76 488.46 702.87 486.48 703.99 484.51 C 691.26 477.34 677.40 472.47 663.41 468.42 C 621.58 456.80 578.24 451.86 535.07 448.34 C 481.46 444.32 427.63 443.55 373.90 445.08 Z" />
</g>
<g id="#e5e5e5ff">
<path fill="#e5e5e5" stroke="#e5e5e5" stroke-width="0.09375" opacity="1.00" d=" M 165.96 156.93 C 172.09 150.86 178.08 144.57 184.90 139.27 C 183.30 141.88 181.75 144.54 179.83 146.94 C 172.21 156.41 164.62 165.95 158.25 176.32 C 153.12 184.60 147.61 192.68 143.28 201.42 C 140.88 206.20 137.28 210.26 135.08 215.15 C 131.54 222.98 127.75 230.72 124.87 238.83 C 121.62 247.91 117.71 256.78 115.19 266.11 C 107.47 292.13 102.37 318.97 100.47 346.05 C 100.32 353.38 100.10 360.71 99.71 368.04 C 99.26 410.77 106.60 453.56 121.36 493.68 C 127.41 509.17 133.95 524.50 141.76 539.19 C 152.34 558.06 163.91 576.48 177.77 593.14 C 188.72 607.40 201.42 620.17 214.32 632.65 C 226.14 643.66 239.14 653.27 252.07 662.90 C 285.62 686.07 322.92 704.07 362.42 714.42 C 399.94 724.81 439.19 728.25 478.00 726.17 C 506.93 724.61 535.63 719.13 563.25 710.42 C 575.51 707.26 587.14 702.16 598.97 697.72 C 622.14 687.87 644.06 675.16 664.52 660.50 C 668.47 657.71 671.97 653.93 676.92 652.95 C 631.42 700.93 571.97 735.46 507.89 751.68 C 434.18 770.47 354.47 764.95 284.18 735.78 C 224.81 711.34 172.40 670.40 134.14 618.86 C 112.87 590.29 95.90 558.52 84.08 524.92 C 62.18 463.07 58.05 395.12 71.91 331.01 C 85.90 265.61 119.03 204.54 165.96 156.93 Z" />
</g>
<g id="#3e3e3eff">
<path fill="#3e3e3e" stroke="#3e3e3e" stroke-width="0.09375" opacity="1.00" d=" M 373.90 445.08 C 427.63 443.55 481.46 444.32 535.07 448.34 C 578.24 451.86 621.58 456.80 663.41 468.42 C 677.40 472.47 691.26 477.34 703.99 484.51 C 702.87 486.48 701.76 488.46 700.67 490.44 C 683.10 480.70 663.61 475.13 644.17 470.49 C 630.57 485.12 616.94 499.73 603.33 514.34 C 587.54 495.24 571.82 476.09 556.05 456.98 C 508.18 452.43 460.07 450.88 412.00 451.16 C 373.74 451.53 335.47 452.96 297.33 456.05 C 279.27 476.42 261.13 496.72 243.02 517.05 C 228.36 500.96 213.73 484.83 199.07 468.74 C 187.94 470.93 176.87 473.49 166.03 476.85 C 157.09 479.70 148.11 482.94 140.35 488.34 C 138.97 486.55 137.59 484.76 136.20 482.99 C 146.26 475.79 158.24 472.04 169.97 468.57 C 192.24 462.41 215.08 458.60 237.94 455.47 C 283.02 449.47 328.46 446.49 373.90 445.08 M 207.77 468.02 C 219.33 481.15 231.25 493.95 242.99 506.92 C 257.46 490.62 271.98 474.37 286.46 458.08 C 260.20 461.17 234.01 464.79 207.77 468.02 M 566.89 459.38 C 579.11 474.31 591.32 489.25 603.72 504.03 C 614.21 492.55 625.00 481.34 635.43 469.81 C 612.59 466.29 589.75 462.75 566.89 459.38 Z" />
</g>
<g id="#06c405ff">
<path fill="#06c405" stroke="#06c405" stroke-width="0.09375" opacity="1.00" d=" M 207.77 468.02 C 234.01 464.79 260.20 461.17 286.46 458.08 C 271.98 474.37 257.46 490.62 242.99 506.92 C 231.25 493.95 219.33 481.15 207.77 468.02 Z" />
<path fill="#06c405" stroke="#06c405" stroke-width="0.09375" opacity="1.00" d=" M 566.89 459.38 C 589.75 462.75 612.59 466.29 635.43 469.81 C 625.00 481.34 614.21 492.55 603.72 504.03 C 591.32 489.25 579.11 474.31 566.89 459.38 Z" />
</g>
<g id="#feffffff">
</g>
<g id="#fffffeff">
</g>
<g id="#296b87ff">
</g>
<g id="#286b86ff">
</g>
<g id="#2b6986ff">
</g>
<g id="#2a6986ff">
</g>
<g id="#286b84ff">
</g>
<g id="#286985ff">
</g>
<g id="#296a86ff">
</g>
</svg>
