<?xml version="1.0" encoding="UTF-8" ?>
<!DOCTYPE svg PUBLIC "-//W3C//DTD SVG 1.1//EN" "http://www.w3.org/Graphics/SVG/1.1/DTD/svg11.dtd">
<svg width="136pt" height="146pt" viewBox="0 0 136 146" version="1.1" xmlns="http://www.w3.org/2000/svg">
<g id="#ffffffff">
</g>
<g id="#5e6e21ff">
<path fill="#5e6e21" stroke="#5e6e21" stroke-width="0.09375" opacity="1.00" d=" M 63.23 14.19 C 66.92 12.62 71.36 16.00 70.86 19.97 C 70.71 23.87 66.00 26.47 62.59 24.55 C 58.30 22.65 58.72 15.55 63.23 14.19 Z" />
<path fill="#5e6e21" stroke="#5e6e21" stroke-width="0.09375" opacity="1.00" d=" M 31.37 27.36 C 35.40 25.08 40.75 29.13 39.56 33.60 C 38.89 37.74 33.32 39.53 30.28 36.75 C 27.26 34.29 27.88 29.06 31.37 27.36 Z" />
<path fill="#5e6e21" stroke="#5e6e21" stroke-width="0.09375" opacity="1.00" d=" M 94.13 27.21 C 97.92 25.40 102.75 28.90 102.03 33.09 C 101.77 37.29 96.20 39.67 92.98 36.94 C 89.56 34.60 90.26 28.70 94.13 27.21 Z" />
<path fill="#5e6e21" stroke="#5e6e21" stroke-width="0.09375" opacity="1.00" d=" M 107.22 58.33 C 110.89 56.63 115.51 60.01 114.96 64.04 C 114.91 68.36 109.25 70.80 105.93 68.17 C 102.43 65.79 103.19 59.70 107.22 58.33 Z" />
<path fill="#5e6e21" stroke="#5e6e21" stroke-width="0.09375" opacity="1.00" d=" M 31.53 89.67 C 35.74 87.29 41.16 92.07 39.39 96.52 C 38.27 100.71 32.13 101.78 29.59 98.34 C 27.26 95.67 28.30 91.10 31.53 89.67 Z" />
<path fill="#5e6e21" stroke="#5e6e21" stroke-width="0.09375" opacity="1.00" d=" M 94.34 89.48 C 98.36 87.72 103.11 91.79 101.95 96.03 C 101.20 100.03 95.85 101.78 92.78 99.19 C 89.51 96.69 90.37 90.78 94.34 89.48 Z" />
<path fill="#5e6e21" stroke="#5e6e21" stroke-width="0.09375" opacity="1.00" d=" M 63.22 102.36 C 67.22 100.70 71.86 104.68 70.76 108.88 C 70.09 112.84 64.87 114.68 61.76 112.23 C 58.27 109.79 59.14 103.67 63.22 102.36 Z" />
<path fill="#5e6e21" stroke="#5e6e21" stroke-width="0.09375" opacity="1.00" d=" M 50.13 128.24 C 50.34 127.97 50.76 127.45 50.97 127.18 C 53.67 127.19 56.37 127.22 59.07 127.20 C 59.07 127.81 59.08 129.01 59.08 129.62 C 59.91 129.61 61.57 129.60 62.40 129.60 C 62.51 128.81 62.73 127.23 62.84 126.44 C 64.25 128.37 63.84 130.84 63.96 133.08 C 63.57 133.04 62.80 132.96 62.41 132.92 C 62.44 132.41 62.49 131.38 62.52 130.87 C 61.69 130.85 60.02 130.81 59.18 130.79 C 59.09 131.53 58.90 133.00 58.80 133.73 C 57.41 132.39 58.14 130.35 57.93 128.71 C 56.62 128.68 55.32 128.57 54.02 128.37 C 54.06 130.16 54.02 131.95 53.91 133.74 C 52.34 132.33 53.00 130.10 52.71 128.29 C 52.07 128.27 50.77 128.25 50.13 128.24 Z" />
<path fill="#5e6e21" stroke="#5e6e21" stroke-width="0.09375" opacity="1.00" d=" M 99.66 127.91 C 101.73 127.19 103.95 127.18 106.12 127.06 L 106.13 128.37 C 105.62 128.33 104.60 128.25 104.08 128.21 C 104.04 130.06 103.99 131.92 103.82 133.77 C 102.46 132.28 102.81 130.20 102.63 128.37 C 101.89 128.26 100.40 128.02 99.66 127.91 Z" />
<path fill="#5e6e21" stroke="#5e6e21" stroke-width="0.09375" opacity="1.00" d=" M 107.89 127.10 L 108.59 127.07 C 108.74 129.34 110.29 129.96 112.37 129.83 C 112.47 128.99 112.68 127.31 112.79 126.47 C 114.47 128.51 113.79 131.29 113.74 133.70 C 113.15 132.76 112.55 131.83 111.95 130.90 C 111.23 130.87 109.80 130.81 109.08 130.78 C 109.09 131.33 109.11 132.45 109.12 133.00 L 107.88 133.04 C 107.89 131.06 107.89 129.08 107.89 127.10 Z" />
</g>
<g id="#73852bff">
<path fill="#73852b" stroke="#73852b" stroke-width="0.09375" opacity="1.00" d=" M 45.39 15.99 C 47.12 16.74 49.01 17.29 50.50 18.49 C 53.52 23.18 53.76 29.04 53.09 34.43 C 49.15 31.46 45.67 27.64 44.10 22.87 C 43.08 20.51 44.72 18.21 45.39 15.99 Z" />
<path fill="#73852b" stroke="#73852b" stroke-width="0.09375" opacity="1.00" d=" M 79.74 18.77 C 81.05 17.27 83.17 16.85 84.90 15.97 C 85.60 17.66 86.27 19.37 86.97 21.06 C 85.33 26.45 81.97 31.22 77.25 34.34 C 76.60 29.07 76.88 23.39 79.74 18.77 Z" />
<path fill="#73852b" stroke="#73852b" stroke-width="0.09375" opacity="1.00" d=" M 87.73 26.03 C 87.47 31.90 85.60 37.80 81.51 42.15 C 79.35 41.22 79.02 38.48 78.00 36.59 C 82.11 33.96 85.26 30.19 87.73 26.03 Z" />
<path fill="#73852b" stroke="#73852b" stroke-width="0.09375" opacity="1.00" d=" M 54.47 37.82 C 56.79 38.59 59.12 39.32 61.47 39.99 C 60.86 42.84 59.98 45.62 58.92 48.34 C 56.19 47.23 53.58 45.87 51.11 44.28 C 52.28 42.15 53.42 40.01 54.47 37.82 Z" />
<path fill="#73852b" stroke="#73852b" stroke-width="0.09375" opacity="1.00" d=" M 68.88 40.00 C 71.22 39.31 73.56 38.61 75.86 37.81 C 76.95 39.98 78.09 42.13 79.29 44.25 C 76.83 45.91 74.18 47.27 71.39 48.27 C 70.41 45.56 69.56 42.80 68.88 40.00 Z" />
<path fill="#73852b" stroke="#73852b" stroke-width="0.09375" opacity="1.00" d=" M 27.68 40.98 C 33.81 41.33 39.80 43.51 44.29 47.79 C 42.32 48.87 40.31 49.88 38.29 50.86 C 35.56 46.78 31.77 43.63 27.68 40.98 Z" />
<path fill="#73852b" stroke="#73852b" stroke-width="0.09375" opacity="1.00" d=" M 86.14 47.55 C 90.77 43.59 96.56 41.32 102.64 40.96 C 98.61 43.71 94.77 46.81 92.07 50.93 C 90.10 49.79 87.99 48.89 86.14 47.55 Z" />
<path fill="#73852b" stroke="#73852b" stroke-width="0.09375" opacity="1.00" d=" M 17.50 43.90 C 19.26 43.24 20.97 42.29 22.87 42.10 C 28.31 43.29 32.79 47.10 35.94 51.56 C 30.58 52.21 24.75 51.94 20.10 48.89 C 18.84 47.47 18.32 45.58 17.50 43.90 Z" />
<path fill="#73852b" stroke="#73852b" stroke-width="0.09375" opacity="1.00" d=" M 106.37 42.37 C 108.58 41.61 110.81 42.92 112.66 44.02 C 112.19 45.66 111.56 47.29 110.57 48.70 C 105.96 51.93 100.00 52.16 94.58 51.63 C 97.28 47.28 101.49 43.93 106.37 42.37 Z" />
<path fill="#73852b" stroke="#73852b" stroke-width="0.09375" opacity="1.00" d=" M 39.35 52.91 C 41.58 51.84 43.77 50.68 45.95 49.51 C 47.45 52.01 48.79 54.59 49.95 57.26 C 47.24 58.37 44.44 59.23 41.60 59.93 C 40.92 57.57 40.18 55.22 39.35 52.91 Z" />
<path fill="#73852b" stroke="#73852b" stroke-width="0.09375" opacity="1.00" d=" M 22.88 74.13 C 27.25 69.83 33.13 67.39 39.25 67.21 C 38.61 69.35 37.89 71.46 37.16 73.58 C 32.41 72.71 27.56 73.00 22.88 74.13 Z" />
<path fill="#73852b" stroke="#73852b" stroke-width="0.09375" opacity="1.00" d=" M 39.39 74.28 C 40.18 71.97 40.91 69.63 41.57 67.28 C 44.42 67.95 47.23 68.80 49.92 69.95 C 48.82 72.67 47.43 75.29 45.73 77.69 C 43.66 76.47 41.55 75.33 39.39 74.28 Z" />
<path fill="#73852b" stroke="#73852b" stroke-width="0.09375" opacity="1.00" d=" M 80.47 69.89 C 83.18 68.80 85.98 67.95 88.83 67.33 C 89.53 69.70 90.22 72.07 90.97 74.43 C 88.76 75.42 86.61 76.52 84.48 77.65 C 82.92 75.18 81.58 72.58 80.47 69.89 Z" />
<path fill="#73852b" stroke="#73852b" stroke-width="0.09375" opacity="1.00" d=" M 91.25 67.12 C 97.32 67.47 103.14 69.84 107.52 74.09 C 102.79 72.96 97.90 72.78 93.09 73.52 C 92.45 71.39 91.82 69.26 91.25 67.12 Z" />
<path fill="#73852b" stroke="#73852b" stroke-width="0.09375" opacity="1.00" d=" M 72.78 76.82 C 74.57 74.86 76.44 72.97 78.35 71.12 C 79.59 73.84 81.24 76.35 82.54 79.03 C 82.13 79.84 81.69 80.64 81.22 81.42 C 78.51 79.69 75.70 78.14 72.78 76.82 Z" />
<path fill="#73852b" stroke="#73852b" stroke-width="0.09375" opacity="1.00" d=" M 94.75 75.88 C 99.60 74.59 104.89 75.50 109.35 77.69 C 111.51 78.70 111.82 81.43 112.92 83.31 C 110.75 83.99 108.53 85.70 106.18 84.76 C 101.53 83.19 97.38 80.04 94.75 75.88 Z" />
<path fill="#73852b" stroke="#73852b" stroke-width="0.09375" opacity="1.00" d=" M 20.18 78.24 C 24.82 75.32 30.63 74.84 35.94 75.73 C 33.05 79.64 29.28 83.02 24.63 84.63 C 22.18 85.83 19.71 84.08 17.45 83.24 C 18.31 81.56 18.89 79.67 20.18 78.24 Z" />
<path fill="#73852b" stroke="#73852b" stroke-width="0.09375" opacity="1.00" d=" M 27.81 85.99 C 31.94 83.55 35.57 80.35 38.27 76.37 C 40.30 77.31 42.31 78.28 44.30 79.30 C 39.93 83.61 33.95 86.02 27.81 85.99 Z" />
<path fill="#73852b" stroke="#73852b" stroke-width="0.09375" opacity="1.00" d=" M 51.07 82.96 C 53.53 81.34 56.16 79.97 58.88 78.84 C 59.98 81.55 60.85 84.34 61.52 87.18 C 59.18 87.88 56.85 88.60 54.55 89.42 C 53.46 87.23 52.30 85.08 51.07 82.96 Z" />
<path fill="#73852b" stroke="#73852b" stroke-width="0.09375" opacity="1.00" d=" M 71.42 78.92 C 74.19 79.94 76.83 81.31 79.30 82.93 C 78.12 85.05 76.95 87.19 75.87 89.37 C 73.58 88.61 71.27 87.90 68.94 87.27 C 69.53 84.42 70.39 81.64 71.42 78.92 Z" />
<path fill="#73852b" stroke="#73852b" stroke-width="0.09375" opacity="1.00" d=" M 42.73 100.93 C 42.86 94.85 45.07 88.75 49.58 84.54 C 50.55 86.53 51.50 88.53 52.39 90.55 C 48.37 93.19 45.28 96.90 42.73 100.93 Z" />
<path fill="#73852b" stroke="#73852b" stroke-width="0.09375" opacity="1.00" d=" M 77.96 90.50 C 78.93 88.48 79.92 86.47 80.98 84.49 C 85.37 88.95 87.46 95.02 87.79 101.18 C 85.23 97.02 82.07 93.22 77.96 90.50 Z" />
<path fill="#73852b" stroke="#73852b" stroke-width="0.09375" opacity="1.00" d=" M 44.18 104.11 C 45.73 99.43 49.20 95.72 53.08 92.82 C 53.76 98.15 53.52 103.96 50.55 108.62 C 49.11 109.97 47.08 110.42 45.31 111.22 C 44.70 108.92 43.02 106.51 44.18 104.11 Z" />
<path fill="#73852b" stroke="#73852b" stroke-width="0.09375" opacity="1.00" d=" M 77.26 92.87 C 81.97 95.96 85.25 100.72 86.97 106.04 C 86.28 107.79 85.59 109.53 84.88 111.27 C 83.26 110.52 81.56 109.89 80.08 108.86 C 76.85 104.26 76.60 98.28 77.26 92.87 Z" />
</g>
<g id="#72852bff">
<path fill="#72852b" stroke="#72852b" stroke-width="0.09375" opacity="1.00" d=" M 54.49 21.05 C 58.76 25.53 61.43 31.36 61.57 37.60 C 59.44 36.98 57.32 36.35 55.22 35.64 C 56.21 30.78 55.81 25.81 54.49 21.05 Z" />
<path fill="#72852b" stroke="#72852b" stroke-width="0.09375" opacity="1.00" d=" M 47.60 79.21 C 49.26 76.65 50.71 73.95 51.98 71.17 C 53.94 72.94 55.81 74.80 57.58 76.76 C 54.78 78.09 52.05 79.58 49.45 81.26 C 48.98 80.75 48.06 79.72 47.60 79.21 Z" />
<path fill="#72852b" stroke="#72852b" stroke-width="0.09375" opacity="1.00" d=" M 86.16 79.32 C 88.12 78.28 90.12 77.30 92.13 76.36 C 94.76 80.36 98.50 83.35 102.37 86.09 C 96.35 85.86 90.43 83.63 86.16 79.32 Z" />
</g>
<g id="#73852dff">
<path fill="#73852d" stroke="#73852d" stroke-width="0.09375" opacity="1.00" d=" M 68.76 37.64 C 69.04 31.55 71.41 25.66 75.74 21.33 C 74.66 25.99 74.31 30.80 75.21 35.52 C 73.10 36.34 70.92 36.96 68.76 37.64 Z" />
</g>
<g id="#73842bff">
<path fill="#73842b" stroke="#73842b" stroke-width="0.09375" opacity="1.00" d=" M 42.76 26.32 C 45.31 30.40 48.51 34.02 52.46 36.80 C 51.50 38.76 50.50 40.71 49.46 42.64 C 45.13 38.34 42.84 32.39 42.76 26.32 Z" />
<path fill="#73842b" stroke="#73842b" stroke-width="0.09375" opacity="1.00" d=" M 80.44 57.23 C 81.62 54.56 82.95 51.97 84.54 49.52 C 86.68 50.71 88.85 51.85 91.05 52.93 C 90.22 55.24 89.48 57.58 88.74 59.92 C 85.91 59.23 83.11 58.38 80.44 57.23 Z" />
</g>
<g id="#73852cff">
<path fill="#73852c" stroke="#73852c" stroke-width="0.09375" opacity="1.00" d=" M 61.28 49.08 C 62.30 46.20 62.85 43.18 63.94 40.33 C 64.59 40.20 65.89 39.95 66.54 39.82 C 67.17 42.91 68.06 45.94 69.17 48.89 C 66.54 48.99 63.91 49.05 61.28 49.08 Z" />
<path fill="#73852c" stroke="#73852c" stroke-width="0.09375" opacity="1.00" d=" M 22.88 53.08 C 27.58 54.17 32.43 54.49 37.20 53.64 C 37.91 55.75 38.58 57.87 39.20 60.00 C 33.10 59.80 27.25 57.34 22.88 53.08 Z" />
<path fill="#73852c" stroke="#73852c" stroke-width="0.09375" opacity="1.00" d=" M 93.11 53.68 C 97.93 54.47 102.83 54.18 107.59 53.07 C 103.17 57.29 97.35 59.79 91.23 60.02 C 91.82 57.89 92.45 55.78 93.11 53.68 Z" />
<path fill="#73852c" stroke="#73852c" stroke-width="0.09375" opacity="1.00" d=" M 79.87 59.62 C 82.78 60.68 85.75 61.59 88.78 62.24 C 88.78 62.91 88.78 64.27 88.78 64.95 C 85.77 65.63 82.81 66.50 79.92 67.60 C 79.84 64.94 79.84 62.28 79.87 59.62 Z" />
<path fill="#73852c" stroke="#73852c" stroke-width="0.09375" opacity="1.00" d=" M 61.22 78.24 C 63.86 78.19 66.49 78.17 69.12 78.22 C 68.11 81.12 67.24 84.07 66.62 87.08 C 65.92 87.10 64.54 87.14 63.85 87.16 C 63.15 84.14 62.28 81.16 61.22 78.24 Z" />
</g>
<g id="#72842bff">
<path fill="#72842b" stroke="#72842b" stroke-width="0.09375" opacity="1.00" d=" M 47.41 47.73 C 48.14 47.18 48.90 46.67 49.68 46.19 C 52.34 47.56 54.87 49.16 57.58 50.45 C 55.80 52.40 53.93 54.25 51.99 56.02 C 50.69 53.14 49.14 50.37 47.41 47.73 Z" />
<path fill="#72842b" stroke="#72842b" stroke-width="0.09375" opacity="1.00" d=" M 80.65 46.00 C 81.41 46.62 82.17 47.25 82.92 47.89 C 81.18 50.46 79.69 53.18 78.43 56.01 C 76.44 54.25 74.56 52.37 72.79 50.39 C 75.53 49.15 78.20 47.75 80.65 46.00 Z" />
<path fill="#72842b" stroke="#72842b" stroke-width="0.09375" opacity="1.00" d=" M 55.24 91.52 C 57.34 90.83 59.45 90.21 61.56 89.60 C 61.40 95.79 58.83 101.68 54.50 106.08 C 55.84 101.33 56.17 96.38 55.24 91.52 Z" />
</g>
<g id="#98ac3bff">
<path fill="#98ac3b" stroke="#98ac3b" stroke-width="0.09375" opacity="1.00" d=" M 52.56 58.44 C 55.26 56.22 57.76 53.75 59.93 51.00 C 63.47 51.31 67.03 51.30 70.58 51.07 C 72.65 53.82 75.11 56.24 77.84 58.32 C 77.39 61.81 77.39 65.33 77.85 68.82 C 75.05 70.94 72.81 73.68 70.24 76.04 C 66.79 76.02 63.33 75.84 59.89 76.17 C 57.78 73.43 55.32 70.98 52.58 68.86 C 52.98 65.40 53.00 61.90 52.56 58.44 Z" />
</g>
<g id="#5e6f21ff">
<path fill="#5e6f21" stroke="#5e6f21" stroke-width="0.09375" opacity="1.00" d=" M 19.21 58.23 C 23.49 56.47 28.27 61.33 26.40 65.58 C 25.14 69.55 19.27 70.53 16.73 67.27 C 14.17 64.43 15.51 59.32 19.21 58.23 Z" />
</g>
<g id="#73842cff">
<path fill="#73842c" stroke="#73842c" stroke-width="0.09375" opacity="1.00" d=" M 41.72 62.22 C 44.69 61.58 47.60 60.68 50.45 59.64 C 50.66 62.29 50.59 64.94 50.52 67.59 C 47.64 66.53 44.71 65.63 41.72 64.95 C 41.72 64.27 41.72 62.90 41.72 62.22 Z" />
</g>
<g id="#73852eff">
<path fill="#73852e" stroke="#73852e" stroke-width="0.09375" opacity="1.00" d=" M 68.76 89.56 C 70.92 90.20 73.07 90.86 75.19 91.63 C 74.32 96.42 74.66 101.30 75.79 106.01 C 71.54 101.57 69.00 95.72 68.76 89.56 Z" />
</g>
<g id="#565657ff">
<path fill="#565657" stroke="#565657" stroke-width="0.09375" opacity="1.00" d=" M 17.33 125.43 C 19.35 126.38 19.85 128.56 20.49 130.49 C 21.47 129.18 21.40 125.49 23.53 126.11 C 24.35 127.50 24.89 129.02 25.55 130.48 C 26.12 128.60 26.59 126.45 28.52 125.50 C 27.95 128.18 27.08 130.81 25.83 133.26 C 23.92 132.71 23.84 130.23 22.93 128.78 C 22.22 130.43 21.57 132.11 20.86 133.76 C 18.85 131.41 17.99 128.39 17.33 125.43 Z" />
<path fill="#565657" stroke="#565657" stroke-width="0.09375" opacity="1.00" d=" M 70.20 133.01 C 70.52 130.49 69.37 127.25 71.63 125.38 C 71.76 126.27 72.04 128.05 72.17 128.95 C 73.42 128.93 74.67 128.93 75.91 128.93 C 75.95 128.17 76.02 126.67 76.06 125.92 C 76.43 125.97 77.18 126.07 77.56 126.12 C 77.55 128.39 77.56 130.66 77.59 132.93 C 77.18 132.97 76.34 133.05 75.93 133.09 C 75.94 132.34 75.97 130.85 75.98 130.11 C 74.66 130.10 73.34 130.10 72.02 130.09 C 72.02 130.83 72.02 132.30 72.02 133.03 C 71.57 133.03 70.66 133.02 70.20 133.01 Z" />
</g>
<g id="#676767ff">
<path fill="#676767" stroke="#676767" stroke-width="0.09375" opacity="1.00" d=" M 30.03 127.14 C 31.73 127.09 33.43 127.04 35.13 126.98 L 35.21 128.31 C 34.16 128.36 32.05 128.45 30.99 128.49 C 31.94 129.09 32.97 129.51 34.08 129.74 L 34.04 130.57 C 33.24 130.90 31.64 131.56 30.84 131.89 C 32.91 131.97 34.98 132.01 37.05 131.95 C 37.59 129.99 38.31 128.07 39.36 126.33 C 40.87 128.47 42.00 130.84 43.12 133.20 C 41.30 132.75 39.29 131.22 37.58 132.78 C 35.05 133.01 32.50 133.05 29.95 133.07 C 29.99 131.10 30.00 129.12 30.03 127.14 M 39.06 129.23 C 37.67 132.31 42.30 129.30 39.06 129.23 Z" />
</g>
<g id="#686869ff">
<path fill="#686869" stroke="#686869" stroke-width="0.09375" opacity="1.00" d=" M 43.98 133.02 C 44.32 130.84 43.22 127.79 45.66 126.54 C 45.84 128.36 45.99 130.18 46.10 132.00 C 47.41 131.98 48.72 131.96 50.03 131.92 L 49.99 133.04 C 47.99 133.03 45.98 133.03 43.98 133.02 Z" />
</g>
<g id="#606060ff">
<path fill="#606060" stroke="#606060" stroke-width="0.09375" opacity="1.00" d=" M 79.99 127.17 C 81.69 127.12 83.39 127.07 85.09 127.03 L 85.12 128.26 C 83.64 128.37 82.15 128.49 80.67 128.63 C 81.78 129.05 82.90 129.46 84.02 129.85 L 84.03 130.79 C 83.34 130.84 81.98 130.93 81.29 130.98 L 81.42 131.99 C 82.37 131.98 84.27 131.96 85.21 131.95 L 85.22 133.04 C 83.47 133.03 81.73 133.03 79.98 133.02 C 79.99 131.07 79.99 129.12 79.99 127.17 Z" />
</g>
<g id="#646465ff">
<path fill="#646465" stroke="#646465" stroke-width="0.09375" opacity="1.00" d=" M 86.06 133.20 C 87.29 131.08 87.64 128.12 89.89 126.82 C 91.15 128.85 92.04 131.08 93.10 133.22 C 90.85 131.98 88.28 131.80 86.06 133.20 M 89.10 129.21 C 87.54 132.20 92.33 129.48 89.10 129.21 Z" />
</g>
<g id="#696969ff">
<path fill="#696969" stroke="#696969" stroke-width="0.09375" opacity="1.00" d=" M 94.25 126.68 C 96.62 127.41 95.80 130.14 96.18 132.01 C 97.46 131.98 98.74 131.95 100.03 131.92 L 99.99 133.04 C 98.00 133.03 96.01 133.03 94.03 133.03 C 94.08 130.91 94.10 128.79 94.25 126.68 Z" />
</g>
<g id="#d6d6d6ff">
</g>
</svg>
