<?xml version="1.0" encoding="UTF-8" ?>
<!DOCTYPE svg PUBLIC "-//W3C//DTD SVG 1.1//EN" "http://www.w3.org/Graphics/SVG/1.1/DTD/svg11.dtd">
<svg width="184pt" height="184pt" viewBox="0 0 184 184" version="1.1" xmlns="http://www.w3.org/2000/svg">
<g id="#ffffffff">
</g>
<g id="#233b65ff">
<path fill="#233b65" stroke="#233b65" stroke-width="0.09375" opacity="1.00" d=" M 51.52 9.45 C 83.53 -6.58 124.78 -1.45 151.57 22.60 C 152.01 23.16 152.57 23.51 153.26 23.64 C 153.38 23.88 153.61 24.36 153.73 24.59 C 163.85 33.92 171.86 45.56 176.88 58.39 C 173.26 58.28 172.12 53.25 168.43 53.83 C 167.68 53.82 166.93 53.84 166.19 53.91 C 166.57 52.52 166.56 51.13 166.17 49.74 C 164.84 46.53 160.21 45.70 157.43 47.45 C 154.41 49.02 153.17 53.67 155.61 56.24 L 156.34 56.98 C 155.20 58.38 154.10 59.81 153.02 61.25 C 145.00 45.41 130.56 32.91 113.65 27.43 C 89.49 19.16 61.12 26.19 43.51 44.69 C 43.31 43.35 41.92 41.91 42.60 40.55 C 43.29 38.72 47.05 39.59 46.75 37.30 C 40.55 36.60 34.26 37.08 28.05 37.31 C 30.91 39.39 34.88 37.97 38.01 39.59 C 33.54 40.28 29.01 40.12 24.51 39.90 C 24.95 39.20 25.38 38.49 25.81 37.78 C 24.17 36.40 22.28 35.35 20.45 34.23 C 28.77 23.77 39.58 15.40 51.52 9.45 Z" />
</g>
<g id="#dee3e9ff">
<path fill="#dee3e9" stroke="#dee3e9" stroke-width="0.09375" opacity="1.00" d=" M 43.51 44.69 C 61.12 26.19 89.49 19.16 113.65 27.43 C 130.56 32.91 145.00 45.41 153.02 61.25 C 157.89 70.74 160.41 81.42 160.39 92.09 C 158.28 91.18 156.17 90.30 154.08 89.37 C 153.93 85.27 153.16 81.23 152.05 77.30 C 150.57 71.36 147.42 66.02 144.29 60.82 C 139.48 52.55 132.10 46.20 124.40 40.70 C 120.75 38.20 116.50 36.32 112.02 36.17 C 113.08 39.17 115.19 41.65 116.42 44.57 C 117.87 47.89 118.44 51.51 119.16 55.04 C 119.76 60.03 119.74 65.07 119.12 70.06 C 118.70 73.67 117.59 77.15 116.64 80.64 L 116.49 80.99 C 109.15 80.90 101.56 81.01 94.52 83.29 L 94.42 83.00 C 93.98 81.48 93.50 79.97 93.20 78.42 C 92.55 73.58 91.86 68.70 92.37 63.82 C 93.75 54.44 95.72 45.13 98.88 36.19 C 89.31 41.98 84.27 53.30 82.99 64.07 C 82.70 67.98 82.91 71.89 82.95 75.79 C 75.51 73.98 68.13 78.43 63.89 84.31 C 60.41 89.23 58.84 95.19 57.93 101.07 C 57.86 101.65 57.71 102.80 57.63 103.37 C 56.51 103.58 55.37 103.74 54.23 103.85 C 54.03 103.38 53.63 102.45 53.43 101.99 C 54.07 98.64 54.77 95.29 55.70 92.01 C 56.56 89.66 57.33 87.28 58.35 84.99 C 60.42 80.75 62.73 76.50 66.43 73.42 C 69.78 71.16 73.58 69.56 77.66 69.37 C 77.85 68.83 78.23 67.73 78.42 67.19 C 79.30 62.92 81.28 58.68 80.95 54.29 C 78.12 55.13 75.54 56.58 72.76 57.53 C 73.54 55.42 74.81 53.55 76.22 51.81 C 80.38 47.34 85.30 40.99 82.29 34.62 C 77.61 33.64 72.50 33.96 68.19 36.16 C 62.59 38.83 56.68 41.40 52.51 46.17 C 54.96 46.56 57.51 46.42 59.89 47.22 C 61.68 48.13 62.80 49.92 64.27 51.24 C 67.71 48.76 70.04 43.72 74.89 44.08 C 74.34 46.22 73.26 48.15 72.21 50.07 C 68.51 55.35 63.95 59.95 59.89 64.93 C 57.59 67.65 55.35 70.48 53.86 73.74 C 52.74 76.07 51.55 78.40 50.85 80.90 C 49.90 84.35 48.69 87.79 48.62 91.42 C 48.06 96.96 48.88 102.58 51.16 107.68 C 49.76 109.51 48.34 111.33 46.91 113.13 C 44.98 108.94 43.95 104.37 43.27 99.83 C 43.19 97.78 42.93 95.75 42.97 93.70 C 43.00 91.44 43.11 89.18 43.31 86.93 C 43.69 84.73 44.07 82.52 44.52 80.33 C 45.26 78.19 45.88 76.02 46.64 73.89 C 47.53 72.19 48.41 70.50 49.32 68.82 C 50.86 66.19 52.52 63.64 54.27 61.16 C 56.24 58.52 58.75 56.31 60.56 53.56 C 60.51 53.12 60.39 52.24 60.34 51.81 C 56.70 50.46 52.48 49.23 48.71 50.76 C 46.48 52.01 44.44 53.66 42.89 55.70 C 40.50 59.20 38.28 62.87 36.71 66.82 C 36.01 68.57 35.37 70.35 34.86 72.17 C 33.93 75.06 33.02 77.97 32.60 80.99 C 32.25 83.07 31.91 85.16 31.82 87.27 C 31.81 89.41 31.39 91.56 31.74 93.69 C 31.84 95.88 31.86 98.08 32.35 100.23 C 33.43 107.76 36.53 114.85 40.46 121.31 L 40.66 121.75 C 38.54 123.88 38.17 127.69 34.96 128.57 C 31.39 122.73 28.55 116.40 26.74 109.79 C 26.42 108.53 26.12 107.26 25.74 106.02 C 20.93 84.25 27.89 60.53 43.51 44.69 Z" />
</g>
<g id="#d9e4edff">
<path fill="#d9e4ed" stroke="#d9e4ed" stroke-width="0.09375" opacity="1.00" d=" M 153.73 24.59 C 153.61 24.36 153.38 23.88 153.26 23.64 C 153.80 23.85 154.87 24.27 155.40 24.48 C 171.61 38.98 181.66 59.80 184.00 81.34 L 184.00 106.62 C 181.13 116.72 178.96 127.26 173.27 136.25 C 172.52 137.04 171.68 137.71 170.74 138.27 C 176.71 127.52 181.09 115.78 182.48 103.51 C 184.43 88.33 182.62 72.62 176.88 58.39 C 171.86 45.56 163.85 33.92 153.73 24.59 Z" />
</g>
<g id="#c9c9c9ff">
<path fill="#c9c9c9" stroke="#c9c9c9" stroke-width="0.09375" opacity="1.00" d=" M 68.19 36.16 C 72.50 33.96 77.61 33.64 82.29 34.62 C 85.30 40.99 80.38 47.34 76.22 51.81 C 75.81 51.00 75.37 50.21 74.88 49.44 C 73.98 49.60 73.09 49.81 72.21 50.07 C 73.26 48.15 74.34 46.22 74.89 44.08 C 70.04 43.72 67.71 48.76 64.27 51.24 C 62.80 49.92 61.68 48.13 59.89 47.22 C 57.51 46.42 54.96 46.56 52.51 46.17 C 56.68 41.40 62.59 38.83 68.19 36.16 Z" />
</g>
<g id="#284370ff">
<path fill="#284370" stroke="#284370" stroke-width="0.09375" opacity="1.00" d=" M 6.61 57.47 C 10.16 49.17 14.58 41.12 20.45 34.23 C 22.28 35.35 24.17 36.40 25.81 37.78 C 25.38 38.49 24.95 39.20 24.51 39.90 C 29.01 40.12 33.54 40.28 38.01 39.59 C 34.88 37.97 30.91 39.39 28.05 37.31 C 34.26 37.08 40.55 36.60 46.75 37.30 C 47.05 39.59 43.29 38.72 42.60 40.55 C 41.92 41.91 43.31 43.35 43.51 44.69 C 27.89 60.53 20.93 84.25 25.74 106.02 C 22.86 104.01 23.34 100.17 22.70 97.13 C 21.63 90.71 22.99 84.00 21.10 77.73 C 19.65 79.90 18.66 82.34 17.32 84.58 C 16.90 84.63 16.05 84.73 15.63 84.78 C 15.18 83.53 14.82 82.26 14.43 81.00 C 14.14 82.21 13.81 83.41 13.45 84.60 C 11.77 84.87 10.05 84.86 8.35 84.74 C 8.52 81.04 8.47 77.20 6.37 73.97 C 4.45 80.53 4.54 87.50 2.29 93.96 C 2.37 99.09 2.76 104.21 2.84 109.34 L 1.79 109.03 C -1.48 91.81 0.47 73.81 6.61 57.47 Z" />
</g>
<g id="#bdbdbfff">
<path fill="#bdbdbf" stroke="#bdbdbf" stroke-width="0.09375" opacity="1.00" d=" M 82.99 64.07 C 84.27 53.30 89.31 41.98 98.88 36.19 C 95.72 45.13 93.75 54.44 92.37 63.82 C 91.76 63.41 91.13 63.04 90.49 62.69 C 89.88 63.25 89.27 63.80 88.67 64.35 C 86.86 62.89 84.83 62.15 82.99 64.07 Z" />
</g>
<g id="#c7c8c8ff">
<path fill="#c7c8c8" stroke="#c7c8c8" stroke-width="0.09375" opacity="1.00" d=" M 112.02 36.17 C 116.50 36.32 120.75 38.20 124.40 40.70 C 132.10 46.20 139.48 52.55 144.29 60.82 C 143.54 61.38 142.77 61.90 141.97 62.39 C 139.43 61.69 136.80 60.60 134.20 61.82 C 131.88 59.49 130.43 55.54 126.75 55.21 C 125.31 54.53 123.90 55.37 122.50 55.72 C 122.42 54.89 122.34 54.06 122.28 53.22 C 121.22 53.79 120.19 54.41 119.16 55.04 C 118.44 51.51 117.87 47.89 116.42 44.57 C 115.19 41.65 113.08 39.17 112.02 36.17 Z" />
</g>
<g id="#e6e7e5ff">
</g>
<g id="#b1b2b4ff">
<path fill="#b1b2b4" stroke="#b1b2b4" stroke-width="0.09375" opacity="1.00" d=" M 72.21 50.07 C 73.09 49.81 73.98 49.60 74.88 49.44 C 75.37 50.21 75.81 51.00 76.22 51.81 C 74.81 53.55 73.54 55.42 72.76 57.53 C 75.54 56.58 78.12 55.13 80.95 54.29 C 81.28 58.68 79.30 62.92 78.42 67.19 C 77.74 66.20 77.09 65.18 76.29 64.29 C 75.85 64.49 74.98 64.89 74.55 65.08 C 73.74 64.45 73.07 63.33 71.87 63.54 C 67.84 63.53 63.90 64.59 59.89 64.93 C 63.95 59.95 68.51 55.35 72.21 50.07 Z" />
</g>
<g id="#b8babaff">
<path fill="#b8baba" stroke="#b8baba" stroke-width="0.09375" opacity="1.00" d=" M 48.71 50.76 C 52.48 49.23 56.70 50.46 60.34 51.81 C 60.39 52.24 60.51 53.12 60.56 53.56 C 58.75 56.31 56.24 58.52 54.27 61.16 C 54.39 60.19 54.50 59.22 54.57 58.24 C 50.78 59.09 44.69 60.36 42.89 55.70 C 44.44 53.66 46.48 52.01 48.71 50.76 Z" />
<path fill="#b8baba" stroke="#b8baba" stroke-width="0.09375" opacity="1.00" d=" M 119.16 55.04 C 120.19 54.41 121.22 53.79 122.28 53.22 C 122.34 54.06 122.42 54.89 122.50 55.72 C 123.90 55.37 125.31 54.53 126.75 55.21 C 127.29 59.20 128.25 63.14 128.32 67.19 C 125.73 67.31 123.13 67.22 120.56 67.58 C 120.02 68.37 119.54 69.20 119.12 70.06 C 119.74 65.07 119.76 60.03 119.16 55.04 Z" />
</g>
<g id="#f8fcfdff">
</g>
<g id="#2c4776ff">
<path fill="#2c4776" stroke="#2c4776" stroke-width="0.09375" opacity="1.00" d=" M 166.19 53.91 C 166.93 53.84 167.68 53.82 168.43 53.83 C 172.12 53.25 173.26 58.28 176.88 58.39 C 182.62 72.62 184.43 88.33 182.48 103.51 C 181.33 102.28 180.75 100.71 180.80 99.03 C 180.55 93.98 180.03 88.94 179.59 83.89 C 178.58 89.89 178.52 96.00 177.60 102.02 C 176.88 99.56 177.11 96.51 174.97 94.74 C 172.06 95.95 168.14 95.51 166.27 98.42 C 165.50 97.27 164.86 96.03 163.98 94.97 C 162.67 93.91 161.32 95.53 160.19 96.06 C 160.30 94.74 160.37 93.42 160.39 92.09 C 160.41 81.42 157.89 70.74 153.02 61.25 C 154.10 59.81 155.20 58.38 156.34 56.98 C 159.66 59.44 164.96 57.94 166.19 53.91 Z" />
</g>
<g id="#dee2eaff">
<path fill="#dee2ea" stroke="#dee2ea" stroke-width="0.09375" opacity="1.00" d=" M 126.75 55.21 C 130.43 55.54 131.88 59.49 134.20 61.82 C 137.16 65.89 138.79 70.69 140.58 75.34 C 141.34 77.86 141.95 80.41 142.29 83.02 C 142.12 83.49 141.78 84.42 141.61 84.88 C 139.94 84.84 138.30 84.54 136.66 84.26 C 136.61 84.03 136.51 83.59 136.46 83.36 C 135.88 80.39 134.61 77.63 133.56 74.82 C 132.76 77.28 132.44 79.86 131.95 82.39 C 130.60 82.27 129.26 82.08 127.92 81.87 C 128.66 77.01 128.55 72.09 128.32 67.19 C 128.25 63.14 127.29 59.20 126.75 55.21 Z" />
</g>
<g id="#abafaeff">
<path fill="#abafae" stroke="#abafae" stroke-width="0.09375" opacity="1.00" d=" M 36.71 66.82 C 38.28 62.87 40.50 59.20 42.89 55.70 C 44.69 60.36 50.78 59.09 54.57 58.24 C 54.50 59.22 54.39 60.19 54.27 61.16 C 52.52 63.64 50.86 66.19 49.32 68.82 C 47.56 63.67 40.50 64.40 36.71 66.82 Z" />
</g>
<g id="#d5e2edff">
<path fill="#d5e2ed" stroke="#d5e2ed" stroke-width="0.09375" opacity="1.00" d=" M 3.89 61.06 C 4.33 59.57 5.35 58.35 6.61 57.47 C 0.47 73.81 -1.48 91.81 1.79 109.03 C 3.90 120.63 8.48 131.71 14.91 141.57 C 16.27 143.83 18.08 145.78 19.31 148.13 C 15.62 146.74 14.20 142.76 12.17 139.72 C 6.29 130.41 2.87 119.85 0.00 109.29 L 0.00 74.36 C 1.32 69.94 2.36 65.43 3.89 61.06 Z" />
</g>
<g id="#b2b6b4ff">
<path fill="#b2b6b4" stroke="#b2b6b4" stroke-width="0.09375" opacity="1.00" d=" M 134.20 61.82 C 136.80 60.60 139.43 61.69 141.97 62.39 C 142.77 61.90 143.54 61.38 144.29 60.82 C 147.42 66.02 150.57 71.36 152.05 77.30 C 151.27 76.11 150.47 74.92 149.57 73.82 C 148.92 74.07 148.27 74.34 147.62 74.61 C 145.86 73.04 145.27 70.49 143.32 69.11 C 142.23 71.10 141.40 73.23 140.58 75.34 C 138.79 70.69 137.16 65.89 134.20 61.82 Z" />
</g>
<g id="#a3a7a8ff">
<path fill="#a3a7a8" stroke="#a3a7a8" stroke-width="0.09375" opacity="1.00" d=" M 82.99 64.07 C 84.83 62.15 86.86 62.89 88.67 64.35 C 89.27 63.80 89.88 63.25 90.49 62.69 C 91.13 63.04 91.76 63.41 92.37 63.82 C 91.86 68.70 92.55 73.58 93.20 78.42 C 89.92 76.84 85.55 78.64 82.95 75.79 C 82.91 71.89 82.70 67.98 82.99 64.07 Z" />
</g>
<g id="#a1a5a6ff">
<path fill="#a1a5a6" stroke="#a1a5a6" stroke-width="0.09375" opacity="1.00" d=" M 59.89 64.93 C 63.90 64.59 67.84 63.53 71.87 63.54 C 73.07 63.33 73.74 64.45 74.55 65.08 C 74.98 64.89 75.85 64.49 76.29 64.29 C 77.09 65.18 77.74 66.20 78.42 67.19 C 78.23 67.73 77.85 68.83 77.66 69.37 C 73.58 69.56 69.78 71.16 66.43 73.42 C 62.27 72.74 57.79 71.53 53.86 73.74 C 55.35 70.48 57.59 67.65 59.89 64.93 Z" />
</g>
<g id="#9fa3a4ff">
<path fill="#9fa3a4" stroke="#9fa3a4" stroke-width="0.09375" opacity="1.00" d=" M 36.71 66.82 C 40.50 64.40 47.56 63.67 49.32 68.82 C 48.41 70.50 47.53 72.19 46.64 73.89 C 45.59 71.52 43.01 72.39 42.39 74.51 C 42.17 74.05 41.74 73.14 41.52 72.68 C 39.32 72.31 37.07 72.38 34.86 72.17 C 35.37 70.35 36.01 68.57 36.71 66.82 Z" />
</g>
<g id="#a3a7aaff">
<path fill="#a3a7aa" stroke="#a3a7aa" stroke-width="0.09375" opacity="1.00" d=" M 120.56 67.58 C 123.13 67.22 125.73 67.31 128.32 67.19 C 128.55 72.09 128.66 77.01 127.92 81.87 C 124.17 81.37 120.38 81.25 116.64 80.64 C 117.59 77.15 118.70 73.67 119.12 70.06 C 119.54 69.20 120.02 68.37 120.56 67.58 Z" />
</g>
<g id="#a2a7a7ff">
<path fill="#a2a7a7" stroke="#a2a7a7" stroke-width="0.09375" opacity="1.00" d=" M 143.32 69.11 C 145.27 70.49 145.86 73.04 147.62 74.61 C 148.27 74.34 148.92 74.07 149.57 73.82 C 150.47 74.92 151.27 76.11 152.05 77.30 C 153.16 81.23 153.93 85.27 154.08 89.37 C 150.23 88.02 146.34 86.79 142.62 85.13 C 142.53 84.60 142.37 83.55 142.29 83.02 C 141.95 80.41 141.34 77.86 140.58 75.34 C 141.40 73.23 142.23 71.10 143.32 69.11 Z" />
</g>
<g id="#919597ff">
<path fill="#919597" stroke="#919597" stroke-width="0.09375" opacity="1.00" d=" M 34.86 72.17 C 37.07 72.38 39.32 72.31 41.52 72.68 C 41.74 73.14 42.17 74.05 42.39 74.51 C 43.01 72.39 45.59 71.52 46.64 73.89 C 45.88 76.02 45.26 78.19 44.52 80.33 C 43.90 79.72 43.27 79.12 42.62 78.55 C 42.36 78.94 41.85 79.70 41.60 80.09 C 38.70 79.38 35.06 79.03 32.60 80.99 C 33.02 77.97 33.93 75.06 34.86 72.17 Z" />
</g>
<g id="#8f9395ff">
<path fill="#8f9395" stroke="#8f9395" stroke-width="0.09375" opacity="1.00" d=" M 53.86 73.74 C 57.79 71.53 62.27 72.74 66.43 73.42 C 62.73 76.50 60.42 80.75 58.35 84.99 C 57.78 83.02 56.77 81.07 54.69 80.41 C 54.39 80.91 53.80 81.91 53.51 82.41 C 52.59 81.95 51.73 81.41 50.85 80.90 C 51.55 78.40 52.74 76.07 53.86 73.74 Z" />
</g>
<g id="#304d80ff">
<path fill="#304d80" stroke="#304d80" stroke-width="0.09375" opacity="1.00" d=" M 6.37 73.97 C 8.47 77.20 8.52 81.04 8.35 84.74 C 10.05 84.86 11.77 84.87 13.45 84.60 C 13.81 83.41 14.14 82.21 14.43 81.00 C 14.82 82.26 15.18 83.53 15.63 84.78 C 16.05 84.73 16.90 84.63 17.32 84.58 C 18.66 82.34 19.65 79.90 21.10 77.73 C 22.99 84.00 21.63 90.71 22.70 97.13 C 23.34 100.17 22.86 104.01 25.74 106.02 C 26.12 107.26 26.42 108.53 26.74 109.79 C 26.38 111.57 25.94 113.33 25.46 115.09 C 25.14 113.45 24.84 111.82 24.54 110.19 C 23.50 112.49 22.66 114.91 21.14 116.96 C 18.80 114.40 18.38 110.81 17.19 107.68 C 16.37 109.14 15.77 110.71 14.97 112.19 C 14.45 110.87 14.01 109.52 13.43 108.23 C 12.50 107.99 11.57 108.01 10.65 108.28 C 10.24 109.36 9.82 110.44 9.40 111.52 C 8.39 111.77 7.33 111.71 6.31 111.55 C 6.32 109.92 6.43 108.29 6.24 106.67 C 5.18 107.99 4.26 109.43 3.28 110.81 C 3.17 110.45 2.95 109.71 2.84 109.34 C 2.76 104.21 2.37 99.09 2.29 93.96 C 4.54 87.50 4.45 80.53 6.37 73.97 Z" />
</g>
<g id="#8e9395ff">
<path fill="#8e9395" stroke="#8e9395" stroke-width="0.09375" opacity="1.00" d=" M 63.89 84.31 C 68.13 78.43 75.51 73.98 82.95 75.79 C 85.55 78.64 89.92 76.84 93.20 78.42 C 93.50 79.97 93.98 81.48 94.42 83.00 C 88.59 84.17 83.01 86.24 77.42 88.19 C 75.71 87.20 73.90 86.30 71.86 86.53 C 69.00 86.75 66.49 85.23 63.89 84.31 Z" />
</g>
<g id="#979c9fff">
<path fill="#979c9f" stroke="#979c9f" stroke-width="0.09375" opacity="1.00" d=" M 131.95 82.39 C 132.44 79.86 132.76 77.28 133.56 74.82 C 134.61 77.63 135.88 80.39 136.46 83.36 C 134.90 83.36 133.35 83.34 131.80 83.31 L 131.95 82.39 Z" />
</g>
<g id="#7f8487ff">
<path fill="#7f8487" stroke="#7f8487" stroke-width="0.09375" opacity="1.00" d=" M 42.62 78.55 C 43.27 79.12 43.90 79.72 44.52 80.33 C 44.07 82.52 43.69 84.73 43.31 86.93 C 39.49 87.29 35.65 87.51 31.82 87.27 C 31.91 85.16 32.25 83.07 32.60 80.99 C 35.06 79.03 38.70 79.38 41.60 80.09 C 41.85 79.70 42.36 78.94 42.62 78.55 Z" />
</g>
<g id="#798083ff">
<path fill="#798083" stroke="#798083" stroke-width="0.09375" opacity="1.00" d=" M 54.69 80.41 C 56.77 81.07 57.78 83.02 58.35 84.99 C 57.33 87.28 56.56 89.66 55.70 92.01 C 53.50 90.50 51.02 90.59 48.62 91.42 C 48.69 87.79 49.90 84.35 50.85 80.90 C 51.73 81.41 52.59 81.95 53.51 82.41 C 53.80 81.91 54.39 80.91 54.69 80.41 Z" />
</g>
<g id="#cdd4deff">
<path fill="#cdd4de" stroke="#cdd4de" stroke-width="0.09375" opacity="1.00" d=" M 94.52 83.29 C 101.56 81.01 109.15 80.90 116.49 80.99 C 115.58 83.88 114.33 86.64 112.84 89.27 C 111.15 92.37 107.70 95.16 103.95 94.10 C 98.93 92.88 96.00 87.89 94.52 83.29 Z" />
</g>
<g id="#61696bff">
<path fill="#61696b" stroke="#61696b" stroke-width="0.09375" opacity="1.00" d=" M 116.49 80.99 L 116.64 80.64 C 120.38 81.25 124.17 81.37 127.92 81.87 C 127.41 85.42 126.72 88.97 125.55 92.36 C 123.56 88.84 119.79 91.25 116.78 91.21 C 115.47 90.55 114.21 89.80 112.84 89.27 C 114.33 86.64 115.58 83.88 116.49 80.99 Z" />
</g>
<g id="#cfd6e2ff">
<path fill="#cfd6e2" stroke="#cfd6e2" stroke-width="0.09375" opacity="1.00" d=" M 127.92 81.87 C 129.26 82.08 130.60 82.27 131.95 82.39 L 131.80 83.31 C 131.30 86.69 130.28 89.95 129.48 93.27 C 127.16 100.18 123.84 107.34 117.69 111.65 C 114.74 113.89 111.00 114.28 107.56 115.13 C 106.54 120.12 104.64 124.94 103.98 130.00 C 107.23 129.98 109.82 127.79 112.63 126.48 C 111.55 130.17 108.56 133.01 106.33 136.10 C 103.55 139.50 101.38 144.15 102.55 148.59 C 103.61 151.15 106.68 151.08 109.01 150.97 C 118.42 149.18 126.81 143.95 133.99 137.79 C 129.36 138.11 122.15 138.16 121.45 132.08 C 118.92 135.40 116.01 138.89 112.10 140.55 L 111.11 140.42 C 111.06 140.00 110.98 139.16 110.94 138.74 C 113.58 133.86 117.17 129.57 120.69 125.31 C 127.32 118.21 133.24 110.08 135.56 100.49 C 136.98 95.23 137.72 89.65 136.66 84.26 C 138.30 84.54 139.94 84.84 141.61 84.88 C 141.78 84.42 142.12 83.49 142.29 83.02 C 142.37 83.55 142.53 84.60 142.62 85.13 C 142.91 89.40 142.76 93.67 142.27 97.92 C 141.33 106.37 137.40 114.06 132.63 120.96 C 130.73 123.61 128.86 126.31 126.38 128.46 C 125.05 129.39 124.52 132.16 126.50 132.64 C 130.30 133.93 134.82 134.86 138.43 132.52 C 143.55 129.17 146.09 123.31 148.67 118.00 C 151.23 112.37 152.69 106.31 153.65 100.22 C 154.25 96.64 154.23 92.98 154.08 89.37 C 156.17 90.30 158.28 91.18 160.39 92.09 C 160.37 93.42 160.30 94.74 160.19 96.06 C 159.17 116.53 148.07 136.05 131.31 147.76 C 117.12 157.59 99.15 161.92 82.06 159.16 C 64.90 156.77 49.20 147.11 38.52 133.57 C 37.36 131.89 36.11 130.27 34.96 128.57 C 38.17 127.69 38.54 123.88 40.66 121.75 C 46.89 131.43 55.23 139.98 65.33 145.62 C 68.17 146.73 71.20 148.77 74.33 148.02 C 74.31 146.08 72.64 144.79 71.65 143.29 C 68.30 138.48 67.27 132.50 66.62 126.79 C 65.43 117.33 67.23 107.76 70.69 98.96 C 72.20 95.84 73.58 92.44 76.63 90.49 C 78.37 89.78 80.25 89.54 82.13 89.70 C 84.91 90.51 87.10 92.63 88.70 94.97 C 90.68 98.50 92.06 102.34 92.62 106.35 C 93.72 111.85 93.74 117.52 93.00 123.07 C 91.49 131.52 89.49 139.94 86.16 147.85 L 86.57 148.42 C 89.10 147.54 90.91 145.53 92.70 143.66 C 97.91 137.66 101.14 130.07 102.38 122.26 C 103.12 117.56 103.09 112.81 102.61 108.09 C 109.34 109.86 116.32 106.32 120.59 101.20 C 122.83 98.63 124.51 95.61 125.55 92.36 C 126.72 88.97 127.41 85.42 127.92 81.87 Z" />
</g>
<g id="#50585cff">
<path fill="#50585c" stroke="#50585c" stroke-width="0.09375" opacity="1.00" d=" M 77.42 88.19 C 83.01 86.24 88.59 84.17 94.42 83.00 L 94.52 83.29 C 96.00 87.89 98.93 92.88 103.95 94.10 C 107.70 95.16 111.15 92.37 112.84 89.27 C 114.21 89.80 115.47 90.55 116.78 91.21 C 119.79 91.25 123.56 88.84 125.55 92.36 C 124.51 95.61 122.83 98.63 120.59 101.20 C 119.41 99.76 118.40 97.11 116.10 97.50 C 108.68 98.83 101.45 96.21 94.28 94.61 C 94.08 95.22 93.67 96.45 93.46 97.06 C 93.23 96.03 93.05 94.99 92.75 93.99 C 91.52 93.84 90.29 93.74 89.05 93.76 C 88.96 94.06 88.79 94.67 88.70 94.97 C 87.10 92.63 84.91 90.51 82.13 89.70 C 80.51 89.34 78.80 89.19 77.42 88.19 Z" />
</g>
<g id="#5d6567ff">
<path fill="#5d6567" stroke="#5d6567" stroke-width="0.09375" opacity="1.00" d=" M 131.80 83.31 C 133.35 83.34 134.90 83.36 136.46 83.36 C 136.51 83.59 136.61 84.03 136.66 84.26 C 137.72 89.65 136.98 95.23 135.56 100.49 C 133.81 98.42 131.32 96.67 131.31 93.68 C 130.85 93.58 129.94 93.37 129.48 93.27 C 130.28 89.95 131.30 86.69 131.80 83.31 Z" />
</g>
<g id="#757e80ff">
<path fill="#757e80" stroke="#757e80" stroke-width="0.09375" opacity="1.00" d=" M 63.89 84.31 C 66.49 85.23 69.00 86.75 71.86 86.53 C 73.90 86.30 75.71 87.20 77.42 88.19 C 78.80 89.19 80.51 89.34 82.13 89.70 C 80.25 89.54 78.37 89.78 76.63 90.49 C 75.43 90.56 74.08 90.24 73.03 91.00 C 68.86 93.44 64.50 95.65 60.82 98.82 C 59.86 99.58 58.89 100.32 57.93 101.07 C 58.84 95.19 60.41 89.23 63.89 84.31 Z" />
</g>
<g id="#365487ff">
<path fill="#365487" stroke="#365487" stroke-width="0.09375" opacity="1.00" d=" M 177.60 102.02 C 178.52 96.00 178.58 89.89 179.59 83.89 C 180.03 88.94 180.55 93.98 180.80 99.03 C 180.75 100.71 181.33 102.28 182.48 103.51 C 181.09 115.78 176.71 127.52 170.74 138.27 C 168.40 142.29 165.61 146.01 162.79 149.69 C 161.09 147.31 162.99 144.50 161.72 142.12 C 160.50 143.70 159.37 145.96 156.98 145.66 C 151.62 145.53 146.27 147.01 140.95 145.91 C 138.53 145.05 137.48 148.32 135.22 148.13 C 133.91 148.14 132.61 147.93 131.31 147.76 C 148.07 136.05 159.17 116.53 160.19 96.06 C 161.32 95.53 162.67 93.91 163.98 94.97 C 164.86 96.03 165.50 97.27 166.27 98.42 C 168.14 95.51 172.06 95.95 174.97 94.74 C 177.11 96.51 176.88 99.56 177.60 102.02 Z" />
</g>
<g id="#666e71ff">
<path fill="#666e71" stroke="#666e71" stroke-width="0.09375" opacity="1.00" d=" M 142.62 85.13 C 146.34 86.79 150.23 88.02 154.08 89.37 C 154.23 92.98 154.25 96.64 153.65 100.22 C 150.45 97.57 146.01 98.89 142.27 97.92 C 142.76 93.67 142.91 89.40 142.62 85.13 Z" />
</g>
<g id="#6d7779ff">
<path fill="#6d7779" stroke="#6d7779" stroke-width="0.09375" opacity="1.00" d=" M 31.82 87.27 C 35.65 87.51 39.49 87.29 43.31 86.93 C 43.11 89.18 43.00 91.44 42.97 93.70 C 39.23 93.63 35.48 93.61 31.74 93.69 C 31.39 91.56 31.81 89.41 31.82 87.27 Z" />
</g>
<g id="#60686dff">
<path fill="#60686d" stroke="#60686d" stroke-width="0.09375" opacity="1.00" d=" M 48.62 91.42 C 51.02 90.59 53.50 90.50 55.70 92.01 C 54.77 95.29 54.07 98.64 53.43 101.99 C 52.77 104.74 53.10 107.58 52.97 110.38 C 52.34 109.49 51.74 108.59 51.16 107.68 C 48.88 102.58 48.06 96.96 48.62 91.42 Z" />
</g>
<g id="#3c454bff">
<path fill="#3c454b" stroke="#3c454b" stroke-width="0.09375" opacity="1.00" d=" M 73.03 91.00 C 74.08 90.24 75.43 90.56 76.63 90.49 C 73.58 92.44 72.20 95.84 70.69 98.96 C 67.37 98.85 64.07 100.29 60.82 98.82 C 64.50 95.65 68.86 93.44 73.03 91.00 Z" />
</g>
<g id="#5a686bff">
<path fill="#5a686b" stroke="#5a686b" stroke-width="0.09375" opacity="1.00" d=" M 31.74 93.69 C 35.48 93.61 39.23 93.63 42.97 93.70 C 42.93 95.75 43.19 97.78 43.27 99.83 C 40.26 99.38 37.17 99.29 34.22 100.17 C 33.85 99.52 33.48 98.86 33.12 98.19 C 32.93 98.70 32.54 99.72 32.35 100.23 C 31.86 98.08 31.84 95.88 31.74 93.69 Z" />
</g>
<g id="#404649ff">
<path fill="#404649" stroke="#404649" stroke-width="0.09375" opacity="1.00" d=" M 89.05 93.76 C 90.29 93.74 91.52 93.84 92.75 93.99 C 93.05 94.99 93.23 96.03 93.46 97.06 C 93.67 96.45 94.08 95.22 94.28 94.61 C 101.45 96.21 108.68 98.83 116.10 97.50 C 118.40 97.11 119.41 99.76 120.59 101.20 C 116.32 106.32 109.34 109.86 102.61 108.09 C 100.01 106.42 97.72 103.97 94.49 103.61 C 94.38 104.88 94.14 106.10 92.62 106.35 C 92.06 102.34 90.68 98.50 88.70 94.97 C 88.79 94.67 88.96 94.06 89.05 93.76 Z" />
</g>
<g id="#4b5255ff">
<path fill="#4b5255" stroke="#4b5255" stroke-width="0.09375" opacity="1.00" d=" M 129.48 93.27 C 129.94 93.37 130.85 93.58 131.31 93.68 C 131.32 96.67 133.81 98.42 135.56 100.49 C 133.24 110.08 127.32 118.21 120.69 125.31 C 120.61 123.78 121.15 121.80 119.40 121.02 C 120.18 119.11 121.81 117.40 121.70 115.22 C 120.80 113.61 119.09 112.75 117.69 111.65 C 123.84 107.34 127.16 100.18 129.48 93.27 Z" />
</g>
<g id="#525253ff">
<path fill="#525253" stroke="#525253" stroke-width="0.09375" opacity="1.00" d=" M 33.12 98.19 C 33.48 98.86 33.85 99.52 34.22 100.17 C 37.17 99.29 40.26 99.38 43.27 99.83 C 43.95 104.37 44.98 108.94 46.91 113.13 L 47.00 113.34 C 44.48 115.71 42.54 118.58 40.46 121.31 C 36.53 114.85 33.43 107.76 32.35 100.23 C 32.54 99.72 32.93 98.70 33.12 98.19 Z" />
</g>
<g id="#303133ff">
<path fill="#303133" stroke="#303133" stroke-width="0.09375" opacity="1.00" d=" M 60.82 98.82 C 64.07 100.29 67.37 98.85 70.69 98.96 C 67.23 107.76 65.43 117.33 66.62 126.79 C 65.56 127.31 64.52 127.89 63.42 128.34 C 62.50 126.28 61.30 123.43 58.50 124.83 C 56.98 117.80 56.90 110.51 57.63 103.37 C 57.71 102.80 57.86 101.65 57.93 101.07 C 58.89 100.32 59.86 99.58 60.82 98.82 Z" />
</g>
<g id="#515659ff">
<path fill="#515659" stroke="#515659" stroke-width="0.09375" opacity="1.00" d=" M 142.27 97.92 C 146.01 98.89 150.45 97.57 153.65 100.22 C 152.69 106.31 151.23 112.37 148.67 118.00 C 146.33 116.21 143.13 118.00 141.22 115.41 C 140.66 116.48 140.18 117.60 139.65 118.70 C 139.20 117.92 138.79 117.12 138.34 116.35 C 136.69 118.18 134.97 120.02 132.63 120.96 C 137.40 114.06 141.33 106.37 142.27 97.92 Z" />
</g>
<g id="#d0d5e0ff">
<path fill="#d0d5e0" stroke="#d0d5e0" stroke-width="0.09375" opacity="1.00" d=" M 52.97 110.38 C 53.10 107.58 52.77 104.74 53.43 101.99 C 53.63 102.45 54.03 103.38 54.23 103.85 C 55.37 103.74 56.51 103.58 57.63 103.37 C 56.90 110.51 56.98 117.80 58.50 124.83 C 58.93 126.33 58.97 127.95 57.96 129.24 C 53.03 124.98 49.58 119.26 47.00 113.34 L 46.91 113.13 C 48.34 111.33 49.76 109.51 51.16 107.68 C 51.74 108.59 52.34 109.49 52.97 110.38 Z" />
</g>
<g id="#373a3dff">
<path fill="#373a3d" stroke="#373a3d" stroke-width="0.09375" opacity="1.00" d=" M 94.49 103.61 C 97.72 103.97 100.01 106.42 102.61 108.09 C 103.09 112.81 103.12 117.56 102.38 122.26 C 100.72 122.57 99.05 122.34 97.43 121.96 C 97.19 122.29 96.71 122.95 96.48 123.27 C 95.75 122.70 95.10 122.04 94.37 121.49 C 94.03 121.88 93.35 122.67 93.00 123.07 C 93.74 117.52 93.72 111.85 92.62 106.35 C 94.14 106.10 94.38 104.88 94.49 103.61 Z" />
</g>
<g id="#365488ff">
<path fill="#365488" stroke="#365488" stroke-width="0.09375" opacity="1.00" d=" M 3.28 110.81 C 4.26 109.43 5.18 107.99 6.24 106.67 C 6.43 108.29 6.32 109.92 6.31 111.55 C 7.33 111.71 8.39 111.77 9.40 111.52 C 9.82 110.44 10.24 109.36 10.65 108.28 C 11.57 108.01 12.50 107.99 13.43 108.23 C 14.01 109.52 14.45 110.87 14.97 112.19 C 15.77 110.71 16.37 109.14 17.19 107.68 C 18.38 110.81 18.80 114.40 21.14 116.96 C 22.66 114.91 23.50 112.49 24.54 110.19 C 24.84 111.82 25.14 113.45 25.46 115.09 C 25.94 113.33 26.38 111.57 26.74 109.79 C 28.55 116.40 31.39 122.73 34.96 128.57 C 36.11 130.27 37.36 131.89 38.52 133.57 C 36.67 135.03 35.01 136.70 33.30 138.31 C 32.41 137.90 31.59 137.36 30.75 136.87 C 31.31 135.27 31.83 133.60 31.16 131.94 C 30.67 129.68 28.23 128.35 26.04 128.52 C 21.41 127.95 17.60 133.75 20.24 137.75 C 18.45 139.00 16.68 140.29 14.91 141.57 C 8.48 131.71 3.90 120.63 1.79 109.03 L 2.84 109.34 C 2.95 109.71 3.17 110.45 3.28 110.81 Z" />
</g>
<g id="#3b4144ff">
<path fill="#3b4144" stroke="#3b4144" stroke-width="0.09375" opacity="1.00" d=" M 107.56 115.13 C 111.00 114.28 114.74 113.89 117.69 111.65 C 119.09 112.75 120.80 113.61 121.70 115.22 C 121.81 117.40 120.18 119.11 119.40 121.02 C 121.15 121.80 120.61 123.78 120.69 125.31 C 117.17 129.57 113.58 133.86 110.94 138.74 C 110.86 137.68 110.82 136.63 110.71 135.58 C 109.28 136.04 107.84 136.68 106.33 136.10 C 108.56 133.01 111.55 130.17 112.63 126.48 C 109.82 127.79 107.23 129.98 103.98 130.00 C 104.64 124.94 106.54 120.12 107.56 115.13 Z" />
</g>
<g id="#252a2cff">
<path fill="#252a2c" stroke="#252a2c" stroke-width="0.09375" opacity="1.00" d=" M 40.46 121.31 C 42.54 118.58 44.48 115.71 47.00 113.34 C 49.58 119.26 53.03 124.98 57.96 129.24 C 58.97 127.95 58.93 126.33 58.50 124.83 C 61.30 123.43 62.50 126.28 63.42 128.34 C 64.52 127.89 65.56 127.31 66.62 126.79 C 67.27 132.50 68.30 138.48 71.65 143.29 C 72.64 144.79 74.31 146.08 74.33 148.02 C 71.20 148.77 68.17 146.73 65.33 145.62 C 55.23 139.98 46.89 131.43 40.66 121.75 L 40.46 121.31 Z" />
</g>
<g id="#3d4449ff">
<path fill="#3d4449" stroke="#3d4449" stroke-width="0.09375" opacity="1.00" d=" M 141.22 115.41 C 143.13 118.00 146.33 116.21 148.67 118.00 C 146.09 123.31 143.55 129.17 138.43 132.52 C 134.82 134.86 130.30 133.93 126.50 132.64 C 124.52 132.16 125.05 129.39 126.38 128.46 C 128.86 126.31 130.73 123.61 132.63 120.96 C 134.97 120.02 136.69 118.18 138.34 116.35 C 138.79 117.12 139.20 117.92 139.65 118.70 C 140.18 117.60 140.66 116.48 141.22 115.41 Z" />
</g>
<g id="#2a3133ff">
<path fill="#2a3133" stroke="#2a3133" stroke-width="0.09375" opacity="1.00" d=" M 94.37 121.49 C 95.10 122.04 95.75 122.70 96.48 123.27 C 96.71 122.95 97.19 122.29 97.43 121.96 C 99.05 122.34 100.72 122.57 102.38 122.26 C 101.14 130.07 97.91 137.66 92.70 143.66 C 90.91 145.53 89.10 147.54 86.57 148.42 L 86.16 147.85 C 89.49 139.94 91.49 131.52 93.00 123.07 C 93.35 122.67 94.03 121.88 94.37 121.49 Z" />
</g>
<g id="#e6ebe9ff">
</g>
<g id="#f9fafaff">
</g>
<g id="#2f383dff">
<path fill="#2f383d" stroke="#2f383d" stroke-width="0.09375" opacity="1.00" d=" M 112.10 140.55 C 116.01 138.89 118.92 135.40 121.45 132.08 C 122.15 138.16 129.36 138.11 133.99 137.79 C 126.81 143.95 118.42 149.18 109.01 150.97 C 106.68 151.08 103.61 151.15 102.55 148.59 C 101.38 144.15 103.55 139.50 106.33 136.10 C 107.84 136.68 109.28 136.04 110.71 135.58 C 110.82 136.63 110.86 137.68 110.94 138.74 C 110.98 139.16 111.06 140.00 111.11 140.42 L 112.10 140.55 Z" />
</g>
<g id="#3e5e95ff">
<path fill="#3e5e95" stroke="#3e5e95" stroke-width="0.09375" opacity="1.00" d=" M 33.30 138.31 C 35.01 136.70 36.67 135.03 38.52 133.57 C 49.20 147.11 64.90 156.77 82.06 159.16 C 99.15 161.92 117.12 157.59 131.31 147.76 C 132.61 147.93 133.91 148.14 135.22 148.13 C 137.48 148.32 138.53 145.05 140.95 145.91 C 146.27 147.01 151.62 145.53 156.98 145.66 C 159.37 145.96 160.50 143.70 161.72 142.12 C 162.99 144.50 161.09 147.31 162.79 149.69 C 152.58 162.16 139.09 171.93 123.99 177.64 C 105.38 184.30 84.74 185.29 65.75 179.61 C 53.15 175.76 41.18 169.40 31.41 160.51 C 30.65 159.86 29.83 159.29 28.96 158.80 C 25.32 155.62 22.32 151.87 19.31 148.13 C 18.08 145.78 16.27 143.83 14.91 141.57 C 16.68 140.29 18.45 139.00 20.24 137.75 L 20.86 138.20 C 23.69 141.19 28.65 140.21 30.75 136.87 C 31.59 137.36 32.41 137.90 33.30 138.31 Z" />
</g>
<g id="#dae1efff">
<path fill="#dae1ef" stroke="#dae1ef" stroke-width="0.09375" opacity="1.00" d=" M 28.96 158.80 C 29.83 159.29 30.65 159.86 31.41 160.51 C 41.18 169.40 53.15 175.76 65.75 179.61 C 84.74 185.29 105.38 184.30 123.99 177.64 C 123.03 178.83 121.87 179.91 120.35 180.30 C 115.46 181.86 110.41 182.81 105.43 184.00 L 78.42 184.00 C 65.55 181.70 52.94 177.35 41.98 170.13 C 37.21 167.00 31.66 164.06 28.96 158.80 Z" />
</g>
</svg>
