<?xml version="1.0" encoding="UTF-8" ?>
<!DOCTYPE svg PUBLIC "-//W3C//DTD SVG 1.1//EN" "http://www.w3.org/Graphics/SVG/1.1/DTD/svg11.dtd">
<svg width="136pt" height="146pt" viewBox="0 0 136 146" version="1.1" xmlns="http://www.w3.org/2000/svg">
<g id="#ffffffff">
</g>
<g id="#5e6e21ff">
<path fill="#5e6e21" stroke="#5e6e21" stroke-width="0.09375" opacity="1.00" d=" M 63.23 14.19 C 66.94 12.62 71.39 16.02 70.85 20.00 C 70.68 23.94 65.89 26.50 62.49 24.50 C 58.29 22.53 58.77 15.53 63.23 14.19 Z" />
<path fill="#5e6e21" stroke="#5e6e21" stroke-width="0.09375" opacity="1.00" d=" M 31.34 27.38 C 35.37 25.06 40.76 29.12 39.56 33.61 C 38.89 37.74 33.33 39.52 30.28 36.75 C 27.27 34.31 27.87 29.09 31.34 27.38 Z" />
<path fill="#5e6e21" stroke="#5e6e21" stroke-width="0.09375" opacity="1.00" d=" M 94.20 27.18 C 97.97 25.45 102.69 28.88 102.04 33.02 C 101.83 37.24 96.26 39.68 93.01 36.97 C 89.53 34.63 90.26 28.63 94.20 27.18 Z" />
<path fill="#5e6e21" stroke="#5e6e21" stroke-width="0.09375" opacity="1.00" d=" M 107.23 58.32 C 110.88 56.65 115.45 59.96 114.97 63.96 C 114.98 68.35 109.22 70.84 105.88 68.13 C 102.43 65.73 103.22 59.68 107.23 58.32 Z" />
<path fill="#5e6e21" stroke="#5e6e21" stroke-width="0.09375" opacity="1.00" d=" M 31.48 89.69 C 35.71 87.25 41.22 92.09 39.37 96.58 C 38.22 100.73 32.11 101.76 29.58 98.33 C 27.27 95.68 28.30 91.14 31.48 89.69 Z" />
<path fill="#5e6e21" stroke="#5e6e21" stroke-width="0.09375" opacity="1.00" d=" M 94.38 89.46 C 98.39 87.74 103.11 91.80 101.95 96.03 C 101.20 100.04 95.84 101.78 92.77 99.18 C 89.50 96.67 90.38 90.74 94.38 89.46 Z" />
<path fill="#5e6e21" stroke="#5e6e21" stroke-width="0.09375" opacity="1.00" d=" M 63.26 102.34 C 67.23 100.73 71.83 104.66 70.77 108.83 C 70.11 113.09 64.24 114.83 61.26 111.81 C 58.29 109.12 59.41 103.57 63.26 102.34 Z" />
</g>
<g id="#73852bff">
<path fill="#73852b" stroke="#73852b" stroke-width="0.09375" opacity="1.00" d=" M 45.40 15.94 C 47.12 16.72 48.96 17.32 50.47 18.47 C 53.58 23.17 53.71 29.09 53.12 34.51 C 49.21 31.45 45.63 27.66 44.09 22.83 C 43.12 20.47 44.75 18.16 45.40 15.94 Z" />
<path fill="#73852b" stroke="#73852b" stroke-width="0.09375" opacity="1.00" d=" M 79.77 18.74 C 81.14 17.33 83.16 16.81 84.88 15.92 C 85.59 17.65 86.28 19.38 86.97 21.11 C 85.31 26.51 81.88 31.18 77.26 34.44 C 76.64 29.13 76.83 23.38 79.77 18.74 Z" />
<path fill="#73852b" stroke="#73852b" stroke-width="0.09375" opacity="1.00" d=" M 78.11 36.83 C 81.88 33.70 85.36 30.22 87.86 25.96 C 87.45 32.15 85.32 38.20 81.02 42.77 C 79.98 40.83 78.86 38.91 78.11 36.83 Z" />
<path fill="#73852b" stroke="#73852b" stroke-width="0.09375" opacity="1.00" d=" M 54.52 37.80 C 56.82 38.60 59.15 39.33 61.49 40.02 C 60.83 42.87 59.95 45.66 58.90 48.38 C 56.21 47.21 53.60 45.86 51.10 44.32 C 52.28 42.17 53.43 40.00 54.52 37.80 Z" />
<path fill="#73852b" stroke="#73852b" stroke-width="0.09375" opacity="1.00" d=" M 68.85 40.01 C 71.21 39.33 73.55 38.60 75.87 37.81 C 76.96 40.00 78.11 42.17 79.29 44.31 C 76.90 45.78 74.47 47.27 71.77 48.15 C 70.08 45.75 69.62 42.78 68.85 40.01 Z" />
<path fill="#73852b" stroke="#73852b" stroke-width="0.09375" opacity="1.00" d=" M 27.64 40.89 C 33.79 41.38 39.78 43.52 44.33 47.78 C 42.36 48.85 40.36 49.87 38.34 50.86 C 35.53 46.79 31.73 43.61 27.64 40.89 Z" />
<path fill="#73852b" stroke="#73852b" stroke-width="0.09375" opacity="1.00" d=" M 86.11 47.70 C 90.67 43.49 96.65 41.39 102.76 40.89 C 98.68 43.62 94.85 46.78 92.07 50.89 C 90.05 49.87 88.06 48.82 86.11 47.70 Z" />
<path fill="#73852b" stroke="#73852b" stroke-width="0.09375" opacity="1.00" d=" M 17.45 43.83 C 19.24 43.20 20.99 42.34 22.89 42.12 C 28.35 43.27 32.78 47.16 35.99 51.57 C 30.58 52.18 24.67 51.98 20.02 48.82 C 18.86 47.33 18.26 45.51 17.45 43.83 Z" />
<path fill="#73852b" stroke="#73852b" stroke-width="0.09375" opacity="1.00" d=" M 94.41 51.59 C 97.55 47.25 101.84 43.45 107.17 42.18 C 109.20 42.06 111.04 43.23 112.93 43.86 C 111.80 45.96 111.34 48.90 108.80 49.79 C 104.35 52.00 99.25 52.11 94.41 51.59 Z" />
<path fill="#73852b" stroke="#73852b" stroke-width="0.09375" opacity="1.00" d=" M 39.35 52.88 C 41.53 51.83 43.66 50.64 45.90 49.72 C 47.65 52.00 48.79 54.66 49.95 57.27 C 47.24 58.35 44.45 59.21 41.63 59.97 C 40.93 57.59 40.18 55.22 39.35 52.88 Z" />
<path fill="#73852b" stroke="#73852b" stroke-width="0.09375" opacity="1.00" d=" M 22.72 74.16 C 27.22 69.91 33.07 67.44 39.25 67.13 C 38.61 69.28 37.92 71.41 37.20 73.54 C 32.38 72.74 27.46 72.99 22.72 74.16 Z" />
<path fill="#73852b" stroke="#73852b" stroke-width="0.09375" opacity="1.00" d=" M 39.37 74.31 C 40.18 71.97 40.91 69.62 41.60 67.26 C 44.43 67.98 47.23 68.84 49.95 69.91 C 48.78 72.59 47.44 75.18 45.96 77.70 C 43.80 76.51 41.61 75.36 39.37 74.31 Z" />
<path fill="#73852b" stroke="#73852b" stroke-width="0.09375" opacity="1.00" d=" M 80.44 69.87 C 83.15 68.83 85.93 67.99 88.74 67.28 C 89.48 69.65 90.23 72.00 91.03 74.35 C 88.80 75.39 86.61 76.51 84.43 77.66 C 82.93 75.16 81.59 72.56 80.44 69.87 Z" />
<path fill="#73852b" stroke="#73852b" stroke-width="0.09375" opacity="1.00" d=" M 91.21 67.10 C 97.39 67.44 103.17 69.99 107.72 74.14 C 102.95 72.89 98.04 73.00 93.17 73.35 C 92.32 71.34 91.80 69.20 91.21 67.10 Z" />
<path fill="#73852b" stroke="#73852b" stroke-width="0.09375" opacity="1.00" d=" M 72.77 76.75 C 74.59 74.84 76.45 72.97 78.34 71.13 C 79.68 73.93 81.18 76.65 82.86 79.26 C 82.18 79.91 81.50 80.55 80.82 81.20 C 78.24 79.54 75.53 78.08 72.77 76.75 Z" />
<path fill="#73852b" stroke="#73852b" stroke-width="0.09375" opacity="1.00" d=" M 94.35 75.71 C 99.80 74.91 105.84 75.24 110.49 78.47 C 111.53 79.96 112.16 81.69 112.95 83.33 C 111.29 83.96 109.65 84.70 107.90 85.06 C 102.22 84.24 97.78 80.04 94.35 75.71 Z" />
<path fill="#73852b" stroke="#73852b" stroke-width="0.09375" opacity="1.00" d=" M 20.18 78.26 C 24.81 75.27 30.67 74.89 36.00 75.71 C 33.04 79.56 29.33 83.03 24.65 84.62 C 22.20 85.78 19.74 84.05 17.42 83.36 C 18.29 81.64 18.88 79.71 20.18 78.26 Z" />
<path fill="#73852b" stroke="#73852b" stroke-width="0.09375" opacity="1.00" d=" M 27.62 86.20 C 31.79 83.62 35.51 80.36 38.37 76.34 C 40.38 77.33 42.37 78.35 44.34 79.42 C 39.78 83.64 33.80 85.92 27.62 86.20 Z" />
<path fill="#73852b" stroke="#73852b" stroke-width="0.09375" opacity="1.00" d=" M 51.08 82.92 C 53.57 81.34 56.20 79.98 58.90 78.79 C 59.96 81.54 60.84 84.35 61.51 87.22 C 59.16 87.89 56.82 88.60 54.50 89.39 C 53.43 87.20 52.28 85.04 51.08 82.92 Z" />
<path fill="#73852b" stroke="#73852b" stroke-width="0.09375" opacity="1.00" d=" M 71.49 78.84 C 74.19 80.00 76.81 81.35 79.32 82.89 C 78.12 85.03 76.96 87.19 75.86 89.38 C 73.55 88.59 71.22 87.88 68.87 87.22 C 69.56 84.38 70.43 81.57 71.49 78.84 Z" />
<path fill="#73852b" stroke="#73852b" stroke-width="0.09375" opacity="1.00" d=" M 42.67 101.07 C 42.83 94.90 45.17 88.95 49.42 84.47 C 50.46 86.44 51.46 88.42 52.43 90.43 C 48.43 93.22 45.22 96.93 42.67 101.07 Z" />
<path fill="#73852b" stroke="#73852b" stroke-width="0.09375" opacity="1.00" d=" M 77.95 90.42 C 78.94 88.40 79.97 86.40 81.03 84.42 C 85.34 89.01 87.44 95.05 87.86 101.26 C 85.26 97.05 82.04 93.24 77.95 90.42 Z" />
<path fill="#73852b" stroke="#73852b" stroke-width="0.09375" opacity="1.00" d=" M 44.18 104.13 C 45.71 99.40 49.28 95.74 53.11 92.74 C 53.71 98.12 53.57 103.98 50.52 108.66 C 49.00 109.89 47.10 110.49 45.36 111.31 C 44.73 108.99 43.04 106.55 44.18 104.13 Z" />
<path fill="#73852b" stroke="#73852b" stroke-width="0.09375" opacity="1.00" d=" M 77.26 92.80 C 81.91 95.98 85.25 100.69 86.97 106.02 C 86.28 107.79 85.59 109.56 84.86 111.31 C 83.13 110.39 81.09 109.85 79.72 108.39 C 76.84 103.76 76.64 98.07 77.26 92.80 Z" />
</g>
<g id="#72852bff">
<path fill="#72852b" stroke="#72852b" stroke-width="0.09375" opacity="1.00" d=" M 54.54 20.98 C 58.69 25.57 61.43 31.34 61.59 37.60 C 59.47 37.00 57.35 36.36 55.25 35.67 C 56.17 30.77 55.79 25.79 54.54 20.98 Z" />
<path fill="#72852b" stroke="#72852b" stroke-width="0.09375" opacity="1.00" d=" M 47.58 79.31 C 49.22 76.69 50.69 73.98 51.98 71.18 C 53.93 72.93 55.79 74.78 57.58 76.70 C 54.84 78.08 52.14 79.55 49.55 81.21 C 48.89 80.58 48.24 79.94 47.58 79.31 Z" />
<path fill="#72852b" stroke="#72852b" stroke-width="0.09375" opacity="1.00" d=" M 86.13 79.41 C 88.09 78.33 90.08 77.31 92.10 76.35 C 94.84 80.43 98.64 83.58 102.76 86.20 C 96.62 85.87 90.61 83.70 86.13 79.41 Z" />
</g>
<g id="#73852dff">
<path fill="#73852d" stroke="#73852d" stroke-width="0.09375" opacity="1.00" d=" M 68.72 37.63 C 69.02 31.46 71.57 25.65 75.75 21.13 C 74.67 25.89 74.37 30.80 75.13 35.63 C 73.01 36.35 70.87 37.02 68.72 37.63 Z" />
</g>
<g id="#73842bff">
<path fill="#73842b" stroke="#73842b" stroke-width="0.09375" opacity="1.00" d=" M 42.66 26.09 C 45.19 30.30 48.48 33.98 52.49 36.83 C 51.47 38.81 50.41 40.78 49.29 42.71 C 45.17 38.14 42.81 32.25 42.66 26.09 Z" />
<path fill="#73842b" stroke="#73842b" stroke-width="0.09375" opacity="1.00" d=" M 80.43 57.31 C 81.60 54.62 82.94 52.02 84.47 49.52 C 86.64 50.70 88.83 51.84 91.04 52.93 C 90.22 55.25 89.46 57.60 88.71 59.95 C 85.90 59.20 83.13 58.35 80.43 57.31 Z" />
</g>
<g id="#73852cff">
<path fill="#73852c" stroke="#73852c" stroke-width="0.09375" opacity="1.00" d=" M 63.79 40.13 C 64.71 40.09 65.63 40.05 66.55 40.01 C 67.22 43.03 68.10 45.99 69.14 48.90 C 66.52 48.99 63.89 49.05 61.27 49.08 C 62.24 46.13 63.11 43.16 63.79 40.13 Z" />
<path fill="#73852c" stroke="#73852c" stroke-width="0.09375" opacity="1.00" d=" M 22.69 53.05 C 27.46 54.17 32.38 54.47 37.22 53.67 C 37.92 55.78 38.60 57.90 39.22 60.04 C 33.03 59.81 27.23 57.21 22.69 53.05 Z" />
<path fill="#73852c" stroke="#73852c" stroke-width="0.09375" opacity="1.00" d=" M 93.09 53.69 C 97.97 54.45 102.92 54.15 107.73 53.08 C 103.17 57.20 97.39 59.73 91.24 60.11 C 91.82 57.96 92.44 55.82 93.09 53.69 Z" />
<path fill="#73852c" stroke="#73852c" stroke-width="0.09375" opacity="1.00" d=" M 79.88 59.63 C 82.80 60.68 85.77 61.58 88.80 62.27 C 88.79 62.93 88.78 64.26 88.78 64.92 C 85.77 65.64 82.80 66.52 79.89 67.58 C 79.83 64.93 79.83 62.28 79.88 59.63 Z" />
<path fill="#73852c" stroke="#73852c" stroke-width="0.09375" opacity="1.00" d=" M 61.25 78.22 C 63.89 78.18 66.52 78.18 69.16 78.23 C 68.07 81.30 67.17 84.43 66.41 87.59 C 65.79 87.35 64.56 86.86 63.94 86.62 C 62.86 83.89 62.21 81.00 61.25 78.22 Z" />
</g>
<g id="#72842bff">
<path fill="#72842b" stroke="#72842b" stroke-width="0.09375" opacity="1.00" d=" M 47.56 47.92 C 48.22 47.27 48.88 46.61 49.54 45.96 C 52.13 47.63 54.83 49.11 57.59 50.49 C 55.79 52.40 53.93 54.25 51.99 56.01 C 50.70 53.22 49.22 50.51 47.56 47.92 Z" />
<path fill="#72842b" stroke="#72842b" stroke-width="0.09375" opacity="1.00" d=" M 72.78 50.46 C 75.56 49.11 78.28 47.65 80.86 45.96 C 81.53 46.62 82.19 47.28 82.86 47.94 C 81.16 50.52 79.68 53.25 78.36 56.05 C 76.44 54.24 74.58 52.37 72.78 50.46 Z" />
<path fill="#72842b" stroke="#72842b" stroke-width="0.09375" opacity="1.00" d=" M 55.41 91.63 C 57.39 90.71 59.51 90.16 61.59 89.54 C 61.44 95.81 58.72 101.64 54.53 106.23 C 55.86 101.46 55.96 96.53 55.41 91.63 Z" />
</g>
<g id="#98ac3bff">
<path fill="#98ac3b" stroke="#98ac3b" stroke-width="0.09375" opacity="1.00" d=" M 52.64 58.30 C 55.32 56.15 57.75 53.71 59.92 51.05 C 63.44 51.29 66.97 51.29 70.49 51.05 C 72.64 53.76 75.11 56.20 77.81 58.35 C 77.43 61.84 77.43 65.35 77.82 68.83 C 75.11 71.03 72.64 73.48 70.41 76.16 C 66.91 75.87 63.40 75.87 59.91 76.15 C 57.76 73.46 55.31 71.01 52.62 68.85 C 52.94 65.34 52.94 61.81 52.64 58.30 Z" />
</g>
<g id="#5e6f21ff">
<path fill="#5e6f21" stroke="#5e6f21" stroke-width="0.09375" opacity="1.00" d=" M 19.26 58.22 C 23.52 56.51 28.26 61.34 26.40 65.57 C 25.16 69.54 19.30 70.53 16.75 67.29 C 14.15 64.44 15.52 59.28 19.26 58.22 Z" />
</g>
<g id="#73842cff">
<path fill="#73842c" stroke="#73842c" stroke-width="0.09375" opacity="1.00" d=" M 41.69 62.26 C 44.68 61.56 47.61 60.66 50.51 59.65 C 50.62 62.29 50.63 64.93 50.55 67.57 C 47.65 66.55 44.71 65.65 41.72 64.93 C 41.71 64.27 41.70 62.93 41.69 62.26 Z" />
</g>
<g id="#73852eff">
<path fill="#73852e" stroke="#73852e" stroke-width="0.09375" opacity="1.00" d=" M 68.72 89.56 C 70.87 90.17 73.01 90.85 75.14 91.57 C 74.36 96.41 74.68 101.33 75.77 106.10 C 71.61 101.55 69.01 95.75 68.72 89.56 Z" />
</g>
<g id="#565657ff">
<path fill="#565657" stroke="#565657" stroke-width="0.09375" opacity="1.00" d=" M 17.28 126.14 C 17.69 126.09 18.52 125.98 18.93 125.93 C 19.43 127.46 19.94 128.98 20.42 130.52 C 21.48 129.16 21.37 125.78 23.49 126.01 C 24.24 127.41 24.83 128.88 25.42 130.35 C 26.17 128.47 27.04 126.62 28.42 125.11 C 28.09 128.08 27.05 130.92 25.65 133.55 C 24.31 132.28 23.75 130.46 22.93 128.86 C 22.30 130.34 21.72 131.85 20.98 133.28 C 18.48 132.05 18.49 128.44 17.28 126.14 Z" />
<path fill="#565657" stroke="#565657" stroke-width="0.09375" opacity="1.00" d=" M 70.16 133.03 C 70.26 130.37 69.99 127.56 71.28 125.13 C 71.54 126.09 72.05 127.99 72.30 128.95 C 73.42 128.95 74.55 128.95 75.67 128.96 C 75.92 127.99 76.42 126.06 76.67 125.09 C 77.78 127.58 77.55 130.35 77.65 133.01 C 77.22 133.02 76.35 133.04 75.91 133.05 C 75.94 132.32 75.98 130.85 76.01 130.12 C 74.68 130.11 73.35 130.10 72.02 130.09 C 72.02 130.82 72.02 132.29 72.03 133.02 C 71.56 133.02 70.63 133.03 70.16 133.03 Z" />
</g>
<g id="#676767ff">
<path fill="#676767" stroke="#676767" stroke-width="0.09375" opacity="1.00" d=" M 30.08 126.87 C 32.11 127.05 34.16 127.24 36.14 127.74 C 35.11 127.94 33.04 128.34 32.00 128.53 C 32.00 128.79 32.00 129.30 32.00 129.55 C 32.53 129.51 33.58 129.42 34.11 129.38 L 34.04 130.58 C 33.20 130.90 31.53 131.55 30.69 131.88 C 33.09 131.98 35.50 132.04 37.90 132.10 L 36.61 131.83 C 37.53 129.98 38.46 128.14 39.47 126.33 C 40.82 128.53 41.97 130.84 43.17 133.13 C 41.39 132.70 39.48 131.61 37.71 132.75 C 35.13 133.03 32.54 133.06 29.95 133.09 C 29.97 131.01 30.00 128.94 30.08 126.87 M 39.09 129.22 C 37.53 132.24 42.35 129.44 39.09 129.22 Z" />
<path fill="#676767" stroke="#676767" stroke-width="0.09375" opacity="1.00" d=" M 107.88 127.00 L 109.06 126.97 C 109.15 127.76 109.32 129.33 109.41 130.12 C 111.24 129.51 112.58 128.22 113.59 126.60 C 113.93 128.96 114.02 131.35 114.07 133.73 C 113.27 132.86 112.50 131.97 111.76 131.06 C 111.09 131.04 109.76 130.99 109.10 130.97 C 109.11 131.49 109.14 132.54 109.15 133.06 L 107.85 133.00 C 107.87 131.00 107.87 129.00 107.88 127.00 Z" />
</g>
<g id="#686869ff">
<path fill="#686869" stroke="#686869" stroke-width="0.09375" opacity="1.00" d=" M 44.55 126.22 C 45.96 127.83 46.00 130.00 46.27 132.01 C 47.51 131.98 48.75 131.95 49.99 131.92 L 50.03 133.04 C 48.00 133.03 45.97 133.02 43.95 133.02 C 44.05 130.75 44.20 128.47 44.55 126.22 Z" />
</g>
<g id="#898989ff">
<path fill="#898989" stroke="#898989" stroke-width="0.09375" opacity="1.00" d=" M 49.42 127.50 C 52.50 126.85 55.65 126.99 58.78 127.09 C 59.03 127.67 59.52 128.84 59.77 129.43 C 61.61 129.38 62.64 127.58 64.02 126.62 C 64.01 128.76 64.01 130.90 64.02 133.05 C 63.56 133.05 62.64 133.04 62.18 133.04 C 62.19 132.53 62.20 131.51 62.21 131.00 C 61.53 131.00 60.17 131.00 59.49 131.00 C 59.20 131.76 58.62 133.28 58.33 134.04 C 57.99 132.35 57.87 130.63 57.74 128.92 C 56.52 128.83 55.30 128.73 54.08 128.61 C 54.07 130.46 54.00 132.31 53.85 134.16 C 52.94 132.48 52.72 130.58 52.38 128.74 C 51.64 128.43 50.16 127.81 49.42 127.50 Z" />
</g>
<g id="#606060ff">
<path fill="#606060" stroke="#606060" stroke-width="0.09375" opacity="1.00" d=" M 79.99 127.18 C 81.68 127.12 83.38 127.07 85.07 127.02 L 85.13 128.16 C 83.59 128.36 82.05 128.56 80.51 128.82 C 81.89 129.23 83.28 129.64 84.66 130.04 C 83.34 130.61 82.02 131.18 80.69 131.75 C 82.09 131.89 84.88 132.16 86.28 132.30 C 84.28 133.17 82.10 133.05 79.98 133.18 C 79.99 131.18 79.99 129.18 79.99 127.18 Z" />
</g>
<g id="#646465ff">
<path fill="#646465" stroke="#646465" stroke-width="0.09375" opacity="1.00" d=" M 89.43 126.34 C 90.80 128.52 91.96 130.83 93.17 133.12 C 90.83 132.10 88.36 131.94 86.03 133.07 C 87.14 130.82 88.23 128.55 89.43 126.34 M 89.08 129.23 C 87.55 132.25 92.35 129.41 89.08 129.23 Z" />
</g>
<g id="#696969ff">
<path fill="#696969" stroke="#696969" stroke-width="0.09375" opacity="1.00" d=" M 94.56 126.22 C 95.96 127.84 96.00 130.00 96.28 132.01 C 97.51 131.98 98.75 131.95 100.00 131.92 L 100.02 133.04 C 97.99 133.03 95.96 133.03 93.94 133.03 C 94.05 130.75 94.21 128.47 94.56 126.22 Z" />
</g>
<g id="#858585ff">
<path fill="#858585" stroke="#858585" stroke-width="0.09375" opacity="1.00" d=" M 99.31 127.51 C 101.57 127.15 103.85 126.94 106.13 126.77 L 106.18 128.50 C 105.67 128.47 104.66 128.41 104.15 128.38 C 104.08 130.30 104.01 132.22 103.78 134.13 C 102.97 132.43 102.63 130.56 102.25 128.73 C 101.52 128.43 100.04 127.81 99.31 127.51 Z" />
</g>
<g id="#d6d6d6ff">
<path fill="#d6d6d6" stroke="#d6d6d6" stroke-width="0.09375" opacity="1.00" d=" M 39.09 129.22 C 42.35 129.44 37.53 132.24 39.09 129.22 Z" />
<path fill="#d6d6d6" stroke="#d6d6d6" stroke-width="0.09375" opacity="1.00" d=" M 89.08 129.23 C 92.35 129.41 87.55 132.25 89.08 129.23 Z" />
</g>
</svg>
