<?xml version="1.0" encoding="UTF-8" ?>
<!DOCTYPE svg PUBLIC "-//W3C//DTD SVG 1.1//EN" "http://www.w3.org/Graphics/SVG/1.1/DTD/svg11.dtd">
<svg width="136pt" height="146pt" viewBox="0 0 136 146" version="1.1" xmlns="http://www.w3.org/2000/svg">
<g id="#ffffffff">
<path fill="#ffffff" stroke="#ffffff" stroke-width="0.09375" opacity="1.00" d=" M 0.00 0.00 L 136.00 0.00 L 136.00 146.00 L 0.00 146.00 L 0.00 0.00 M 63.18 14.21 C 58.76 15.59 58.31 22.53 62.49 24.50 C 65.87 26.50 70.64 23.96 70.85 20.04 C 71.42 16.03 66.91 12.58 63.18 14.21 M 45.34 16.03 C 44.70 18.25 43.07 20.56 44.10 22.90 C 45.69 27.63 49.12 31.47 53.07 34.39 C 53.79 29.00 53.50 23.14 50.47 18.45 C 48.99 17.24 47.09 16.75 45.34 16.03 M 79.78 18.70 C 76.90 23.32 76.59 29.01 77.24 34.28 C 82.02 31.26 85.34 26.42 86.96 21.04 C 86.27 19.35 85.59 17.67 84.90 15.99 C 83.18 16.84 81.11 17.25 79.78 18.70 M 54.47 21.03 C 55.84 25.81 56.20 30.80 55.23 35.69 C 57.32 36.36 59.43 36.99 61.55 37.58 C 61.44 31.34 58.74 25.50 54.47 21.03 M 68.77 37.57 C 70.85 37.03 72.96 36.54 74.91 35.61 C 74.70 30.84 74.46 26.02 75.77 21.35 C 71.39 25.60 69.06 31.52 68.77 37.57 M 78.09 36.84 C 78.85 38.88 79.95 40.78 81.00 42.68 C 85.38 38.22 87.50 32.13 87.78 25.97 C 85.38 30.29 81.87 33.73 78.09 36.84 M 31.30 27.40 C 27.86 29.13 27.29 34.33 30.29 36.75 C 33.34 39.53 38.92 37.72 39.56 33.58 C 40.75 29.09 35.32 25.03 31.30 27.40 M 42.82 26.53 C 42.87 32.53 45.15 38.50 49.56 42.63 C 50.54 40.69 51.50 38.74 52.46 36.78 C 48.55 34.07 45.43 30.47 42.82 26.53 M 94.21 27.17 C 90.28 28.62 89.53 34.58 92.98 36.94 C 96.20 39.68 101.79 37.28 102.03 33.06 C 102.73 28.92 97.99 25.45 94.21 27.17 M 54.51 37.78 C 53.45 39.98 52.30 42.13 51.10 44.26 C 53.55 45.87 56.16 47.22 58.88 48.33 C 60.00 45.64 60.88 42.86 61.44 39.99 C 59.11 39.32 56.80 38.59 54.51 37.78 M 68.90 39.99 C 69.55 42.77 70.37 45.51 71.32 48.20 C 74.19 47.34 76.85 45.94 79.30 44.22 C 78.08 42.11 76.94 39.97 75.86 37.80 C 73.56 38.60 71.24 39.32 68.90 39.99 M 63.69 40.20 C 63.15 43.17 62.32 46.09 61.20 48.90 C 63.87 49.02 66.55 49.03 69.22 48.90 C 68.07 46.03 67.19 43.07 66.61 40.03 C 65.64 40.08 64.66 40.14 63.69 40.20 M 27.69 41.00 C 31.77 43.63 35.58 46.74 38.25 50.86 C 40.27 49.90 42.27 48.90 44.25 47.85 C 39.87 43.46 33.80 41.34 27.69 41.00 M 86.13 47.57 C 88.03 48.84 90.05 49.92 92.12 50.89 C 94.80 46.75 98.65 43.63 102.75 40.98 C 96.63 41.28 90.77 43.56 86.13 47.57 M 17.53 43.87 C 18.34 45.55 18.80 47.49 20.08 48.89 C 24.73 51.91 30.55 52.23 35.91 51.56 C 32.81 47.06 28.28 43.31 22.86 42.09 C 20.98 42.29 19.28 43.22 17.53 43.87 M 94.42 51.42 C 99.87 52.38 105.89 51.88 110.56 48.71 C 111.53 47.21 112.15 45.52 112.86 43.89 C 111.00 43.24 109.18 41.97 107.16 42.18 C 101.88 43.46 97.65 47.21 94.42 51.42 M 49.41 45.91 C 48.95 46.43 48.03 47.47 47.58 48.00 C 49.27 50.54 50.73 53.23 51.98 56.02 C 53.95 54.26 55.82 52.39 57.58 50.41 C 54.76 49.10 52.03 47.60 49.41 45.91 M 72.78 50.36 C 74.53 52.38 76.42 54.27 78.47 55.98 C 79.64 53.22 81.24 50.69 82.64 48.05 C 82.15 47.27 81.64 46.51 81.09 45.77 C 78.49 47.59 75.69 49.09 72.78 50.36 M 39.29 52.96 C 40.19 55.23 40.94 57.56 41.58 59.91 C 44.43 59.25 47.24 58.40 49.93 57.25 C 48.79 54.57 47.45 51.99 45.94 49.51 C 43.75 50.71 41.54 51.86 39.29 52.96 M 80.46 57.25 C 83.13 58.40 85.93 59.26 88.77 59.90 C 89.48 57.56 90.23 55.23 91.05 52.93 C 88.85 51.86 86.69 50.73 84.56 49.52 C 82.94 51.95 81.59 54.55 80.46 57.25 M 52.62 58.18 C 52.99 61.73 52.99 65.31 52.55 68.86 C 55.33 70.96 57.80 73.42 59.89 76.21 C 63.38 75.81 66.91 75.80 70.41 76.23 C 72.58 73.46 75.09 70.97 77.89 68.83 C 77.36 65.35 77.36 61.81 77.87 58.33 C 75.10 56.25 72.62 53.81 70.55 51.03 C 67.01 51.33 63.45 51.34 59.92 50.96 C 57.85 53.70 55.44 56.19 52.62 58.18 M 22.83 53.02 C 27.19 57.31 33.05 59.80 39.17 59.99 C 38.58 57.85 37.90 55.73 37.18 53.62 C 32.40 54.50 27.52 54.22 22.83 53.02 M 93.10 53.67 C 92.45 55.76 91.82 57.87 91.23 59.98 C 97.37 59.82 103.23 57.28 107.62 53.01 C 102.87 54.22 97.94 54.48 93.10 53.67 M 19.26 58.22 C 15.83 59.20 14.28 63.73 16.29 66.66 C 18.49 70.55 25.09 69.85 26.41 65.56 C 28.25 61.33 23.52 56.51 19.26 58.22 M 107.19 58.34 C 103.19 59.73 102.44 65.80 105.93 68.16 C 109.27 70.83 114.99 68.32 114.97 63.95 C 115.45 59.94 110.84 56.63 107.19 58.34 M 41.72 62.19 C 41.72 62.89 41.72 64.28 41.72 64.97 C 44.71 65.61 47.63 66.51 50.47 67.61 C 50.66 64.95 50.65 62.28 50.43 59.62 C 47.59 60.70 44.69 61.60 41.72 62.19 M 79.88 59.61 C 79.79 62.28 79.83 64.97 80.09 67.64 C 82.89 66.44 85.80 65.58 88.78 64.98 C 88.77 64.29 88.77 62.90 88.76 62.20 C 85.73 61.61 82.77 60.69 79.88 59.61 M 22.87 74.17 C 27.54 72.97 32.40 72.68 37.14 73.60 C 37.89 71.49 38.59 69.36 39.24 67.22 C 33.12 67.39 27.20 69.81 22.87 74.17 M 39.38 74.30 C 41.55 75.31 43.67 76.45 45.71 77.71 C 47.44 75.33 48.80 72.71 49.91 69.99 C 47.24 68.77 44.42 67.92 41.55 67.30 C 40.90 69.66 40.18 71.99 39.38 74.30 M 80.50 69.90 C 81.56 72.63 82.91 75.24 84.56 77.67 C 86.65 76.48 88.79 75.38 90.99 74.41 C 90.24 72.06 89.51 69.71 88.84 67.34 C 85.98 67.94 83.19 68.77 80.50 69.90 M 91.25 67.13 C 91.83 69.28 92.46 71.42 93.11 73.54 C 97.87 72.75 102.72 72.95 107.41 74.10 C 103.15 69.74 97.27 67.50 91.25 67.13 M 47.58 79.21 C 48.05 79.73 48.99 80.76 49.46 81.28 C 52.04 79.56 54.76 78.08 57.58 76.79 C 55.83 74.80 53.95 72.93 51.96 71.17 C 50.73 73.97 49.28 76.67 47.58 79.21 M 72.78 76.82 C 75.55 78.03 78.22 79.46 80.66 81.24 C 81.41 80.56 82.16 79.88 82.91 79.19 C 81.12 76.66 79.63 73.93 78.36 71.10 C 76.44 72.95 74.57 74.84 72.78 76.82 M 94.51 75.74 C 97.39 79.78 101.32 83.18 106.10 84.73 C 108.45 85.77 110.70 84.00 112.89 83.31 C 112.14 81.67 111.55 79.94 110.52 78.46 C 105.87 75.34 99.91 74.83 94.51 75.74 M 20.16 78.24 C 18.85 79.65 18.33 81.59 17.49 83.29 C 19.77 84.09 22.25 85.88 24.70 84.61 C 29.29 82.96 33.11 79.68 35.88 75.72 C 30.58 74.82 24.80 75.36 20.16 78.24 M 27.72 86.12 C 33.86 85.95 39.86 83.67 44.28 79.36 C 42.30 78.30 40.28 77.29 38.24 76.36 C 35.58 80.44 31.82 83.57 27.72 86.12 M 86.17 79.23 C 90.43 83.81 96.64 85.87 102.76 86.13 C 98.63 83.60 94.82 80.49 92.18 76.36 C 90.16 77.28 88.16 78.24 86.17 79.23 M 61.19 78.26 C 62.31 81.15 63.16 84.13 63.82 87.16 C 64.53 87.14 65.93 87.11 66.63 87.09 C 67.21 84.07 68.10 81.12 69.16 78.23 C 66.50 78.18 63.84 78.19 61.19 78.26 M 51.07 83.00 C 52.32 85.09 53.48 87.23 54.53 89.43 C 56.81 88.59 59.13 87.89 61.47 87.24 C 60.89 84.37 60.01 81.57 58.87 78.87 C 56.13 79.96 53.51 81.33 51.07 83.00 M 71.39 78.96 C 70.35 81.67 69.51 84.45 68.97 87.30 C 71.29 87.91 73.60 88.60 75.87 89.38 C 76.95 87.21 78.10 85.07 79.30 82.96 C 76.84 81.29 74.21 79.90 71.39 78.96 M 49.30 84.51 C 45.36 88.92 42.79 94.55 42.82 100.54 C 45.54 96.75 48.48 93.07 52.44 90.51 C 51.50 88.45 50.47 86.44 49.30 84.51 M 77.96 90.53 C 82.11 93.21 85.26 97.04 87.79 101.23 C 87.46 95.07 85.43 88.94 80.97 84.52 C 79.91 86.50 78.91 88.50 77.96 90.53 M 31.46 89.71 C 28.27 91.17 27.28 95.73 29.61 98.36 C 32.16 101.78 38.26 100.70 39.39 96.54 C 41.19 92.05 35.67 87.24 31.46 89.71 M 94.37 89.46 C 90.39 90.75 89.49 96.67 92.78 99.19 C 95.87 101.81 101.28 99.99 101.97 95.94 C 103.03 91.73 98.36 87.76 94.37 89.46 M 55.39 91.61 C 55.95 96.48 55.97 101.41 54.44 106.13 C 58.81 101.73 61.42 95.81 61.55 89.59 C 59.46 90.17 57.36 90.71 55.39 91.61 M 68.78 89.59 C 68.98 95.74 71.55 101.57 75.77 106.01 C 74.68 101.29 74.31 96.41 75.20 91.62 C 73.09 90.86 70.95 90.18 68.78 89.59 M 44.19 104.07 C 42.99 106.46 44.67 108.89 45.32 111.18 C 47.09 110.43 49.09 109.98 50.54 108.65 C 53.50 103.99 53.79 98.18 53.07 92.85 C 49.18 95.70 45.77 99.43 44.19 104.07 M 77.28 92.88 C 76.55 98.30 76.89 104.25 80.07 108.88 C 81.55 109.89 83.26 110.51 84.89 111.24 C 85.60 109.52 86.28 107.79 86.96 106.06 C 85.28 100.73 81.98 95.98 77.28 92.88 M 63.31 102.32 C 59.44 103.52 58.28 109.06 61.23 111.78 C 64.17 114.82 70.04 113.13 70.75 108.91 C 71.87 104.73 67.30 100.75 63.31 102.32 M 17.22 126.19 C 18.32 128.73 18.81 131.70 20.97 133.62 C 21.65 132.02 22.27 130.39 22.90 128.77 C 23.91 130.11 23.82 132.93 25.87 133.16 C 26.95 130.97 27.72 128.65 28.60 126.38 C 28.22 126.25 27.46 125.98 27.07 125.85 C 26.57 127.42 26.06 128.99 25.61 130.58 C 24.96 129.05 24.33 127.51 23.51 126.06 C 21.33 125.67 21.45 129.23 20.37 130.57 C 19.92 129.01 19.43 127.47 18.94 125.93 C 18.51 125.99 17.65 126.12 17.22 126.19 M 70.22 133.01 C 70.67 133.02 71.58 133.03 72.03 133.03 C 72.02 132.30 72.01 130.83 72.01 130.10 C 73.34 130.10 74.66 130.11 75.99 130.11 C 75.97 130.86 75.94 132.35 75.92 133.10 C 76.34 133.06 77.18 132.97 77.60 132.92 C 77.56 130.64 77.55 128.36 77.55 126.07 C 77.18 126.04 76.43 125.98 76.06 125.94 C 76.03 126.69 75.95 128.18 75.92 128.93 C 74.65 128.93 73.39 128.93 72.12 128.94 C 72.04 128.10 71.87 126.42 71.79 125.59 C 69.04 126.90 70.69 130.61 70.22 133.01 M 30.03 127.15 C 30.00 129.11 29.98 131.08 29.96 133.05 C 32.53 133.04 35.10 133.01 37.66 132.84 C 39.20 130.97 41.33 132.80 43.09 133.25 C 42.03 130.88 41.01 128.46 39.33 126.46 C 38.44 128.09 37.58 129.72 36.70 131.36 L 37.72 132.14 C 35.63 132.05 33.54 131.97 31.45 131.90 L 31.49 131.01 C 32.13 130.97 33.42 130.91 34.07 130.87 L 34.07 129.77 C 33.00 129.40 31.94 129.01 30.88 128.61 C 31.98 128.54 34.17 128.39 35.27 128.31 L 35.10 126.98 C 33.41 127.03 31.72 127.09 30.03 127.15 M 44.00 133.02 C 46.00 133.02 48.00 133.03 50.00 133.04 L 50.02 131.92 C 48.71 131.95 47.40 131.98 46.09 132.01 C 45.99 130.24 45.89 128.49 45.75 126.73 C 42.98 127.50 44.44 130.93 44.00 133.02 M 49.81 127.99 C 50.54 128.08 52.02 128.27 52.76 128.36 C 53.08 130.09 52.12 132.46 53.95 133.61 C 54.02 131.85 54.04 130.09 54.02 128.34 C 55.34 128.51 56.67 128.64 58.01 128.73 C 57.95 130.15 57.89 131.57 57.84 133.00 L 59.12 133.05 C 59.11 132.49 59.09 131.35 59.08 130.78 C 59.84 130.81 61.35 130.87 62.11 130.90 C 62.35 132.00 62.92 132.88 63.82 133.54 C 63.98 131.10 64.05 128.58 63.07 126.27 C 62.87 127.11 62.47 128.78 62.27 129.62 C 61.47 129.61 59.87 129.60 59.07 129.60 C 59.07 129.00 59.07 127.81 59.07 127.21 C 55.99 127.34 52.71 126.66 49.81 127.99 M 80.01 127.15 C 79.99 129.11 79.98 131.06 79.97 133.02 C 81.70 133.03 83.43 133.03 85.17 133.04 L 85.27 132.02 C 84.14 131.97 81.89 131.87 80.77 131.83 C 81.57 131.50 83.17 130.84 83.97 130.51 L 84.06 129.81 C 82.92 129.51 81.79 129.14 80.75 128.58 C 82.22 128.45 83.69 128.36 85.16 128.30 L 85.06 127.03 C 83.38 127.07 81.70 127.11 80.01 127.15 M 89.30 126.43 C 88.14 128.65 87.10 130.93 86.06 133.22 C 88.32 131.72 90.81 131.91 93.09 133.24 C 92.03 130.86 90.94 128.47 89.30 126.43 M 94.22 126.79 C 94.11 128.87 94.07 130.95 94.04 133.03 C 96.03 133.03 98.02 133.03 100.01 133.04 L 100.00 131.92 C 98.72 131.95 97.43 131.98 96.15 132.01 C 95.73 130.19 96.77 127.21 94.22 126.79 M 99.54 127.86 C 100.33 128.01 101.91 128.29 102.70 128.44 C 103.04 130.11 101.98 132.52 103.92 133.54 C 104.01 131.78 104.02 130.02 104.03 128.26 C 104.56 128.28 105.62 128.33 106.15 128.35 L 106.11 127.08 C 103.90 127.14 101.67 127.22 99.54 127.86 M 107.97 126.63 C 107.91 128.77 107.89 130.92 107.86 133.07 L 109.13 132.98 C 109.12 132.43 109.09 131.33 109.07 130.79 C 109.84 130.81 111.38 130.86 112.14 130.88 C 112.36 131.99 112.92 132.88 113.81 133.55 C 113.69 131.23 114.64 128.37 112.71 126.56 C 112.63 127.36 112.49 128.97 112.42 129.77 C 109.92 130.37 108.89 128.53 107.97 126.63 Z" />
</g>
<g id="#5e6e21ff">
<path fill="#5e6e21" stroke="#5e6e21" stroke-width="0.09375" opacity="1.00" d=" M 63.18 14.21 C 66.91 12.58 71.42 16.03 70.85 20.04 C 70.64 23.96 65.87 26.50 62.49 24.50 C 58.31 22.53 58.76 15.59 63.18 14.21 Z" />
<path fill="#5e6e21" stroke="#5e6e21" stroke-width="0.09375" opacity="1.00" d=" M 31.30 27.40 C 35.32 25.03 40.75 29.09 39.56 33.58 C 38.92 37.72 33.34 39.53 30.29 36.75 C 27.29 34.33 27.86 29.13 31.30 27.40 Z" />
<path fill="#5e6e21" stroke="#5e6e21" stroke-width="0.09375" opacity="1.00" d=" M 94.21 27.17 C 97.99 25.45 102.73 28.92 102.03 33.06 C 101.79 37.28 96.20 39.68 92.98 36.94 C 89.53 34.58 90.28 28.62 94.21 27.17 Z" />
<path fill="#5e6e21" stroke="#5e6e21" stroke-width="0.09375" opacity="1.00" d=" M 107.19 58.34 C 110.84 56.63 115.45 59.94 114.97 63.95 C 114.99 68.32 109.27 70.83 105.93 68.16 C 102.44 65.80 103.19 59.73 107.19 58.34 Z" />
<path fill="#5e6e21" stroke="#5e6e21" stroke-width="0.09375" opacity="1.00" d=" M 31.46 89.71 C 35.67 87.24 41.19 92.05 39.39 96.54 C 38.26 100.70 32.16 101.78 29.61 98.36 C 27.28 95.73 28.27 91.17 31.46 89.71 Z" />
<path fill="#5e6e21" stroke="#5e6e21" stroke-width="0.09375" opacity="1.00" d=" M 94.37 89.46 C 98.36 87.76 103.03 91.73 101.97 95.94 C 101.28 99.99 95.87 101.81 92.78 99.19 C 89.49 96.67 90.39 90.75 94.37 89.46 Z" />
<path fill="#5e6e21" stroke="#5e6e21" stroke-width="0.09375" opacity="1.00" d=" M 63.31 102.32 C 67.30 100.75 71.87 104.73 70.75 108.91 C 70.04 113.13 64.17 114.82 61.23 111.78 C 58.28 109.06 59.44 103.52 63.31 102.32 Z" />
<path fill="#5e6e21" stroke="#5e6e21" stroke-width="0.09375" opacity="1.00" d=" M 49.81 127.99 C 52.71 126.66 55.99 127.34 59.07 127.21 C 59.07 127.81 59.07 129.00 59.07 129.60 C 59.87 129.60 61.47 129.61 62.27 129.62 C 62.47 128.78 62.87 127.11 63.07 126.27 C 64.05 128.58 63.98 131.10 63.82 133.54 C 62.92 132.88 62.35 132.00 62.11 130.90 C 61.35 130.87 59.84 130.81 59.08 130.78 C 59.09 131.35 59.11 132.49 59.12 133.05 L 57.84 133.00 C 57.89 131.57 57.95 130.15 58.01 128.73 C 56.67 128.64 55.34 128.51 54.02 128.34 C 54.04 130.09 54.02 131.85 53.95 133.61 C 52.12 132.46 53.08 130.09 52.76 128.36 C 52.02 128.27 50.54 128.08 49.81 127.99 Z" />
<path fill="#5e6e21" stroke="#5e6e21" stroke-width="0.09375" opacity="1.00" d=" M 99.54 127.86 C 101.67 127.22 103.90 127.14 106.11 127.08 L 106.15 128.35 C 105.62 128.33 104.56 128.28 104.03 128.26 C 104.02 130.02 104.01 131.78 103.92 133.54 C 101.98 132.52 103.04 130.11 102.70 128.44 C 101.91 128.29 100.33 128.01 99.54 127.86 Z" />
<path fill="#5e6e21" stroke="#5e6e21" stroke-width="0.09375" opacity="1.00" d=" M 107.97 126.63 C 108.89 128.53 109.92 130.37 112.42 129.77 C 112.49 128.97 112.63 127.36 112.71 126.56 C 114.64 128.37 113.69 131.23 113.81 133.55 C 112.92 132.88 112.36 131.99 112.14 130.88 C 111.38 130.86 109.84 130.81 109.07 130.79 C 109.09 131.33 109.12 132.43 109.13 132.98 L 107.86 133.07 C 107.89 130.92 107.91 128.77 107.97 126.63 Z" />
</g>
<g id="#73852bff">
<path fill="#73852b" stroke="#73852b" stroke-width="0.09375" opacity="1.00" d=" M 45.34 16.03 C 47.09 16.75 48.99 17.24 50.47 18.45 C 53.50 23.14 53.79 29.00 53.07 34.39 C 49.12 31.47 45.69 27.63 44.10 22.90 C 43.07 20.56 44.70 18.25 45.34 16.03 Z" />
<path fill="#73852b" stroke="#73852b" stroke-width="0.09375" opacity="1.00" d=" M 79.78 18.70 C 81.11 17.25 83.18 16.84 84.90 15.99 C 85.59 17.67 86.27 19.35 86.96 21.04 C 85.34 26.42 82.02 31.26 77.24 34.28 C 76.59 29.01 76.90 23.32 79.78 18.70 Z" />
<path fill="#73852b" stroke="#73852b" stroke-width="0.09375" opacity="1.00" d=" M 78.09 36.84 C 81.87 33.73 85.38 30.29 87.78 25.97 C 87.50 32.13 85.38 38.22 81.00 42.68 C 79.95 40.78 78.85 38.88 78.09 36.84 Z" />
<path fill="#73852b" stroke="#73852b" stroke-width="0.09375" opacity="1.00" d=" M 54.51 37.78 C 56.80 38.59 59.11 39.32 61.44 39.99 C 60.88 42.86 60.00 45.64 58.88 48.33 C 56.16 47.22 53.55 45.87 51.10 44.26 C 52.30 42.13 53.45 39.98 54.51 37.78 Z" />
<path fill="#73852b" stroke="#73852b" stroke-width="0.09375" opacity="1.00" d=" M 68.90 39.99 C 71.24 39.32 73.56 38.60 75.86 37.80 C 76.94 39.97 78.08 42.11 79.30 44.22 C 76.85 45.94 74.19 47.34 71.32 48.20 C 70.37 45.51 69.55 42.77 68.90 39.99 Z" />
<path fill="#73852b" stroke="#73852b" stroke-width="0.09375" opacity="1.00" d=" M 27.69 41.00 C 33.80 41.34 39.87 43.46 44.25 47.85 C 42.27 48.90 40.27 49.90 38.25 50.86 C 35.58 46.74 31.77 43.63 27.69 41.00 Z" />
<path fill="#73852b" stroke="#73852b" stroke-width="0.09375" opacity="1.00" d=" M 86.13 47.57 C 90.77 43.56 96.63 41.28 102.75 40.98 C 98.65 43.63 94.80 46.75 92.12 50.89 C 90.05 49.92 88.03 48.84 86.13 47.57 Z" />
<path fill="#73852b" stroke="#73852b" stroke-width="0.09375" opacity="1.00" d=" M 17.53 43.87 C 19.28 43.22 20.98 42.29 22.86 42.09 C 28.28 43.31 32.81 47.06 35.91 51.56 C 30.55 52.23 24.73 51.91 20.08 48.89 C 18.80 47.49 18.34 45.55 17.53 43.87 Z" />
<path fill="#73852b" stroke="#73852b" stroke-width="0.09375" opacity="1.00" d=" M 94.42 51.42 C 97.65 47.21 101.88 43.46 107.16 42.18 C 109.18 41.97 111.00 43.24 112.86 43.89 C 112.15 45.52 111.53 47.21 110.56 48.71 C 105.89 51.88 99.87 52.38 94.42 51.42 Z" />
<path fill="#73852b" stroke="#73852b" stroke-width="0.09375" opacity="1.00" d=" M 39.29 52.96 C 41.54 51.86 43.75 50.71 45.94 49.51 C 47.45 51.99 48.79 54.57 49.93 57.25 C 47.24 58.40 44.43 59.25 41.58 59.91 C 40.94 57.56 40.19 55.23 39.29 52.96 Z" />
<path fill="#73852b" stroke="#73852b" stroke-width="0.09375" opacity="1.00" d=" M 22.87 74.17 C 27.20 69.81 33.12 67.39 39.24 67.22 C 38.59 69.36 37.89 71.49 37.14 73.60 C 32.40 72.68 27.54 72.97 22.87 74.17 Z" />
<path fill="#73852b" stroke="#73852b" stroke-width="0.09375" opacity="1.00" d=" M 39.38 74.30 C 40.18 71.99 40.90 69.66 41.55 67.30 C 44.42 67.92 47.24 68.77 49.91 69.99 C 48.80 72.71 47.44 75.33 45.71 77.71 C 43.67 76.45 41.55 75.31 39.38 74.30 Z" />
<path fill="#73852b" stroke="#73852b" stroke-width="0.09375" opacity="1.00" d=" M 80.50 69.90 C 83.19 68.77 85.98 67.94 88.84 67.34 C 89.51 69.71 90.24 72.06 90.99 74.41 C 88.79 75.38 86.65 76.48 84.56 77.67 C 82.91 75.24 81.56 72.63 80.50 69.90 Z" />
<path fill="#73852b" stroke="#73852b" stroke-width="0.09375" opacity="1.00" d=" M 91.25 67.13 C 97.27 67.50 103.15 69.74 107.41 74.10 C 102.72 72.95 97.87 72.75 93.11 73.54 C 92.46 71.42 91.83 69.28 91.25 67.13 Z" />
<path fill="#73852b" stroke="#73852b" stroke-width="0.09375" opacity="1.00" d=" M 72.78 76.82 C 74.57 74.84 76.44 72.95 78.36 71.10 C 79.63 73.93 81.12 76.66 82.91 79.19 C 82.16 79.88 81.41 80.56 80.66 81.24 C 78.22 79.46 75.55 78.03 72.78 76.82 Z" />
<path fill="#73852b" stroke="#73852b" stroke-width="0.09375" opacity="1.00" d=" M 94.51 75.74 C 99.91 74.83 105.87 75.34 110.52 78.46 C 111.55 79.94 112.14 81.67 112.89 83.31 C 110.70 84.00 108.45 85.77 106.10 84.73 C 101.32 83.18 97.39 79.78 94.51 75.74 Z" />
<path fill="#73852b" stroke="#73852b" stroke-width="0.09375" opacity="1.00" d=" M 20.16 78.24 C 24.80 75.36 30.58 74.82 35.88 75.72 C 33.11 79.68 29.29 82.96 24.70 84.61 C 22.25 85.88 19.77 84.09 17.49 83.29 C 18.33 81.59 18.85 79.65 20.16 78.24 Z" />
<path fill="#73852b" stroke="#73852b" stroke-width="0.09375" opacity="1.00" d=" M 27.72 86.12 C 31.82 83.57 35.58 80.44 38.24 76.36 C 40.28 77.29 42.30 78.30 44.28 79.36 C 39.86 83.67 33.86 85.95 27.72 86.12 Z" />
<path fill="#73852b" stroke="#73852b" stroke-width="0.09375" opacity="1.00" d=" M 51.07 83.00 C 53.51 81.33 56.13 79.96 58.87 78.87 C 60.01 81.57 60.89 84.37 61.47 87.24 C 59.13 87.89 56.81 88.59 54.53 89.43 C 53.48 87.23 52.32 85.09 51.07 83.00 Z" />
<path fill="#73852b" stroke="#73852b" stroke-width="0.09375" opacity="1.00" d=" M 71.39 78.96 C 74.21 79.90 76.84 81.29 79.30 82.96 C 78.10 85.07 76.95 87.21 75.87 89.38 C 73.60 88.60 71.29 87.91 68.97 87.30 C 69.51 84.45 70.35 81.67 71.39 78.96 Z" />
<path fill="#73852b" stroke="#73852b" stroke-width="0.09375" opacity="1.00" d=" M 49.30 84.51 C 50.47 86.44 51.50 88.45 52.44 90.51 C 48.48 93.07 45.54 96.75 42.82 100.54 C 42.79 94.55 45.36 88.92 49.30 84.51 Z" />
<path fill="#73852b" stroke="#73852b" stroke-width="0.09375" opacity="1.00" d=" M 77.96 90.53 C 78.91 88.50 79.91 86.50 80.97 84.52 C 85.43 88.94 87.46 95.07 87.79 101.23 C 85.26 97.04 82.11 93.21 77.96 90.53 Z" />
<path fill="#73852b" stroke="#73852b" stroke-width="0.09375" opacity="1.00" d=" M 44.19 104.07 C 45.77 99.43 49.18 95.70 53.07 92.85 C 53.79 98.18 53.50 103.99 50.54 108.65 C 49.09 109.98 47.09 110.43 45.32 111.18 C 44.67 108.89 42.99 106.46 44.19 104.07 Z" />
<path fill="#73852b" stroke="#73852b" stroke-width="0.09375" opacity="1.00" d=" M 77.28 92.88 C 81.98 95.98 85.28 100.73 86.96 106.06 C 86.28 107.79 85.60 109.52 84.89 111.24 C 83.26 110.51 81.55 109.89 80.07 108.88 C 76.89 104.25 76.55 98.30 77.28 92.88 Z" />
</g>
<g id="#72852bff">
<path fill="#72852b" stroke="#72852b" stroke-width="0.09375" opacity="1.00" d=" M 54.47 21.03 C 58.74 25.50 61.44 31.34 61.55 37.58 C 59.43 36.99 57.32 36.36 55.23 35.69 C 56.20 30.80 55.84 25.81 54.47 21.03 Z" />
<path fill="#72852b" stroke="#72852b" stroke-width="0.09375" opacity="1.00" d=" M 47.58 79.21 C 49.28 76.67 50.73 73.97 51.96 71.17 C 53.95 72.93 55.83 74.80 57.58 76.79 C 54.76 78.08 52.04 79.56 49.46 81.28 C 48.99 80.76 48.05 79.73 47.58 79.21 Z" />
<path fill="#72852b" stroke="#72852b" stroke-width="0.09375" opacity="1.00" d=" M 86.17 79.23 C 88.16 78.24 90.16 77.28 92.18 76.36 C 94.82 80.49 98.63 83.60 102.76 86.13 C 96.64 85.87 90.43 83.81 86.17 79.23 Z" />
</g>
<g id="#73852dff">
<path fill="#73852d" stroke="#73852d" stroke-width="0.09375" opacity="1.00" d=" M 68.77 37.57 C 69.06 31.52 71.39 25.60 75.77 21.35 C 74.46 26.02 74.70 30.84 74.91 35.61 C 72.96 36.54 70.85 37.03 68.77 37.57 Z" />
</g>
<g id="#73842bff">
<path fill="#73842b" stroke="#73842b" stroke-width="0.09375" opacity="1.00" d=" M 42.82 26.53 C 45.43 30.47 48.55 34.07 52.46 36.78 C 51.50 38.74 50.54 40.69 49.56 42.63 C 45.15 38.50 42.87 32.53 42.82 26.53 Z" />
<path fill="#73842b" stroke="#73842b" stroke-width="0.09375" opacity="1.00" d=" M 80.46 57.25 C 81.59 54.55 82.94 51.95 84.56 49.52 C 86.69 50.73 88.85 51.86 91.05 52.93 C 90.23 55.23 89.48 57.56 88.77 59.90 C 85.93 59.26 83.13 58.40 80.46 57.25 Z" />
</g>
<g id="#73852cff">
<path fill="#73852c" stroke="#73852c" stroke-width="0.09375" opacity="1.00" d=" M 63.69 40.20 C 64.66 40.14 65.64 40.08 66.61 40.03 C 67.19 43.07 68.07 46.03 69.22 48.90 C 66.55 49.03 63.87 49.02 61.20 48.90 C 62.32 46.09 63.15 43.17 63.69 40.20 Z" />
<path fill="#73852c" stroke="#73852c" stroke-width="0.09375" opacity="1.00" d=" M 22.83 53.02 C 27.52 54.22 32.40 54.50 37.18 53.62 C 37.90 55.73 38.58 57.85 39.17 59.99 C 33.05 59.80 27.19 57.31 22.83 53.02 Z" />
<path fill="#73852c" stroke="#73852c" stroke-width="0.09375" opacity="1.00" d=" M 93.10 53.67 C 97.94 54.48 102.87 54.22 107.62 53.01 C 103.23 57.28 97.37 59.82 91.23 59.98 C 91.82 57.87 92.45 55.76 93.10 53.67 Z" />
<path fill="#73852c" stroke="#73852c" stroke-width="0.09375" opacity="1.00" d=" M 79.88 59.61 C 82.77 60.69 85.73 61.61 88.76 62.20 C 88.77 62.90 88.77 64.29 88.78 64.98 C 85.80 65.58 82.89 66.44 80.09 67.64 C 79.83 64.97 79.79 62.28 79.88 59.61 Z" />
<path fill="#73852c" stroke="#73852c" stroke-width="0.09375" opacity="1.00" d=" M 61.19 78.26 C 63.84 78.19 66.50 78.18 69.16 78.23 C 68.10 81.12 67.21 84.07 66.63 87.09 C 65.93 87.11 64.53 87.14 63.82 87.16 C 63.16 84.13 62.31 81.15 61.19 78.26 Z" />
</g>
<g id="#72842bff">
<path fill="#72842b" stroke="#72842b" stroke-width="0.09375" opacity="1.00" d=" M 49.41 45.91 C 52.03 47.60 54.76 49.10 57.58 50.41 C 55.82 52.39 53.95 54.26 51.98 56.02 C 50.73 53.23 49.27 50.54 47.58 48.00 C 48.03 47.47 48.95 46.43 49.41 45.91 Z" />
<path fill="#72842b" stroke="#72842b" stroke-width="0.09375" opacity="1.00" d=" M 72.78 50.36 C 75.69 49.09 78.49 47.59 81.09 45.77 C 81.64 46.51 82.15 47.27 82.64 48.05 C 81.24 50.69 79.64 53.22 78.47 55.98 C 76.42 54.27 74.53 52.38 72.78 50.36 Z" />
<path fill="#72842b" stroke="#72842b" stroke-width="0.09375" opacity="1.00" d=" M 55.39 91.61 C 57.36 90.71 59.46 90.17 61.55 89.59 C 61.42 95.81 58.81 101.73 54.44 106.13 C 55.97 101.41 55.95 96.48 55.39 91.61 Z" />
</g>
<g id="#98ac3bff">
<path fill="#98ac3b" stroke="#98ac3b" stroke-width="0.09375" opacity="1.00" d=" M 52.62 58.18 C 55.44 56.19 57.85 53.70 59.92 50.96 C 63.45 51.34 67.01 51.33 70.55 51.03 C 72.62 53.81 75.10 56.25 77.87 58.33 C 77.36 61.81 77.36 65.35 77.89 68.83 C 75.09 70.97 72.58 73.46 70.41 76.23 C 66.91 75.80 63.38 75.81 59.89 76.21 C 57.80 73.42 55.33 70.96 52.55 68.86 C 52.99 65.31 52.99 61.73 52.62 58.18 Z" />
</g>
<g id="#5e6f21ff">
<path fill="#5e6f21" stroke="#5e6f21" stroke-width="0.09375" opacity="1.00" d=" M 19.26 58.22 C 23.52 56.51 28.25 61.33 26.41 65.56 C 25.09 69.85 18.49 70.55 16.29 66.66 C 14.28 63.73 15.83 59.20 19.26 58.22 Z" />
</g>
<g id="#73842cff">
<path fill="#73842c" stroke="#73842c" stroke-width="0.09375" opacity="1.00" d=" M 41.72 62.19 C 44.69 61.60 47.59 60.70 50.43 59.62 C 50.65 62.28 50.66 64.95 50.47 67.61 C 47.63 66.51 44.71 65.61 41.72 64.97 C 41.72 64.28 41.72 62.89 41.72 62.19 Z" />
</g>
<g id="#73852eff">
<path fill="#73852e" stroke="#73852e" stroke-width="0.09375" opacity="1.00" d=" M 68.78 89.59 C 70.95 90.18 73.09 90.86 75.20 91.62 C 74.31 96.41 74.68 101.29 75.77 106.01 C 71.55 101.57 68.98 95.74 68.78 89.59 Z" />
</g>
<g id="#565657ff">
<path fill="#565657" stroke="#565657" stroke-width="0.09375" opacity="1.00" d=" M 17.22 126.19 C 17.65 126.12 18.51 125.99 18.94 125.93 C 19.43 127.47 19.92 129.01 20.37 130.57 C 21.45 129.23 21.33 125.67 23.51 126.06 C 24.33 127.51 24.96 129.05 25.61 130.58 C 26.06 128.99 26.57 127.42 27.07 125.85 C 27.46 125.98 28.22 126.25 28.60 126.38 C 27.72 128.65 26.95 130.97 25.87 133.16 C 23.82 132.93 23.91 130.11 22.90 128.77 C 22.27 130.39 21.65 132.02 20.97 133.62 C 18.81 131.70 18.32 128.73 17.22 126.19 Z" />
<path fill="#565657" stroke="#565657" stroke-width="0.09375" opacity="1.00" d=" M 70.22 133.01 C 70.69 130.61 69.04 126.90 71.79 125.59 C 71.87 126.42 72.04 128.10 72.12 128.94 C 73.39 128.93 74.65 128.93 75.92 128.93 C 75.95 128.18 76.03 126.69 76.06 125.94 C 76.43 125.98 77.18 126.04 77.55 126.07 C 77.55 128.36 77.56 130.64 77.60 132.92 C 77.18 132.97 76.34 133.06 75.92 133.10 C 75.94 132.35 75.97 130.86 75.99 130.11 C 74.66 130.11 73.34 130.10 72.01 130.10 C 72.01 130.83 72.02 132.30 72.03 133.03 C 71.58 133.03 70.67 133.02 70.22 133.01 Z" />
</g>
<g id="#676767ff">
<path fill="#676767" stroke="#676767" stroke-width="0.09375" opacity="1.00" d=" M 30.03 127.15 C 31.72 127.09 33.41 127.03 35.10 126.98 L 35.27 128.31 C 34.17 128.39 31.98 128.54 30.88 128.61 C 31.94 129.01 33.00 129.40 34.07 129.77 L 34.07 130.87 C 33.42 130.91 32.13 130.97 31.49 131.01 L 31.45 131.90 C 33.54 131.97 35.63 132.05 37.72 132.14 L 36.70 131.36 C 37.58 129.72 38.44 128.09 39.33 126.46 C 41.01 128.46 42.03 130.88 43.09 133.25 C 41.33 132.80 39.20 130.97 37.66 132.84 C 35.10 133.01 32.53 133.04 29.96 133.05 C 29.98 131.08 30.00 129.11 30.03 127.15 M 39.09 129.23 C 37.54 132.22 42.37 129.44 39.09 129.23 Z" />
</g>
<g id="#686869ff">
<path fill="#686869" stroke="#686869" stroke-width="0.09375" opacity="1.00" d=" M 44.00 133.02 C 44.44 130.93 42.98 127.50 45.75 126.73 C 45.89 128.49 45.99 130.24 46.09 132.01 C 47.40 131.98 48.71 131.95 50.02 131.92 L 50.00 133.04 C 48.00 133.03 46.00 133.02 44.00 133.02 Z" />
</g>
<g id="#606060ff">
<path fill="#606060" stroke="#606060" stroke-width="0.09375" opacity="1.00" d=" M 80.01 127.15 C 81.70 127.11 83.38 127.07 85.06 127.03 L 85.16 128.30 C 83.69 128.36 82.22 128.45 80.75 128.58 C 81.79 129.14 82.92 129.51 84.06 129.81 L 83.97 130.51 C 83.17 130.84 81.57 131.50 80.77 131.83 C 81.89 131.87 84.14 131.97 85.27 132.02 L 85.17 133.04 C 83.43 133.03 81.70 133.03 79.97 133.02 C 79.98 131.06 79.99 129.11 80.01 127.15 Z" />
</g>
<g id="#646465ff">
<path fill="#646465" stroke="#646465" stroke-width="0.09375" opacity="1.00" d=" M 89.30 126.43 C 90.94 128.47 92.03 130.86 93.09 133.24 C 90.81 131.91 88.32 131.72 86.06 133.22 C 87.10 130.93 88.14 128.65 89.30 126.43 M 89.10 129.22 C 87.50 132.20 92.37 129.49 89.10 129.22 Z" />
</g>
<g id="#696969ff">
<path fill="#696969" stroke="#696969" stroke-width="0.09375" opacity="1.00" d=" M 94.22 126.79 C 96.77 127.21 95.73 130.19 96.15 132.01 C 97.43 131.98 98.72 131.95 100.00 131.92 L 100.01 133.04 C 98.02 133.03 96.03 133.03 94.04 133.03 C 94.07 130.95 94.11 128.87 94.22 126.79 Z" />
</g>
<g id="#d6d6d6ff">
<path fill="#d6d6d6" stroke="#d6d6d6" stroke-width="0.09375" opacity="1.00" d=" M 39.09 129.23 C 42.37 129.44 37.54 132.22 39.09 129.23 Z" />
<path fill="#d6d6d6" stroke="#d6d6d6" stroke-width="0.09375" opacity="1.00" d=" M 89.10 129.22 C 92.37 129.49 87.50 132.20 89.10 129.22 Z" />
</g>
</svg>
