<?xml version="1.0" encoding="UTF-8" ?>
<!DOCTYPE svg PUBLIC "-//W3C//DTD SVG 1.1//EN" "http://www.w3.org/Graphics/SVG/1.1/DTD/svg11.dtd">
<svg width="360pt" height="360pt" viewBox="0 0 360 360" version="1.1" xmlns="http://www.w3.org/2000/svg">
<g id="#010303ff">
<path fill="#010303" stroke="#010303" stroke-width="0.09375" opacity="1.00" d=" M 198.85 77.36 C 210.28 76.79 221.84 77.07 233.08 79.41 C 242.53 81.03 248.75 89.68 252.39 97.90 C 254.46 101.88 253.21 107.85 257.88 110.11 C 265.99 114.25 275.63 113.92 283.59 118.49 C 291.52 122.49 296.74 130.57 298.45 139.15 C 300.54 148.62 299.27 158.36 299.27 167.96 C 298.28 191.96 297.81 216.01 295.86 239.95 C 294.19 210.66 293.08 181.33 291.99 152.01 C 291.36 143.86 289.82 134.56 282.92 129.25 C 275.60 123.64 265.92 124.41 257.56 121.51 C 252.94 120.04 248.35 117.54 245.72 113.32 C 243.05 109.35 243.41 104.21 240.84 100.19 C 238.36 96.18 235.17 91.52 230.05 91.01 C 217.18 89.09 203.86 88.64 191.09 91.42 C 187.72 92.48 182.83 93.49 182.52 97.79 C 181.40 103.37 179.25 109.13 174.66 112.79 C 171.54 115.40 167.23 116.36 163.27 115.54 C 161.58 112.49 160.96 108.95 159.37 105.83 C 151.82 105.49 144.19 103.78 136.66 105.20 C 136.35 107.89 135.77 110.77 133.65 112.66 C 131.74 114.92 128.59 114.70 125.95 115.16 C 123.09 115.32 120.86 117.68 117.96 117.57 C 113.27 117.79 109.67 112.91 104.85 114.46 C 100.58 115.81 96.64 118.18 92.13 118.78 C 88.69 119.79 84.03 119.55 82.13 123.20 C 79.11 127.97 75.41 132.26 71.55 136.36 C 71.12 156.58 70.36 176.79 69.38 196.99 C 69.15 199.91 69.74 202.81 69.66 205.73 C 69.15 204.80 69.08 203.14 67.67 203.43 L 68.82 204.62 C 68.69 215.80 67.22 226.91 66.85 238.07 C 67.15 242.45 67.13 247.33 70.02 250.93 C 73.09 254.18 77.95 253.75 82.03 253.81 C 92.98 253.26 104.16 254.18 114.89 251.42 C 105.87 255.18 95.97 255.53 86.42 256.83 C 79.91 257.62 72.12 259.20 66.77 254.33 C 61.43 249.11 61.21 241.03 60.73 234.06 C 60.95 201.03 60.64 167.99 60.35 134.96 C 60.41 133.41 60.30 131.63 61.54 130.48 C 65.46 126.02 69.48 121.58 72.43 116.40 C 73.81 113.87 75.89 111.75 78.44 110.39 C 83.72 107.26 90.19 107.54 95.60 104.74 C 99.76 102.71 104.34 101.14 109.04 101.65 C 111.86 101.81 114.42 103.13 117.11 103.85 C 119.32 103.59 121.44 102.89 123.59 102.37 C 124.05 97.53 127.70 93.54 132.47 92.63 C 144.90 90.05 157.54 92.99 169.99 93.91 C 170.99 89.61 173.54 85.64 177.36 83.35 C 183.73 79.24 191.43 78.01 198.85 77.36 Z" />
<path fill="#010303" stroke="#010303" stroke-width="0.09375" opacity="1.00" d=" M 176.56 128.66 C 188.04 124.46 200.95 123.90 212.62 127.65 C 224.68 131.69 235.00 140.28 241.62 151.09 C 234.11 143.43 225.67 136.26 215.40 132.66 C 200.65 127.12 183.91 129.15 169.93 135.96 C 158.14 141.41 148.39 150.29 139.92 159.98 C 147.97 145.69 161.13 134.28 176.56 128.66 Z" />
<path fill="#010303" stroke="#010303" stroke-width="0.09375" opacity="1.00" d=" M 89.13 132.88 C 91.90 129.08 96.84 128.32 101.16 127.64 C 108.26 126.99 115.68 126.98 122.45 129.52 C 124.28 130.09 125.54 131.58 126.70 133.02 C 125.74 134.29 124.84 135.77 123.26 136.36 C 116.60 139.32 109.08 139.05 101.96 138.65 C 97.35 138.00 91.53 137.53 89.13 132.88 Z" />
<path fill="#010303" stroke="#010303" stroke-width="0.09375" opacity="1.00" d=" M 179.91 137.53 C 195.37 133.59 212.31 136.65 225.66 145.32 C 236.07 152.14 244.73 162.11 248.86 173.96 C 241.06 160.16 228.42 148.93 213.37 143.71 C 199.94 138.91 184.68 139.02 171.50 144.61 C 159.24 149.62 149.08 158.69 140.97 169.00 C 148.89 153.81 163.20 141.76 179.91 137.53 Z" />
<path fill="#010303" stroke="#010303" stroke-width="0.09375" opacity="1.00" d=" M 138.86 177.88 C 148.00 162.29 164.05 150.68 182.08 148.10 C 205.03 144.35 229.59 154.83 242.67 174.07 C 231.76 162.99 217.64 154.73 202.12 152.48 C 187.69 150.07 172.45 153.13 160.01 160.81 C 171.66 154.87 185.06 152.17 198.06 154.12 C 220.24 157.12 240.53 172.86 248.02 194.08 C 242.04 181.22 231.92 170.29 219.31 163.74 C 205.53 156.47 188.87 154.57 173.94 159.24 C 157.90 164.02 144.32 175.93 136.99 190.91 C 131.46 201.97 129.26 214.72 131.10 226.96 C 133.66 245.66 144.96 263.23 161.55 272.46 C 173.71 279.33 188.44 281.32 202.04 278.21 C 223.84 273.48 242.18 256.28 248.77 235.02 C 242.68 261.97 216.62 282.84 188.99 282.87 C 170.49 283.61 152.21 274.56 140.82 260.11 C 130.41 247.27 125.10 230.47 126.27 213.98 C 126.82 200.98 132.62 189.03 138.86 177.88 Z" />
<path fill="#010303" stroke="#010303" stroke-width="0.09375" opacity="1.00" d=" M 151.99 183.66 C 168.27 164.37 199.09 159.75 220.13 173.86 C 232.77 181.88 241.81 195.37 244.40 210.12 C 247.70 227.34 241.61 245.93 229.10 258.13 C 218.76 268.59 203.76 274.51 189.04 273.16 C 176.27 271.85 163.74 265.86 155.24 256.18 C 163.60 262.56 172.97 268.14 183.53 269.77 C 199.77 272.70 216.95 266.00 227.72 253.68 C 235.91 244.53 240.85 232.36 240.79 220.02 C 241.11 205.95 234.94 191.96 224.68 182.39 C 215.77 173.70 203.46 168.55 191.00 168.40 C 176.65 167.99 162.38 173.85 151.99 183.66 Z" />
<path fill="#010303" stroke="#010303" stroke-width="0.09375" opacity="1.00" d=" M 146.25 201.14 C 152.28 186.77 165.83 175.25 181.47 173.18 C 169.11 177.65 158.12 186.36 152.18 198.22 C 145.52 210.82 145.40 226.58 151.70 239.33 C 156.86 250.19 166.19 258.65 176.97 263.77 C 161.59 259.77 148.91 247.19 144.52 231.96 C 141.43 221.90 142.16 210.82 146.25 201.14 Z" />
<path fill="#010303" stroke="#010303" stroke-width="0.09375" opacity="1.00" d=" M 189.67 181.03 C 206.44 178.78 223.87 189.07 229.92 204.88 C 234.43 215.89 233.40 228.98 227.14 239.10 C 220.90 249.70 209.19 256.75 196.94 257.51 C 182.22 258.72 167.38 250.47 160.51 237.43 C 154.34 226.19 154.42 211.88 160.68 200.70 C 166.43 189.95 177.64 182.59 189.67 181.03 M 188.10 181.93 C 181.61 183.26 176.25 189.27 176.28 195.99 C 175.85 203.02 181.33 209.67 188.21 210.87 C 196.63 212.84 205.64 205.64 205.64 197.00 C 206.39 187.91 196.95 179.79 188.10 181.93 M 181.36 240.30 C 178.02 241.89 177.92 247.19 181.32 248.76 C 184.14 250.57 188.16 248.24 188.37 245.00 C 188.89 241.45 184.47 238.29 181.36 240.30 Z" />
</g>
</svg>
