<?xml version="1.0" encoding="UTF-8" ?>
<!DOCTYPE svg PUBLIC "-//W3C//DTD SVG 1.1//EN" "http://www.w3.org/Graphics/SVG/1.1/DTD/svg11.dtd">
<svg width="400pt" height="400pt" viewBox="0 0 400 400" version="1.1" xmlns="http://www.w3.org/2000/svg">
<g id="#ffffffff">
<path fill="#ffffff" stroke="#ffffff" stroke-width="0.09375" opacity="1.00" d=" M 94.16 0.00 L 95.22 0.00 C 95.22 6.51 95.20 13.02 95.23 19.54 C 156.84 19.58 218.44 19.49 280.05 19.58 C 278.06 20.07 276.00 20.10 273.97 20.15 C 239.97 21.03 205.96 20.94 171.95 20.92 C 146.29 20.78 120.63 20.79 94.99 20.09 C 93.72 13.46 94.28 6.70 94.16 0.00 Z" />
<path fill="#ffffff" stroke="#ffffff" stroke-width="0.09375" opacity="1.00" d=" M 280.26 0.00 L 280.99 0.00 C 281.01 6.10 281.22 12.23 280.20 18.28 C 280.21 12.18 280.31 6.09 280.26 0.00 Z" />
<path fill="#ffffff" stroke="#ffffff" stroke-width="0.09375" opacity="1.00" d=" M 177.55 37.98 L 178.82 37.99 C 179.01 44.62 178.15 51.23 178.60 57.86 C 168.47 58.71 158.24 58.25 148.07 58.66 C 143.61 58.66 139.14 59.12 134.69 58.70 C 135.13 77.04 134.64 95.39 135.24 113.73 C 149.82 114.11 164.40 113.91 178.98 114.08 C 179.00 121.02 179.03 127.97 178.96 134.92 C 172.97 134.52 166.96 134.92 160.97 135.02 C 149.11 134.66 137.24 134.80 125.37 134.82 C 121.93 131.88 117.86 129.49 115.36 125.61 C 113.96 119.31 114.14 112.75 114.18 106.33 C 115.18 112.04 114.02 117.92 115.21 123.61 C 116.32 127.64 120.19 129.68 123.16 132.18 C 126.72 134.35 131.04 133.67 135.00 133.76 C 138.65 133.65 142.29 134.49 145.94 133.98 C 151.96 133.15 157.95 135.00 163.99 134.36 C 168.80 133.75 173.66 133.86 178.49 133.57 C 178.38 127.23 178.45 120.89 178.45 114.56 C 163.49 114.25 148.51 114.58 133.55 114.37 C 133.51 95.46 133.45 76.55 133.58 57.64 C 148.45 57.62 163.34 57.47 178.21 57.72 C 177.84 51.15 179.18 44.44 177.55 37.98 Z" />
<path fill="#ffffff" stroke="#ffffff" stroke-width="0.09375" opacity="1.00" d=" M 216.66 57.67 C 224.87 57.49 233.08 57.69 241.29 57.56 C 242.17 59.25 242.34 61.15 242.07 63.02 C 242.25 68.66 242.58 74.36 241.67 79.96 C 241.22 83.02 242.77 86.05 241.89 89.10 C 240.90 94.04 242.37 99.02 241.65 103.97 C 241.47 107.45 241.67 110.94 241.54 114.43 C 233.24 114.36 224.93 114.55 216.62 114.36 C 216.62 95.46 216.54 76.57 216.66 57.67 M 217.70 58.69 C 218.05 77.15 217.80 95.62 217.82 114.08 C 225.47 113.92 233.12 114.07 240.76 113.73 C 241.13 95.43 241.16 77.17 241.26 58.86 C 233.41 58.80 225.54 59.12 217.70 58.69 Z" />
<path fill="#ffffff" stroke="#ffffff" stroke-width="0.09375" opacity="1.00" d=" M 220.82 152.48 C 234.51 151.98 248.21 152.09 261.90 152.06 C 262.06 159.01 262.00 165.97 261.97 172.92 C 247.28 173.07 232.58 172.96 217.88 173.00 C 217.75 178.43 218.06 183.87 217.70 189.29 C 224.52 188.92 231.35 189.46 238.17 189.52 L 237.24 190.37 C 230.38 190.58 223.51 190.49 216.66 190.37 C 216.55 184.40 216.66 178.42 216.55 172.45 C 226.38 172.13 236.21 172.39 246.04 172.30 C 251.17 172.19 256.40 172.82 261.43 171.51 C 260.98 165.12 262.13 158.60 260.69 152.31 C 247.40 152.48 234.11 152.56 220.82 152.48 Z" />
<path fill="#ffffff" stroke="#ffffff" stroke-width="0.09375" opacity="1.00" d=" M 133.44 172.45 C 138.30 172.18 143.18 172.55 148.01 171.86 C 151.83 171.82 155.62 172.50 159.45 172.47 C 159.36 191.09 159.36 209.72 159.45 228.34 C 158.86 228.56 157.67 228.99 157.07 229.21 C 153.71 229.24 150.34 229.31 146.99 229.00 C 142.47 229.45 137.90 229.34 133.44 228.46 C 133.55 209.79 133.56 191.12 133.44 172.45 M 134.17 173.02 C 134.19 191.34 134.20 209.65 134.17 227.97 C 142.38 228.34 150.61 228.16 158.83 228.09 C 158.84 209.74 158.76 191.40 158.86 173.06 C 150.63 172.63 142.40 173.05 134.17 173.02 Z" />
<path fill="#ffffff" stroke="#ffffff" stroke-width="0.09375" opacity="1.00" d=" M 114.54 286.51 C 120.84 286.55 127.15 286.48 133.45 286.57 C 133.49 298.89 133.67 311.22 133.36 323.54 C 134.46 324.25 135.68 324.56 137.01 324.47 C 144.23 324.44 151.45 324.41 158.67 324.48 C 158.83 313.00 158.72 301.52 158.72 290.04 C 158.94 288.91 158.31 287.05 159.87 286.63 C 166.04 286.36 172.23 286.58 178.41 286.56 C 178.48 318.21 178.42 349.85 178.44 381.49 C 171.86 381.51 165.28 381.75 158.71 381.35 C 158.72 368.72 158.84 356.09 158.65 343.47 C 149.76 343.57 140.87 343.48 131.97 343.53 C 129.09 343.64 126.31 342.87 123.52 342.27 C 122.39 340.66 120.80 339.58 118.95 338.95 C 117.27 337.23 116.08 335.10 114.53 333.26 C 114.52 317.67 114.50 302.09 114.54 286.51 Z" />
<path fill="#ffffff" stroke="#ffffff" stroke-width="0.09375" opacity="1.00" d=" M 197.58 305.42 C 197.34 299.11 197.43 292.80 197.50 286.49 C 214.36 286.65 231.22 286.35 248.07 286.64 C 249.69 288.28 252.02 288.28 254.17 288.42 C 257.01 290.56 258.04 294.18 260.41 296.76 C 262.01 303.41 261.17 310.27 261.37 317.04 C 261.20 322.39 262.02 327.93 260.19 333.10 C 259.15 335.25 257.04 336.77 256.40 339.15 C 253.57 340.32 251.22 342.79 247.99 342.75 C 238.11 343.02 228.22 342.68 218.34 342.92 C 217.94 343.14 217.13 343.59 216.72 343.82 C 216.53 350.02 216.67 356.23 216.64 362.44 C 231.54 362.68 246.45 362.42 261.35 362.58 C 261.39 368.88 261.37 375.19 261.37 381.50 C 240.07 381.64 218.77 381.49 197.48 381.57 C 197.40 367.72 197.46 353.86 197.44 340.01 C 196.65 333.96 201.56 329.42 205.58 325.67 C 208.81 325.91 211.79 324.29 215.01 324.43 C 223.85 324.46 232.69 324.43 241.53 324.45 C 241.61 318.09 241.59 311.74 241.54 305.39 C 226.89 305.41 212.23 305.35 197.58 305.42 Z" />
<path fill="#ffffff" stroke="#ffffff" stroke-width="0.09375" opacity="1.00" d=" M 280.27 400.00 C 280.36 364.18 279.84 328.35 280.30 292.55 C 280.49 328.36 280.77 364.18 281.01 400.00 L 280.27 400.00 Z" />
</g>
<g id="#ed6b06ff">
<path fill="#ed6b06" stroke="#ed6b06" stroke-width="0.09375" opacity="1.00" d=" M 95.22 0.00 L 280.26 0.00 C 280.31 6.09 280.21 12.18 280.20 18.28 L 280.05 19.58 C 218.44 19.49 156.84 19.58 95.23 19.54 C 95.20 13.02 95.22 6.51 95.22 0.00 Z" />
<path fill="#ed6b06" stroke="#ed6b06" stroke-width="0.09375" opacity="1.00" d=" M 94.00 266.00 C 156.09 266.17 218.17 266.66 280.26 266.77 C 280.24 275.36 280.41 283.95 280.30 292.55 C 279.84 328.35 280.36 364.18 280.27 400.00 L 94.00 400.00 C 94.00 355.33 94.00 310.67 94.00 266.00 M 114.54 286.51 C 114.50 302.09 114.52 317.67 114.53 333.26 C 116.08 335.10 117.27 337.23 118.95 338.95 C 120.80 339.58 122.39 340.66 123.52 342.27 C 126.31 342.87 129.09 343.64 131.97 343.53 C 140.87 343.48 149.76 343.57 158.65 343.47 C 158.84 356.09 158.72 368.72 158.71 381.35 C 165.28 381.75 171.86 381.51 178.44 381.49 C 178.42 349.85 178.48 318.21 178.41 286.56 C 172.23 286.58 166.04 286.36 159.87 286.63 C 158.31 287.05 158.94 288.91 158.72 290.04 C 158.72 301.52 158.83 313.00 158.67 324.48 C 151.45 324.41 144.23 324.44 137.01 324.47 C 135.68 324.56 134.46 324.25 133.36 323.54 C 133.67 311.22 133.49 298.89 133.45 286.57 C 127.15 286.48 120.84 286.55 114.54 286.51 M 197.58 305.42 C 212.23 305.35 226.89 305.41 241.54 305.39 C 241.59 311.74 241.61 318.09 241.53 324.45 C 232.69 324.43 223.85 324.46 215.01 324.43 C 211.79 324.29 208.81 325.91 205.58 325.67 C 201.56 329.42 196.65 333.96 197.44 340.01 C 197.46 353.86 197.40 367.72 197.48 381.57 C 218.77 381.49 240.07 381.64 261.37 381.50 C 261.37 375.19 261.39 368.88 261.35 362.58 C 246.45 362.42 231.54 362.68 216.64 362.44 C 216.67 356.23 216.53 350.02 216.72 343.82 C 217.13 343.59 217.94 343.14 218.34 342.92 C 228.22 342.68 238.11 343.02 247.99 342.75 C 251.22 342.79 253.57 340.32 256.40 339.15 C 257.04 336.77 259.15 335.25 260.19 333.10 C 262.02 327.93 261.20 322.39 261.37 317.04 C 261.17 310.27 262.01 303.41 260.41 296.76 C 258.04 294.18 257.01 290.56 254.17 288.42 C 252.02 288.28 249.69 288.28 248.07 286.64 C 231.22 286.35 214.36 286.65 197.50 286.49 C 197.43 292.80 197.34 299.11 197.58 305.42 Z" />
</g>
<g id="#3d3d3cff">
<path fill="#3d3d3c" stroke="#3d3d3c" stroke-width="0.09375" opacity="1.00" d=" M 125.04 39.24 C 130.97 38.33 136.99 37.91 143.00 37.99 C 154.52 38.00 166.04 38.01 177.55 37.98 C 179.18 44.44 177.84 51.15 178.21 57.72 C 163.34 57.47 148.45 57.62 133.58 57.64 C 133.45 76.55 133.51 95.46 133.55 114.37 C 148.51 114.58 163.49 114.25 178.45 114.56 C 178.45 120.89 178.38 127.23 178.49 133.57 C 173.66 133.86 168.80 133.75 163.99 134.36 C 157.95 135.00 151.96 133.15 145.94 133.98 C 142.29 134.49 138.65 133.65 135.00 133.76 C 131.04 133.67 126.72 134.35 123.16 132.18 C 120.19 129.68 116.32 127.64 115.21 123.61 C 114.02 117.92 115.18 112.04 114.18 106.33 C 113.74 86.67 114.13 66.97 114.00 47.29 C 117.39 44.29 120.44 40.39 125.04 39.24 Z" />
<path fill="#3d3d3c" stroke="#3d3d3c" stroke-width="0.09375" opacity="1.00" d=" M 207.29 38.99 C 219.87 38.35 232.52 37.76 245.11 38.52 C 249.83 38.71 255.31 39.89 257.77 44.39 C 258.72 46.13 261.40 46.79 261.29 49.05 C 261.43 73.60 262.20 98.15 261.99 122.70 C 259.01 126.68 256.77 131.98 251.57 133.50 C 247.77 134.42 243.83 134.60 239.94 134.95 C 229.04 135.12 218.12 135.18 207.27 133.98 C 203.48 131.48 200.25 128.28 196.96 125.19 C 197.05 99.21 196.99 73.23 196.99 47.25 C 200.35 44.41 203.65 41.49 207.29 38.99 M 216.66 57.67 C 216.54 76.57 216.62 95.46 216.62 114.36 C 224.93 114.55 233.24 114.36 241.54 114.43 C 241.67 110.94 241.47 107.45 241.65 103.97 C 242.37 99.02 240.90 94.04 241.89 89.10 C 242.77 86.05 241.22 83.02 241.67 79.96 C 242.58 74.36 242.25 68.66 242.07 63.02 C 242.34 61.15 242.17 59.25 241.29 57.56 C 233.08 57.69 224.87 57.49 216.66 57.67 Z" />
<path fill="#3d3d3c" stroke="#3d3d3c" stroke-width="0.09375" opacity="1.00" d=" M 114.00 152.00 C 128.35 152.03 142.70 151.94 157.05 152.04 C 162.44 152.47 168.67 152.04 172.83 156.18 C 174.02 157.92 175.12 159.79 176.94 160.97 C 178.94 167.74 178.46 174.99 178.98 181.99 C 178.72 200.00 179.75 218.07 178.13 236.04 C 178.25 239.87 174.56 241.87 172.81 244.81 C 168.67 248.96 162.44 248.51 157.06 248.95 C 142.71 249.07 128.35 248.96 114.00 249.00 C 114.00 216.67 114.00 184.33 114.00 152.00 M 133.44 172.45 C 133.56 191.12 133.55 209.79 133.44 228.46 C 137.90 229.34 142.47 229.45 146.99 229.00 C 150.34 229.31 153.71 229.24 157.07 229.21 C 157.67 228.99 158.86 228.56 159.45 228.34 C 159.36 209.72 159.36 191.09 159.45 172.47 C 155.62 172.50 151.83 171.82 148.01 171.86 C 143.18 172.55 138.30 172.18 133.44 172.45 Z" />
<path fill="#3d3d3c" stroke="#3d3d3c" stroke-width="0.09375" opacity="1.00" d=" M 196.99 162.16 C 200.31 159.02 203.40 155.62 207.17 153.01 C 211.72 152.86 216.26 152.43 220.82 152.48 C 234.11 152.56 247.40 152.48 260.69 152.31 C 262.13 158.60 260.98 165.12 261.43 171.51 C 256.40 172.82 251.17 172.19 246.04 172.30 C 236.21 172.39 226.38 172.13 216.55 172.45 C 216.66 178.42 216.55 184.40 216.66 190.37 C 223.51 190.49 230.38 190.58 237.24 190.37 L 238.17 189.52 C 245.74 188.99 253.58 189.78 261.26 189.72 C 261.32 196.92 261.19 204.12 261.33 211.32 C 246.89 211.42 232.45 212.20 218.00 212.01 C 218.00 217.34 218.00 222.66 218.00 227.99 C 232.43 227.84 246.85 228.58 261.28 228.72 C 261.45 235.48 262.17 242.23 262.01 249.00 C 249.69 249.00 237.38 248.99 225.06 249.01 C 219.63 249.06 214.19 248.61 208.81 247.90 C 203.82 247.05 200.63 242.72 197.01 239.63 C 196.98 213.81 197.01 187.98 196.99 162.16 Z" />
</g>
</svg>
