<?xml version="1.0" encoding="UTF-8" ?>
<!DOCTYPE svg PUBLIC "-//W3C//DTD SVG 1.1//EN" "http://www.w3.org/Graphics/SVG/1.1/DTD/svg11.dtd">
<svg width="563pt" height="1218pt" viewBox="0 0 563 1218" version="1.1" xmlns="http://www.w3.org/2000/svg">
<g id="#1e1e1eff">
</g>
<g id="#f8a70fff">
<path fill="#f8a70f" stroke="#f8a70f" stroke-width="0.09375" opacity="1.00" d=" M 272.45 511.71 C 275.21 501.29 287.22 509.67 291.34 514.61 C 311.62 530.48 331.60 546.77 352.08 562.37 C 352.55 562.55 353.50 562.93 353.97 563.11 C 356.51 551.05 354.20 535.39 354.96 521.97 C 354.60 518.87 357.50 517.09 359.22 514.97 C 372.48 515.02 385.75 514.99 399.02 514.99 C 401.53 514.43 402.40 517.47 402.97 519.32 C 402.26 521.25 403.76 524.44 404.92 521.20 C 409.07 515.32 410.91 503.04 420.90 506.11 C 427.20 508.77 434.22 510.14 439.84 514.14 C 468.98 516.17 498.67 514.42 528.03 515.00 C 530.12 514.78 532.22 516.87 532.01 518.98 C 531.99 532.32 532.00 545.67 532.00 559.03 C 532.21 561.12 530.12 563.23 528.02 563.01 C 521.31 563.53 514.29 561.79 507.76 563.66 L 506.95 563.99 C 505.26 584.95 505.53 608.69 506.77 630.20 C 507.09 630.38 507.74 630.72 508.06 630.89 C 524.35 632.81 541.07 640.02 551.05 653.23 C 550.97 654.74 550.97 656.27 551.07 657.81 C 543.95 668.57 532.66 677.03 523.68 686.65 C 516.80 691.35 512.42 682.32 506.28 680.69 C 502.52 680.22 498.29 679.05 494.66 680.69 C 488.24 683.06 482.95 688.25 480.71 694.73 C 479.79 698.23 479.79 701.75 480.71 705.28 C 483.09 713.72 491.01 720.48 500.02 720.02 C 508.77 722.50 513.73 711.40 521.72 712.25 C 531.16 719.28 538.57 728.78 547.28 736.72 C 549.97 738.95 553.55 743.48 550.97 746.98 C 540.96 759.84 525.17 767.65 509.01 769.02 C 503.32 768.99 497.65 768.98 491.98 769.02 C 472.96 767.34 454.74 756.85 444.04 740.98 C 439.95 737.24 438.51 730.49 434.99 727.01 C 432.65 735.97 434.58 749.31 434.02 760.03 C 434.12 761.53 434.03 764.05 431.95 763.98 C 418.22 765.05 401.16 762.14 389.03 764.99 C 390.40 771.08 388.57 782.71 379.27 778.75 C 355.46 760.28 332.21 741.03 308.22 722.79 C 307.85 722.78 307.12 722.76 306.75 722.74 C 305.03 734.72 306.59 746.86 305.90 758.91 C 305.49 760.88 304.24 762.59 302.67 763.83 C 288.78 764.31 274.89 763.82 260.99 764.00 L 260.00 764.00 C 243.66 763.40 227.15 765.19 210.91 763.13 C 209.39 762.36 208.14 760.87 207.96 759.14 C 207.38 755.98 205.78 751.43 201.00 753.99 C 187.28 754.85 171.96 752.33 159.01 754.95 L 158.60 755.73 C 156.74 758.30 156.24 763.01 152.96 763.98 C 136.66 764.01 120.36 764.02 104.06 763.98 C 102.77 763.84 102.07 763.11 101.96 761.77 C 101.96 760.14 101.96 756.87 101.97 755.24 C 104.57 749.26 108.90 744.15 111.13 738.00 C 102.30 743.34 92.43 747.62 82.00 748.04 C 75.34 748.05 68.67 747.74 62.02 748.04 C 59.66 751.83 62.87 759.97 57.92 764.08 C 43.96 763.92 30.01 764.04 16.06 763.99 C 14.40 763.56 12.74 761.85 12.99 760.02 C 13.01 720.00 13.00 679.99 13.00 639.98 C 12.92 637.71 15.18 635.80 17.07 635.05 C 21.04 634.39 25.49 636.00 29.28 634.32 C 29.52 634.03 30.02 633.44 30.26 633.15 C 32.77 594.56 29.06 555.46 31.91 516.92 C 32.32 515.55 33.54 514.67 34.98 514.99 C 54.00 515.01 73.01 514.99 92.03 515.00 C 115.91 517.27 135.85 534.86 145.78 555.94 C 154.00 532.15 176.79 513.37 201.99 510.98 C 207.99 510.98 214.00 511.03 220.01 510.98 C 240.82 511.88 258.45 525.93 270.21 542.24 C 270.69 542.93 271.27 543.53 271.97 544.03 C 274.13 535.53 273.01 522.09 272.45 511.71 M 417.19 512.05 C 412.68 520.92 406.02 529.33 403.10 538.68 C 409.16 540.38 414.82 543.25 420.86 545.05 C 424.98 535.82 431.48 527.58 435.01 518.16 C 429.23 515.88 423.30 513.02 417.19 512.05 M 278.10 513.08 C 277.89 554.06 277.99 595.06 278.06 636.04 L 279.01 635.88 C 279.55 637.52 281.68 638.08 283.07 638.94 C 293.70 639.13 304.35 639.02 314.99 638.96 C 319.23 625.48 312.07 604.50 318.08 590.59 C 336.32 605.08 354.42 619.90 373.08 633.82 C 380.86 634.38 387.70 636.48 395.17 633.93 C 395.62 633.94 396.52 633.97 396.97 633.98 L 397.94 633.98 C 398.07 596.33 398.00 558.67 397.96 521.01 L 396.98 520.99 C 387.06 518.15 371.68 520.96 360.05 520.04 C 359.37 538.78 361.15 557.66 359.12 576.31 C 332.58 555.52 306.34 534.34 279.72 513.66 C 279.31 513.51 278.50 513.23 278.10 513.08 M 201.98 517.00 C 175.47 520.49 151.88 543.10 149.01 569.97 C 146.37 573.94 147.89 585.16 148.98 589.01 C 150.32 605.27 160.48 620.22 172.98 629.91 C 176.13 628.67 176.78 622.91 180.96 622.97 C 192.57 621.33 190.74 639.60 199.98 642.01 C 204.57 644.62 217.36 643.08 222.02 642.00 C 248.79 637.85 272.11 614.37 274.02 587.02 C 275.77 584.84 275.76 574.12 274.02 571.99 C 271.45 544.37 247.48 520.32 220.03 517.00 C 216.58 514.29 205.38 515.89 201.98 517.00 M 439.00 520.03 L 439.01 521.01 C 437.03 530.46 437.49 547.49 439.01 556.99 C 445.26 559.50 456.04 557.15 463.95 558.04 C 464.79 584.78 462.55 613.72 465.03 639.11 C 475.98 633.55 487.78 630.67 499.99 629.82 C 500.24 629.62 500.74 629.22 500.99 629.03 L 501.97 628.98 C 502.12 605.33 501.86 581.69 502.05 558.05 C 509.91 557.16 520.86 559.47 526.94 557.01 C 527.10 544.70 527.02 532.38 526.96 520.08 C 497.64 519.90 468.32 520.01 439.00 520.03 M 36.00 522.01 L 35.04 522.02 C 34.95 559.35 34.99 596.67 35.03 634.00 L 36.00 633.98 L 36.03 634.94 C 52.44 635.01 68.87 635.22 85.27 634.73 C 92.72 637.30 100.99 638.07 108.00 633.98 C 124.33 627.00 136.32 612.17 141.41 595.36 C 151.04 563.04 126.75 525.16 93.02 521.99 L 92.96 521.04 C 74.30 521.59 53.10 519.67 36.00 522.01 M 421.94 551.00 C 415.48 551.32 410.17 547.09 404.01 545.93 C 403.76 546.20 403.25 546.74 403.00 547.00 L 402.04 547.03 C 402.60 575.69 400.68 606.95 403.01 634.00 L 404.00 633.99 C 410.73 636.43 421.94 634.47 430.29 634.67 C 432.57 635.24 434.08 637.39 434.41 639.65 C 433.80 650.93 433.07 664.17 435.03 674.19 C 439.82 664.48 445.80 654.47 454.73 647.72 C 456.18 645.96 460.08 644.15 458.68 641.35 C 458.76 615.90 460.15 587.88 457.99 563.98 C 453.04 561.45 443.30 563.64 436.71 563.33 C 434.29 562.93 433.58 560.23 432.67 558.33 C 433.01 551.94 434.18 543.82 431.95 538.78 C 427.71 542.13 427.98 549.72 421.94 551.00 M 321.08 602.08 C 320.95 614.82 320.73 627.59 321.34 640.34 C 320.42 642.53 318.55 644.44 316.34 645.34 C 309.58 644.52 302.74 645.12 295.97 645.00 C 288.49 639.22 290.38 646.91 292.64 646.71 C 307.67 659.17 323.17 671.58 338.99 683.05 C 339.24 683.04 339.75 683.02 340.00 683.01 L 340.94 682.96 C 341.07 667.89 341.15 652.82 340.77 637.76 C 341.63 636.65 342.63 635.64 343.74 634.78 C 346.49 635.00 349.24 635.10 352.01 635.05 C 353.09 634.72 365.44 636.03 361.20 633.39 C 348.73 622.71 335.48 612.98 322.72 602.66 C 322.31 602.51 321.49 602.22 321.08 602.08 M 145.19 604.23 C 138.09 620.87 124.29 635.15 107.10 641.25 C 107.12 641.62 107.15 642.37 107.17 642.74 C 119.53 650.71 129.37 663.09 132.41 677.66 C 131.24 681.46 133.67 685.12 132.95 688.99 C 133.39 690.09 131.93 702.35 134.67 698.26 C 146.38 677.79 158.21 657.35 169.98 636.95 C 169.67 634.04 165.64 633.20 164.15 630.85 C 155.54 623.88 150.17 613.13 145.19 604.23 M 271.24 616.29 C 268.30 619.01 266.33 622.63 264.03 625.90 C 267.02 626.68 269.05 629.20 271.91 630.10 C 271.92 625.72 272.83 618.04 271.24 616.29 M 182.12 629.31 C 157.36 671.50 132.86 713.88 108.70 756.42 C 107.55 755.47 107.63 758.33 107.05 758.98 C 120.99 758.42 137.81 760.32 149.91 757.98 C 152.68 756.37 153.44 751.90 155.06 749.00 C 173.03 749.01 191.01 749.02 208.99 748.98 C 210.64 751.73 212.06 754.63 213.87 757.29 C 213.93 757.70 214.04 758.50 214.09 758.91 C 228.43 759.16 242.79 758.99 257.14 758.93 C 256.61 757.61 256.57 755.61 255.13 755.00 C 230.82 713.27 206.77 669.96 182.12 629.31 M 256.47 632.77 C 245.62 642.47 231.59 647.49 217.33 649.41 C 213.51 648.69 209.59 649.00 205.75 649.28 C 204.25 649.27 200.70 647.99 202.36 650.69 C 220.28 681.92 238.49 712.99 256.35 744.27 C 257.32 746.99 258.70 742.61 258.03 741.01 L 258.97 740.97 C 259.04 705.31 259.00 669.66 258.98 634.01 L 258.01 633.99 C 259.13 632.40 256.05 630.80 256.47 632.77 M 263.04 633.06 C 262.96 674.70 262.99 716.35 263.03 757.99 L 264.00 757.99 C 274.06 760.37 288.33 758.38 299.98 758.96 L 300.93 758.99 C 301.31 742.79 300.61 726.58 301.20 710.40 C 301.63 710.24 302.51 709.92 302.95 709.76 C 328.75 731.02 355.32 751.40 381.35 772.40 C 380.92 774.28 384.11 772.52 383.01 771.00 C 382.96 727.36 383.07 683.71 382.96 640.06 C 370.66 639.89 358.36 639.94 346.07 640.08 C 346.03 640.50 345.96 641.36 345.93 641.79 C 343.30 654.30 345.93 670.34 345.03 684.00 C 343.67 686.99 347.93 695.23 341.91 694.19 C 316.01 673.69 290.29 652.92 264.00 632.91 L 263.04 633.06 M 488.99 637.97 C 476.30 639.54 464.41 646.42 455.56 655.53 C 428.96 679.94 431.53 727.10 460.16 748.86 C 483.59 769.79 524.78 768.15 544.98 744.03 C 538.24 735.72 529.58 728.69 522.30 720.72 C 521.41 718.48 518.45 718.50 517.25 720.26 C 507.94 729.28 492.43 728.41 482.94 720.07 C 468.40 708.77 472.11 684.26 488.28 676.27 C 498.82 671.22 511.63 674.00 519.80 681.71 C 528.10 673.10 537.27 664.92 544.97 656.01 C 537.08 646.28 524.51 639.88 512.03 638.01 C 506.99 635.23 494.04 637.01 488.99 637.97 M 19.02 641.00 L 18.06 641.03 C 17.94 680.36 17.98 719.70 18.04 759.04 L 19.01 758.91 C 31.00 759.21 43.01 758.94 55.00 758.96 C 58.18 756.21 54.83 746.63 56.00 742.03 C 69.22 741.30 83.15 744.16 95.65 738.59 C 111.79 732.47 124.67 717.16 127.03 700.02 C 129.69 697.10 128.10 685.87 126.99 682.98 C 124.15 664.27 109.14 646.20 90.11 642.95 C 88.52 641.08 85.37 641.15 83.02 640.98 L 82.95 640.05 C 61.95 640.53 38.36 638.72 19.02 641.00 M 392.02 641.00 L 391.06 641.03 C 390.94 680.36 390.98 719.70 391.04 759.04 L 392.01 758.91 C 403.99 759.21 415.99 758.94 427.99 758.96 L 428.94 758.99 C 429.07 719.66 429.00 680.33 428.97 641.00 L 427.99 641.01 C 418.54 639.02 401.49 639.50 392.02 641.00 Z" />
</g>
<g id="#b4842cff">
</g>
<g id="#eeb242ff">
<path fill="#eeb242" stroke="#eeb242" stroke-width="0.09375" opacity="1.00" d=" M 272.45 511.71 C 273.01 522.09 274.13 535.53 271.97 544.03 C 272.20 533.61 271.60 523.18 272.22 512.78 L 272.45 511.71 Z" />
</g>
<g id="#c60903ff">
<path fill="#c60903" stroke="#c60903" stroke-width="0.09375" opacity="1.00" d=" M 417.19 512.05 C 423.30 513.02 429.23 515.88 435.01 518.16 C 431.48 527.58 424.98 535.82 420.86 545.05 C 414.82 543.25 409.16 540.38 403.10 538.68 C 406.02 529.33 412.68 520.92 417.19 512.05 Z" />
</g>
<g id="#443412ff">
</g>
<g id="#ca380aff">
<path fill="#ca380a" stroke="#ca380a" stroke-width="0.09375" opacity="1.00" d=" M 278.10 513.08 C 278.50 513.23 279.31 513.51 279.72 513.66 C 278.05 554.33 279.47 595.15 279.01 635.88 L 278.06 636.04 C 277.99 595.06 277.89 554.06 278.10 513.08 Z" />
</g>
<g id="#835f25ff">
</g>
<g id="#c70201ff">
<path fill="#c70201" stroke="#c70201" stroke-width="0.09375" opacity="1.00" d=" M 279.01 635.88 C 279.47 595.15 278.05 554.33 279.72 513.66 C 306.34 534.34 332.58 555.52 359.12 576.31 C 359.56 576.56 360.43 577.05 360.87 577.29 C 361.29 558.55 360.73 539.80 361.07 521.06 C 372.40 520.87 383.73 521.00 395.06 521.01 C 396.69 558.54 396.49 596.39 395.17 633.93 C 387.70 636.48 380.86 634.38 373.08 633.82 C 354.42 619.90 336.32 605.08 318.08 590.59 C 317.22 589.78 316.22 589.13 315.14 588.71 C 314.78 605.46 315.11 622.21 314.99 638.96 C 304.35 639.02 293.70 639.13 283.07 638.94 C 281.68 638.08 279.55 637.52 279.01 635.88 Z" />
<path fill="#c70201" stroke="#c70201" stroke-width="0.09375" opacity="1.00" d=" M 264.00 632.91 C 290.29 652.92 316.01 673.69 341.91 694.19 C 343.22 695.22 344.59 696.19 346.01 697.10 C 345.98 678.66 346.09 660.23 345.93 641.79 C 357.85 640.29 369.92 641.08 381.91 641.09 C 381.69 684.85 382.81 728.70 381.35 772.40 C 355.32 751.40 328.75 731.02 302.95 709.76 C 301.07 708.24 295.79 708.06 300.00 713.98 C 299.93 728.96 300.06 743.96 299.98 758.96 C 288.33 758.38 274.06 760.37 264.00 757.99 C 264.00 716.29 264.00 674.60 264.00 632.91 Z" />
</g>
<g id="#b4862aff">
</g>
<g id="#b98a29ff">
</g>
<g id="#cd9b33ff">
<path fill="#cd9b33" stroke="#cd9b33" stroke-width="0.09375" opacity="1.00" d=" M 353.97 520.97 C 353.50 517.97 356.34 515.10 359.22 514.97 C 357.50 517.09 354.60 518.87 354.96 521.97 C 354.20 535.39 356.51 551.05 353.97 563.11 C 354.02 549.06 354.02 535.01 353.97 520.97 Z" />
</g>
<g id="#e66819ff">
<path fill="#e66819" stroke="#e66819" stroke-width="0.09375" opacity="1.00" d=" M 201.98 517.00 C 205.38 515.89 216.58 514.29 220.03 517.00 C 214.01 516.98 207.99 516.96 201.98 517.00 Z" />
</g>
<g id="#ecaf24ff">
<path fill="#ecaf24" stroke="#ecaf24" stroke-width="0.09375" opacity="1.00" d=" M 30.02 519.04 C 30.19 518.05 30.82 517.34 31.91 516.92 C 29.06 555.46 32.77 594.56 30.26 633.15 C 29.69 595.12 30.12 557.08 30.02 519.04 Z" />
</g>
<g id="#c70301ff">
<path fill="#c70301" stroke="#c70301" stroke-width="0.09375" opacity="1.00" d=" M 149.01 569.97 C 151.88 543.10 175.47 520.49 201.98 517.00 C 207.99 516.96 214.01 516.98 220.03 517.00 C 247.48 520.32 271.45 544.37 274.02 571.99 C 274.00 576.98 273.97 582.01 274.02 587.02 C 272.11 614.37 248.79 637.85 222.02 642.00 C 214.67 642.01 207.32 642.01 199.98 642.01 C 190.74 639.60 192.57 621.33 180.96 622.97 C 176.78 622.91 176.13 628.67 172.98 629.91 C 160.48 620.22 150.32 605.27 148.98 589.01 C 149.01 582.65 148.98 576.31 149.01 569.97 M 207.41 553.46 C 192.64 555.07 181.54 571.16 185.38 585.62 C 187.71 594.42 194.34 602.06 203.12 604.86 C 217.10 610.01 234.01 600.58 237.04 586.03 C 242.32 568.82 224.94 550.04 207.41 553.46 Z" />
<path fill="#c70301" stroke="#c70301" stroke-width="0.09375" opacity="1.00" d=" M 455.56 655.53 C 464.41 646.42 476.30 639.54 488.99 637.97 C 496.66 638.01 504.34 637.98 512.03 638.01 C 524.51 639.88 537.08 646.28 544.97 656.01 C 537.27 664.92 528.10 673.10 519.80 681.71 C 511.63 674.00 498.82 671.22 488.28 676.27 C 472.11 684.26 468.40 708.77 482.94 720.07 C 492.43 728.41 507.94 729.28 517.25 720.26 C 518.45 718.50 521.41 718.48 522.30 720.72 C 529.58 728.69 538.24 735.72 544.98 744.03 C 524.78 768.15 483.59 769.79 460.16 748.86 C 431.53 727.10 428.96 679.94 455.56 655.53 Z" />
</g>
<g id="#7e5e24ff">
</g>
<g id="#885c1cff">
</g>
<g id="#d29f31ff">
<path fill="#d29f31" stroke="#d29f31" stroke-width="0.09375" opacity="1.00" d=" M 532.01 518.98 C 532.26 519.48 532.77 520.49 533.02 521.00 C 532.99 533.00 532.95 545.00 533.02 557.01 C 532.77 557.52 532.26 558.52 532.00 559.03 C 532.00 545.67 531.99 532.32 532.01 518.98 Z" />
</g>
<g id="#e15112ff">
<path fill="#e15112" stroke="#e15112" stroke-width="0.09375" opacity="1.00" d=" M 360.05 520.04 C 371.68 520.96 387.06 518.15 396.98 520.99 C 396.50 521.00 395.54 521.01 395.06 521.01 C 383.73 521.00 372.40 520.87 361.07 521.06 C 360.73 539.80 361.29 558.55 360.87 577.29 C 360.43 577.05 359.56 576.56 359.12 576.31 C 361.15 557.66 359.37 538.78 360.05 520.04 Z" />
</g>
<g id="#e4580cff">
<path fill="#e4580c" stroke="#e4580c" stroke-width="0.09375" opacity="1.00" d=" M 439.00 520.03 C 468.32 520.01 497.64 519.90 526.96 520.08 C 527.02 532.38 527.10 544.70 526.94 557.01 L 525.98 556.98 C 525.94 545.01 526.17 533.04 525.91 521.09 C 496.95 520.86 467.98 521.07 439.01 521.01 L 439.00 520.03 Z" />
</g>
<g id="#bc1402ff">
<path fill="#bc1402" stroke="#bc1402" stroke-width="0.09375" opacity="1.00" d=" M 36.00 522.01 C 53.10 519.67 74.30 521.59 92.96 521.04 L 93.02 521.99 C 76.01 522.01 58.99 522.02 41.98 521.93 C 40.30 522.09 38.12 521.51 37.13 523.30 C 36.79 558.21 37.13 593.12 36.96 628.04 C 36.58 630.57 38.67 632.24 40.11 633.97 C 38.74 633.97 37.37 633.97 36.00 633.98 C 36.01 596.65 35.99 559.33 36.00 522.01 Z" />
</g>
<g id="#482e0fff">
</g>
<g id="#bf2301ff">
<path fill="#bf2301" stroke="#bf2301" stroke-width="0.09375" opacity="1.00" d=" M 395.06 521.01 C 395.54 521.01 396.50 521.00 396.98 520.99 C 397.00 558.66 397.03 596.32 396.97 633.98 C 396.52 633.97 395.62 633.94 395.17 633.93 C 396.49 596.39 396.69 558.54 395.06 521.01 Z" />
</g>
<g id="#f6811fff">
<path fill="#f6811f" stroke="#f6811f" stroke-width="0.09375" opacity="1.00" d=" M 396.98 520.99 L 397.96 521.01 C 398.00 558.67 398.07 596.33 397.94 633.98 L 396.97 633.98 C 397.03 596.32 397.00 558.66 396.98 520.99 Z" />
</g>
<g id="#df611cff">
<path fill="#df611c" stroke="#df611c" stroke-width="0.09375" opacity="1.00" d=" M 439.01 556.99 C 437.49 547.49 437.03 530.46 439.01 521.01 C 439.00 533.00 438.98 544.99 439.01 556.99 Z" />
</g>
<g id="#c70101ff">
<path fill="#c70101" stroke="#c70101" stroke-width="0.09375" opacity="1.00" d=" M 439.01 521.01 C 467.98 521.07 496.95 520.86 525.91 521.09 C 526.17 533.04 525.94 545.01 525.98 556.98 C 517.95 558.02 508.05 555.13 500.78 557.80 C 498.91 581.59 500.55 605.85 499.99 629.82 C 487.78 630.67 475.98 633.55 465.03 639.11 C 464.89 611.76 465.15 584.41 464.93 557.06 C 456.28 556.85 447.64 557.01 439.01 556.99 C 438.98 544.99 439.00 533.00 439.01 521.01 Z" />
<path fill="#c70101" stroke="#c70101" stroke-width="0.09375" opacity="1.00" d=" M 392.02 641.00 C 404.01 640.99 416.00 640.99 427.99 641.01 C 428.00 680.33 428.01 719.64 427.99 758.96 C 415.99 758.94 403.99 759.21 392.01 758.91 C 392.00 719.61 391.98 680.31 392.02 641.00 Z" />
</g>
<g id="#3f3008ff">
</g>
<g id="#fc8023ff">
<path fill="#fc8023" stroke="#fc8023" stroke-width="0.09375" opacity="1.00" d=" M 35.04 522.02 L 36.00 522.01 C 35.99 559.33 36.01 596.65 36.00 633.98 L 35.03 634.00 C 34.99 596.67 34.95 559.35 35.04 522.02 Z" />
</g>
<g id="#c80201ff">
<path fill="#c80201" stroke="#c80201" stroke-width="0.09375" opacity="1.00" d=" M 37.13 523.30 C 38.12 521.51 40.30 522.09 41.98 521.93 C 58.99 522.02 76.01 522.01 93.02 521.99 C 126.75 525.16 151.04 563.04 141.41 595.36 C 136.32 612.17 124.33 627.00 108.00 633.98 C 100.99 638.07 92.72 637.30 85.27 634.73 C 70.29 633.10 55.16 634.41 40.11 633.97 C 38.67 632.24 36.58 630.57 36.96 628.04 C 37.13 593.12 36.79 558.21 37.13 523.30 M 72.07 558.01 C 72.44 572.36 70.78 589.37 73.01 601.94 C 80.98 601.81 90.42 603.71 96.99 597.99 C 107.93 591.25 109.15 574.43 100.81 565.18 C 94.18 556.45 82.72 557.44 73.02 558.04 L 72.07 558.01 Z" />
<path fill="#c80201" stroke="#c80201" stroke-width="0.09375" opacity="1.00" d=" M 182.12 629.31 C 206.77 669.96 230.82 713.27 255.13 755.00 C 255.04 755.72 254.86 757.17 254.78 757.89 C 241.15 757.94 227.45 758.61 213.87 757.29 C 212.06 754.63 210.64 751.73 208.99 748.98 C 193.14 746.65 175.50 748.67 158.97 747.94 C 157.76 748.27 155.44 747.34 155.06 749.00 C 153.44 751.90 152.68 756.37 149.91 757.98 C 136.52 756.17 121.32 761.26 108.70 756.42 C 132.86 713.88 157.36 671.50 182.12 629.31 M 182.16 703.40 C 179.33 705.43 178.62 709.12 177.04 712.05 C 179.57 712.01 184.63 711.95 187.16 711.92 C 185.73 709.38 184.47 704.19 182.16 703.40 Z" />
</g>
<g id="#1f1e1dff">
</g>
<g id="#c69134ff">
</g>
<g id="#745625ff">
</g>
<g id="#f0ac2bff">
<path fill="#f0ac2b" stroke="#f0ac2b" stroke-width="0.09375" opacity="1.00" d=" M 402.04 547.03 L 403.00 547.00 C 403.01 576.00 402.98 605.00 403.01 634.00 C 400.68 606.95 402.60 575.69 402.04 547.03 Z" />
</g>
<g id="#f4a312ff">
<path fill="#f4a312" stroke="#f4a312" stroke-width="0.09375" opacity="1.00" d=" M 207.41 553.46 C 224.94 550.04 242.32 568.82 237.04 586.03 C 234.01 600.58 217.10 610.01 203.12 604.86 C 194.34 602.06 187.71 594.42 185.38 585.62 C 181.54 571.16 192.64 555.07 207.41 553.46 M 191.99 574.98 C 190.14 578.30 190.14 581.65 191.99 585.03 C 193.45 591.53 199.01 596.56 205.06 598.99 C 205.91 601.57 216.31 600.29 216.92 598.97 C 229.82 595.57 236.38 578.16 227.28 567.74 C 218.44 554.17 194.57 558.86 191.99 574.98 Z" />
</g>
<g id="#dd4b15ff">
<path fill="#dd4b15" stroke="#dd4b15" stroke-width="0.09375" opacity="1.00" d=" M 439.01 556.99 C 447.64 557.01 456.28 556.85 464.93 557.06 C 465.15 584.41 464.89 611.76 465.03 639.11 C 462.55 613.72 464.79 584.78 463.95 558.04 C 456.04 557.15 445.26 559.50 439.01 556.99 Z" />
</g>
<g id="#f8821cff">
<path fill="#f8821c" stroke="#f8821c" stroke-width="0.09375" opacity="1.00" d=" M 500.78 557.80 C 508.05 555.13 517.95 558.02 525.98 556.98 L 526.94 557.01 C 520.86 559.47 509.91 557.16 502.05 558.05 C 501.86 581.69 502.12 605.33 501.97 628.98 L 500.99 629.03 C 500.83 605.28 501.33 581.53 500.78 557.80 Z" />
</g>
<g id="#cc3b0bff">
<path fill="#cc3b0b" stroke="#cc3b0b" stroke-width="0.09375" opacity="1.00" d=" M 72.07 558.01 L 73.02 558.04 C 72.99 572.67 72.99 587.30 73.01 601.94 C 70.78 589.37 72.44 572.36 72.07 558.01 Z" />
</g>
<g id="#f7a611ff">
<path fill="#f7a611" stroke="#f7a611" stroke-width="0.09375" opacity="1.00" d=" M 73.02 558.04 C 82.72 557.44 94.18 556.45 100.81 565.18 C 109.15 574.43 107.93 591.25 96.99 597.99 C 90.42 603.71 80.98 601.81 73.01 601.94 C 72.99 587.30 72.99 572.67 73.02 558.04 M 79.01 595.98 C 87.54 597.07 97.74 592.78 99.68 583.69 C 102.69 571.95 90.45 561.09 79.01 564.01 C 76.63 571.87 77.77 588.07 79.01 595.98 Z" />
</g>
<g id="#c12501ff">
<path fill="#c12501" stroke="#c12501" stroke-width="0.09375" opacity="1.00" d=" M 499.99 629.82 C 500.55 605.85 498.91 581.59 500.78 557.80 C 501.33 581.53 500.83 605.28 500.99 629.03 C 500.74 629.22 500.24 629.62 499.99 629.82 Z" />
</g>
<g id="#211f1cff">
</g>
<g id="#a17528ff">
</g>
<g id="#9e7428ff">
</g>
<g id="#e8b24bff">
<path fill="#e8b24b" stroke="#e8b24b" stroke-width="0.09375" opacity="1.00" d=" M 79.01 595.98 C 77.77 588.07 76.63 571.87 79.01 564.01 C 78.99 574.66 78.99 585.32 79.01 595.98 Z" />
</g>
<g id="#24201bff">
</g>
<g id="#462a0aff">
</g>
<g id="#dfa437ff">
<path fill="#dfa437" stroke="#dfa437" stroke-width="0.09375" opacity="1.00" d=" M 457.99 563.98 C 460.15 587.88 458.76 615.90 458.68 641.35 C 458.46 640.82 458.03 639.75 457.82 639.21 C 458.24 614.14 457.89 589.06 457.99 563.98 Z" />
</g>
<g id="#e5ab29ff">
<path fill="#e5ab29" stroke="#e5ab29" stroke-width="0.09375" opacity="1.00" d=" M 506.77 630.20 C 505.53 608.69 505.26 584.95 506.95 563.99 C 506.85 586.06 507.35 608.14 506.77 630.20 Z" />
</g>
<g id="#825e26ff">
</g>
<g id="#ce3e09ff">
<path fill="#ce3e09" stroke="#ce3e09" stroke-width="0.09375" opacity="1.00" d=" M 148.98 589.01 C 147.89 585.16 146.37 573.94 149.01 569.97 C 148.98 576.31 149.01 582.65 148.98 589.01 Z" />
</g>
<g id="#e2600cff">
<path fill="#e2600c" stroke="#e2600c" stroke-width="0.09375" opacity="1.00" d=" M 274.02 571.99 C 275.76 574.12 275.77 584.84 274.02 587.02 C 273.97 582.01 274.00 576.98 274.02 571.99 Z" />
</g>
<g id="#765621ff">
</g>
<g id="#fc8323ff">
<path fill="#fc8323" stroke="#fc8323" stroke-width="0.09375" opacity="1.00" d=" M 315.14 588.71 C 316.22 589.13 317.22 589.78 318.08 590.59 C 312.07 604.50 319.23 625.48 314.99 638.96 C 315.11 622.21 314.78 605.46 315.14 588.71 Z" />
</g>
<g id="#8f6f1dff">
</g>
<g id="#88611aff">
</g>
<g id="#22201cff">
</g>
<g id="#422b0cff">
</g>
<g id="#8d702fff">
</g>
<g id="#201f1dff">
</g>
<g id="#f5891cff">
<path fill="#f5891c" stroke="#f5891c" stroke-width="0.09375" opacity="1.00" d=" M 263.04 633.06 L 264.00 632.91 C 264.00 674.60 264.00 716.29 264.00 757.99 L 263.03 757.99 C 262.99 716.35 262.96 674.70 263.04 633.06 Z" />
</g>
<g id="#a87c21ff">
</g>
<g id="#825c21ff">
</g>
<g id="#df600fff">
<path fill="#df600f" stroke="#df600f" stroke-width="0.09375" opacity="1.00" d=" M 36.00 633.98 C 37.37 633.97 38.74 633.97 40.11 633.97 C 55.16 634.41 70.29 633.10 85.27 634.73 C 68.87 635.22 52.44 635.01 36.03 634.94 L 36.00 633.98 Z" />
</g>
<g id="#edaf27ff">
<path fill="#edaf27" stroke="#edaf27" stroke-width="0.09375" opacity="1.00" d=" M 258.01 633.99 L 258.98 634.01 C 259.00 669.66 259.04 705.31 258.97 740.97 L 258.03 741.01 C 257.97 705.33 258.01 669.66 258.01 633.99 Z" />
</g>
<g id="#b38426ff">
<path fill="#b38426" stroke="#b38426" stroke-width="0.09375" opacity="1.00" d=" M 404.00 633.99 C 412.76 634.12 421.58 633.43 430.29 634.67 C 421.94 634.47 410.73 636.43 404.00 633.99 Z" />
</g>
<g id="#ca390aff">
<path fill="#ca390a" stroke="#ca390a" stroke-width="0.09375" opacity="1.00" d=" M 488.99 637.97 C 494.04 637.01 506.99 635.23 512.03 638.01 C 504.34 637.98 496.66 638.01 488.99 637.97 Z" />
</g>
<g id="#e7aa33ff">
<path fill="#e7aa33" stroke="#e7aa33" stroke-width="0.09375" opacity="1.00" d=" M 339.71 640.75 C 339.89 639.68 340.24 638.69 340.77 637.76 C 341.15 652.82 341.07 667.89 340.94 682.96 L 340.00 683.01 C 339.96 668.92 340.19 654.83 339.71 640.75 Z" />
</g>
<g id="#b28331ff">
</g>
<g id="#fa7f19ff">
<path fill="#fa7f19" stroke="#fa7f19" stroke-width="0.09375" opacity="1.00" d=" M 19.02 641.00 C 38.36 638.72 61.95 640.53 82.95 640.05 L 83.02 640.98 C 61.69 641.03 40.35 640.97 19.02 641.00 Z" />
</g>
<g id="#d74b0bff">
<path fill="#d74b0b" stroke="#d74b0b" stroke-width="0.09375" opacity="1.00" d=" M 346.07 640.08 C 358.36 639.94 370.66 639.89 382.96 640.06 C 383.07 683.71 382.96 727.36 383.01 771.00 C 384.11 772.52 380.92 774.28 381.35 772.40 C 382.81 728.70 381.69 684.85 381.91 641.09 C 369.92 641.08 357.85 640.29 345.93 641.79 C 345.96 641.36 346.03 640.50 346.07 640.08 Z" />
</g>
<g id="#ea670dff">
<path fill="#ea670d" stroke="#ea670d" stroke-width="0.09375" opacity="1.00" d=" M 392.02 641.00 C 401.49 639.50 418.54 639.02 427.99 641.01 C 416.00 640.99 404.01 640.99 392.02 641.00 Z" />
</g>
<g id="#dba542ff">
<path fill="#dba542" stroke="#dba542" stroke-width="0.09375" opacity="1.00" d=" M 434.41 639.65 C 436.11 651.02 434.40 662.71 435.03 674.19 C 433.07 664.17 433.80 650.93 434.41 639.65 Z" />
</g>
<g id="#f37c2cff">
<path fill="#f37c2c" stroke="#f37c2c" stroke-width="0.09375" opacity="1.00" d=" M 18.06 641.03 L 19.02 641.00 C 18.98 680.31 19.00 719.61 19.01 758.91 L 18.04 759.04 C 17.98 719.70 17.94 680.36 18.06 641.03 Z" />
</g>
<g id="#bf0d02ff">
<path fill="#bf0d02" stroke="#bf0d02" stroke-width="0.09375" opacity="1.00" d=" M 19.02 641.00 C 40.35 640.97 61.69 641.03 83.02 640.98 C 85.37 641.15 88.52 641.08 90.11 642.95 C 68.09 642.43 46.04 643.36 24.00 642.99 C 20.31 642.17 21.60 648.55 21.06 650.01 C 20.86 683.34 21.13 716.68 20.94 750.01 C 22.37 751.78 19.39 756.48 22.31 757.85 C 33.19 758.23 44.08 757.93 54.97 757.99 L 55.00 758.96 C 43.01 758.94 31.00 759.21 19.01 758.91 C 19.00 719.61 18.98 680.31 19.02 641.00 Z" />
</g>
<g id="#735517ff">
</g>
<g id="#f07015ff">
<path fill="#f07015" stroke="#f07015" stroke-width="0.09375" opacity="1.00" d=" M 391.06 641.03 L 392.02 641.00 C 391.98 680.31 392.00 719.61 392.01 758.91 L 391.04 759.04 C 390.98 719.70 390.94 680.36 391.06 641.03 Z" />
</g>
<g id="#d95719ff">
<path fill="#d95719" stroke="#d95719" stroke-width="0.09375" opacity="1.00" d=" M 427.99 641.01 L 428.97 641.00 C 429.00 680.33 429.07 719.66 428.94 758.99 L 427.99 758.96 C 428.01 719.64 428.00 680.33 427.99 641.01 Z" />
</g>
<g id="#c80101ff">
<path fill="#c80101" stroke="#c80101" stroke-width="0.09375" opacity="1.00" d=" M 24.00 642.99 C 46.04 643.36 68.09 642.43 90.11 642.95 C 109.14 646.20 124.15 664.27 126.99 682.98 C 127.01 688.65 127.00 694.33 127.03 700.02 C 124.67 717.16 111.79 732.47 95.65 738.59 C 83.15 744.16 69.22 741.30 56.00 742.03 C 53.32 745.23 55.88 753.24 54.97 757.99 C 44.08 757.93 33.19 758.23 22.31 757.85 C 19.39 756.48 22.37 751.78 20.94 750.01 C 21.13 716.68 20.86 683.34 21.06 650.01 C 21.60 648.55 20.31 642.17 24.00 642.99 M 56.02 678.01 C 53.48 684.14 54.86 698.76 56.01 704.98 C 60.86 707.77 74.00 705.96 79.02 705.03 C 93.51 704.07 95.19 679.69 80.03 678.00 C 74.51 675.26 61.39 676.98 56.02 678.01 Z" />
</g>
<g id="#d24a11ff">
<path fill="#d24a11" stroke="#d24a11" stroke-width="0.09375" opacity="1.00" d=" M 199.98 642.01 C 207.32 642.01 214.67 642.01 222.02 642.00 C 217.36 643.08 204.57 644.62 199.98 642.01 Z" />
</g>
<g id="#fd8b22ff">
<path fill="#fd8b22" stroke="#fd8b22" stroke-width="0.09375" opacity="1.00" d=" M 345.03 684.00 C 345.93 670.34 343.30 654.30 345.93 641.79 C 346.09 660.23 345.98 678.66 346.01 697.10 C 344.59 696.19 343.22 695.22 341.91 694.19 C 347.93 695.23 343.67 686.99 345.03 684.00 Z" />
</g>
<g id="#583d0bff">
</g>
<g id="#795315ff">
</g>
<g id="#947224ff">
</g>
<g id="#da4f0fff">
<path fill="#da4f0f" stroke="#da4f0f" stroke-width="0.09375" opacity="1.00" d=" M 56.02 678.01 C 61.39 676.98 74.51 675.26 80.03 678.00 C 72.03 677.97 64.02 677.99 56.02 678.01 Z" />
</g>
<g id="#df4a0fff">
<path fill="#df4a0f" stroke="#df4a0f" stroke-width="0.09375" opacity="1.00" d=" M 56.01 704.98 C 54.86 698.76 53.48 684.14 56.02 678.01 C 55.99 686.99 56.00 695.98 56.01 704.98 Z" />
</g>
<g id="#f6a612ff">
<path fill="#f6a612" stroke="#f6a612" stroke-width="0.09375" opacity="1.00" d=" M 56.02 678.01 C 64.02 677.99 72.03 677.97 80.03 678.00 C 95.19 679.69 93.51 704.07 79.02 705.03 C 71.35 704.99 63.68 704.99 56.01 704.98 C 56.00 695.98 55.99 686.99 56.02 678.01 M 62.04 684.06 C 62.04 687.77 62.04 695.20 62.04 698.92 C 70.00 698.82 83.26 702.19 84.57 691.22 C 83.10 680.39 69.35 684.35 62.04 684.06 Z" />
</g>
<g id="#cc9937ff">
</g>
<g id="#6b4f18ff">
</g>
<g id="#de530aff">
<path fill="#de530a" stroke="#de530a" stroke-width="0.09375" opacity="1.00" d=" M 126.99 682.98 C 128.10 685.87 129.69 697.10 127.03 700.02 C 127.00 694.33 127.01 688.65 126.99 682.98 Z" />
</g>
<g id="#26211aff">
</g>
<g id="#694e20ff">
</g>
<g id="#f9921cff">
<path fill="#f9921c" stroke="#f9921c" stroke-width="0.09375" opacity="1.00" d=" M 182.16 703.40 C 184.47 704.19 185.73 709.38 187.16 711.92 C 184.63 711.95 179.57 712.01 177.04 712.05 C 178.62 709.12 179.33 705.43 182.16 703.40 Z" />
</g>
<g id="#d64a03ff">
<path fill="#d64a03" stroke="#d64a03" stroke-width="0.09375" opacity="1.00" d=" M 56.01 704.98 C 63.68 704.99 71.35 704.99 79.02 705.03 C 74.00 705.96 60.86 707.77 56.01 704.98 Z" />
</g>
<g id="#d2421aff">
<path fill="#d2421a" stroke="#d2421a" stroke-width="0.09375" opacity="1.00" d=" M 300.00 713.98 C 295.79 708.06 301.07 708.24 302.95 709.76 C 302.51 709.92 301.63 710.24 301.20 710.40 C 300.61 726.58 301.31 742.79 300.93 758.99 L 299.98 758.96 C 300.06 743.96 299.93 728.96 300.00 713.98 Z" />
</g>
<g id="#4a3306ff">
</g>
<g id="#e0a832ff">
<path fill="#e0a832" stroke="#e0a832" stroke-width="0.09375" opacity="1.00" d=" M 305.90 758.91 C 306.59 746.86 305.03 734.72 306.75 722.74 C 307.08 735.13 307.04 747.53 306.99 759.94 C 306.09 762.53 304.26 765.76 301.02 765.03 C 288.34 764.98 275.66 764.97 262.99 765.01 C 262.49 764.76 261.49 764.25 260.99 764.00 C 274.89 763.82 288.78 764.31 302.67 763.83 C 304.24 762.59 305.49 760.88 305.90 758.91 Z" />
</g>
<g id="#dba543ff">
<path fill="#dba543" stroke="#dba543" stroke-width="0.09375" opacity="1.00" d=" M 434.02 760.03 C 434.58 749.31 432.65 735.97 434.99 727.01 C 433.96 737.34 436.91 751.27 434.02 760.03 Z" />
</g>
<g id="#df4a0eff">
<path fill="#df4a0e" stroke="#df4a0e" stroke-width="0.09375" opacity="1.00" d=" M 54.97 757.99 C 55.88 753.24 53.32 745.23 56.00 742.03 C 54.83 746.63 58.18 756.21 55.00 758.96 L 54.97 757.99 Z" />
</g>
<g id="#cf9f3bff">
<path fill="#cf9f3b" stroke="#cf9f3b" stroke-width="0.09375" opacity="1.00" d=" M 57.92 764.08 C 62.87 759.97 59.66 751.83 62.02 748.04 L 62.05 748.97 C 61.33 753.33 64.48 763.04 57.92 764.08 Z" />
</g>
<g id="#785812ff">
</g>
<g id="#cb3d02ff">
<path fill="#cb3d02" stroke="#cb3d02" stroke-width="0.09375" opacity="1.00" d=" M 155.06 749.00 C 155.44 747.34 157.76 748.27 158.97 747.94 C 175.50 748.67 193.14 746.65 208.99 748.98 C 191.01 749.02 173.03 749.01 155.06 749.00 Z" />
</g>
<g id="#d7a234ff">
<path fill="#d7a234" stroke="#d7a234" stroke-width="0.09375" opacity="1.00" d=" M 159.01 754.95 C 171.96 752.33 187.28 754.85 201.00 753.99 C 205.78 751.43 207.38 755.98 207.96 759.14 C 206.84 758.19 206.05 756.96 205.13 755.86 C 190.29 753.80 174.29 755.60 159.01 754.95 Z" />
</g>
<g id="#9c7b2cff">
</g>
<g id="#46360dff">
</g>
<g id="#bc2801ff">
<path fill="#bc2801" stroke="#bc2801" stroke-width="0.09375" opacity="1.00" d=" M 255.13 755.00 C 256.57 755.61 256.61 757.61 257.14 758.93 C 242.79 758.99 228.43 759.16 214.09 758.91 C 214.04 758.50 213.93 757.70 213.87 757.29 C 227.45 758.61 241.15 757.94 254.78 757.89 C 254.86 757.17 255.04 755.72 255.13 755.00 Z" />
</g>
<g id="#bb2700ff">
<path fill="#bb2700" stroke="#bb2700" stroke-width="0.09375" opacity="1.00" d=" M 107.05 758.98 C 107.63 758.33 107.55 755.47 108.70 756.42 C 121.32 761.26 136.52 756.17 149.91 757.98 C 137.81 760.32 120.99 758.42 107.05 758.98 Z" />
</g>
<g id="#e1ad34ff">
<path fill="#e1ad34" stroke="#e1ad34" stroke-width="0.09375" opacity="1.00" d=" M 210.91 763.13 C 227.15 765.19 243.66 763.40 260.00 764.00 C 259.73 765.09 258.73 765.44 257.00 765.03 C 242.65 764.94 228.31 765.02 213.97 765.01 C 212.45 765.36 211.58 764.30 210.91 763.13 Z" />
</g>
<g id="#e1ae34ff">
<path fill="#e1ae34" stroke="#e1ae34" stroke-width="0.09375" opacity="1.00" d=" M 16.06 763.99 C 30.01 764.04 43.96 763.92 57.92 764.08 C 57.44 764.31 56.49 764.78 56.01 765.02 C 43.34 764.97 30.66 764.98 17.98 765.01 C 17.50 764.76 16.54 764.25 16.06 763.99 Z" />
</g>
<g id="#deac34ff">
<path fill="#deac34" stroke="#deac34" stroke-width="0.09375" opacity="1.00" d=" M 104.06 763.98 C 120.36 764.02 136.66 764.01 152.96 763.98 C 152.76 765.09 151.77 765.43 150.00 765.03 C 135.66 764.97 121.33 764.97 106.99 765.02 C 105.21 765.43 104.23 765.08 104.06 763.98 Z" />
</g>
<g id="#dfac34ff">
<path fill="#dfac34" stroke="#dfac34" stroke-width="0.09375" opacity="1.00" d=" M 389.03 764.99 C 401.16 762.14 418.22 765.05 431.95 763.98 C 431.76 765.08 430.77 765.43 429.00 765.03 C 416.32 764.97 403.65 764.96 390.98 765.02 C 390.49 765.02 389.52 765.00 389.03 764.99 Z" />
</g>
<g id="#705320ff">
</g>
<g id="#705421ff">
</g>
<g id="#725220ff">
</g>
<g id="#715220ff">
</g>
<g id="#705220ff">
</g>
<g id="#936e30ff">
</g>
<g id="#b4b065ff">
</g>
<g id="#f8f557ff">
</g>
<g id="#f9f140ff">
</g>
<g id="#fdfd71ff">
</g>
<g id="#d7ca5fff">
</g>
<g id="#f3b818ff">
</g>
<g id="#fdfb89ff">
</g>
<g id="#f7da20ff">
</g>
<g id="#fcfaa6ff">
</g>
<g id="#e7a427ff">
</g>
<g id="#fffdc0ff">
</g>
<g id="#885c2aff">
</g>
<g id="#24221bff">
</g>
<g id="#7c5e26ff">
</g>
<g id="#faf53eff">
</g>
<g id="#f7dd27ff">
</g>
<g id="#df9c2cff">
</g>
<g id="#dbd264ff">
</g>
<g id="#23211eff">
</g>
<g id="#db9f3aff">
</g>
<g id="#7f5b1dff">
</g>
<g id="#f9f990ff">
</g>
<g id="#686443ff">
</g>
<g id="#e4a61eff">
</g>
<g id="#e9e495ff">
</g>
<g id="#d89a2dff">
</g>
<g id="#eaba23ff">
</g>
<g id="#22201dff">
</g>
<g id="#f8f677ff">
</g>
<g id="#d4ba46ff">
</g>
<g id="#f5e12bff">
</g>
<g id="#fefd55ff">
</g>
<g id="#797733ff">
</g>
<g id="#fefe69ff">
</g>
<g id="#9b9341ff">
</g>
<g id="#fdfc49ff">
</g>
<g id="#ece576ff">
</g>
<g id="#23211cff">
</g>
<g id="#fefd7cff">
</g>
<g id="#bd9a57ff">
</g>
<g id="#de9321ff">
</g>
<g id="#fafa71ff">
</g>
<g id="#d3952cff">
</g>
<g id="#9b9444ff">
</g>
<g id="#fdfb5eff">
</g>
<g id="#fcf02fff">
</g>
<g id="#d8d370ff">
</g>
<g id="#f8c113ff">
</g>
<g id="#e1941fff">
</g>
<g id="#25211bff">
</g>
<g id="#ec9516ff">
</g>
<g id="#eade6aff">
</g>
<g id="#e4de72ff">
</g>
<g id="#d78c25ff">
</g>
<g id="#eed647ff">
</g>
<g id="#de9420ff">
</g>
<g id="#f1db56ff">
</g>
<g id="#f6c013ff">
</g>
<g id="#dec056ff">
</g>
<g id="#6a6338ff">
</g>
</svg>
