<?xml version="1.0" encoding="UTF-8" ?>
<!DOCTYPE svg PUBLIC "-//W3C//DTD SVG 1.1//EN" "http://www.w3.org/Graphics/SVG/1.1/DTD/svg11.dtd">
<svg width="563pt" height="1218pt" viewBox="0 0 563 1218" version="1.1" xmlns="http://www.w3.org/2000/svg">
<g id="#1e1e1eff">
</g>
<g id="#f8a70fff">
<path fill="#f8a70f" stroke="#f8a70f" stroke-width="0.09375" opacity="1.00" d=" M 272.45 511.71 C 275.21 501.29 287.22 509.67 291.34 514.61 C 311.62 530.48 331.60 546.77 352.08 562.37 C 352.55 562.55 353.50 562.93 353.97 563.11 C 356.51 551.05 354.20 535.39 354.96 521.97 C 354.60 518.87 357.50 517.09 359.22 514.97 C 372.48 515.02 385.75 514.99 399.02 514.99 C 401.53 514.43 402.40 517.47 402.97 519.32 C 402.26 521.25 403.76 524.44 404.92 521.20 C 409.07 515.32 410.91 503.04 420.90 506.11 C 427.20 508.77 434.22 510.14 439.84 514.14 C 468.98 516.17 498.67 514.42 528.03 515.00 C 530.12 514.78 532.22 516.87 532.01 518.98 C 531.99 532.32 532.00 545.67 532.00 559.03 C 532.21 561.12 530.12 563.23 528.02 563.01 C 521.31 563.53 514.29 561.79 507.76 563.66 L 506.95 563.99 C 505.26 584.95 505.53 608.69 506.77 630.20 C 507.09 630.38 507.74 630.72 508.06 630.89 C 524.35 632.81 541.07 640.02 551.05 653.23 C 550.97 654.74 550.97 656.27 551.07 657.81 C 543.95 668.57 532.66 677.03 523.68 686.65 C 516.80 691.35 512.42 682.32 506.28 680.69 C 502.52 680.22 498.29 679.05 494.66 680.69 C 488.24 683.06 482.95 688.25 480.71 694.73 C 479.79 698.23 479.79 701.75 480.71 705.28 C 483.09 713.72 491.01 720.48 500.02 720.02 C 508.77 722.50 513.73 711.40 521.72 712.25 C 531.16 719.28 538.57 728.78 547.28 736.72 C 549.97 738.95 553.55 743.48 550.97 746.98 C 540.96 759.84 525.17 767.65 509.01 769.02 C 503.32 768.99 497.65 768.98 491.98 769.02 C 472.96 767.34 454.74 756.85 444.04 740.98 C 439.95 737.24 438.51 730.49 434.99 727.01 C 432.65 735.97 434.58 749.31 434.02 760.03 C 434.12 761.53 434.03 764.05 431.95 763.98 C 418.22 765.05 401.16 762.14 389.03 764.99 C 390.40 771.08 388.57 782.71 379.27 778.75 C 355.46 760.28 332.21 741.03 308.22 722.79 C 307.85 722.78 307.12 722.76 306.75 722.74 C 305.03 734.72 306.59 746.86 305.90 758.91 C 305.49 760.88 304.24 762.59 302.67 763.83 C 288.78 764.31 274.89 763.82 260.99 764.00 L 260.00 764.00 C 243.66 763.40 227.15 765.19 210.91 763.13 C 209.39 762.36 208.14 760.87 207.96 759.14 C 207.38 755.98 205.78 751.43 201.00 753.99 C 187.28 754.85 171.96 752.33 159.01 754.95 L 158.60 755.73 C 156.74 758.30 156.24 763.01 152.96 763.98 C 136.66 764.01 120.36 764.02 104.06 763.98 C 102.77 763.84 102.07 763.11 101.96 761.77 C 101.96 760.14 101.96 756.87 101.97 755.24 C 104.57 749.26 108.90 744.15 111.13 738.00 C 102.30 743.34 92.43 747.62 82.00 748.04 C 75.34 748.05 68.67 747.74 62.02 748.04 C 59.66 751.83 62.87 759.97 57.92 764.08 C 43.96 763.92 30.01 764.04 16.06 763.99 C 14.40 763.56 12.74 761.85 12.99 760.02 C 13.01 720.00 13.00 679.99 13.00 639.98 C 12.92 637.71 15.18 635.80 17.07 635.05 C 21.04 634.39 25.49 636.00 29.28 634.32 C 29.52 634.03 30.02 633.44 30.26 633.15 C 32.77 594.56 29.06 555.46 31.91 516.92 C 32.32 515.55 33.54 514.67 34.98 514.99 C 54.00 515.01 73.01 514.99 92.03 515.00 C 115.91 517.27 135.85 534.86 145.78 555.94 C 154.00 532.15 176.79 513.37 201.99 510.98 C 207.99 510.98 214.00 511.03 220.01 510.98 C 240.82 511.88 258.45 525.93 270.21 542.24 C 270.69 542.93 271.27 543.53 271.97 544.03 C 274.13 535.53 273.01 522.09 272.45 511.71 M 417.19 512.05 C 412.68 520.92 406.02 529.33 403.10 538.68 C 409.16 540.38 414.82 543.25 420.86 545.05 C 424.98 535.82 431.48 527.58 435.01 518.16 C 429.23 515.88 423.30 513.02 417.19 512.05 M 278.10 513.08 C 277.89 554.06 277.99 595.06 278.06 636.04 L 279.01 635.88 C 279.55 637.52 281.68 638.08 283.07 638.94 C 293.70 639.13 304.35 639.02 314.99 638.96 C 319.23 625.48 312.07 604.50 318.08 590.59 C 336.32 605.08 354.42 619.90 373.08 633.82 C 380.86 634.38 387.70 636.48 395.17 633.93 C 395.62 633.94 396.52 633.97 396.97 633.98 L 397.94 633.98 C 398.07 596.33 398.00 558.67 397.96 521.01 L 396.98 520.99 C 387.06 518.15 371.68 520.96 360.05 520.04 C 359.37 538.78 361.15 557.66 359.12 576.31 C 332.58 555.52 306.34 534.34 279.72 513.66 C 279.31 513.51 278.50 513.23 278.10 513.08 M 201.98 517.00 C 175.47 520.49 151.88 543.10 149.01 569.97 C 146.37 573.94 147.89 585.16 148.98 589.01 C 150.32 605.27 160.48 620.22 172.98 629.91 C 176.13 628.67 176.78 622.91 180.96 622.97 C 192.57 621.33 190.74 639.60 199.98 642.01 C 204.57 644.62 217.36 643.08 222.02 642.00 C 248.79 637.85 272.11 614.37 274.02 587.02 C 275.77 584.84 275.76 574.12 274.02 571.99 C 271.45 544.37 247.48 520.32 220.03 517.00 C 216.58 514.29 205.38 515.89 201.98 517.00 M 439.00 520.03 L 439.01 521.01 C 437.03 530.46 437.49 547.49 439.01 556.99 C 445.26 559.50 456.04 557.15 463.95 558.04 C 464.79 584.78 462.55 613.72 465.03 639.11 C 475.98 633.55 487.78 630.67 499.99 629.82 C 500.24 629.62 500.74 629.22 500.99 629.03 L 501.97 628.98 C 502.12 605.33 501.86 581.69 502.05 558.05 C 509.91 557.16 520.86 559.47 526.94 557.01 C 527.10 544.70 527.02 532.38 526.96 520.08 C 497.64 519.90 468.32 520.01 439.00 520.03 M 36.00 522.01 L 35.04 522.02 C 34.95 559.35 34.99 596.67 35.03 634.00 L 36.00 633.98 L 36.03 634.94 C 52.44 635.01 68.87 635.22 85.27 634.73 C 92.72 637.30 100.99 638.07 108.00 633.98 C 124.33 627.00 136.32 612.17 141.41 595.36 C 151.04 563.04 126.75 525.16 93.02 521.99 L 92.96 521.04 C 74.30 521.59 53.10 519.67 36.00 522.01 M 421.94 551.00 C 415.48 551.32 410.17 547.09 404.01 545.93 C 403.76 546.20 403.25 546.74 403.00 547.00 L 402.04 547.03 C 402.60 575.69 400.68 606.95 403.01 634.00 L 404.00 633.99 C 410.73 636.43 421.94 634.47 430.29 634.67 C 432.57 635.24 434.08 637.39 434.41 639.65 C 433.80 650.93 433.07 664.17 435.03 674.19 C 439.82 664.48 445.80 654.47 454.73 647.72 C 456.18 645.96 460.08 644.15 458.68 641.35 C 458.76 615.90 460.15 587.88 457.99 563.98 C 453.04 561.45 443.30 563.64 436.71 563.33 C 434.29 562.93 433.58 560.23 432.67 558.33 C 433.01 551.94 434.18 543.82 431.95 538.78 C 427.71 542.13 427.98 549.72 421.94 551.00 M 321.08 602.08 C 320.95 614.82 320.73 627.59 321.34 640.34 C 320.42 642.53 318.55 644.44 316.34 645.34 C 309.58 644.52 302.74 645.12 295.97 645.00 C 288.49 639.22 290.38 646.91 292.64 646.71 C 307.67 659.17 323.17 671.58 338.99 683.05 C 339.24 683.04 339.75 683.02 340.00 683.01 L 340.94 682.96 C 341.07 667.89 341.15 652.82 340.77 637.76 C 341.63 636.65 342.63 635.64 343.74 634.78 C 346.49 635.00 349.24 635.10 352.01 635.05 C 353.09 634.72 365.44 636.03 361.20 633.39 C 348.73 622.71 335.48 612.98 322.72 602.66 C 322.31 602.51 321.49 602.22 321.08 602.08 M 145.19 604.23 C 138.09 620.87 124.29 635.15 107.10 641.25 C 107.12 641.62 107.15 642.37 107.17 642.74 C 119.53 650.71 129.37 663.09 132.41 677.66 C 131.24 681.46 133.67 685.12 132.95 688.99 C 133.39 690.09 131.93 702.35 134.67 698.26 C 146.38 677.79 158.21 657.35 169.98 636.95 C 169.67 634.04 165.64 633.20 164.15 630.85 C 155.54 623.88 150.17 613.13 145.19 604.23 M 271.24 616.29 C 268.30 619.01 266.33 622.63 264.03 625.90 C 267.02 626.68 269.05 629.20 271.91 630.10 C 271.92 625.72 272.83 618.04 271.24 616.29 M 182.12 629.31 C 157.36 671.50 132.86 713.88 108.70 756.42 C 107.55 755.47 107.63 758.33 107.05 758.98 C 120.99 758.42 137.81 760.32 149.91 757.98 C 152.68 756.37 153.44 751.90 155.06 749.00 C 173.03 749.01 191.01 749.02 208.99 748.98 C 210.64 751.73 212.06 754.63 213.87 757.29 C 213.93 757.70 214.04 758.50 214.09 758.91 C 228.43 759.16 242.79 758.99 257.14 758.93 C 256.61 757.61 256.57 755.61 255.13 755.00 C 230.82 713.27 206.77 669.96 182.12 629.31 M 256.47 632.77 C 245.62 642.47 231.59 647.49 217.33 649.41 C 213.51 648.69 209.59 649.00 205.75 649.28 C 204.25 649.27 200.70 647.99 202.36 650.69 C 220.28 681.92 238.49 712.99 256.35 744.27 C 257.32 746.99 258.70 742.61 258.03 741.01 L 258.97 740.97 C 259.04 705.31 259.00 669.66 258.98 634.01 L 258.01 633.99 C 259.13 632.40 256.05 630.80 256.47 632.77 M 263.04 633.06 C 262.96 674.70 262.99 716.35 263.03 757.99 L 264.00 757.99 C 274.06 760.37 288.33 758.38 299.98 758.96 L 300.93 758.99 C 301.31 742.79 300.61 726.58 301.20 710.40 C 301.63 710.24 302.51 709.92 302.95 709.76 C 328.75 731.02 355.32 751.40 381.35 772.40 C 380.92 774.28 384.11 772.52 383.01 771.00 C 382.96 727.36 383.07 683.71 382.96 640.06 C 370.66 639.89 358.36 639.94 346.07 640.08 C 346.03 640.50 345.96 641.36 345.93 641.79 C 343.30 654.30 345.93 670.34 345.03 684.00 C 343.67 686.99 347.93 695.23 341.91 694.19 C 316.01 673.69 290.29 652.92 264.00 632.91 L 263.04 633.06 M 488.99 637.97 C 476.30 639.54 464.41 646.42 455.56 655.53 C 428.96 679.94 431.53 727.10 460.16 748.86 C 483.59 769.79 524.78 768.15 544.98 744.03 C 538.24 735.72 529.58 728.69 522.30 720.72 C 521.41 718.48 518.45 718.50 517.25 720.26 C 507.94 729.28 492.43 728.41 482.94 720.07 C 468.40 708.77 472.11 684.26 488.28 676.27 C 498.82 671.22 511.63 674.00 519.80 681.71 C 528.10 673.10 537.27 664.92 544.97 656.01 C 537.08 646.28 524.51 639.88 512.03 638.01 C 506.99 635.23 494.04 637.01 488.99 637.97 M 19.02 641.00 L 18.06 641.03 C 17.94 680.36 17.98 719.70 18.04 759.04 L 19.01 758.91 C 31.00 759.21 43.01 758.94 55.00 758.96 C 58.18 756.21 54.83 746.63 56.00 742.03 C 69.22 741.30 83.15 744.16 95.65 738.59 C 111.79 732.47 124.67 717.16 127.03 700.02 C 129.69 697.10 128.10 685.87 126.99 682.98 C 124.15 664.27 109.14 646.20 90.11 642.95 C 88.52 641.08 85.37 641.15 83.02 640.98 L 82.95 640.05 C 61.95 640.53 38.36 638.72 19.02 641.00 M 392.02 641.00 L 391.06 641.03 C 390.94 680.36 390.98 719.70 391.04 759.04 L 392.01 758.91 C 403.99 759.21 415.99 758.94 427.99 758.96 L 428.94 758.99 C 429.07 719.66 429.00 680.33 428.97 641.00 L 427.99 641.01 C 418.54 639.02 401.49 639.50 392.02 641.00 Z" />
</g>
<g id="#b4842cff">
<path fill="#b4842c" stroke="#b4842c" stroke-width="0.09375" opacity="1.00" d=" M 201.99 510.98 C 205.35 509.89 216.59 508.31 220.01 510.98 C 214.00 511.03 207.99 510.98 201.99 510.98 Z" />
</g>
<g id="#eeb242ff">
<path fill="#eeb242" stroke="#eeb242" stroke-width="0.09375" opacity="1.00" d=" M 272.45 511.71 C 273.01 522.09 274.13 535.53 271.97 544.03 C 272.20 533.61 271.60 523.18 272.22 512.78 L 272.45 511.71 Z" />
</g>
<g id="#c60903ff">
<path fill="#c60903" stroke="#c60903" stroke-width="0.09375" opacity="1.00" d=" M 417.19 512.05 C 423.30 513.02 429.23 515.88 435.01 518.16 C 431.48 527.58 424.98 535.82 420.86 545.05 C 414.82 543.25 409.16 540.38 403.10 538.68 C 406.02 529.33 412.68 520.92 417.19 512.05 Z" />
</g>
<g id="#443412ff">
<path fill="#443412" stroke="#443412" stroke-width="0.09375" opacity="1.00" d=" M 270.21 542.24 C 273.15 533.24 268.21 520.21 272.22 512.78 C 271.60 523.18 272.20 533.61 271.97 544.03 C 271.27 543.53 270.69 542.93 270.21 542.24 Z" />
</g>
<g id="#ca380aff">
<path fill="#ca380a" stroke="#ca380a" stroke-width="0.09375" opacity="1.00" d=" M 278.10 513.08 C 278.50 513.23 279.31 513.51 279.72 513.66 C 278.05 554.33 279.47 595.15 279.01 635.88 L 278.06 636.04 C 277.99 595.06 277.89 554.06 278.10 513.08 Z" />
</g>
<g id="#835f25ff">
<path fill="#835f25" stroke="#835f25" stroke-width="0.09375" opacity="1.00" d=" M 34.98 514.99 C 52.11 512.70 73.28 514.58 91.96 514.04 L 92.03 515.00 C 73.01 514.99 54.00 515.01 34.98 514.99 Z" />
</g>
<g id="#c70201ff">
<path fill="#c70201" stroke="#c70201" stroke-width="0.09375" opacity="1.00" d=" M 279.01 635.88 C 279.47 595.15 278.05 554.33 279.72 513.66 C 306.34 534.34 332.58 555.52 359.12 576.31 C 359.56 576.56 360.43 577.05 360.87 577.29 C 361.29 558.55 360.73 539.80 361.07 521.06 C 372.40 520.87 383.73 521.00 395.06 521.01 C 396.69 558.54 396.49 596.39 395.17 633.93 C 387.70 636.48 380.86 634.38 373.08 633.82 C 354.42 619.90 336.32 605.08 318.08 590.59 C 317.22 589.78 316.22 589.13 315.14 588.71 C 314.78 605.46 315.11 622.21 314.99 638.96 C 304.35 639.02 293.70 639.13 283.07 638.94 C 281.68 638.08 279.55 637.52 279.01 635.88 Z" />
<path fill="#c70201" stroke="#c70201" stroke-width="0.09375" opacity="1.00" d=" M 264.00 632.91 C 290.29 652.92 316.01 673.69 341.91 694.19 C 343.22 695.22 344.59 696.19 346.01 697.10 C 345.98 678.66 346.09 660.23 345.93 641.79 C 357.85 640.29 369.92 641.08 381.91 641.09 C 381.69 684.85 382.81 728.70 381.35 772.40 C 355.32 751.40 328.75 731.02 302.95 709.76 C 301.07 708.24 295.79 708.06 300.00 713.98 C 299.93 728.96 300.06 743.96 299.98 758.96 C 288.33 758.38 274.06 760.37 264.00 757.99 C 264.00 716.29 264.00 674.60 264.00 632.91 Z" />
</g>
<g id="#b4862aff">
<path fill="#b4862a" stroke="#b4862a" stroke-width="0.09375" opacity="1.00" d=" M 359.22 514.97 C 369.55 513.40 388.07 513.25 399.02 514.99 C 385.75 514.99 372.48 515.02 359.22 514.97 Z" />
</g>
<g id="#b98a29ff">
<path fill="#b98a29" stroke="#b98a29" stroke-width="0.09375" opacity="1.00" d=" M 439.84 514.14 C 469.21 513.85 498.59 514.01 527.96 514.04 L 528.03 515.00 C 498.67 514.42 468.98 516.17 439.84 514.14 Z" />
</g>
<g id="#cd9b33ff">
<path fill="#cd9b33" stroke="#cd9b33" stroke-width="0.09375" opacity="1.00" d=" M 353.97 520.97 C 353.50 517.97 356.34 515.10 359.22 514.97 C 357.50 517.09 354.60 518.87 354.96 521.97 C 354.20 535.39 356.51 551.05 353.97 563.11 C 354.02 549.06 354.02 535.01 353.97 520.97 Z" />
</g>
<g id="#e66819ff">
<path fill="#e66819" stroke="#e66819" stroke-width="0.09375" opacity="1.00" d=" M 201.98 517.00 C 205.38 515.89 216.58 514.29 220.03 517.00 C 214.01 516.98 207.99 516.96 201.98 517.00 Z" />
</g>
<g id="#ecaf24ff">
<path fill="#ecaf24" stroke="#ecaf24" stroke-width="0.09375" opacity="1.00" d=" M 30.02 519.04 C 30.19 518.05 30.82 517.34 31.91 516.92 C 29.06 555.46 32.77 594.56 30.26 633.15 C 29.69 595.12 30.12 557.08 30.02 519.04 Z" />
</g>
<g id="#c70301ff">
<path fill="#c70301" stroke="#c70301" stroke-width="0.09375" opacity="1.00" d=" M 149.01 569.97 C 151.88 543.10 175.47 520.49 201.98 517.00 C 207.99 516.96 214.01 516.98 220.03 517.00 C 247.48 520.32 271.45 544.37 274.02 571.99 C 274.00 576.98 273.97 582.01 274.02 587.02 C 272.11 614.37 248.79 637.85 222.02 642.00 C 214.67 642.01 207.32 642.01 199.98 642.01 C 190.74 639.60 192.57 621.33 180.96 622.97 C 176.78 622.91 176.13 628.67 172.98 629.91 C 160.48 620.22 150.32 605.27 148.98 589.01 C 149.01 582.65 148.98 576.31 149.01 569.97 M 207.41 553.46 C 192.64 555.07 181.54 571.16 185.38 585.62 C 187.71 594.42 194.34 602.06 203.12 604.86 C 217.10 610.01 234.01 600.58 237.04 586.03 C 242.32 568.82 224.94 550.04 207.41 553.46 Z" />
<path fill="#c70301" stroke="#c70301" stroke-width="0.09375" opacity="1.00" d=" M 455.56 655.53 C 464.41 646.42 476.30 639.54 488.99 637.97 C 496.66 638.01 504.34 637.98 512.03 638.01 C 524.51 639.88 537.08 646.28 544.97 656.01 C 537.27 664.92 528.10 673.10 519.80 681.71 C 511.63 674.00 498.82 671.22 488.28 676.27 C 472.11 684.26 468.40 708.77 482.94 720.07 C 492.43 728.41 507.94 729.28 517.25 720.26 C 518.45 718.50 521.41 718.48 522.30 720.72 C 529.58 728.69 538.24 735.72 544.98 744.03 C 524.78 768.15 483.59 769.79 460.16 748.86 C 431.53 727.10 428.96 679.94 455.56 655.53 Z" />
</g>
<g id="#7e5e24ff">
<path fill="#7e5e24" stroke="#7e5e24" stroke-width="0.09375" opacity="1.00" d=" M 29.07 519.02 L 30.02 519.04 C 30.12 557.08 29.69 595.12 30.26 633.15 C 30.02 633.44 29.52 634.03 29.28 634.32 C 28.69 595.90 29.07 557.44 29.07 519.02 Z" />
</g>
<g id="#885c1cff">
<path fill="#885c1c" stroke="#885c1c" stroke-width="0.09375" opacity="1.00" d=" M 402.97 519.32 C 404.03 519.33 404.68 519.96 404.92 521.20 C 403.76 524.44 402.26 521.25 402.97 519.32 Z" />
</g>
<g id="#d29f31ff">
<path fill="#d29f31" stroke="#d29f31" stroke-width="0.09375" opacity="1.00" d=" M 532.01 518.98 C 532.26 519.48 532.77 520.49 533.02 521.00 C 532.99 533.00 532.95 545.00 533.02 557.01 C 532.77 557.52 532.26 558.52 532.00 559.03 C 532.00 545.67 531.99 532.32 532.01 518.98 Z" />
</g>
<g id="#e15112ff">
<path fill="#e15112" stroke="#e15112" stroke-width="0.09375" opacity="1.00" d=" M 360.05 520.04 C 371.68 520.96 387.06 518.15 396.98 520.99 C 396.50 521.00 395.54 521.01 395.06 521.01 C 383.73 521.00 372.40 520.87 361.07 521.06 C 360.73 539.80 361.29 558.55 360.87 577.29 C 360.43 577.05 359.56 576.56 359.12 576.31 C 361.15 557.66 359.37 538.78 360.05 520.04 Z" />
</g>
<g id="#e4580cff">
<path fill="#e4580c" stroke="#e4580c" stroke-width="0.09375" opacity="1.00" d=" M 439.00 520.03 C 468.32 520.01 497.64 519.90 526.96 520.08 C 527.02 532.38 527.10 544.70 526.94 557.01 L 525.98 556.98 C 525.94 545.01 526.17 533.04 525.91 521.09 C 496.95 520.86 467.98 521.07 439.01 521.01 L 439.00 520.03 Z" />
</g>
<g id="#bc1402ff">
<path fill="#bc1402" stroke="#bc1402" stroke-width="0.09375" opacity="1.00" d=" M 36.00 522.01 C 53.10 519.67 74.30 521.59 92.96 521.04 L 93.02 521.99 C 76.01 522.01 58.99 522.02 41.98 521.93 C 40.30 522.09 38.12 521.51 37.13 523.30 C 36.79 558.21 37.13 593.12 36.96 628.04 C 36.58 630.57 38.67 632.24 40.11 633.97 C 38.74 633.97 37.37 633.97 36.00 633.98 C 36.01 596.65 35.99 559.33 36.00 522.01 Z" />
</g>
<g id="#482e0fff">
<path fill="#482e0f" stroke="#482e0f" stroke-width="0.09375" opacity="1.00" d=" M 352.08 562.37 C 354.89 549.12 350.97 532.77 353.97 520.97 C 354.02 535.01 354.02 549.06 353.97 563.11 C 353.50 562.93 352.55 562.55 352.08 562.37 Z" />
</g>
<g id="#bf2301ff">
<path fill="#bf2301" stroke="#bf2301" stroke-width="0.09375" opacity="1.00" d=" M 395.06 521.01 C 395.54 521.01 396.50 521.00 396.98 520.99 C 397.00 558.66 397.03 596.32 396.97 633.98 C 396.52 633.97 395.62 633.94 395.17 633.93 C 396.49 596.39 396.69 558.54 395.06 521.01 Z" />
</g>
<g id="#f6811fff">
<path fill="#f6811f" stroke="#f6811f" stroke-width="0.09375" opacity="1.00" d=" M 396.98 520.99 L 397.96 521.01 C 398.00 558.67 398.07 596.33 397.94 633.98 L 396.97 633.98 C 397.03 596.32 397.00 558.66 396.98 520.99 Z" />
</g>
<g id="#df611cff">
<path fill="#df611c" stroke="#df611c" stroke-width="0.09375" opacity="1.00" d=" M 439.01 556.99 C 437.49 547.49 437.03 530.46 439.01 521.01 C 439.00 533.00 438.98 544.99 439.01 556.99 Z" />
</g>
<g id="#c70101ff">
<path fill="#c70101" stroke="#c70101" stroke-width="0.09375" opacity="1.00" d=" M 439.01 521.01 C 467.98 521.07 496.95 520.86 525.91 521.09 C 526.17 533.04 525.94 545.01 525.98 556.98 C 517.95 558.02 508.05 555.13 500.78 557.80 C 498.91 581.59 500.55 605.85 499.99 629.82 C 487.78 630.67 475.98 633.55 465.03 639.11 C 464.89 611.76 465.15 584.41 464.93 557.06 C 456.28 556.85 447.64 557.01 439.01 556.99 C 438.98 544.99 439.00 533.00 439.01 521.01 Z" />
<path fill="#c70101" stroke="#c70101" stroke-width="0.09375" opacity="1.00" d=" M 392.02 641.00 C 404.01 640.99 416.00 640.99 427.99 641.01 C 428.00 680.33 428.01 719.64 427.99 758.96 C 415.99 758.94 403.99 759.21 392.01 758.91 C 392.00 719.61 391.98 680.31 392.02 641.00 Z" />
</g>
<g id="#3f3008ff">
<path fill="#3f3008" stroke="#3f3008" stroke-width="0.09375" opacity="1.00" d=" M 533.02 521.00 C 534.49 530.59 534.94 547.41 533.02 557.01 C 532.95 545.00 532.99 533.00 533.02 521.00 Z" />
</g>
<g id="#fc8023ff">
<path fill="#fc8023" stroke="#fc8023" stroke-width="0.09375" opacity="1.00" d=" M 35.04 522.02 L 36.00 522.01 C 35.99 559.33 36.01 596.65 36.00 633.98 L 35.03 634.00 C 34.99 596.67 34.95 559.35 35.04 522.02 Z" />
</g>
<g id="#c80201ff">
<path fill="#c80201" stroke="#c80201" stroke-width="0.09375" opacity="1.00" d=" M 37.13 523.30 C 38.12 521.51 40.30 522.09 41.98 521.93 C 58.99 522.02 76.01 522.01 93.02 521.99 C 126.75 525.16 151.04 563.04 141.41 595.36 C 136.32 612.17 124.33 627.00 108.00 633.98 C 100.99 638.07 92.72 637.30 85.27 634.73 C 70.29 633.10 55.16 634.41 40.11 633.97 C 38.67 632.24 36.58 630.57 36.96 628.04 C 37.13 593.12 36.79 558.21 37.13 523.30 M 72.07 558.01 C 72.44 572.36 70.78 589.37 73.01 601.94 C 80.98 601.81 90.42 603.71 96.99 597.99 C 107.93 591.25 109.15 574.43 100.81 565.18 C 94.18 556.45 82.72 557.44 73.02 558.04 L 72.07 558.01 Z" />
<path fill="#c80201" stroke="#c80201" stroke-width="0.09375" opacity="1.00" d=" M 182.12 629.31 C 206.77 669.96 230.82 713.27 255.13 755.00 C 255.04 755.72 254.86 757.17 254.78 757.89 C 241.15 757.94 227.45 758.61 213.87 757.29 C 212.06 754.63 210.64 751.73 208.99 748.98 C 193.14 746.65 175.50 748.67 158.97 747.94 C 157.76 748.27 155.44 747.34 155.06 749.00 C 153.44 751.90 152.68 756.37 149.91 757.98 C 136.52 756.17 121.32 761.26 108.70 756.42 C 132.86 713.88 157.36 671.50 182.12 629.31 M 182.16 703.40 C 179.33 705.43 178.62 709.12 177.04 712.05 C 179.57 712.01 184.63 711.95 187.16 711.92 C 185.73 709.38 184.47 704.19 182.16 703.40 Z" />
</g>
<g id="#1f1e1dff">
</g>
<g id="#c69134ff">
<path fill="#c69134" stroke="#c69134" stroke-width="0.09375" opacity="1.00" d=" M 431.95 538.78 C 434.18 543.82 433.01 551.94 432.67 558.33 C 430.78 552.04 432.53 545.21 431.95 538.78 Z" />
</g>
<g id="#745625ff">
<path fill="#745625" stroke="#745625" stroke-width="0.09375" opacity="1.00" d=" M 403.00 547.00 C 403.25 546.74 403.76 546.20 404.01 545.93 C 403.98 575.28 404.00 604.63 404.00 633.99 L 403.01 634.00 C 402.98 605.00 403.01 576.00 403.00 547.00 Z" />
</g>
<g id="#f0ac2bff">
<path fill="#f0ac2b" stroke="#f0ac2b" stroke-width="0.09375" opacity="1.00" d=" M 402.04 547.03 L 403.00 547.00 C 403.01 576.00 402.98 605.00 403.01 634.00 C 400.68 606.95 402.60 575.69 402.04 547.03 Z" />
</g>
<g id="#f4a312ff">
<path fill="#f4a312" stroke="#f4a312" stroke-width="0.09375" opacity="1.00" d=" M 207.41 553.46 C 224.94 550.04 242.32 568.82 237.04 586.03 C 234.01 600.58 217.10 610.01 203.12 604.86 C 194.34 602.06 187.71 594.42 185.38 585.62 C 181.54 571.16 192.64 555.07 207.41 553.46 M 191.99 574.98 C 190.14 578.30 190.14 581.65 191.99 585.03 C 193.45 591.53 199.01 596.56 205.06 598.99 C 205.91 601.57 216.31 600.29 216.92 598.97 C 229.82 595.57 236.38 578.16 227.28 567.74 C 218.44 554.17 194.57 558.86 191.99 574.98 Z" />
</g>
<g id="#dd4b15ff">
<path fill="#dd4b15" stroke="#dd4b15" stroke-width="0.09375" opacity="1.00" d=" M 439.01 556.99 C 447.64 557.01 456.28 556.85 464.93 557.06 C 465.15 584.41 464.89 611.76 465.03 639.11 C 462.55 613.72 464.79 584.78 463.95 558.04 C 456.04 557.15 445.26 559.50 439.01 556.99 Z" />
</g>
<g id="#f8821cff">
<path fill="#f8821c" stroke="#f8821c" stroke-width="0.09375" opacity="1.00" d=" M 500.78 557.80 C 508.05 555.13 517.95 558.02 525.98 556.98 L 526.94 557.01 C 520.86 559.47 509.91 557.16 502.05 558.05 C 501.86 581.69 502.12 605.33 501.97 628.98 L 500.99 629.03 C 500.83 605.28 501.33 581.53 500.78 557.80 Z" />
</g>
<g id="#cc3b0bff">
<path fill="#cc3b0b" stroke="#cc3b0b" stroke-width="0.09375" opacity="1.00" d=" M 72.07 558.01 L 73.02 558.04 C 72.99 572.67 72.99 587.30 73.01 601.94 C 70.78 589.37 72.44 572.36 72.07 558.01 Z" />
</g>
<g id="#f7a611ff">
<path fill="#f7a611" stroke="#f7a611" stroke-width="0.09375" opacity="1.00" d=" M 73.02 558.04 C 82.72 557.44 94.18 556.45 100.81 565.18 C 109.15 574.43 107.93 591.25 96.99 597.99 C 90.42 603.71 80.98 601.81 73.01 601.94 C 72.99 587.30 72.99 572.67 73.02 558.04 M 79.01 595.98 C 87.54 597.07 97.74 592.78 99.68 583.69 C 102.69 571.95 90.45 561.09 79.01 564.01 C 76.63 571.87 77.77 588.07 79.01 595.98 Z" />
</g>
<g id="#c12501ff">
<path fill="#c12501" stroke="#c12501" stroke-width="0.09375" opacity="1.00" d=" M 499.99 629.82 C 500.55 605.85 498.91 581.59 500.78 557.80 C 501.33 581.53 500.83 605.28 500.99 629.03 C 500.74 629.22 500.24 629.62 499.99 629.82 Z" />
</g>
<g id="#211f1cff">
</g>
<g id="#a17528ff">
<path fill="#a17528" stroke="#a17528" stroke-width="0.09375" opacity="1.00" d=" M 436.71 563.33 C 443.30 563.64 453.04 561.45 457.99 563.98 L 457.00 564.02 C 450.23 563.97 443.41 564.34 436.71 563.33 Z" />
</g>
<g id="#9e7428ff">
<path fill="#9e7428" stroke="#9e7428" stroke-width="0.09375" opacity="1.00" d=" M 507.76 563.66 C 514.29 561.79 521.31 563.53 528.02 563.01 C 523.04 565.06 514.38 564.09 507.76 563.66 Z" />
</g>
<g id="#e8b24bff">
<path fill="#e8b24b" stroke="#e8b24b" stroke-width="0.09375" opacity="1.00" d=" M 79.01 595.98 C 77.77 588.07 76.63 571.87 79.01 564.01 C 78.99 574.66 78.99 585.32 79.01 595.98 Z" />
</g>
<g id="#24201bff">
</g>
<g id="#462a0aff">
<path fill="#462a0a" stroke="#462a0a" stroke-width="0.09375" opacity="1.00" d=" M 457.00 564.02 L 457.99 563.98 C 457.89 589.06 458.24 614.14 457.82 639.21 C 455.60 614.42 457.77 589.01 457.00 564.02 Z" />
</g>
<g id="#dfa437ff">
<path fill="#dfa437" stroke="#dfa437" stroke-width="0.09375" opacity="1.00" d=" M 457.99 563.98 C 460.15 587.88 458.76 615.90 458.68 641.35 C 458.46 640.82 458.03 639.75 457.82 639.21 C 458.24 614.14 457.89 589.06 457.99 563.98 Z" />
</g>
<g id="#e5ab29ff">
<path fill="#e5ab29" stroke="#e5ab29" stroke-width="0.09375" opacity="1.00" d=" M 506.77 630.20 C 505.53 608.69 505.26 584.95 506.95 563.99 C 506.85 586.06 507.35 608.14 506.77 630.20 Z" />
</g>
<g id="#825e26ff">
<path fill="#825e26" stroke="#825e26" stroke-width="0.09375" opacity="1.00" d=" M 506.95 563.99 L 507.76 563.66 C 508.34 586.06 507.78 608.48 508.06 630.89 C 507.74 630.72 507.09 630.38 506.77 630.20 C 507.35 608.14 506.85 586.06 506.95 563.99 Z" />
</g>
<g id="#ce3e09ff">
<path fill="#ce3e09" stroke="#ce3e09" stroke-width="0.09375" opacity="1.00" d=" M 148.98 589.01 C 147.89 585.16 146.37 573.94 149.01 569.97 C 148.98 576.31 149.01 582.65 148.98 589.01 Z" />
</g>
<g id="#e2600cff">
<path fill="#e2600c" stroke="#e2600c" stroke-width="0.09375" opacity="1.00" d=" M 274.02 571.99 C 275.76 574.12 275.77 584.84 274.02 587.02 C 273.97 582.01 274.00 576.98 274.02 571.99 Z" />
</g>
<g id="#765621ff">
<path fill="#765621" stroke="#765621" stroke-width="0.09375" opacity="1.00" d=" M 191.99 585.03 C 190.14 581.65 190.14 578.30 191.99 574.98 C 191.97 578.34 191.97 581.63 191.99 585.03 Z" />
</g>
<g id="#fc8323ff">
<path fill="#fc8323" stroke="#fc8323" stroke-width="0.09375" opacity="1.00" d=" M 315.14 588.71 C 316.22 589.13 317.22 589.78 318.08 590.59 C 312.07 604.50 319.23 625.48 314.99 638.96 C 315.11 622.21 314.78 605.46 315.14 588.71 Z" />
</g>
<g id="#8f6f1dff">
<path fill="#8f6f1d" stroke="#8f6f1d" stroke-width="0.09375" opacity="1.00" d=" M 205.06 598.99 C 209.01 599.00 212.96 598.99 216.92 598.97 C 216.31 600.29 205.91 601.57 205.06 598.99 Z" />
</g>
<g id="#88611aff">
<path fill="#88611a" stroke="#88611a" stroke-width="0.09375" opacity="1.00" d=" M 321.08 602.08 C 321.49 602.22 322.31 602.51 322.72 602.66 C 320.67 615.10 323.41 627.98 321.34 640.34 C 320.73 627.59 320.95 614.82 321.08 602.08 Z" />
</g>
<g id="#22201cff">
</g>
<g id="#422b0cff">
<path fill="#422b0c" stroke="#422b0c" stroke-width="0.09375" opacity="1.00" d=" M 271.24 616.29 C 272.83 618.04 271.92 625.72 271.91 630.10 C 269.05 629.20 267.02 626.68 264.03 625.90 C 266.33 622.63 268.30 619.01 271.24 616.29 Z" />
</g>
<g id="#8d702fff">
<path fill="#8d702f" stroke="#8d702f" stroke-width="0.09375" opacity="1.00" d=" M 256.47 632.77 C 256.05 630.80 259.13 632.40 258.01 633.99 C 258.01 669.66 257.97 705.33 258.03 741.01 C 258.70 742.61 257.32 746.99 256.35 744.27 C 257.50 707.16 257.30 669.88 256.47 632.77 Z" />
</g>
<g id="#201f1dff">
</g>
<g id="#f5891cff">
<path fill="#f5891c" stroke="#f5891c" stroke-width="0.09375" opacity="1.00" d=" M 263.04 633.06 L 264.00 632.91 C 264.00 674.60 264.00 716.29 264.00 757.99 L 263.03 757.99 C 262.99 716.35 262.96 674.70 263.04 633.06 Z" />
</g>
<g id="#a87c21ff">
<path fill="#a87c21" stroke="#a87c21" stroke-width="0.09375" opacity="1.00" d=" M 361.20 633.39 C 365.44 636.03 353.09 634.72 352.01 635.05 C 349.24 635.10 346.49 635.00 343.74 634.78 C 349.16 632.60 355.52 634.68 361.20 633.39 Z" />
</g>
<g id="#825c21ff">
<path fill="#825c21" stroke="#825c21" stroke-width="0.09375" opacity="1.00" d=" M 17.07 635.05 C 18.54 632.34 25.71 634.49 29.28 634.32 C 25.49 636.00 21.04 634.39 17.07 635.05 Z" />
</g>
<g id="#df600fff">
<path fill="#df600f" stroke="#df600f" stroke-width="0.09375" opacity="1.00" d=" M 36.00 633.98 C 37.37 633.97 38.74 633.97 40.11 633.97 C 55.16 634.41 70.29 633.10 85.27 634.73 C 68.87 635.22 52.44 635.01 36.03 634.94 L 36.00 633.98 Z" />
</g>
<g id="#edaf27ff">
<path fill="#edaf27" stroke="#edaf27" stroke-width="0.09375" opacity="1.00" d=" M 258.01 633.99 L 258.98 634.01 C 259.00 669.66 259.04 705.31 258.97 740.97 L 258.03 741.01 C 257.97 705.33 258.01 669.66 258.01 633.99 Z" />
</g>
<g id="#b38426ff">
<path fill="#b38426" stroke="#b38426" stroke-width="0.09375" opacity="1.00" d=" M 404.00 633.99 C 412.76 634.12 421.58 633.43 430.29 634.67 C 421.94 634.47 410.73 636.43 404.00 633.99 Z" />
</g>
<g id="#ca390aff">
<path fill="#ca390a" stroke="#ca390a" stroke-width="0.09375" opacity="1.00" d=" M 488.99 637.97 C 494.04 637.01 506.99 635.23 512.03 638.01 C 504.34 637.98 496.66 638.01 488.99 637.97 Z" />
</g>
<g id="#e7aa33ff">
<path fill="#e7aa33" stroke="#e7aa33" stroke-width="0.09375" opacity="1.00" d=" M 339.71 640.75 C 339.89 639.68 340.24 638.69 340.77 637.76 C 341.15 652.82 341.07 667.89 340.94 682.96 L 340.00 683.01 C 339.96 668.92 340.19 654.83 339.71 640.75 Z" />
</g>
<g id="#b28331ff">
<path fill="#b28331" stroke="#b28331" stroke-width="0.09375" opacity="1.00" d=" M 12.02 640.03 L 13.00 639.98 C 13.00 679.99 13.01 720.00 12.99 760.02 L 12.02 759.98 C 11.98 719.99 11.98 680.01 12.02 640.03 Z" />
</g>
<g id="#fa7f19ff">
<path fill="#fa7f19" stroke="#fa7f19" stroke-width="0.09375" opacity="1.00" d=" M 19.02 641.00 C 38.36 638.72 61.95 640.53 82.95 640.05 L 83.02 640.98 C 61.69 641.03 40.35 640.97 19.02 641.00 Z" />
</g>
<g id="#d74b0bff">
<path fill="#d74b0b" stroke="#d74b0b" stroke-width="0.09375" opacity="1.00" d=" M 346.07 640.08 C 358.36 639.94 370.66 639.89 382.96 640.06 C 383.07 683.71 382.96 727.36 383.01 771.00 C 384.11 772.52 380.92 774.28 381.35 772.40 C 382.81 728.70 381.69 684.85 381.91 641.09 C 369.92 641.08 357.85 640.29 345.93 641.79 C 345.96 641.36 346.03 640.50 346.07 640.08 Z" />
</g>
<g id="#ea670dff">
<path fill="#ea670d" stroke="#ea670d" stroke-width="0.09375" opacity="1.00" d=" M 392.02 641.00 C 401.49 639.50 418.54 639.02 427.99 641.01 C 416.00 640.99 404.01 640.99 392.02 641.00 Z" />
</g>
<g id="#dba542ff">
<path fill="#dba542" stroke="#dba542" stroke-width="0.09375" opacity="1.00" d=" M 434.41 639.65 C 436.11 651.02 434.40 662.71 435.03 674.19 C 433.07 664.17 433.80 650.93 434.41 639.65 Z" />
</g>
<g id="#f37c2cff">
<path fill="#f37c2c" stroke="#f37c2c" stroke-width="0.09375" opacity="1.00" d=" M 18.06 641.03 L 19.02 641.00 C 18.98 680.31 19.00 719.61 19.01 758.91 L 18.04 759.04 C 17.98 719.70 17.94 680.36 18.06 641.03 Z" />
</g>
<g id="#bf0d02ff">
<path fill="#bf0d02" stroke="#bf0d02" stroke-width="0.09375" opacity="1.00" d=" M 19.02 641.00 C 40.35 640.97 61.69 641.03 83.02 640.98 C 85.37 641.15 88.52 641.08 90.11 642.95 C 68.09 642.43 46.04 643.36 24.00 642.99 C 20.31 642.17 21.60 648.55 21.06 650.01 C 20.86 683.34 21.13 716.68 20.94 750.01 C 22.37 751.78 19.39 756.48 22.31 757.85 C 33.19 758.23 44.08 757.93 54.97 757.99 L 55.00 758.96 C 43.01 758.94 31.00 759.21 19.01 758.91 C 19.00 719.61 18.98 680.31 19.02 641.00 Z" />
</g>
<g id="#735517ff">
<path fill="#735517" stroke="#735517" stroke-width="0.09375" opacity="1.00" d=" M 338.99 683.05 C 339.36 668.95 338.15 654.78 339.71 640.75 C 340.19 654.83 339.96 668.92 340.00 683.01 C 339.75 683.02 339.24 683.04 338.99 683.05 Z" />
</g>
<g id="#f07015ff">
<path fill="#f07015" stroke="#f07015" stroke-width="0.09375" opacity="1.00" d=" M 391.06 641.03 L 392.02 641.00 C 391.98 680.31 392.00 719.61 392.01 758.91 L 391.04 759.04 C 390.98 719.70 390.94 680.36 391.06 641.03 Z" />
</g>
<g id="#d95719ff">
<path fill="#d95719" stroke="#d95719" stroke-width="0.09375" opacity="1.00" d=" M 427.99 641.01 L 428.97 641.00 C 429.00 680.33 429.07 719.66 428.94 758.99 L 427.99 758.96 C 428.01 719.64 428.00 680.33 427.99 641.01 Z" />
</g>
<g id="#c80101ff">
<path fill="#c80101" stroke="#c80101" stroke-width="0.09375" opacity="1.00" d=" M 24.00 642.99 C 46.04 643.36 68.09 642.43 90.11 642.95 C 109.14 646.20 124.15 664.27 126.99 682.98 C 127.01 688.65 127.00 694.33 127.03 700.02 C 124.67 717.16 111.79 732.47 95.65 738.59 C 83.15 744.16 69.22 741.30 56.00 742.03 C 53.32 745.23 55.88 753.24 54.97 757.99 C 44.08 757.93 33.19 758.23 22.31 757.85 C 19.39 756.48 22.37 751.78 20.94 750.01 C 21.13 716.68 20.86 683.34 21.06 650.01 C 21.60 648.55 20.31 642.17 24.00 642.99 M 56.02 678.01 C 53.48 684.14 54.86 698.76 56.01 704.98 C 60.86 707.77 74.00 705.96 79.02 705.03 C 93.51 704.07 95.19 679.69 80.03 678.00 C 74.51 675.26 61.39 676.98 56.02 678.01 Z" />
</g>
<g id="#d24a11ff">
<path fill="#d24a11" stroke="#d24a11" stroke-width="0.09375" opacity="1.00" d=" M 199.98 642.01 C 207.32 642.01 214.67 642.01 222.02 642.00 C 217.36 643.08 204.57 644.62 199.98 642.01 Z" />
</g>
<g id="#fd8b22ff">
<path fill="#fd8b22" stroke="#fd8b22" stroke-width="0.09375" opacity="1.00" d=" M 345.03 684.00 C 345.93 670.34 343.30 654.30 345.93 641.79 C 346.09 660.23 345.98 678.66 346.01 697.10 C 344.59 696.19 343.22 695.22 341.91 694.19 C 347.93 695.23 343.67 686.99 345.03 684.00 Z" />
</g>
<g id="#583d0bff">
<path fill="#583d0b" stroke="#583d0b" stroke-width="0.09375" opacity="1.00" d=" M 292.64 646.71 C 290.38 646.91 288.49 639.22 295.97 645.00 C 302.74 645.12 309.58 644.52 316.34 645.34 C 308.66 647.29 300.43 645.06 292.64 646.71 Z" />
</g>
<g id="#795315ff">
<path fill="#795315" stroke="#795315" stroke-width="0.09375" opacity="1.00" d=" M 205.75 649.28 C 209.59 649.00 213.51 648.69 217.33 649.41 C 213.49 650.08 209.56 649.98 205.75 649.28 Z" />
</g>
<g id="#947224ff">
<path fill="#947224" stroke="#947224" stroke-width="0.09375" opacity="1.00" d=" M 551.05 653.23 C 552.87 653.29 552.86 657.68 551.07 657.81 C 550.97 656.27 550.97 654.74 551.05 653.23 Z" />
</g>
<g id="#da4f0fff">
<path fill="#da4f0f" stroke="#da4f0f" stroke-width="0.09375" opacity="1.00" d=" M 56.02 678.01 C 61.39 676.98 74.51 675.26 80.03 678.00 C 72.03 677.97 64.02 677.99 56.02 678.01 Z" />
</g>
<g id="#df4a0fff">
<path fill="#df4a0f" stroke="#df4a0f" stroke-width="0.09375" opacity="1.00" d=" M 56.01 704.98 C 54.86 698.76 53.48 684.14 56.02 678.01 C 55.99 686.99 56.00 695.98 56.01 704.98 Z" />
</g>
<g id="#f6a612ff">
<path fill="#f6a612" stroke="#f6a612" stroke-width="0.09375" opacity="1.00" d=" M 56.02 678.01 C 64.02 677.99 72.03 677.97 80.03 678.00 C 95.19 679.69 93.51 704.07 79.02 705.03 C 71.35 704.99 63.68 704.99 56.01 704.98 C 56.00 695.98 55.99 686.99 56.02 678.01 M 62.04 684.06 C 62.04 687.77 62.04 695.20 62.04 698.92 C 70.00 698.82 83.26 702.19 84.57 691.22 C 83.10 680.39 69.35 684.35 62.04 684.06 Z" />
</g>
<g id="#cc9937ff">
<path fill="#cc9937" stroke="#cc9937" stroke-width="0.09375" opacity="1.00" d=" M 132.41 677.66 C 134.58 684.31 133.79 691.40 134.67 698.26 C 131.93 702.35 133.39 690.09 132.95 688.99 C 133.67 685.12 131.24 681.46 132.41 677.66 Z" />
</g>
<g id="#6b4f18ff">
<path fill="#6b4f18" stroke="#6b4f18" stroke-width="0.09375" opacity="1.00" d=" M 494.66 680.69 C 498.29 679.05 502.52 680.22 506.28 680.69 C 502.39 680.91 498.52 681.28 494.66 680.69 Z" />
</g>
<g id="#de530aff">
<path fill="#de530a" stroke="#de530a" stroke-width="0.09375" opacity="1.00" d=" M 126.99 682.98 C 128.10 685.87 129.69 697.10 127.03 700.02 C 127.00 694.33 127.01 688.65 126.99 682.98 Z" />
</g>
<g id="#26211aff">
</g>
<g id="#694e20ff">
<path fill="#694e20" stroke="#694e20" stroke-width="0.09375" opacity="1.00" d=" M 480.71 705.28 C 479.79 701.75 479.79 698.23 480.71 694.73 C 480.89 698.19 481.22 701.79 480.71 705.28 Z" />
</g>
<g id="#f9921cff">
<path fill="#f9921c" stroke="#f9921c" stroke-width="0.09375" opacity="1.00" d=" M 182.16 703.40 C 184.47 704.19 185.73 709.38 187.16 711.92 C 184.63 711.95 179.57 712.01 177.04 712.05 C 178.62 709.12 179.33 705.43 182.16 703.40 Z" />
</g>
<g id="#d64a03ff">
<path fill="#d64a03" stroke="#d64a03" stroke-width="0.09375" opacity="1.00" d=" M 56.01 704.98 C 63.68 704.99 71.35 704.99 79.02 705.03 C 74.00 705.96 60.86 707.77 56.01 704.98 Z" />
</g>
<g id="#d2421aff">
<path fill="#d2421a" stroke="#d2421a" stroke-width="0.09375" opacity="1.00" d=" M 300.00 713.98 C 295.79 708.06 301.07 708.24 302.95 709.76 C 302.51 709.92 301.63 710.24 301.20 710.40 C 300.61 726.58 301.31 742.79 300.93 758.99 L 299.98 758.96 C 300.06 743.96 299.93 728.96 300.00 713.98 Z" />
</g>
<g id="#4a3306ff">
<path fill="#4a3306" stroke="#4a3306" stroke-width="0.09375" opacity="1.00" d=" M 306.75 722.74 C 307.12 722.76 307.85 722.78 308.22 722.79 C 306.98 734.61 309.67 749.90 306.99 759.94 C 307.04 747.53 307.08 735.13 306.75 722.74 Z" />
</g>
<g id="#e0a832ff">
<path fill="#e0a832" stroke="#e0a832" stroke-width="0.09375" opacity="1.00" d=" M 305.90 758.91 C 306.59 746.86 305.03 734.72 306.75 722.74 C 307.08 735.13 307.04 747.53 306.99 759.94 C 306.09 762.53 304.26 765.76 301.02 765.03 C 288.34 764.98 275.66 764.97 262.99 765.01 C 262.49 764.76 261.49 764.25 260.99 764.00 C 274.89 763.82 288.78 764.31 302.67 763.83 C 304.24 762.59 305.49 760.88 305.90 758.91 Z" />
</g>
<g id="#dba543ff">
<path fill="#dba543" stroke="#dba543" stroke-width="0.09375" opacity="1.00" d=" M 434.02 760.03 C 434.58 749.31 432.65 735.97 434.99 727.01 C 433.96 737.34 436.91 751.27 434.02 760.03 Z" />
</g>
<g id="#df4a0eff">
<path fill="#df4a0e" stroke="#df4a0e" stroke-width="0.09375" opacity="1.00" d=" M 54.97 757.99 C 55.88 753.24 53.32 745.23 56.00 742.03 C 54.83 746.63 58.18 756.21 55.00 758.96 L 54.97 757.99 Z" />
</g>
<g id="#cf9f3bff">
<path fill="#cf9f3b" stroke="#cf9f3b" stroke-width="0.09375" opacity="1.00" d=" M 57.92 764.08 C 62.87 759.97 59.66 751.83 62.02 748.04 L 62.05 748.97 C 61.33 753.33 64.48 763.04 57.92 764.08 Z" />
</g>
<g id="#785812ff">
<path fill="#785812" stroke="#785812" stroke-width="0.09375" opacity="1.00" d=" M 62.02 748.04 C 68.67 747.74 75.34 748.05 82.00 748.04 C 77.16 750.15 68.61 748.75 62.05 748.97 L 62.02 748.04 Z" />
</g>
<g id="#cb3d02ff">
<path fill="#cb3d02" stroke="#cb3d02" stroke-width="0.09375" opacity="1.00" d=" M 155.06 749.00 C 155.44 747.34 157.76 748.27 158.97 747.94 C 175.50 748.67 193.14 746.65 208.99 748.98 C 191.01 749.02 173.03 749.01 155.06 749.00 Z" />
</g>
<g id="#d7a234ff">
<path fill="#d7a234" stroke="#d7a234" stroke-width="0.09375" opacity="1.00" d=" M 159.01 754.95 C 171.96 752.33 187.28 754.85 201.00 753.99 C 205.78 751.43 207.38 755.98 207.96 759.14 C 206.84 758.19 206.05 756.96 205.13 755.86 C 190.29 753.80 174.29 755.60 159.01 754.95 Z" />
</g>
<g id="#9c7b2cff">
<path fill="#9c7b2c" stroke="#9c7b2c" stroke-width="0.09375" opacity="1.00" d=" M 101.96 761.77 C 100.08 760.98 100.07 756.00 101.97 755.24 C 101.96 756.87 101.96 760.14 101.96 761.77 Z" />
</g>
<g id="#46360dff">
<path fill="#46360d" stroke="#46360d" stroke-width="0.09375" opacity="1.00" d=" M 159.01 754.95 C 174.29 755.60 190.29 753.80 205.13 755.86 C 189.63 755.85 174.08 756.50 158.60 755.73 L 159.01 754.95 Z" />
</g>
<g id="#bc2801ff">
<path fill="#bc2801" stroke="#bc2801" stroke-width="0.09375" opacity="1.00" d=" M 255.13 755.00 C 256.57 755.61 256.61 757.61 257.14 758.93 C 242.79 758.99 228.43 759.16 214.09 758.91 C 214.04 758.50 213.93 757.70 213.87 757.29 C 227.45 758.61 241.15 757.94 254.78 757.89 C 254.86 757.17 255.04 755.72 255.13 755.00 Z" />
</g>
<g id="#bb2700ff">
<path fill="#bb2700" stroke="#bb2700" stroke-width="0.09375" opacity="1.00" d=" M 107.05 758.98 C 107.63 758.33 107.55 755.47 108.70 756.42 C 121.32 761.26 136.52 756.17 149.91 757.98 C 137.81 760.32 120.99 758.42 107.05 758.98 Z" />
</g>
<g id="#e1ad34ff">
<path fill="#e1ad34" stroke="#e1ad34" stroke-width="0.09375" opacity="1.00" d=" M 210.91 763.13 C 227.15 765.19 243.66 763.40 260.00 764.00 C 259.73 765.09 258.73 765.44 257.00 765.03 C 242.65 764.94 228.31 765.02 213.97 765.01 C 212.45 765.36 211.58 764.30 210.91 763.13 Z" />
</g>
<g id="#e1ae34ff">
<path fill="#e1ae34" stroke="#e1ae34" stroke-width="0.09375" opacity="1.00" d=" M 16.06 763.99 C 30.01 764.04 43.96 763.92 57.92 764.08 C 57.44 764.31 56.49 764.78 56.01 765.02 C 43.34 764.97 30.66 764.98 17.98 765.01 C 17.50 764.76 16.54 764.25 16.06 763.99 Z" />
</g>
<g id="#deac34ff">
<path fill="#deac34" stroke="#deac34" stroke-width="0.09375" opacity="1.00" d=" M 104.06 763.98 C 120.36 764.02 136.66 764.01 152.96 763.98 C 152.76 765.09 151.77 765.43 150.00 765.03 C 135.66 764.97 121.33 764.97 106.99 765.02 C 105.21 765.43 104.23 765.08 104.06 763.98 Z" />
</g>
<g id="#dfac34ff">
<path fill="#dfac34" stroke="#dfac34" stroke-width="0.09375" opacity="1.00" d=" M 389.03 764.99 C 401.16 762.14 418.22 765.05 431.95 763.98 C 431.76 765.08 430.77 765.43 429.00 765.03 C 416.32 764.97 403.65 764.96 390.98 765.02 C 390.49 765.02 389.52 765.00 389.03 764.99 Z" />
</g>
<g id="#705320ff">
<path fill="#705320" stroke="#705320" stroke-width="0.09375" opacity="1.00" d=" M 17.98 765.01 C 30.66 764.98 43.34 764.97 56.01 765.02 C 45.90 766.12 28.06 767.45 17.98 765.01 Z" />
</g>
<g id="#705421ff">
<path fill="#705421" stroke="#705421" stroke-width="0.09375" opacity="1.00" d=" M 106.99 765.02 C 121.33 764.97 135.66 764.97 150.00 765.03 C 137.59 767.24 121.06 765.49 107.04 765.95 L 106.99 765.02 Z" />
</g>
<g id="#725220ff">
<path fill="#725220" stroke="#725220" stroke-width="0.09375" opacity="1.00" d=" M 213.97 765.01 C 228.31 765.02 242.65 764.94 257.00 765.03 C 244.59 767.23 228.06 765.50 214.05 765.95 L 213.97 765.01 Z" />
</g>
<g id="#715220ff">
<path fill="#715220" stroke="#715220" stroke-width="0.09375" opacity="1.00" d=" M 262.99 765.01 C 275.66 764.97 288.34 764.98 301.02 765.03 C 290.88 766.11 273.06 767.44 262.99 765.01 Z" />
</g>
<g id="#705220ff">
<path fill="#705220" stroke="#705220" stroke-width="0.09375" opacity="1.00" d=" M 390.98 765.02 C 403.65 764.96 416.32 764.97 429.00 765.03 C 418.92 766.12 401.08 767.43 390.98 765.02 Z" />
</g>
<g id="#936e30ff">
<path fill="#936e30" stroke="#936e30" stroke-width="0.09375" opacity="1.00" d=" M 491.98 769.02 C 497.65 768.98 503.32 768.99 509.01 769.02 C 506.12 770.06 494.85 771.71 491.98 769.02 Z" />
</g>
<g id="#b4b065ff">
<path fill="#b4b065" stroke="#b4b065" stroke-width="0.09375" opacity="1.00" d=" M 274.97 813.01 C 278.34 811.85 289.57 810.31 293.02 812.99 C 288.39 812.98 283.78 812.98 279.17 813.06 C 277.77 813.04 276.37 813.02 274.97 813.01 Z" />
</g>
<g id="#f8f557ff">
<path fill="#f8f557" stroke="#f8f557" stroke-width="0.09375" opacity="1.00" d=" M 236.73 827.61 C 247.79 819.37 261.16 813.93 274.97 813.01 C 276.37 813.02 277.77 813.04 279.17 813.06 C 277.57 813.79 276.00 814.61 274.77 815.89 C 277.63 815.53 280.59 814.69 283.36 816.02 C 265.90 817.64 247.80 822.15 235.04 834.96 C 229.76 844.97 221.82 853.92 222.80 866.02 C 219.15 866.35 218.13 861.82 214.94 860.73 C 214.64 860.51 214.04 860.06 213.74 859.84 C 215.59 859.66 217.35 858.82 217.86 856.88 C 221.40 848.39 228.90 842.53 232.76 834.23 C 232.44 833.83 231.79 833.03 231.46 832.63 C 223.58 826.67 209.68 822.46 201.28 828.98 C 204.73 818.08 221.54 827.00 229.16 827.71 C 236.83 827.86 223.17 825.35 223.64 822.70 C 228.16 823.88 232.28 826.21 236.73 827.61 Z" />
</g>
<g id="#f9f140ff">
<path fill="#f9f140" stroke="#f9f140" stroke-width="0.09375" opacity="1.00" d=" M 279.17 813.06 C 283.78 812.98 288.39 812.98 293.02 812.99 C 309.59 814.31 326.34 821.59 337.99 833.62 C 336.56 834.37 332.97 835.70 335.27 837.59 C 341.92 845.88 351.98 853.91 349.52 865.97 C 352.93 870.99 352.79 878.02 349.14 883.09 C 346.36 885.83 349.16 888.10 350.93 890.09 C 347.54 888.70 343.40 888.66 340.77 885.85 C 349.31 880.55 351.32 869.95 344.24 862.84 C 341.72 858.90 335.95 860.10 331.85 858.89 L 332.32 858.25 C 336.25 854.27 335.67 847.88 333.36 843.20 C 332.27 839.53 328.87 837.34 325.26 836.73 C 318.83 820.00 299.23 816.98 283.36 816.02 C 280.59 814.69 277.63 815.53 274.77 815.89 C 276.00 814.61 277.57 813.79 279.17 813.06 Z" />
</g>
<g id="#fdfd71ff">
<path fill="#fdfd71" stroke="#fdfd71" stroke-width="0.09375" opacity="1.00" d=" M 283.36 816.02 C 299.23 816.98 318.83 820.00 325.26 836.73 C 321.84 836.76 318.47 837.16 315.07 836.93 C 317.44 825.53 302.29 821.72 293.87 820.12 C 278.35 817.44 261.18 819.83 248.07 829.07 C 243.33 831.61 239.38 837.94 242.80 843.00 C 237.53 844.87 227.91 846.60 227.35 853.25 C 227.05 855.06 227.86 856.64 229.04 857.98 C 225.35 856.88 226.57 865.06 232.00 860.07 C 236.81 861.38 244.31 862.14 245.13 868.04 C 241.80 868.45 239.07 866.32 236.12 865.20 C 231.61 868.55 234.01 874.61 233.72 879.28 C 229.58 876.43 226.21 872.62 222.00 869.87 C 219.37 867.40 216.49 864.85 214.84 861.62 L 214.94 860.73 C 218.13 861.82 219.15 866.35 222.80 866.02 C 221.82 853.92 229.76 844.97 235.04 834.96 C 247.80 822.15 265.90 817.64 283.36 816.02 Z" />
</g>
<g id="#d7ca5fff">
<path fill="#d7ca5f" stroke="#d7ca5f" stroke-width="0.09375" opacity="1.00" d=" M 193.85 820.88 C 199.93 815.22 211.75 818.19 218.06 821.07 C 215.67 820.92 213.31 820.55 210.96 820.17 C 205.22 819.19 199.37 818.70 193.85 820.88 Z" />
</g>
<g id="#f3b818ff">
<path fill="#f3b818" stroke="#f3b818" stroke-width="0.09375" opacity="1.00" d=" M 193.85 820.88 C 199.37 818.70 205.22 819.19 210.96 820.17 C 211.21 820.65 211.70 821.60 211.95 822.08 C 204.62 819.85 193.95 822.48 193.47 831.44 C 191.76 842.99 189.61 831.79 189.43 826.76 C 189.93 824.47 191.11 821.19 193.85 820.88 Z" />
</g>
<g id="#fdfb89ff">
<path fill="#fdfb89" stroke="#fdfb89" stroke-width="0.09375" opacity="1.00" d=" M 248.07 829.07 C 261.18 819.83 278.35 817.44 293.87 820.12 C 302.29 821.72 317.44 825.53 315.07 836.93 C 318.47 837.16 321.84 836.76 325.26 836.73 C 328.87 837.34 332.27 839.53 333.36 843.20 C 328.98 838.48 320.53 836.88 315.95 842.00 C 315.02 842.68 314.07 843.34 313.11 844.00 C 310.31 844.90 307.84 846.69 304.90 847.12 C 305.86 841.01 314.84 834.96 308.60 829.34 C 290.97 818.17 264.92 818.91 249.11 833.23 C 248.73 836.94 251.05 840.16 251.05 843.80 C 250.11 844.73 235.83 844.38 243.16 846.24 C 237.32 847.09 232.07 849.83 227.35 853.25 C 227.91 846.60 237.53 844.87 242.80 843.00 C 239.38 837.94 243.33 831.61 248.07 829.07 Z" />
</g>
<g id="#f7da20ff">
<path fill="#f7da20" stroke="#f7da20" stroke-width="0.09375" opacity="1.00" d=" M 210.96 820.17 C 213.31 820.55 215.67 820.92 218.06 821.07 C 219.70 821.50 223.21 821.09 223.64 822.70 C 223.17 825.35 236.83 827.86 229.16 827.71 C 221.54 827.00 204.73 818.08 201.28 828.98 C 201.10 832.11 199.90 836.05 203.51 837.38 C 203.82 837.79 204.42 838.62 204.72 839.04 C 206.08 844.83 208.95 850.12 211.78 855.32 C 209.62 854.13 208.05 852.21 206.15 850.70 C 207.54 854.78 211.50 863.03 205.39 864.73 C 204.09 862.12 202.44 859.70 200.26 857.75 C 196.94 851.94 194.31 845.75 190.95 840.00 C 188.18 836.24 188.80 831.12 189.43 826.76 C 189.61 831.79 191.76 842.99 193.47 831.44 C 193.95 822.48 204.62 819.85 211.95 822.08 C 211.70 821.60 211.21 820.65 210.96 820.17 Z" />
</g>
<g id="#fcfaa6ff">
<path fill="#fcfaa6" stroke="#fcfaa6" stroke-width="0.09375" opacity="1.00" d=" M 249.11 833.23 C 264.92 818.91 290.97 818.17 308.60 829.34 C 314.84 834.96 305.86 841.01 304.90 847.12 C 307.84 846.69 310.31 844.90 313.11 844.00 C 308.00 850.28 298.81 854.97 300.84 864.59 C 299.60 869.65 298.90 874.82 300.83 879.77 C 300.39 879.89 299.51 880.11 299.07 880.23 C 290.36 872.13 276.48 872.67 269.27 862.74 C 266.20 858.49 263.21 854.21 259.06 850.98 C 255.09 846.43 248.64 846.50 243.16 846.24 C 235.83 844.38 250.11 844.73 251.05 843.80 C 251.05 840.16 248.73 836.94 249.11 833.23 M 276.82 827.18 C 271.64 830.61 261.69 827.39 260.01 835.08 C 260.77 845.52 270.67 851.64 276.54 859.40 C 279.32 864.30 285.67 865.60 290.86 864.96 C 299.22 858.09 296.92 846.58 301.91 837.90 C 303.47 824.98 285.00 828.94 276.82 827.18 Z" />
</g>
<g id="#e7a427ff">
<path fill="#e7a427" stroke="#e7a427" stroke-width="0.09375" opacity="1.00" d=" M 201.28 828.98 C 209.68 822.46 223.58 826.67 231.46 832.63 L 230.55 832.75 C 226.13 831.22 221.75 829.47 217.13 828.67 C 214.64 827.35 211.60 826.27 209.85 828.82 C 207.66 829.52 205.28 830.43 204.63 832.91 C 203.85 834.26 203.62 835.83 203.51 837.38 C 199.90 836.05 201.10 832.11 201.28 828.98 Z" />
</g>
<g id="#fffdc0ff">
<path fill="#fffdc0" stroke="#fffdc0" stroke-width="0.09375" opacity="1.00" d=" M 276.82 827.18 C 285.00 828.94 303.47 824.98 301.91 837.90 C 296.92 846.58 299.22 858.09 290.86 864.96 C 285.67 865.60 279.32 864.30 276.54 859.40 C 270.67 851.64 260.77 845.52 260.01 835.08 C 261.69 827.39 271.64 830.61 276.82 827.18 Z" />
</g>
<g id="#885c2aff">
<path fill="#885c2a" stroke="#885c2a" stroke-width="0.09375" opacity="1.00" d=" M 209.85 828.82 C 211.60 826.27 214.64 827.35 217.13 828.67 C 215.31 828.71 211.67 828.78 209.85 828.82 Z" />
</g>
<g id="#24221bff">
</g>
<g id="#7c5e26ff">
<path fill="#7c5e26" stroke="#7c5e26" stroke-width="0.09375" opacity="1.00" d=" M 203.51 837.38 C 203.62 835.83 203.85 834.26 204.63 832.91 C 205.19 834.91 205.23 837.01 204.72 839.04 C 204.42 838.62 203.82 837.79 203.51 837.38 Z" />
</g>
<g id="#faf53eff">
<path fill="#faf53e" stroke="#faf53e" stroke-width="0.09375" opacity="1.00" d=" M 230.55 832.75 L 231.46 832.63 C 231.79 833.03 232.44 833.83 232.76 834.23 C 228.90 842.53 221.40 848.39 217.86 856.88 C 217.35 858.82 215.59 859.66 213.74 859.84 C 209.13 857.96 206.02 870.85 210.50 872.37 C 211.70 875.06 213.47 877.44 215.24 879.79 C 216.36 884.50 216.45 889.29 213.07 893.04 C 208.75 906.04 216.24 919.22 223.24 929.75 C 227.45 933.66 233.42 940.48 239.75 936.78 C 245.77 934.24 250.27 929.35 252.38 923.19 C 256.72 921.08 260.30 925.36 257.99 928.91 C 253.22 933.06 248.88 937.69 244.34 942.10 C 243.36 937.55 237.31 943.19 233.83 941.28 C 223.99 939.26 218.79 930.42 214.88 922.06 C 209.66 913.90 208.44 903.77 208.37 894.35 C 211.50 887.30 212.70 878.80 207.42 872.47 C 207.14 866.60 200.35 863.37 200.26 857.75 C 202.44 859.70 204.09 862.12 205.39 864.73 C 211.50 863.03 207.54 854.78 206.15 850.70 C 208.05 852.21 209.62 854.13 211.78 855.32 C 212.06 855.48 212.62 855.80 212.90 855.96 C 216.99 847.00 223.51 839.51 230.55 832.75 Z" />
</g>
<g id="#f7dd27ff">
<path fill="#f7dd27" stroke="#f7dd27" stroke-width="0.09375" opacity="1.00" d=" M 335.27 837.59 C 332.97 835.70 336.56 834.37 337.99 833.62 C 345.93 840.45 353.89 850.06 356.87 860.64 C 353.36 861.16 355.65 865.41 356.29 867.70 C 360.91 882.21 361.72 898.36 356.80 912.92 C 355.35 917.98 352.95 922.85 353.01 928.26 C 354.10 927.16 354.32 924.62 356.13 924.61 C 356.07 926.73 356.38 928.83 357.03 930.86 C 356.49 930.67 355.39 930.29 354.85 930.10 C 354.90 939.93 366.20 946.95 363.34 957.19 C 362.00 948.32 357.40 940.34 352.72 932.84 C 352.17 933.44 351.67 934.08 351.20 934.76 C 346.09 942.96 339.10 949.63 331.97 956.04 C 331.06 956.66 330.14 957.26 329.19 957.83 C 329.05 957.45 328.75 956.70 328.60 956.32 C 328.24 955.41 327.87 954.52 327.51 953.63 C 337.62 946.16 357.00 932.08 347.09 917.11 C 348.67 915.00 352.57 913.68 352.34 910.65 C 357.07 905.02 356.18 897.47 351.46 892.13 C 351.31 891.43 351.13 890.75 350.93 890.09 C 349.16 888.10 346.36 885.83 349.14 883.09 C 352.79 878.02 352.93 870.99 349.52 865.97 C 351.98 853.91 341.92 845.88 335.27 837.59 Z" />
</g>
<g id="#df9c2cff">
<path fill="#df9c2c" stroke="#df9c2c" stroke-width="0.09375" opacity="1.00" d=" M 315.95 842.00 C 320.53 836.88 328.98 838.48 333.36 843.20 C 335.67 847.88 336.25 854.27 332.32 858.25 C 336.43 847.69 326.42 837.65 315.95 842.00 Z" />
</g>
<g id="#dbd264ff">
<path fill="#dbd264" stroke="#dbd264" stroke-width="0.09375" opacity="1.00" d=" M 190.95 840.00 C 194.31 845.75 196.94 851.94 200.26 857.75 C 195.17 854.28 192.22 846.29 190.95 840.00 Z" />
</g>
<g id="#23211eff">
</g>
<g id="#db9f3aff">
<path fill="#db9f3a" stroke="#db9f3a" stroke-width="0.09375" opacity="1.00" d=" M 243.16 846.24 C 248.64 846.50 255.09 846.43 259.06 850.98 C 256.71 850.48 254.62 849.21 252.28 848.68 C 248.75 847.79 245.24 847.81 241.74 848.75 C 237.17 850.74 229.53 852.11 229.96 858.37 L 229.04 857.98 C 227.86 856.64 227.05 855.06 227.35 853.25 C 232.07 849.83 237.32 847.09 243.16 846.24 Z" />
</g>
<g id="#7f5b1dff">
<path fill="#7f5b1d" stroke="#7f5b1d" stroke-width="0.09375" opacity="1.00" d=" M 241.74 848.75 C 245.24 847.81 248.75 847.79 252.28 848.68 C 248.75 848.85 245.24 849.21 241.74 848.75 Z" />
</g>
<g id="#f9f990ff">
<path fill="#f9f990" stroke="#f9f990" stroke-width="0.09375" opacity="1.00" d=" M 232.00 860.07 C 226.57 865.06 225.35 856.88 229.04 857.98 L 229.96 858.37 C 231.42 858.54 234.35 858.87 235.81 859.04 C 249.65 860.10 256.50 875.06 262.09 885.94 C 264.28 892.05 270.62 895.24 272.97 901.13 C 269.87 900.10 267.84 897.28 264.91 896.01 C 261.15 896.39 257.58 897.85 253.83 898.36 C 256.03 903.80 261.83 906.70 264.13 912.00 C 249.13 899.13 233.25 886.14 222.00 869.87 C 226.21 872.62 229.58 876.43 233.72 879.28 C 234.01 874.61 231.61 868.55 236.12 865.20 C 239.07 866.32 241.80 868.45 245.13 868.04 C 244.31 862.14 236.81 861.38 232.00 860.07 Z" />
</g>
<g id="#686443ff">
<path fill="#686443" stroke="#686443" stroke-width="0.09375" opacity="1.00" d=" M 229.96 858.37 C 231.44 857.30 235.38 856.82 235.81 859.04 C 234.35 858.87 231.42 858.54 229.96 858.37 Z" />
</g>
<g id="#e4a61eff">
<path fill="#e4a61e" stroke="#e4a61e" stroke-width="0.09375" opacity="1.00" d=" M 210.50 872.37 C 206.02 870.85 209.13 857.96 213.74 859.84 C 214.04 860.06 214.64 860.51 214.94 860.73 L 214.84 861.62 C 212.00 864.51 211.30 868.56 210.50 872.37 Z" />
</g>
<g id="#e9e495ff">
<path fill="#e9e495" stroke="#e9e495" stroke-width="0.09375" opacity="1.00" d=" M 307.78 872.27 C 318.67 875.88 324.85 864.85 331.85 858.89 C 335.95 860.10 341.72 858.90 344.24 862.84 C 340.26 861.52 335.38 859.69 331.75 862.69 C 326.00 866.30 321.23 871.20 316.43 875.94 C 314.03 873.58 310.12 874.66 307.78 872.27 Z" />
</g>
<g id="#d89a2dff">
<path fill="#d89a2d" stroke="#d89a2d" stroke-width="0.09375" opacity="1.00" d=" M 331.75 862.69 C 335.38 859.69 340.26 861.52 344.24 862.84 C 351.32 869.95 349.31 880.55 340.77 885.85 C 337.20 888.54 334.85 893.66 330.00 894.19 C 335.85 887.35 347.21 881.88 345.65 871.43 C 344.04 865.32 338.11 861.56 331.75 862.69 Z" />
</g>
<g id="#eaba23ff">
<path fill="#eaba23" stroke="#eaba23" stroke-width="0.09375" opacity="1.00" d=" M 356.29 867.70 C 355.65 865.41 353.36 861.16 356.87 860.64 C 366.38 879.65 366.87 906.16 356.13 924.61 C 354.32 924.62 354.10 927.16 353.01 928.26 C 352.95 922.85 355.35 917.98 356.80 912.92 C 361.72 898.36 360.91 882.21 356.29 867.70 Z" />
</g>
<g id="#22201dff">
</g>
<g id="#f8f677ff">
<path fill="#f8f677" stroke="#f8f677" stroke-width="0.09375" opacity="1.00" d=" M 300.83 879.77 C 298.90 874.82 299.60 869.65 300.84 864.59 C 302.50 867.68 304.87 870.29 307.78 872.27 C 310.12 874.66 314.03 873.58 316.43 875.94 C 315.85 877.25 315.28 878.58 314.77 879.94 C 314.42 881.43 313.71 884.40 313.36 885.89 C 312.89 893.10 315.52 900.13 315.37 907.25 C 314.36 904.40 313.35 901.55 312.30 898.72 C 311.33 895.90 310.23 893.03 307.98 890.99 C 305.13 887.28 302.15 883.73 299.07 880.23 C 299.51 880.11 300.39 879.89 300.83 879.77 Z" />
</g>
<g id="#d4ba46ff">
<path fill="#d4ba46" stroke="#d4ba46" stroke-width="0.09375" opacity="1.00" d=" M 210.50 872.37 C 226.21 888.30 241.71 907.56 260.22 921.77 C 261.39 921.76 264.42 926.65 262.39 925.69 C 259.95 923.75 257.54 921.84 255.10 919.96 C 244.81 910.28 234.33 900.85 224.75 890.51 C 222.39 887.88 220.00 885.31 217.71 882.62 C 216.92 881.64 216.07 880.71 215.24 879.79 C 213.47 877.44 211.70 875.06 210.50 872.37 Z" />
</g>
<g id="#f5e12bff">
<path fill="#f5e12b" stroke="#f5e12b" stroke-width="0.09375" opacity="1.00" d=" M 205.00 883.98 C 206.42 880.99 203.80 874.15 207.42 872.47 C 212.70 878.80 211.50 887.30 208.37 894.35 C 208.44 903.77 209.66 913.90 214.88 922.06 C 218.79 930.42 223.99 939.26 233.83 941.28 C 237.31 943.19 243.36 937.55 244.34 942.10 C 242.17 944.31 239.99 946.55 237.81 948.77 C 231.45 955.88 227.62 943.73 221.89 940.98 C 211.89 929.87 206.05 914.86 204.99 900.01 C 204.99 894.63 205.00 889.32 205.00 883.98 Z" />
</g>
<g id="#fefd55ff">
<path fill="#fefd55" stroke="#fefd55" stroke-width="0.09375" opacity="1.00" d=" M 215.24 879.79 C 216.07 880.71 216.92 881.64 217.71 882.62 C 216.95 886.39 222.46 889.96 218.71 893.71 C 210.32 906.55 220.48 923.71 231.03 931.95 C 236.77 937.09 244.87 930.72 246.76 924.82 C 248.00 922.40 247.37 918.27 251.18 918.68 C 252.48 919.11 253.79 919.52 255.10 919.96 C 257.54 921.84 259.95 923.75 262.39 925.69 C 261.47 926.85 260.60 928.81 258.92 928.86 L 257.99 928.91 C 260.30 925.36 256.72 921.08 252.38 923.19 C 250.27 929.35 245.77 934.24 239.75 936.78 C 233.42 940.48 227.45 933.66 223.24 929.75 C 216.24 919.22 208.75 906.04 213.07 893.04 C 216.45 889.29 216.36 884.50 215.24 879.79 Z" />
</g>
<g id="#797733ff">
<path fill="#797733" stroke="#797733" stroke-width="0.09375" opacity="1.00" d=" M 313.36 885.89 C 313.71 884.40 314.42 881.43 314.77 879.94 C 314.79 881.69 314.83 885.19 314.85 886.95 C 314.48 886.68 313.73 886.16 313.36 885.89 Z" />
</g>
<g id="#fefe69ff">
<path fill="#fefe69" stroke="#fefe69" stroke-width="0.09375" opacity="1.00" d=" M 218.71 893.71 C 222.46 889.96 216.95 886.39 217.71 882.62 C 220.00 885.31 222.39 887.88 224.75 890.51 C 223.77 895.21 229.93 896.50 230.21 900.98 C 226.80 901.12 223.52 900.50 220.17 900.13 C 216.03 910.77 224.34 921.48 231.22 928.74 C 234.40 932.63 239.99 931.01 241.67 926.67 C 245.84 920.74 239.63 915.29 237.89 909.93 C 243.57 910.09 247.19 915.23 251.18 918.68 C 247.37 918.27 248.00 922.40 246.76 924.82 C 244.87 930.72 236.77 937.09 231.03 931.95 C 220.48 923.71 210.32 906.55 218.71 893.71 Z" />
</g>
<g id="#9b9341ff">
<path fill="#9b9341" stroke="#9b9341" stroke-width="0.09375" opacity="1.00" d=" M 204.99 900.01 C 203.76 897.62 202.49 886.28 205.00 883.98 C 205.00 889.32 204.99 894.63 204.99 900.01 Z" />
</g>
<g id="#fdfc49ff">
<path fill="#fdfc49" stroke="#fdfc49" stroke-width="0.09375" opacity="1.00" d=" M 315.37 907.25 C 315.52 900.13 312.89 893.10 313.36 885.89 C 313.73 886.16 314.48 886.68 314.85 886.95 C 315.55 888.57 316.31 890.18 316.99 891.83 C 317.84 899.31 329.60 892.90 329.21 899.12 C 328.68 900.69 328.17 902.27 327.71 903.87 C 326.33 904.96 326.32 907.07 327.81 908.09 C 328.38 909.67 328.98 911.26 329.47 912.89 C 330.45 917.94 328.72 918.27 324.18 917.00 C 322.05 923.11 318.85 933.84 325.98 938.03 C 333.59 943.90 342.90 930.00 337.20 923.78 C 333.86 920.23 340.00 918.90 342.75 918.95 C 346.75 924.29 347.42 932.12 341.76 936.73 C 336.84 940.84 332.52 947.96 325.27 946.87 C 318.97 942.89 318.67 934.91 314.15 929.66 C 315.78 922.26 315.63 914.75 315.37 907.25 Z" />
</g>
<g id="#ece576ff">
<path fill="#ece576" stroke="#ece576" stroke-width="0.09375" opacity="1.00" d=" M 330.00 894.19 C 334.85 893.66 337.20 888.54 340.77 885.85 C 343.40 888.66 347.54 888.70 350.93 890.09 C 351.13 890.75 351.31 891.43 351.46 892.13 C 349.97 891.63 348.46 891.20 346.93 890.91 C 339.33 887.80 334.02 894.45 329.21 899.12 C 329.60 892.90 317.84 899.31 316.99 891.83 C 320.93 894.26 325.23 896.40 330.00 894.19 Z" />
</g>
<g id="#23211cff">
</g>
<g id="#fefd7cff">
<path fill="#fefd7c" stroke="#fefd7c" stroke-width="0.09375" opacity="1.00" d=" M 230.21 900.98 C 229.93 896.50 223.77 895.21 224.75 890.51 C 234.33 900.85 244.81 910.28 255.10 919.96 C 253.79 919.52 252.48 919.11 251.18 918.68 C 247.19 915.23 243.57 910.09 237.89 909.93 C 239.63 915.29 245.84 920.74 241.67 926.67 C 239.99 931.01 234.40 932.63 231.22 928.74 C 224.34 921.48 216.03 910.77 220.17 900.13 C 223.52 900.50 226.80 901.12 230.21 900.98 Z" />
</g>
<g id="#bd9a57ff">
<path fill="#bd9a57" stroke="#bd9a57" stroke-width="0.09375" opacity="1.00" d=" M 307.98 890.99 C 310.23 893.03 311.33 895.90 312.30 898.72 C 309.38 898.52 309.43 893.13 307.98 890.99 Z" />
</g>
<g id="#de9321ff">
<path fill="#de9321" stroke="#de9321" stroke-width="0.09375" opacity="1.00" d=" M 346.93 890.91 C 348.46 891.20 349.97 891.63 351.46 892.13 C 356.18 897.47 357.07 905.02 352.34 910.65 C 348.53 913.43 344.99 917.95 339.80 916.99 C 349.61 912.55 358.81 898.97 346.93 890.91 Z" />
</g>
<g id="#fafa71ff">
<path fill="#fafa71" stroke="#fafa71" stroke-width="0.09375" opacity="1.00" d=" M 253.83 898.36 C 257.58 897.85 261.15 896.39 264.91 896.01 C 267.84 897.28 269.87 900.10 272.97 901.13 C 277.01 905.69 275.04 913.83 270.87 917.98 C 268.64 916.01 265.85 914.41 264.13 912.00 C 261.83 906.70 256.03 903.80 253.83 898.36 Z" />
</g>
<g id="#d3952cff">
<path fill="#d3952c" stroke="#d3952c" stroke-width="0.09375" opacity="1.00" d=" M 312.30 898.72 C 313.35 901.55 314.36 904.40 315.37 907.25 C 315.63 914.75 315.78 922.26 314.15 929.66 C 312.24 934.42 311.29 939.78 307.90 943.79 C 305.53 942.31 310.47 935.70 311.19 932.12 C 316.28 921.39 313.19 909.75 312.30 898.72 Z" />
</g>
<g id="#9b9444ff">
<path fill="#9b9444" stroke="#9b9444" stroke-width="0.09375" opacity="1.00" d=" M 327.81 908.09 C 326.32 907.07 326.33 904.96 327.71 903.87 C 328.19 905.26 328.22 906.66 327.81 908.09 Z" />
</g>
<g id="#fdfb5eff">
<path fill="#fdfb5e" stroke="#fdfb5e" stroke-width="0.09375" opacity="1.00" d=" M 339.80 916.99 C 344.99 917.95 348.53 913.43 352.34 910.65 C 352.57 913.68 348.67 915.00 347.09 917.11 C 345.64 917.73 344.20 918.35 342.75 918.95 C 340.00 918.90 333.86 920.23 337.20 923.78 C 342.90 930.00 333.59 943.90 325.98 938.03 C 318.85 933.84 322.05 923.11 324.18 917.00 C 328.72 918.27 330.45 917.94 329.47 912.89 C 332.27 915.58 335.53 918.06 339.80 916.99 Z" />
</g>
<g id="#fcf02fff">
<path fill="#fcf02f" stroke="#fcf02f" stroke-width="0.09375" opacity="1.00" d=" M 342.75 918.95 C 344.20 918.35 345.64 917.73 347.09 917.11 C 357.00 932.08 337.62 946.16 327.51 953.63 C 327.87 954.52 328.24 955.41 328.60 956.32 C 327.82 955.90 327.03 955.49 326.25 955.09 C 325.93 954.84 325.29 954.34 324.97 954.08 C 319.65 950.14 314.05 946.32 307.90 943.79 C 311.29 939.78 312.24 934.42 314.15 929.66 C 318.67 934.91 318.97 942.89 325.27 946.87 C 332.52 947.96 336.84 940.84 341.76 936.73 C 347.42 932.12 346.75 924.29 342.75 918.95 Z" />
</g>
<g id="#d8d370ff">
<path fill="#d8d370" stroke="#d8d370" stroke-width="0.09375" opacity="1.00" d=" M 244.34 942.10 C 248.88 937.69 253.22 933.06 257.99 928.91 L 258.92 928.86 C 252.43 935.37 246.05 945.11 237.81 948.77 C 239.99 946.55 242.17 944.31 244.34 942.10 Z" />
</g>
<g id="#f8c113ff">
<path fill="#f8c113" stroke="#f8c113" stroke-width="0.09375" opacity="1.00" d=" M 354.85 930.10 C 355.39 930.29 356.49 930.67 357.03 930.86 C 358.51 931.48 359.62 933.30 359.66 934.88 C 360.02 944.68 370.00 952.92 366.61 963.58 C 365.87 970.65 357.48 970.70 352.73 973.87 C 342.95 973.17 333.89 968.74 324.99 964.99 C 320.32 963.36 327.76 960.00 329.98 959.22 C 338.47 961.41 346.63 966.20 355.66 965.67 C 357.92 965.15 361.51 964.85 361.47 961.79 C 362.03 960.23 362.74 958.72 363.34 957.19 C 366.20 946.95 354.90 939.93 354.85 930.10 Z" />
</g>
<g id="#e1941fff">
<path fill="#e1941f" stroke="#e1941f" stroke-width="0.09375" opacity="1.00" d=" M 351.20 934.76 C 351.67 934.08 352.17 933.44 352.72 932.84 C 357.40 940.34 362.00 948.32 363.34 957.19 C 362.74 958.72 362.03 960.23 361.47 961.79 C 353.48 966.87 344.52 961.85 336.45 959.70 C 336.51 959.31 336.63 958.52 336.69 958.13 C 343.68 959.94 353.28 964.23 358.89 957.67 C 360.17 949.27 356.40 941.11 351.20 934.76 Z" />
</g>
<g id="#25211bff">
</g>
<g id="#ec9516ff">
<path fill="#ec9516" stroke="#ec9516" stroke-width="0.09375" opacity="1.00" d=" M 359.66 934.88 C 365.23 941.33 368.82 950.46 370.80 958.73 C 371.42 965.15 368.15 970.72 362.84 974.05 C 359.45 973.95 356.10 974.03 352.73 973.87 C 357.48 970.70 365.87 970.65 366.61 963.58 C 370.00 952.92 360.02 944.68 359.66 934.88 Z" />
</g>
<g id="#eade6aff">
<path fill="#eade6a" stroke="#eade6a" stroke-width="0.09375" opacity="1.00" d=" M 221.89 940.98 C 227.62 943.73 231.45 955.88 237.81 948.77 C 236.88 950.94 235.36 952.64 233.24 953.86 C 229.88 949.30 223.75 946.40 221.89 940.98 Z" />
</g>
<g id="#e4de72ff">
<path fill="#e4de72" stroke="#e4de72" stroke-width="0.09375" opacity="1.00" d=" M 307.90 943.79 C 314.05 946.32 319.65 950.14 324.97 954.08 C 319.01 951.46 312.15 948.84 307.90 943.79 Z" />
</g>
<g id="#d78c25ff">
<path fill="#d78c25" stroke="#d78c25" stroke-width="0.09375" opacity="1.00" d=" M 299.69 952.72 C 300.02 951.84 304.18 951.33 302.69 952.76 C 297.56 959.23 291.42 964.77 285.88 970.85 C 286.65 970.91 288.19 971.01 288.96 971.06 C 288.66 973.26 283.05 972.28 285.04 969.05 C 289.23 963.31 295.61 958.82 299.69 952.72 Z" />
</g>
<g id="#eed647ff">
<path fill="#eed647" stroke="#eed647" stroke-width="0.09375" opacity="1.00" d=" M 285.88 970.85 C 291.42 964.77 297.56 959.23 302.69 952.76 C 305.67 954.54 309.57 955.40 311.88 957.99 C 313.12 960.69 316.26 961.68 318.34 963.66 C 309.43 968.49 299.11 971.13 288.96 971.06 C 288.19 971.01 286.65 970.91 285.88 970.85 M 301.30 957.25 C 297.00 961.32 292.80 965.52 288.86 969.96 C 298.31 969.87 307.32 966.88 316.07 963.64 C 311.13 961.71 306.71 956.56 301.30 957.25 Z" />
</g>
<g id="#de9420ff">
<path fill="#de9420" stroke="#de9420" stroke-width="0.09375" opacity="1.00" d=" M 326.25 955.09 C 327.03 955.49 327.82 955.90 328.60 956.32 C 328.75 956.70 329.05 957.45 329.19 957.83 C 325.99 959.70 322.82 961.63 319.71 963.67 C 319.37 963.67 318.68 963.66 318.34 963.66 C 316.26 961.68 313.12 960.69 311.88 957.99 C 317.02 961.44 322.02 958.62 326.25 955.09 Z" />
</g>
<g id="#f1db56ff">
<path fill="#f1db56" stroke="#f1db56" stroke-width="0.09375" opacity="1.00" d=" M 331.97 956.04 C 333.54 956.73 335.10 957.45 336.69 958.13 C 336.63 958.52 336.51 959.31 336.45 959.70 C 344.52 961.85 353.48 966.87 361.47 961.79 C 361.51 964.85 357.92 965.15 355.66 965.67 C 346.63 966.20 338.47 961.41 329.98 959.22 C 327.76 960.00 320.32 963.36 324.99 964.99 C 333.89 968.74 342.95 973.17 352.73 973.87 C 356.10 974.03 359.45 973.95 362.84 974.05 C 362.39 974.29 361.47 974.77 361.01 975.01 C 357.96 974.92 354.98 975.02 351.96 975.01 C 340.51 973.85 329.84 968.80 319.71 963.67 C 322.82 961.63 325.99 959.70 329.19 957.83 C 330.14 957.26 331.06 956.66 331.97 956.04 Z" />
</g>
<g id="#f6c013ff">
<path fill="#f6c013" stroke="#f6c013" stroke-width="0.09375" opacity="1.00" d=" M 301.30 957.25 C 306.71 956.56 311.13 961.71 316.07 963.64 C 307.32 966.88 298.31 969.87 288.86 969.96 C 292.80 965.52 297.00 961.32 301.30 957.25 Z" />
</g>
<g id="#dec056ff">
<path fill="#dec056" stroke="#dec056" stroke-width="0.09375" opacity="1.00" d=" M 362.84 974.05 C 368.15 970.72 371.42 965.15 370.80 958.73 C 372.72 964.47 369.95 974.15 362.84 974.05 Z" />
</g>
<g id="#6a6338ff">
<path fill="#6a6338" stroke="#6a6338" stroke-width="0.09375" opacity="1.00" d=" M 351.96 975.01 C 354.98 975.02 357.96 974.92 361.01 975.01 C 361.36 976.80 352.52 976.79 351.96 975.01 Z" />
</g>
</svg>
