<?xml version="1.0" encoding="UTF-8" ?>
<!DOCTYPE svg PUBLIC "-//W3C//DTD SVG 1.1//EN" "http://www.w3.org/Graphics/SVG/1.1/DTD/svg11.dtd">
<svg width="455pt" height="1024pt" viewBox="0 0 455 1024" version="1.1" xmlns="http://www.w3.org/2000/svg">
<g id="#000000ff">
<path fill="#000000" stroke="#000000" stroke-width="0.09375" opacity="1.00" d=" M 171.09 47.60 C 194.40 41.22 218.81 38.68 242.93 40.40 C 277.76 42.63 311.92 54.01 341.29 72.83 C 373.07 93.20 399.26 122.25 415.99 156.11 C 435.78 195.66 442.23 241.57 434.63 285.10 C 427.88 324.28 409.61 361.44 382.55 390.57 C 357.60 417.88 325.24 438.36 289.83 449.07 C 291.84 451.87 294.56 454.07 296.52 456.92 C 297.44 453.59 298.33 450.11 300.55 447.38 C 301.48 446.50 302.54 445.05 304.03 445.59 C 307.36 446.19 308.24 449.99 310.40 452.11 C 310.96 448.37 310.75 443.97 313.92 441.31 C 317.01 442.12 318.00 445.17 318.76 447.90 C 320.19 445.76 321.92 442.63 325.02 443.45 C 327.82 444.48 328.86 447.51 330.09 449.96 C 333.57 448.77 337.35 447.88 340.98 449.01 C 348.15 450.90 353.40 456.64 357.60 462.44 C 368.71 479.34 376.65 498.01 386.20 515.77 C 391.82 527.20 399.55 537.45 405.04 548.96 C 407.13 553.56 409.63 558.53 408.53 563.74 C 408.21 565.33 406.30 565.59 405.10 566.27 C 405.56 568.82 405.22 571.73 406.83 573.95 C 412.57 582.63 414.59 593.06 417.13 602.99 C 422.25 626.53 428.20 649.95 431.08 673.90 C 433.62 695.65 433.21 718.33 425.39 739.04 C 422.48 746.80 421.02 756.34 413.25 760.92 C 415.13 763.62 417.83 766.39 417.50 769.95 C 417.51 772.17 415.20 773.16 413.66 774.26 C 415.57 780.75 418.16 787.24 418.22 794.10 C 418.26 796.68 416.38 798.38 414.01 798.99 C 413.32 803.96 413.64 809.13 412.01 813.94 C 409.29 820.52 404.11 825.65 400.87 831.95 C 398.09 837.77 391.52 839.73 386.15 842.34 C 381.66 844.35 377.82 847.49 373.46 849.73 C 367.89 852.12 361.37 847.64 360.04 842.08 C 358.48 837.20 360.33 832.30 361.88 827.70 C 359.21 827.14 356.45 826.40 354.42 824.48 C 350.17 820.84 349.35 813.55 353.37 809.44 C 358.14 804.45 366.06 803.58 372.15 806.54 C 373.62 807.49 373.85 805.19 374.48 804.44 C 376.19 800.13 381.56 797.86 381.66 792.86 C 380.30 791.32 378.20 790.66 376.98 789.00 C 375.08 786.74 374.45 783.80 373.90 780.99 C 371.48 783.71 368.25 785.37 365.18 787.20 C 361.52 790.84 358.39 795.23 353.64 797.60 C 348.48 800.52 341.02 800.95 336.84 796.13 C 331.66 790.65 332.90 781.88 337.11 776.21 C 341.78 769.08 350.47 766.35 355.64 759.72 C 358.87 755.32 365.03 752.89 365.71 746.92 C 360.13 736.02 357.85 723.91 354.91 712.12 C 352.55 701.82 350.87 691.39 349.45 680.92 C 342.91 699.30 332.61 716.16 320.58 731.44 C 310.53 743.98 299.67 756.17 286.39 765.38 C 275.89 772.78 263.81 778.00 251.14 780.21 C 243.16 781.62 235.03 781.70 226.96 782.16 C 215.92 781.68 204.70 781.45 194.04 778.22 C 176.70 773.34 161.65 762.52 149.25 749.71 C 130.29 729.80 113.78 706.90 104.44 680.86 C 102.79 694.41 100.26 707.85 96.85 721.07 C 94.88 729.64 92.62 738.25 88.53 746.09 C 87.75 752.20 94.59 754.99 97.77 759.21 C 102.69 765.76 110.95 768.54 115.93 775.02 C 119.42 779.46 121.67 785.46 119.97 791.08 C 118.65 795.86 114.15 799.91 109.03 799.81 C 103.00 800.07 97.57 796.57 93.53 792.39 C 91.36 790.29 89.81 787.45 86.99 786.14 C 84.36 784.91 82.06 783.14 80.10 781.02 C 79.36 785.58 77.32 790.64 72.51 792.18 C 71.84 798.46 79.42 801.06 80.58 806.90 C 86.65 804.26 94.28 803.95 99.55 808.50 C 104.32 812.20 104.23 819.95 100.01 824.04 C 97.91 826.31 94.84 827.12 91.97 827.90 C 93.77 832.35 95.44 837.29 93.92 842.08 C 92.63 847.19 87.31 851.30 81.96 850.30 C 78.35 849.17 75.48 846.56 72.21 844.76 C 67.20 841.56 61.23 840.09 56.52 836.39 C 54.04 834.51 52.95 831.49 51.32 828.96 C 48.01 823.46 43.26 818.68 41.45 812.39 C 40.49 807.94 40.33 803.37 40.11 798.84 C 37.39 798.87 35.57 796.63 35.68 793.99 C 35.86 787.37 38.18 781.08 40.19 774.85 C 39.39 772.94 36.22 772.45 36.44 769.94 C 36.14 766.38 38.83 763.64 40.72 760.95 C 33.47 756.79 31.70 748.10 29.17 740.82 C 21.85 722.21 20.50 701.81 22.05 682.04 C 24.15 656.57 30.58 631.77 35.93 606.86 C 38.81 595.16 41.02 582.84 47.86 572.67 C 48.57 570.62 48.54 568.39 48.86 566.27 C 44.12 565.64 44.87 560.16 45.77 556.76 C 50.69 542.19 60.63 530.12 67.41 516.47 C 76.95 498.66 84.96 479.99 95.98 463.01 C 100.40 456.68 106.17 450.43 114.05 448.79 C 117.37 447.97 120.69 449.05 123.87 449.96 C 125.06 447.48 126.19 444.50 128.99 443.45 C 132.10 442.71 133.76 445.79 135.18 447.93 C 135.94 445.18 136.94 442.07 140.09 441.34 C 143.27 444.26 143.05 448.86 143.56 452.80 C 145.37 449.99 147.10 444.92 151.26 445.74 C 155.24 447.96 156.23 452.91 157.39 456.95 C 159.56 453.93 162.30 451.41 164.93 448.81 C 130.20 438.12 98.41 418.04 73.65 391.49 C 47.18 363.07 28.78 327.15 21.54 288.97 C 10.80 234.90 22.59 176.51 54.52 131.43 C 68.48 111.16 85.83 93.13 106.01 78.99 C 120.11 69.54 134.93 61.06 150.73 54.81 C 157.23 51.66 164.15 49.54 171.09 47.60 M 156.96 59.13 C 120.60 72.79 88.44 97.24 65.35 128.45 C 35.56 168.28 21.25 219.44 26.53 268.92 C 41.24 284.23 51.36 303.20 61.28 321.75 C 103.89 295.78 152.12 280.28 201.00 271.27 C 203.46 271.43 203.57 269.35 203.19 267.48 L 202.64 267.53 C 201.64 254.37 200.47 241.19 200.64 227.97 C 200.87 217.62 198.37 207.31 199.73 196.98 C 200.93 190.90 207.70 189.22 212.93 188.30 C 230.78 185.44 248.93 185.57 266.88 183.77 C 283.58 182.68 300.20 178.93 316.99 180.44 C 321.11 180.93 326.09 182.60 327.37 187.04 C 328.32 193.30 327.36 199.67 328.04 205.96 C 328.59 225.14 326.65 244.71 331.79 263.46 C 356.47 265.65 381.08 269.50 404.85 276.67 C 412.38 279.53 420.20 281.77 427.34 285.60 C 438.55 226.40 421.41 162.64 382.09 116.98 C 380.48 115.16 379.00 113.16 376.95 111.81 C 375.93 109.69 374.05 108.19 372.47 106.51 C 365.66 99.74 358.64 92.97 350.77 87.50 C 324.65 67.05 292.96 53.74 260.22 48.70 C 225.70 43.08 189.67 46.72 156.96 59.13 M 254.93 190.64 C 240.28 191.89 225.42 191.73 210.99 194.87 C 208.74 195.53 205.31 196.08 205.43 199.11 C 204.99 204.04 205.41 209.01 205.62 213.94 C 207.01 229.62 206.87 245.38 207.46 261.09 C 209.77 280.30 213.69 299.62 222.02 317.21 C 222.88 319.73 226.10 318.48 228.08 318.61 C 242.98 316.54 257.45 312.23 272.05 308.73 C 293.15 303.58 314.42 298.74 336.09 296.74 C 328.95 277.40 322.51 257.30 322.30 236.49 C 321.91 220.43 322.62 204.31 321.54 188.29 C 319.88 186.53 317.20 186.47 314.95 186.22 C 294.82 185.28 275.00 190.02 254.93 190.64 M 333.23 269.16 C 335.52 277.44 337.99 285.71 341.49 293.58 C 342.38 295.74 343.47 298.29 342.30 300.55 C 340.97 302.29 338.57 302.48 336.57 302.67 C 307.15 305.36 278.57 313.22 249.97 320.24 C 242.68 321.83 235.41 323.66 228.00 324.54 C 224.37 324.85 219.62 324.82 217.62 321.18 C 213.14 312.69 211.01 303.21 207.56 294.31 C 206.79 288.26 204.95 282.32 204.15 276.24 C 199.70 276.87 195.32 277.92 190.90 278.72 C 176.29 297.85 161.66 316.97 146.98 336.05 C 145.90 337.54 144.52 338.75 142.93 339.66 C 130.49 329.02 118.22 318.19 105.92 307.39 C 103.11 304.49 99.41 308.25 96.46 309.19 C 89.13 312.77 81.63 316.10 74.67 320.38 C 71.10 322.52 67.07 324.21 64.02 327.05 C 64.51 329.56 65.93 331.75 66.91 334.08 C 75.14 352.83 82.37 372.31 85.35 392.63 C 101.43 409.14 120.76 422.43 141.50 432.43 C 145.08 434.03 148.57 435.90 152.38 436.91 L 152.76 437.33 C 165.66 442.54 179.10 446.58 192.85 448.77 L 193.02 449.06 C 224.95 454.29 258.17 452.62 289.08 442.79 C 299.18 439.47 309.37 435.87 318.58 430.56 C 319.17 430.35 320.36 429.92 320.95 429.70 C 374.81 402.24 414.81 349.21 426.46 289.89 C 419.00 287.37 411.76 284.12 404.12 282.18 C 403.77 282.42 403.08 282.91 402.73 283.15 C 396.40 293.49 390.64 304.18 384.91 314.87 C 384.31 316.16 383.05 316.88 381.98 317.73 C 381.06 317.06 380.20 316.34 379.39 315.57 C 366.47 300.43 353.83 285.04 341.03 269.80 C 338.43 269.50 335.83 269.29 333.23 269.16 M 347.44 270.61 C 349.57 273.72 352.09 276.53 354.55 279.38 C 361.95 287.73 369.01 296.39 376.32 304.81 C 376.60 304.77 377.15 304.69 377.42 304.65 C 382.25 295.96 387.65 287.59 392.35 278.83 C 377.66 274.88 362.60 272.07 347.44 270.61 M 27.61 279.14 C 28.88 286.47 30.28 293.79 32.21 300.98 C 40.34 332.13 56.39 360.96 77.71 385.00 C 77.84 382.97 77.50 380.95 76.96 379.00 C 72.20 360.69 65.02 343.10 56.83 326.07 C 50.46 313.25 43.51 300.67 35.31 288.92 C 32.84 285.59 30.63 282.02 27.61 279.14 M 111.41 302.66 C 110.33 303.14 107.85 303.91 109.53 305.34 C 118.05 312.88 126.74 320.24 135.26 327.78 C 135.94 328.52 137.52 329.41 138.14 328.07 C 149.29 312.98 161.04 298.33 172.09 283.18 C 151.41 288.10 131.13 294.74 111.41 302.66 M 159.76 462.76 C 154.13 474.35 154.82 487.53 153.68 500.03 C 153.23 512.52 149.24 524.53 144.64 536.04 C 139.80 548.64 134.78 561.18 130.66 574.05 C 124.70 592.41 119.92 611.62 121.36 631.07 C 125.85 629.95 129.60 627.03 133.21 624.27 C 146.11 613.58 158.40 602.08 169.34 589.36 C 173.00 584.82 176.58 580.05 178.70 574.57 L 178.96 574.54 C 181.65 567.72 182.86 560.26 181.67 552.99 C 181.18 550.24 181.11 545.43 185.28 546.54 C 187.97 556.78 186.82 567.80 183.08 577.64 C 193.55 575.25 204.36 575.54 215.01 574.79 C 225.31 574.61 235.64 574.36 245.92 575.17 C 254.27 575.45 262.70 575.76 270.87 577.66 C 267.17 567.78 265.91 556.69 268.74 546.44 C 270.44 546.15 272.60 546.95 272.42 549.04 C 272.50 553.36 271.27 557.66 271.94 562.00 C 272.68 572.04 277.82 581.14 284.13 588.75 C 294.99 601.55 307.30 613.04 320.18 623.78 C 323.96 626.72 327.89 629.84 332.63 631.04 C 334.36 604.78 325.52 579.42 316.64 555.13 C 310.47 537.70 301.57 520.76 300.40 502.01 C 299.24 489.99 299.88 477.55 295.62 466.04 C 293.35 460.41 289.91 454.37 284.06 451.91 C 277.15 464.05 268.15 475.40 255.94 482.55 C 244.43 489.36 230.36 493.65 217.06 490.26 C 199.46 486.52 184.34 474.63 174.68 459.69 C 173.16 457.06 171.42 454.56 169.88 451.95 C 165.07 453.78 162.10 458.42 159.76 462.76 M 333.78 454.65 C 332.46 455.37 331.94 456.47 332.22 457.95 C 333.10 466.88 333.21 475.95 331.70 484.83 C 330.46 493.86 328.09 502.83 328.45 512.02 C 328.63 522.41 331.30 532.60 331.25 543.01 C 331.40 546.71 331.15 550.43 331.42 554.13 C 332.83 560.91 334.89 567.60 337.84 573.88 C 339.37 566.89 342.83 560.11 342.08 552.80 C 341.52 545.98 340.88 539.12 339.18 532.49 C 339.19 530.73 339.23 528.99 339.33 527.25 C 340.25 527.37 341.17 527.51 342.10 527.66 C 344.61 538.61 349.07 549.58 347.15 561.02 C 351.60 559.27 356.23 558.06 360.92 557.20 C 369.90 555.48 378.69 551.72 387.98 552.50 C 393.46 552.90 398.39 555.61 402.71 558.85 C 397.49 542.33 386.84 528.36 378.97 513.11 C 369.08 495.68 361.58 476.74 349.09 460.91 C 345.30 457.03 339.48 452.27 333.78 454.65 M 104.94 460.90 C 92.33 476.70 84.89 495.73 74.96 513.18 C 67.09 528.41 56.44 542.38 51.24 558.87 C 52.80 557.81 54.46 556.85 55.86 555.57 C 59.13 554.26 62.41 552.72 66.00 552.55 C 75.48 551.81 84.43 555.59 93.58 557.39 C 98.10 558.19 102.56 559.38 106.81 561.11 C 105.05 551.12 108.37 541.39 110.75 531.83 L 111.04 531.64 C 111.30 530.31 111.56 529.00 111.82 527.68 C 112.77 527.53 113.73 527.40 114.68 527.28 C 114.82 529.15 114.85 531.06 114.48 532.91 C 113.26 539.90 112.13 546.93 111.72 554.02 C 111.50 560.91 114.73 567.24 115.98 573.90 C 119.17 567.72 121.04 560.93 122.55 554.17 C 122.88 548.13 122.45 542.05 123.03 536.02 C 123.87 526.02 126.16 516.10 125.41 506.01 C 124.53 496.16 121.93 486.54 121.35 476.65 L 121.36 476.78 C 122.09 469.82 120.79 462.84 121.80 455.87 C 116.10 451.49 108.93 456.49 104.94 460.90 M 321.42 554.55 C 324.72 562.86 327.38 571.42 329.99 579.97 C 334.18 594.95 338.45 610.30 337.73 626.00 C 337.46 629.72 337.35 634.07 334.21 636.65 C 339.57 643.68 343.12 651.91 348.34 659.01 C 348.03 635.36 349.22 611.22 342.18 588.32 C 340.64 587.81 338.87 587.55 337.84 586.16 C 333.83 581.54 332.00 575.54 329.85 569.92 C 327.72 564.43 326.09 558.76 325.01 552.98 C 323.80 553.50 322.61 554.02 321.42 554.55 M 128.81 553.16 C 127.98 558.38 126.53 563.49 124.64 568.42 C 122.45 574.36 120.53 580.59 116.59 585.66 C 115.47 587.42 113.29 587.72 111.64 588.75 C 104.83 611.46 105.66 635.40 105.85 658.84 C 110.82 651.52 114.72 643.53 119.87 636.32 C 119.36 635.99 118.35 635.34 117.85 635.02 C 115.40 627.63 116.06 619.67 116.73 612.05 C 119.63 592.34 125.51 573.16 132.54 554.57 C 131.30 554.08 130.05 553.62 128.81 553.16 M 56.74 563.57 C 54.68 566.66 51.91 571.05 54.30 574.62 C 58.47 574.17 59.26 568.26 58.66 564.84 C 59.12 563.63 57.45 562.32 56.74 563.57 M 64.29 563.25 C 64.93 569.03 63.81 575.95 58.53 579.32 C 56.00 580.97 53.01 580.31 50.47 579.12 C 43.85 594.36 41.17 610.85 37.36 626.91 C 30.81 656.41 24.35 686.83 28.84 717.14 C 30.58 729.10 34.55 740.59 39.48 751.58 C 40.62 753.75 42.76 756.46 45.56 755.47 C 49.52 753.51 52.93 750.64 56.58 748.16 C 62.55 744.09 68.73 739.59 76.08 738.56 C 79.22 738.01 82.11 739.49 84.77 740.94 C 94.38 713.69 99.72 684.87 99.92 655.96 C 100.17 647.33 99.53 638.67 100.21 630.04 C 99.85 611.42 104.15 593.14 109.51 575.44 C 95.95 578.79 81.93 574.08 70.20 567.31 L 70.21 567.01 C 68.14 565.91 66.17 564.65 64.29 563.25 M 359.22 576.32 C 354.29 576.69 349.30 576.64 344.48 575.38 C 348.47 588.94 352.02 602.74 353.28 616.86 C 354.41 636.59 353.19 656.39 354.92 676.09 C 357.12 698.17 361.70 720.05 369.19 740.96 C 370.23 740.40 371.27 739.83 372.31 739.27 C 375.42 738.06 378.85 738.34 381.95 739.44 C 391.87 742.80 399.39 750.52 408.44 755.46 C 413.70 756.31 415.25 749.56 416.86 745.86 C 425.92 725.28 427.96 702.30 425.88 680.10 C 423.97 658.40 418.84 637.17 414.13 615.95 C 411.31 603.50 408.60 590.92 403.53 579.14 C 400.95 580.12 397.96 580.95 395.44 579.30 C 390.12 575.95 389.00 569.00 389.67 563.21 C 380.67 569.82 370.24 574.49 359.22 576.32 M 395.54 563.31 C 394.79 567.01 394.85 571.48 397.94 574.17 C 398.82 575.24 400.36 574.41 400.45 573.13 C 401.08 569.41 398.89 566.01 396.87 563.09 C 396.53 563.15 395.87 563.26 395.54 563.31 M 130.55 632.49 C 128.58 633.77 126.17 634.63 124.95 636.79 C 119.79 645.28 114.75 653.88 110.58 662.90 C 107.88 668.79 108.32 675.57 110.78 681.46 C 121.27 709.02 139.73 732.95 161.03 753.07 C 171.21 761.92 182.96 770.28 196.49 772.52 L 195.98 772.79 C 218.08 778.22 241.67 777.75 263.47 771.15 C 280.00 765.57 293.32 753.60 304.94 740.99 C 319.30 725.17 332.03 707.60 340.55 687.92 C 342.63 682.82 345.02 677.65 345.28 672.06 C 345.29 667.52 343.71 663.13 341.64 659.15 C 338.19 652.47 334.52 645.90 330.65 639.44 C 329.42 637.42 328.28 635.13 326.06 634.03 C 321.74 631.61 317.78 628.62 314.03 625.41 C 302.10 630.52 289.42 633.70 276.56 635.30 C 257.45 637.66 238.16 637.73 218.94 637.67 C 196.27 637.29 173.15 636.71 151.37 629.73 C 147.49 628.50 143.71 626.99 139.96 625.44 C 136.93 627.93 133.87 630.40 130.55 632.49 Z" />
<path fill="#000000" stroke="#000000" stroke-width="0.09375" opacity="1.00" d=" M 267.37 199.30 C 268.37 199.35 269.37 199.41 270.37 199.47 C 273.02 207.85 274.84 216.47 276.38 225.11 C 276.65 227.06 277.03 229.05 276.70 231.01 C 275.60 233.27 271.54 232.62 271.44 230.06 C 270.59 224.86 269.98 219.62 268.94 214.45 C 268.17 209.44 266.80 204.40 267.37 199.30 Z" />
<path fill="#000000" stroke="#000000" stroke-width="0.09375" opacity="1.00" d=" M 278.27 200.28 C 279.24 198.67 281.60 199.67 282.43 200.95 C 282.85 202.77 282.00 204.54 280.96 205.98 C 279.78 207.40 277.21 207.01 276.69 205.17 C 276.66 203.45 277.16 201.62 278.27 200.28 Z" />
<path fill="#000000" stroke="#000000" stroke-width="0.09375" opacity="1.00" d=" M 231.66 202.95 C 231.97 202.55 232.59 201.76 232.90 201.36 C 233.48 201.72 234.63 202.42 235.20 202.78 C 236.58 213.87 237.82 225.00 240.21 235.94 C 241.76 239.34 236.14 241.43 234.88 238.24 C 233.67 234.00 233.42 229.57 232.62 225.25 C 229.50 225.35 226.38 225.48 223.26 225.53 C 222.42 229.55 222.88 233.76 221.62 237.71 C 221.04 237.72 219.87 237.73 219.29 237.73 C 218.13 231.92 218.81 225.93 217.83 220.09 C 217.70 216.21 216.37 212.24 217.54 208.44 C 219.12 208.43 221.62 207.89 221.91 210.12 C 222.49 213.48 222.29 216.94 222.67 220.33 C 225.70 219.78 228.77 219.54 231.85 219.51 C 231.86 213.99 231.10 208.46 231.66 202.95 Z" />
<path fill="#000000" stroke="#000000" stroke-width="0.09375" opacity="1.00" d=" M 241.59 202.63 C 242.19 202.39 243.39 201.91 243.98 201.67 C 244.60 201.95 245.85 202.52 246.47 202.80 C 246.62 204.22 247.04 205.79 246.21 207.10 C 244.89 208.02 243.26 207.70 241.78 207.50 C 241.49 206.89 240.91 205.66 240.62 205.05 C 240.86 204.44 241.35 203.23 241.59 202.63 Z" />
<path fill="#000000" stroke="#000000" stroke-width="0.09375" opacity="1.00" d=" M 300.16 212.94 C 302.12 211.02 303.81 208.03 306.94 208.14 C 310.86 207.54 313.24 211.39 314.03 214.67 C 315.10 219.46 315.51 224.43 315.20 229.34 C 314.29 231.73 310.48 231.78 309.66 229.38 C 308.87 224.23 310.04 218.49 307.17 213.85 C 303.23 217.51 304.35 223.25 303.44 228.01 C 303.10 230.31 300.24 229.60 298.63 229.43 C 296.76 224.72 297.87 218.85 294.25 214.89 C 291.11 219.47 291.97 225.16 291.38 230.37 C 289.85 230.54 287.45 231.46 286.63 229.62 C 284.68 224.19 284.08 218.40 282.52 212.87 C 283.39 211.62 284.79 211.40 286.20 211.40 C 286.70 212.52 287.24 213.62 287.81 214.72 C 289.37 212.12 291.49 208.88 295.01 209.34 C 297.38 209.21 298.91 211.23 300.16 212.94 Z" />
<path fill="#000000" stroke="#000000" stroke-width="0.09375" opacity="1.00" d=" M 243.42 213.65 C 244.67 213.19 245.97 213.29 247.23 213.63 C 248.68 220.76 250.53 227.83 251.52 235.05 C 251.32 237.55 248.67 237.73 246.75 237.46 C 243.96 229.92 243.53 221.63 243.42 213.65 Z" />
<path fill="#000000" stroke="#000000" stroke-width="0.09375" opacity="1.00" d=" M 258.75 231.84 C 259.47 229.71 262.53 230.11 263.38 231.94 C 263.77 235.21 262.07 238.22 261.15 241.26 C 260.62 241.56 259.57 242.16 259.04 242.47 C 258.38 242.17 257.06 241.59 256.40 241.30 C 256.13 237.97 257.59 234.86 258.75 231.84 Z" />
<path fill="#000000" stroke="#000000" stroke-width="0.09375" opacity="1.00" d=" M 299.43 255.33 C 300.62 255.37 302.34 254.55 303.13 255.86 C 303.69 258.78 303.58 261.78 303.78 264.74 C 305.71 262.99 309.35 259.42 311.29 263.07 C 312.35 266.82 307.17 267.42 306.06 270.12 C 309.38 273.16 313.04 275.86 316.90 278.20 C 318.60 278.74 318.50 280.58 318.38 282.04 C 317.80 282.44 316.66 283.25 316.08 283.65 C 311.36 281.91 307.53 278.56 303.76 275.34 C 303.24 278.69 304.06 282.40 302.45 285.50 C 301.20 286.92 299.51 285.81 298.16 285.25 C 298.82 275.28 299.64 265.34 299.43 255.33 Z" />
<path fill="#000000" stroke="#000000" stroke-width="0.09375" opacity="1.00" d=" M 279.37 256.61 C 283.82 254.34 289.12 256.15 292.01 259.99 C 296.45 265.45 297.32 273.28 295.20 279.87 C 293.26 285.41 286.32 288.79 280.98 285.88 C 275.36 282.01 273.19 274.59 273.75 268.05 C 274.21 263.82 275.52 258.96 279.37 256.61 M 282.18 261.01 C 279.00 263.64 279.19 268.26 279.27 272.01 C 279.82 275.24 280.88 279.10 284.03 280.71 C 287.28 281.95 289.79 278.76 290.37 275.93 C 291.16 271.11 290.71 265.56 287.18 261.86 C 285.98 260.51 283.68 259.66 282.18 261.01 Z" />
<path fill="#000000" stroke="#000000" stroke-width="0.09375" opacity="1.00" d=" M 251.71 262.35 C 257.07 257.76 266.60 261.03 267.94 267.97 C 269.25 272.65 266.59 277.16 263.12 280.08 C 265.34 283.61 269.56 285.76 273.06 288.05 C 274.46 290.09 272.54 293.38 269.98 292.49 C 264.59 290.54 260.86 285.96 256.29 282.74 C 256.65 287.66 258.28 292.53 257.59 297.50 C 255.92 297.73 253.21 298.50 252.85 296.09 C 251.83 286.04 249.97 276.09 248.87 266.05 C 248.64 264.87 249.12 263.76 249.35 262.63 C 249.94 262.56 251.12 262.42 251.71 262.35 M 255.39 265.63 C 251.48 267.60 254.05 272.44 254.65 275.59 C 258.31 277.62 263.86 273.33 262.58 269.03 C 262.03 265.85 258.17 264.54 255.39 265.63 Z" />
<path fill="#000000" stroke="#000000" stroke-width="0.09375" opacity="1.00" d=" M 220.51 271.59 C 222.41 268.76 225.38 266.04 229.05 266.30 C 232.67 266.22 237.50 268.63 236.85 272.90 C 234.31 273.04 232.23 271.42 229.99 270.52 C 226.73 271.20 224.01 273.65 223.44 277.01 C 222.36 283.68 225.19 290.51 229.58 295.46 C 231.67 297.82 235.18 299.79 238.31 298.30 C 240.67 296.45 239.82 292.75 238.41 290.55 C 237.01 288.28 233.91 289.22 231.88 288.12 C 230.89 286.87 230.89 284.45 232.66 283.91 C 236.19 282.59 239.43 280.62 242.91 279.23 C 245.12 278.50 247.26 280.95 246.27 283.05 C 245.11 284.53 243.27 285.18 241.67 286.05 C 244.85 289.82 246.02 295.44 243.64 299.90 C 241.90 303.37 237.52 304.98 233.89 303.79 C 227.04 301.76 222.29 295.56 220.03 289.03 C 218.02 283.50 217.15 276.78 220.51 271.59 Z" />
<path fill="#000000" stroke="#000000" stroke-width="0.09375" opacity="1.00" d=" M 73.78 612.90 C 74.79 610.39 73.36 605.73 76.77 605.07 C 73.99 626.27 76.02 647.67 75.75 668.97 C 75.46 677.49 76.11 686.16 74.39 694.56 C 73.10 694.58 71.81 694.52 70.56 694.20 C 70.11 682.48 70.67 670.74 70.78 659.01 C 71.37 643.61 71.64 628.18 73.78 612.90 Z" />
<path fill="#000000" stroke="#000000" stroke-width="0.09375" opacity="1.00" d=" M 377.24 604.99 C 378.30 605.23 379.36 605.77 379.26 607.04 C 381.47 620.57 382.44 634.28 382.71 647.97 C 383.29 663.41 383.74 678.88 383.59 694.32 C 382.26 694.43 380.92 694.51 379.59 694.56 C 378.54 691.13 378.70 687.53 378.47 684.00 C 377.18 657.67 380.35 631.23 377.24 604.99 Z" />
<path fill="#000000" stroke="#000000" stroke-width="0.09375" opacity="1.00" d=" M 162.76 872.64 C 173.36 868.67 185.21 869.03 195.93 872.32 C 203.29 874.66 210.03 879.61 213.55 886.61 C 218.90 897.23 218.41 910.37 212.77 920.79 C 204.97 935.82 190.58 945.75 181.02 959.46 C 193.80 959.60 206.59 959.21 219.36 959.67 C 220.15 967.32 219.65 975.05 219.64 982.73 C 217.81 983.30 215.90 983.48 214.00 983.42 C 189.98 983.28 165.95 983.55 141.94 983.29 C 141.59 983.04 140.88 982.53 140.53 982.28 C 140.12 976.86 140.46 971.40 140.35 965.97 C 139.85 963.01 142.78 961.44 144.40 959.48 C 155.06 948.12 165.97 937.00 176.54 925.57 C 180.90 920.26 185.44 914.70 187.22 907.93 C 187.80 904.17 187.46 899.97 185.23 896.78 C 181.84 892.53 174.39 892.69 171.19 897.12 C 168.05 900.79 167.91 905.76 167.28 910.31 C 160.88 911.01 154.42 910.49 148.00 910.65 C 144.94 910.53 141.78 911.04 138.81 910.18 C 137.36 906.35 138.53 901.99 139.40 898.11 C 142.36 886.44 151.50 876.74 162.76 872.64 M 152.07 885.07 C 146.90 890.72 143.21 898.03 143.05 905.80 C 149.70 905.80 156.36 905.83 163.02 905.78 C 163.48 900.97 165.23 896.18 168.66 892.71 C 173.52 887.99 181.88 887.64 187.13 891.89 C 191.60 895.63 192.71 902.00 192.16 907.53 C 190.71 915.60 185.49 922.30 180.39 928.47 C 169.72 940.11 158.61 951.32 147.85 962.87 C 146.79 964.12 144.96 965.14 145.21 967.06 C 145.13 970.90 145.24 974.75 145.20 978.61 C 168.53 978.56 191.86 978.72 215.19 978.53 C 214.87 973.83 215.74 968.84 214.77 964.34 C 201.45 964.04 188.12 964.42 174.81 964.17 C 172.39 963.90 172.77 960.61 174.23 959.38 C 180.27 952.45 186.13 945.36 192.63 938.85 C 200.73 930.26 209.43 921.06 211.92 909.11 C 213.49 900.25 211.92 890.15 205.44 883.49 C 200.31 878.33 193.10 875.78 185.98 875.03 C 173.96 873.18 160.79 876.28 152.07 885.07 Z" />
<path fill="#000000" stroke="#000000" stroke-width="0.09375" opacity="1.00" d=" M 260.76 876.79 C 273.23 868.98 288.94 868.32 302.95 871.66 C 311.42 873.68 319.53 878.21 324.74 885.31 C 329.75 892.11 332.53 900.52 332.84 908.94 C 333.12 910.57 331.27 911.19 329.99 911.16 C 322.99 911.25 315.98 911.10 308.98 911.21 C 307.17 911.28 305.38 911.03 303.68 910.42 C 302.85 906.12 302.10 901.39 298.82 898.19 C 295.21 894.71 289.81 894.14 285.04 894.63 C 279.12 895.22 274.62 900.09 272.50 905.36 C 268.69 914.72 269.36 925.05 269.52 934.95 C 270.08 942.97 271.60 952.37 278.70 957.32 C 285.83 961.60 295.29 961.09 302.46 957.16 C 302.56 952.65 302.54 948.14 302.47 943.64 C 296.57 943.77 290.63 944.08 284.76 943.42 C 284.37 936.56 284.48 929.68 284.63 922.83 C 285.18 920.80 287.45 921.45 289.00 921.28 C 303.49 921.47 318.00 920.97 332.48 921.54 C 332.88 923.33 333.24 925.15 333.18 927.02 C 333.07 940.37 333.27 953.72 333.09 967.06 C 333.07 969.72 330.62 971.26 328.83 972.82 C 318.84 980.48 306.17 983.87 293.76 984.63 C 280.70 985.65 266.67 983.29 256.39 974.64 C 244.43 965.23 239.09 949.72 238.56 934.92 C 238.47 925.92 238.07 916.81 240.13 907.98 C 242.71 895.51 249.74 883.55 260.76 876.79 M 255.43 887.50 C 246.07 897.84 242.82 912.36 243.28 926.00 C 242.96 936.33 243.83 946.99 248.28 956.47 C 252.08 964.88 258.83 972.00 267.27 975.83 C 277.73 980.86 289.76 980.68 301.00 979.08 C 310.85 977.32 320.82 973.91 328.28 966.98 C 328.40 953.38 328.37 939.78 328.29 926.18 C 315.29 926.04 302.30 926.00 289.29 926.20 C 289.38 930.55 289.13 934.92 289.50 939.27 C 294.69 939.18 299.88 939.12 305.06 939.25 C 307.10 938.96 307.43 941.51 307.31 943.01 C 307.16 948.32 307.60 953.68 307.08 958.97 C 302.51 964.48 294.64 965.04 287.99 964.83 C 280.60 964.90 273.14 961.00 269.61 954.40 C 263.99 944.25 264.56 932.24 264.66 921.01 C 265.17 912.20 266.67 902.63 272.86 895.88 C 279.24 888.70 290.61 888.05 298.82 892.24 C 304.11 894.94 306.65 900.81 307.76 906.35 C 314.44 906.39 321.13 906.35 327.81 906.38 C 326.76 897.09 322.54 887.75 314.79 882.19 C 306.84 876.35 296.70 874.72 287.06 874.54 C 275.38 874.41 263.29 878.60 255.43 887.50 Z" />
<path fill="#000000" stroke="#000000" stroke-width="0.09375" opacity="1.00" d=" M 361.65 881.54 C 371.23 871.93 385.64 868.31 398.85 870.24 C 406.78 871.06 414.84 873.66 420.75 879.23 C 427.28 885.23 430.29 894.32 429.89 903.06 C 430.44 914.44 424.24 924.73 417.14 933.11 C 411.95 939.64 405.52 945.04 400.28 951.52 C 398.14 954.15 395.41 956.37 393.94 959.49 C 406.35 959.52 418.76 959.35 431.16 959.56 C 431.48 959.79 432.12 960.24 432.43 960.47 C 432.87 967.27 432.57 974.13 432.60 980.95 C 432.90 982.41 431.36 983.51 430.01 983.36 C 405.66 983.44 381.30 983.35 356.95 983.41 C 355.42 983.50 352.88 983.23 353.29 981.11 C 353.17 975.72 353.22 970.34 353.27 964.96 C 353.09 963.15 354.85 962.16 355.84 960.95 C 367.01 949.03 378.44 937.37 389.54 925.39 C 393.47 920.72 397.22 915.74 399.42 909.99 C 400.97 906.19 400.56 901.79 398.86 898.12 C 396.44 893.10 388.90 892.25 385.03 896.02 C 382.07 898.90 380.73 903.04 380.58 907.10 C 380.53 908.39 380.38 910.43 378.66 910.51 C 372.12 910.87 365.55 910.52 359.00 910.66 C 356.59 910.59 354.10 910.91 351.76 910.23 C 350.20 908.52 351.03 906.12 351.13 904.08 C 351.82 895.62 355.84 887.63 361.65 881.54 M 366.51 883.59 C 360.09 889.13 356.70 897.33 355.51 905.58 C 362.26 906.06 369.04 905.71 375.80 905.78 C 376.52 899.92 378.91 893.47 384.45 890.60 C 390.91 886.95 400.46 889.37 403.44 896.45 C 405.90 902.72 405.41 910.15 402.03 916.01 C 398.30 922.67 393.43 928.65 388.05 934.03 C 378.81 943.81 369.52 953.52 360.24 963.25 C 359.36 964.40 357.77 965.38 357.82 967.00 C 357.74 970.84 357.87 974.68 357.79 978.52 C 381.11 978.74 404.44 978.53 427.77 978.62 C 427.80 973.82 427.78 969.03 427.78 964.24 C 414.16 964.22 400.54 964.29 386.92 964.20 C 386.54 963.65 385.78 962.55 385.40 961.99 C 386.20 960.62 387.03 959.27 388.08 958.09 C 393.68 951.98 398.80 945.45 404.68 939.61 C 413.51 930.40 423.17 920.36 425.05 907.17 C 425.95 899.14 424.40 890.30 418.88 884.12 C 413.75 878.61 406.31 875.84 398.96 875.04 C 387.61 873.33 375.22 875.80 366.51 883.59 Z" />
<path fill="#000000" stroke="#000000" stroke-width="0.09375" opacity="1.00" d=" M 24.47 874.11 C 24.26 872.64 25.49 871.20 27.01 871.48 C 35.67 871.43 44.34 871.35 53.00 871.51 C 54.83 871.33 55.34 873.57 55.25 875.00 C 55.23 887.94 55.27 900.89 55.22 913.83 C 66.29 913.92 77.35 913.91 88.41 913.90 C 88.54 900.62 88.41 887.34 88.47 874.07 C 88.20 872.57 89.54 871.20 91.04 871.46 C 99.66 871.46 108.28 871.32 116.89 871.53 C 118.86 871.29 118.80 873.66 118.81 875.02 C 118.73 910.89 118.92 946.76 118.71 982.63 C 117.21 983.19 115.62 983.47 114.01 983.42 C 107.03 983.37 100.05 983.39 93.07 983.41 C 91.48 983.48 89.90 983.17 88.49 982.42 C 88.41 967.80 88.51 953.17 88.44 938.56 C 77.35 938.64 66.26 938.36 55.18 938.70 C 55.34 952.13 55.17 965.56 55.27 979.00 C 55.32 980.58 55.25 983.06 53.17 983.30 C 44.44 983.48 35.69 983.42 26.96 983.33 C 25.08 983.49 24.16 981.64 24.46 980.03 C 24.45 944.72 24.42 909.41 24.47 874.11 M 29.29 876.25 C 29.30 910.37 29.28 944.49 29.30 978.61 C 36.34 978.57 43.38 978.69 50.42 978.55 C 50.41 963.92 50.26 949.29 50.50 934.67 C 51.93 934.06 53.41 933.56 54.99 933.72 C 66.65 933.77 78.32 933.72 89.98 933.74 C 91.85 933.41 93.66 935.06 93.30 936.99 C 93.32 950.86 93.29 964.74 93.31 978.61 C 100.29 978.50 107.29 978.82 114.27 978.44 C 114.12 944.40 114.22 910.35 114.22 876.31 C 107.25 876.17 100.27 876.26 93.30 876.26 C 93.31 889.19 93.30 902.12 93.31 915.05 C 93.51 916.59 92.86 918.87 90.92 918.67 C 78.62 918.85 66.31 918.69 54.01 918.75 C 52.61 918.83 50.40 918.58 50.45 916.73 C 50.24 903.22 50.55 889.70 50.29 876.19 C 43.29 876.31 36.29 876.21 29.29 876.25 Z" />
</g>
<g id="#f1f1f1ff">
<path fill="#f1f1f1" stroke="#f1f1f1" stroke-width="0.09375" opacity="1.00" d=" M 156.96 59.13 C 189.67 46.72 225.70 43.08 260.22 48.70 C 246.45 48.38 232.87 51.93 220.45 57.70 C 219.05 57.25 217.59 56.75 216.13 57.23 C 209.60 58.81 203.01 60.30 196.72 62.72 C 185.22 67.00 173.44 70.73 162.67 76.73 C 147.74 85.03 132.76 93.57 119.84 104.84 C 113.45 110.79 107.43 117.11 101.26 123.28 C 98.88 125.62 96.83 128.28 95.12 131.15 C 100.39 128.54 104.86 124.56 110.33 122.32 C 121.77 117.37 135.01 115.01 147.13 118.83 C 151.72 120.29 156.50 121.62 160.34 124.66 C 167.38 129.56 171.99 137.27 174.58 145.31 C 176.92 152.99 176.21 161.14 175.77 169.04 C 172.83 168.66 169.91 168.14 166.95 167.94 C 157.64 167.36 148.20 172.61 143.92 180.92 C 139.80 188.25 139.76 197.72 143.91 205.04 C 145.42 207.62 147.39 209.88 149.00 212.39 C 140.24 218.53 130.83 224.29 120.15 226.26 C 109.95 228.78 98.95 228.03 89.35 223.67 C 79.12 219.02 71.26 209.64 68.16 198.87 C 66.83 194.51 67.07 189.89 66.18 185.45 C 63.23 189.92 61.88 195.16 60.11 200.15 C 55.57 213.98 51.30 228.30 51.81 243.00 C 51.48 254.16 53.33 265.88 59.71 275.28 C 63.65 281.54 70.39 285.52 77.35 287.60 C 88.05 290.31 99.33 289.37 110.02 287.10 C 125.21 284.34 139.79 279.19 154.82 275.78 C 170.59 272.15 186.53 269.14 202.64 267.53 L 203.19 267.48 C 203.57 269.35 203.46 271.43 201.00 271.27 C 152.12 280.28 103.89 295.78 61.28 321.75 C 51.36 303.20 41.24 284.23 26.53 268.92 C 21.25 219.44 35.56 168.28 65.35 128.45 C 88.44 97.24 120.60 72.79 156.96 59.13 M 114.26 138.55 C 110.23 138.28 107.09 141.01 103.70 142.70 C 97.01 146.05 92.27 152.15 88.42 158.38 C 84.16 165.98 81.56 174.91 83.35 183.63 C 84.22 187.45 86.43 191.32 90.32 192.69 C 96.65 195.51 103.85 192.82 109.10 188.95 C 117.33 182.50 123.68 173.49 126.34 163.32 C 127.93 157.92 128.56 152.02 126.32 146.69 C 124.77 141.61 119.48 138.29 114.26 138.55 Z" />
<path fill="#f1f1f1" stroke="#f1f1f1" stroke-width="0.09375" opacity="1.00" d=" M 64.02 327.05 C 67.07 324.21 71.10 322.52 74.67 320.38 C 73.73 323.10 72.63 325.84 72.38 328.74 C 73.09 330.87 75.65 331.44 77.05 333.04 C 77.92 335.91 77.91 338.94 78.36 341.89 C 79.34 349.77 82.57 357.10 84.22 364.83 C 84.81 366.63 85.15 370.11 87.90 369.06 C 90.78 367.35 88.87 363.48 89.19 360.82 C 92.03 369.77 95.11 378.76 100.30 386.66 C 105.25 395.10 111.61 402.58 118.26 409.71 C 125.62 416.04 132.62 422.86 140.73 428.27 C 144.47 431.34 149.15 433.24 152.38 436.91 C 148.57 435.90 145.08 434.03 141.50 432.43 C 120.76 422.43 101.43 409.14 85.35 392.63 C 82.37 372.31 75.14 352.83 66.91 334.08 C 65.93 331.75 64.51 329.56 64.02 327.05 Z" />
<path fill="#f1f1f1" stroke="#f1f1f1" stroke-width="0.09375" opacity="1.00" d=" M 159.76 462.76 C 162.10 458.42 165.07 453.78 169.88 451.95 C 171.42 454.56 173.16 457.06 174.68 459.69 C 166.51 465.38 164.08 475.75 162.81 485.04 C 159.89 503.73 165.95 522.98 160.34 541.36 C 155.16 560.16 141.80 575.23 135.59 593.60 C 133.71 599.40 131.25 605.13 130.89 611.29 C 138.90 607.16 146.17 601.76 153.54 596.60 C 162.18 590.20 170.34 583.07 177.18 574.73 C 177.56 574.69 178.32 574.61 178.70 574.57 C 176.58 580.05 173.00 584.82 169.34 589.36 C 158.40 602.08 146.11 613.58 133.21 624.27 C 129.60 627.03 125.85 629.95 121.36 631.07 C 119.92 611.62 124.70 592.41 130.66 574.05 C 134.78 561.18 139.80 548.64 144.64 536.04 C 149.24 524.53 153.23 512.52 153.68 500.03 C 154.82 487.53 154.13 474.35 159.76 462.76 Z" />
<path fill="#f1f1f1" stroke="#f1f1f1" stroke-width="0.09375" opacity="1.00" d=" M 104.94 460.90 C 108.93 456.49 116.10 451.49 121.80 455.87 C 120.79 462.84 122.09 469.82 121.36 476.78 L 121.35 476.65 C 120.84 473.03 121.07 469.35 120.92 465.71 C 120.32 466.66 119.74 467.63 119.18 468.61 C 111.87 468.23 106.00 473.44 102.00 479.00 C 94.33 490.19 89.87 503.20 82.59 514.62 C 73.91 528.41 60.83 539.66 55.86 555.57 C 54.46 556.85 52.80 557.81 51.24 558.87 C 56.44 542.38 67.09 528.41 74.96 513.18 C 84.89 495.73 92.33 476.70 104.94 460.90 Z" />
<path fill="#f1f1f1" stroke="#f1f1f1" stroke-width="0.09375" opacity="1.00" d=" M 332.22 457.95 C 331.94 456.47 332.46 455.37 333.78 454.65 C 335.02 454.83 336.25 455.02 337.49 455.23 C 335.72 464.46 338.61 473.74 337.61 483.02 C 337.06 494.96 334.70 506.94 336.36 518.88 C 337.53 523.37 337.69 528.08 339.18 532.49 C 340.88 539.12 341.52 545.98 342.08 552.80 C 342.83 560.11 339.37 566.89 337.84 573.88 C 334.89 567.60 332.83 560.91 331.42 554.13 C 331.15 550.43 331.40 546.71 331.25 543.01 C 331.30 532.60 328.63 522.41 328.45 512.02 C 328.09 502.83 330.46 493.86 331.70 484.83 C 333.21 475.95 333.10 466.88 332.22 457.95 Z" />
<path fill="#f1f1f1" stroke="#f1f1f1" stroke-width="0.09375" opacity="1.00" d=" M 64.29 563.25 C 66.17 564.65 68.14 565.91 70.21 567.01 L 70.20 567.31 C 70.13 571.13 70.06 575.07 68.59 578.67 C 65.61 586.41 59.62 592.38 55.38 599.40 C 45.86 615.94 44.82 635.54 41.63 653.95 C 39.39 669.53 36.40 685.13 36.87 700.94 C 36.89 709.22 38.53 717.38 40.51 725.39 C 41.67 730.08 43.89 734.44 46.54 738.45 C 49.06 742.47 53.36 744.78 56.58 748.16 C 52.93 750.64 49.52 753.51 45.56 755.47 C 42.76 756.46 40.62 753.75 39.48 751.58 C 34.55 740.59 30.58 729.10 28.84 717.14 C 24.35 686.83 30.81 656.41 37.36 626.91 C 41.17 610.85 43.85 594.36 50.47 579.12 C 53.01 580.31 56.00 580.97 58.53 579.32 C 63.81 575.95 64.93 569.03 64.29 563.25 Z" />
<path fill="#f1f1f1" stroke="#f1f1f1" stroke-width="0.09375" opacity="1.00" d=" M 344.48 575.38 C 349.30 576.64 354.29 576.69 359.22 576.32 C 358.36 576.81 357.50 577.33 356.66 577.87 C 360.18 587.64 362.20 597.88 363.63 608.14 C 365.75 621.64 365.09 635.36 364.92 648.97 C 363.95 661.63 362.63 674.30 363.18 687.02 C 364.06 701.75 366.34 716.42 370.44 730.61 C 371.33 733.43 371.90 736.33 372.31 739.27 C 371.27 739.83 370.23 740.40 369.19 740.96 C 361.70 720.05 357.12 698.17 354.92 676.09 C 353.19 656.39 354.41 636.59 353.28 616.86 C 352.02 602.74 348.47 588.94 344.48 575.38 Z" />
<path fill="#f1f1f1" stroke="#f1f1f1" stroke-width="0.09375" opacity="1.00" d=" M 71.34 616.33 C 71.94 615.06 72.02 613.10 73.78 612.90 C 71.64 628.18 71.37 643.61 70.78 659.01 C 70.67 670.74 70.11 682.48 70.56 694.20 L 70.03 693.99 C 69.91 691.03 70.40 687.96 69.58 685.08 C 67.11 679.02 66.68 672.40 65.72 666.00 C 63.37 649.28 65.75 632.18 71.34 616.33 Z" />
<path fill="#f1f1f1" stroke="#f1f1f1" stroke-width="0.09375" opacity="1.00" d=" M 130.55 632.49 C 133.87 630.40 136.93 627.93 139.96 625.44 C 143.71 626.99 147.49 628.50 151.37 629.73 C 150.84 631.59 150.15 633.44 148.89 634.95 C 140.78 645.66 133.94 658.29 133.84 672.04 C 133.25 683.14 137.63 693.74 142.68 703.39 C 145.90 710.27 149.85 716.76 153.62 723.35 C 158.43 731.67 163.57 739.85 169.79 747.20 C 178.31 756.30 187.22 765.22 197.91 771.79 C 197.55 771.97 196.84 772.34 196.49 772.52 C 182.96 770.28 171.21 761.92 161.03 753.07 C 139.73 732.95 121.27 709.02 110.78 681.46 C 108.32 675.57 107.88 668.79 110.58 662.90 C 114.75 653.88 119.79 645.28 124.95 636.79 C 126.17 634.63 128.58 633.77 130.55 632.49 Z" />
</g>
<g id="#ffffffff">
<path fill="#ffffff" stroke="#ffffff" stroke-width="0.09375" opacity="1.00" d=" M 220.45 57.70 C 232.87 51.93 246.45 48.38 260.22 48.70 C 292.96 53.74 324.65 67.05 350.77 87.50 C 347.12 88.12 344.21 85.37 341.07 84.02 C 322.73 75.03 302.33 70.69 282.00 69.71 C 273.34 69.60 264.67 69.38 256.02 69.92 C 239.28 71.09 223.09 75.75 206.88 79.81 C 202.16 80.99 197.23 82.67 192.34 81.53 C 189.30 80.60 189.45 76.30 191.46 74.42 C 194.38 71.56 198.09 69.73 201.53 67.58 C 207.59 63.85 213.73 60.13 220.45 57.70 Z" />
<path fill="#ffffff" stroke="#ffffff" stroke-width="0.09375" opacity="1.00" d=" M 114.26 138.55 C 119.48 138.29 124.77 141.61 126.32 146.69 C 128.56 152.02 127.93 157.92 126.34 163.32 C 123.68 173.49 117.33 182.50 109.10 188.95 C 103.85 192.82 96.65 195.51 90.32 192.69 C 86.43 191.32 84.22 187.45 83.35 183.63 C 81.56 174.91 84.16 165.98 88.42 158.38 C 92.27 152.15 97.01 146.05 103.70 142.70 C 107.09 141.01 110.23 138.28 114.26 138.55 Z" />
<path fill="#ffffff" stroke="#ffffff" stroke-width="0.09375" opacity="1.00" d=" M 27.61 279.14 C 30.63 282.02 32.84 285.59 35.31 288.92 C 43.51 300.67 50.46 313.25 56.83 326.07 C 65.02 343.10 72.20 360.69 76.96 379.00 C 77.50 380.95 77.84 382.97 77.71 385.00 C 56.39 360.96 40.34 332.13 32.21 300.98 C 30.28 293.79 28.88 286.47 27.61 279.14 Z" />
<path fill="#ffffff" stroke="#ffffff" stroke-width="0.09375" opacity="1.00" d=" M 74.67 320.38 C 81.63 316.10 89.13 312.77 96.46 309.19 C 97.00 311.60 94.28 312.50 92.92 313.92 C 86.57 318.86 83.48 327.06 83.71 334.97 C 83.72 344.56 88.27 353.23 92.26 361.69 C 99.77 377.52 109.53 392.56 122.59 404.38 C 141.85 423.87 166.15 437.98 191.86 447.10 C 192.11 447.52 192.60 448.35 192.85 448.77 C 179.10 446.58 165.66 442.54 152.76 437.33 L 152.38 436.91 C 149.15 433.24 144.47 431.34 140.73 428.27 C 132.62 422.86 125.62 416.04 118.26 409.71 C 111.61 402.58 105.25 395.10 100.30 386.66 C 95.11 378.76 92.03 369.77 89.19 360.82 C 88.87 363.48 90.78 367.35 87.90 369.06 C 85.15 370.11 84.81 366.63 84.22 364.83 C 82.57 357.10 79.34 349.77 78.36 341.89 C 77.91 338.94 77.92 335.91 77.05 333.04 C 75.65 331.44 73.09 330.87 72.38 328.74 C 72.63 325.84 73.73 323.10 74.67 320.38 Z" />
<path fill="#ffffff" stroke="#ffffff" stroke-width="0.09375" opacity="1.00" d=" M 102.46 540.44 C 105.01 537.38 107.10 533.74 110.75 531.83 C 108.37 541.39 105.05 551.12 106.81 561.11 C 102.56 559.38 98.10 558.19 93.58 557.39 C 93.17 550.57 98.63 545.45 102.46 540.44 Z" />
<path fill="#ffffff" stroke="#ffffff" stroke-width="0.09375" opacity="1.00" d=" M 56.74 563.57 C 57.45 562.32 59.12 563.63 58.66 564.84 C 59.26 568.26 58.47 574.17 54.30 574.62 C 51.91 571.05 54.68 566.66 56.74 563.57 Z" />
</g>
<g id="#dfdfdfff">
<path fill="#dfdfdf" stroke="#dfdfdf" stroke-width="0.09375" opacity="1.00" d=" M 196.72 62.72 C 203.01 60.30 209.60 58.81 216.13 57.23 C 217.59 56.75 219.05 57.25 220.45 57.70 C 213.73 60.13 207.59 63.85 201.53 67.58 C 198.09 69.73 194.38 71.56 191.46 74.42 C 189.45 76.30 189.30 80.60 192.34 81.53 C 197.23 82.67 202.16 80.99 206.88 79.81 C 223.09 75.75 239.28 71.09 256.02 69.92 C 264.67 69.38 273.34 69.60 282.00 69.71 C 302.33 70.69 322.73 75.03 341.07 84.02 C 344.21 85.37 347.12 88.12 350.77 87.50 C 358.64 92.97 365.66 99.74 372.47 106.51 C 374.05 108.19 375.93 109.69 376.95 111.81 C 378.82 116.40 382.19 120.10 384.70 124.32 C 401.95 151.81 411.29 183.63 415.46 215.64 C 417.74 233.62 418.76 252.28 413.73 269.90 C 412.79 274.07 408.41 275.50 404.85 276.67 C 381.08 269.50 356.47 265.65 331.79 263.46 C 326.65 244.71 328.59 225.14 328.04 205.96 C 327.36 199.67 328.32 193.30 327.37 187.04 C 326.09 182.60 321.11 180.93 316.99 180.44 C 300.20 178.93 283.58 182.68 266.88 183.77 C 248.93 185.57 230.78 185.44 212.93 188.30 C 207.70 189.22 200.93 190.90 199.73 196.98 C 198.37 207.31 200.87 217.62 200.64 227.97 C 200.47 241.19 201.64 254.37 202.64 267.53 C 186.53 269.14 170.59 272.15 154.82 275.78 C 139.79 279.19 125.21 284.34 110.02 287.10 C 99.33 289.37 88.05 290.31 77.35 287.60 C 70.39 285.52 63.65 281.54 59.71 275.28 C 53.33 265.88 51.48 254.16 51.81 243.00 C 51.30 228.30 55.57 213.98 60.11 200.15 C 61.88 195.16 63.23 189.92 66.18 185.45 C 67.07 189.89 66.83 194.51 68.16 198.87 C 71.26 209.64 79.12 219.02 89.35 223.67 C 98.95 228.03 109.95 228.78 120.15 226.26 C 130.83 224.29 140.24 218.53 149.00 212.39 C 147.39 209.88 145.42 207.62 143.91 205.04 C 139.76 197.72 139.80 188.25 143.92 180.92 C 148.20 172.61 157.64 167.36 166.95 167.94 C 169.91 168.14 172.83 168.66 175.77 169.04 C 176.21 161.14 176.92 152.99 174.58 145.31 C 171.99 137.27 167.38 129.56 160.34 124.66 C 156.50 121.62 151.72 120.29 147.13 118.83 C 135.01 115.01 121.77 117.37 110.33 122.32 C 104.86 124.56 100.39 128.54 95.12 131.15 C 96.83 128.28 98.88 125.62 101.26 123.28 C 107.43 117.11 113.45 110.79 119.84 104.84 C 132.76 93.57 147.74 85.03 162.67 76.73 C 173.44 70.73 185.22 67.00 196.72 62.72 Z" />
<path fill="#dfdfdf" stroke="#dfdfdf" stroke-width="0.09375" opacity="1.00" d=" M 333.23 269.16 C 335.83 269.29 338.43 269.50 341.03 269.80 C 353.83 285.04 366.47 300.43 379.39 315.57 C 380.20 316.34 381.06 317.06 381.98 317.73 C 383.05 316.88 384.31 316.16 384.91 314.87 C 390.64 304.18 396.40 293.49 402.73 283.15 C 408.95 286.60 411.14 294.33 410.70 301.02 C 409.95 311.78 405.12 321.71 399.93 330.97 C 392.71 340.71 382.44 347.50 373.33 355.30 C 367.05 361.07 360.74 366.99 356.35 374.40 C 346.08 388.24 342.97 406.34 330.89 418.97 C 327.12 423.20 322.22 426.21 318.58 430.56 C 309.37 435.87 299.18 439.47 289.08 442.79 C 258.17 452.62 224.95 454.29 193.02 449.06 L 192.85 448.77 C 192.60 448.35 192.11 447.52 191.86 447.10 C 166.15 437.98 141.85 423.87 122.59 404.38 C 109.53 392.56 99.77 377.52 92.26 361.69 C 88.27 353.23 83.72 344.56 83.71 334.97 C 83.48 327.06 86.57 318.86 92.92 313.92 C 94.28 312.50 97.00 311.60 96.46 309.19 C 99.41 308.25 103.11 304.49 105.92 307.39 C 118.22 318.19 130.49 329.02 142.93 339.66 C 144.52 338.75 145.90 337.54 146.98 336.05 C 161.66 316.97 176.29 297.85 190.90 278.72 C 195.32 277.92 199.70 276.87 204.15 276.24 C 204.95 282.32 206.79 288.26 207.56 294.31 C 207.02 296.49 206.56 298.71 206.80 300.97 C 207.58 311.81 209.39 322.65 213.09 332.89 C 214.60 336.93 217.12 341.37 221.67 342.38 C 227.42 343.71 233.09 341.33 238.39 339.37 C 253.03 333.65 268.28 329.71 283.37 325.38 C 299.53 321.65 315.43 316.29 332.06 315.00 C 335.03 314.81 339.11 313.57 339.17 309.95 C 338.63 307.41 337.50 305.06 336.57 302.67 C 338.57 302.48 340.97 302.29 342.30 300.55 C 343.47 298.29 342.38 295.74 341.49 293.58 C 337.99 285.71 335.52 277.44 333.23 269.16 Z" />
<path fill="#dfdfdf" stroke="#dfdfdf" stroke-width="0.09375" opacity="1.00" d=" M 152.07 885.07 C 160.79 876.28 173.96 873.18 185.98 875.03 C 193.10 875.78 200.31 878.33 205.44 883.49 C 211.92 890.15 213.49 900.25 211.92 909.11 C 209.43 921.06 200.73 930.26 192.63 938.85 C 186.13 945.36 180.27 952.45 174.23 959.38 C 172.77 960.61 172.39 963.90 174.81 964.17 C 188.12 964.42 201.45 964.04 214.77 964.34 C 215.74 968.84 214.87 973.83 215.19 978.53 C 191.86 978.72 168.53 978.56 145.20 978.61 C 145.24 974.75 145.13 970.90 145.21 967.06 C 144.96 965.14 146.79 964.12 147.85 962.87 C 158.61 951.32 169.72 940.11 180.39 928.47 C 185.49 922.30 190.71 915.60 192.16 907.53 C 192.71 902.00 191.60 895.63 187.13 891.89 C 181.88 887.64 173.52 887.99 168.66 892.71 C 165.23 896.18 163.48 900.97 163.02 905.78 C 156.36 905.83 149.70 905.80 143.05 905.80 C 143.21 898.03 146.90 890.72 152.07 885.07 Z" />
<path fill="#dfdfdf" stroke="#dfdfdf" stroke-width="0.09375" opacity="1.00" d=" M 255.43 887.50 C 263.29 878.60 275.38 874.41 287.06 874.54 C 296.70 874.72 306.84 876.35 314.79 882.19 C 322.54 887.75 326.76 897.09 327.81 906.38 C 321.13 906.35 314.44 906.39 307.76 906.35 C 306.65 900.81 304.11 894.94 298.82 892.24 C 290.61 888.05 279.24 888.70 272.86 895.88 C 266.67 902.63 265.17 912.20 264.66 921.01 C 264.56 932.24 263.99 944.25 269.61 954.40 C 273.14 961.00 280.60 964.90 287.99 964.83 C 294.64 965.04 302.51 964.48 307.08 958.97 C 307.60 953.68 307.16 948.32 307.31 943.01 C 307.43 941.51 307.10 938.96 305.06 939.25 C 299.88 939.12 294.69 939.18 289.50 939.27 C 289.13 934.92 289.38 930.55 289.29 926.20 C 302.30 926.00 315.29 926.04 328.29 926.18 C 328.37 939.78 328.40 953.38 328.28 966.98 C 320.82 973.91 310.85 977.32 301.00 979.08 C 289.76 980.68 277.73 980.86 267.27 975.83 C 258.83 972.00 252.08 964.88 248.28 956.47 C 243.83 946.99 242.96 936.33 243.28 926.00 C 242.82 912.36 246.07 897.84 255.43 887.50 Z" />
<path fill="#dfdfdf" stroke="#dfdfdf" stroke-width="0.09375" opacity="1.00" d=" M 366.51 883.59 C 375.22 875.80 387.61 873.33 398.96 875.04 C 406.31 875.84 413.75 878.61 418.88 884.12 C 424.40 890.30 425.95 899.14 425.05 907.17 C 423.17 920.36 413.51 930.40 404.68 939.61 C 398.80 945.45 393.68 951.98 388.08 958.09 C 387.03 959.27 386.20 960.62 385.40 961.99 C 385.78 962.55 386.54 963.65 386.92 964.20 C 400.54 964.29 414.16 964.22 427.78 964.24 C 427.78 969.03 427.80 973.82 427.77 978.62 C 404.44 978.53 381.11 978.74 357.79 978.52 C 357.87 974.68 357.74 970.84 357.82 967.00 C 357.77 965.38 359.36 964.40 360.24 963.25 C 369.52 953.52 378.81 943.81 388.05 934.03 C 393.43 928.65 398.30 922.67 402.03 916.01 C 405.41 910.15 405.90 902.72 403.44 896.45 C 400.46 889.37 390.91 886.95 384.45 890.60 C 378.91 893.47 376.52 899.92 375.80 905.78 C 369.04 905.71 362.26 906.06 355.51 905.58 C 356.70 897.33 360.09 889.13 366.51 883.59 Z" />
<path fill="#dfdfdf" stroke="#dfdfdf" stroke-width="0.09375" opacity="1.00" d=" M 29.29 876.25 C 36.29 876.21 43.29 876.31 50.29 876.19 C 50.55 889.70 50.24 903.22 50.45 916.73 C 50.40 918.58 52.61 918.83 54.01 918.75 C 66.31 918.69 78.62 918.85 90.92 918.67 C 92.86 918.87 93.51 916.59 93.31 915.05 C 93.30 902.12 93.31 889.19 93.30 876.26 C 100.27 876.26 107.25 876.17 114.22 876.31 C 114.22 910.35 114.12 944.40 114.27 978.44 C 107.29 978.82 100.29 978.50 93.31 978.61 C 93.29 964.74 93.32 950.86 93.30 936.99 C 93.66 935.06 91.85 933.41 89.98 933.74 C 78.32 933.72 66.65 933.77 54.99 933.72 C 53.41 933.56 51.93 934.06 50.50 934.67 C 50.26 949.29 50.41 963.92 50.42 978.55 C 43.38 978.69 36.34 978.57 29.30 978.61 C 29.28 944.49 29.30 910.37 29.29 876.25 Z" />
</g>
<g id="#c4c4c4ff">
<path fill="#c4c4c4" stroke="#c4c4c4" stroke-width="0.09375" opacity="1.00" d=" M 376.95 111.81 C 379.00 113.16 380.48 115.16 382.09 116.98 C 421.41 162.64 438.55 226.40 427.34 285.60 C 420.20 281.77 412.38 279.53 404.85 276.67 C 408.41 275.50 412.79 274.07 413.73 269.90 C 418.76 252.28 417.74 233.62 415.46 215.64 C 411.29 183.63 401.95 151.81 384.70 124.32 C 382.19 120.10 378.82 116.40 376.95 111.81 Z" />
<path fill="#c4c4c4" stroke="#c4c4c4" stroke-width="0.09375" opacity="1.00" d=" M 206.80 300.97 C 206.56 298.71 207.02 296.49 207.56 294.31 C 211.01 303.21 213.14 312.69 217.62 321.18 C 219.62 324.82 224.37 324.85 228.00 324.54 C 235.41 323.66 242.68 321.83 249.97 320.24 C 278.57 313.22 307.15 305.36 336.57 302.67 C 337.50 305.06 338.63 307.41 339.17 309.95 C 339.11 313.57 335.03 314.81 332.06 315.00 C 315.43 316.29 299.53 321.65 283.37 325.38 C 268.28 329.71 253.03 333.65 238.39 339.37 C 233.09 341.33 227.42 343.71 221.67 342.38 C 217.12 341.37 214.60 336.93 213.09 332.89 C 209.39 322.65 207.58 311.81 206.80 300.97 Z" />
</g>
<g id="#ffdf63ff">
<path fill="#ffdf63" stroke="#ffdf63" stroke-width="0.09375" opacity="1.00" d=" M 254.93 190.64 C 275.00 190.02 294.82 185.28 314.95 186.22 C 317.20 186.47 319.88 186.53 321.54 188.29 C 322.62 204.31 321.91 220.43 322.30 236.49 C 322.51 257.30 328.95 277.40 336.09 296.74 C 314.42 298.74 293.15 303.58 272.05 308.73 C 257.45 312.23 242.98 316.54 228.08 318.61 C 226.10 318.48 222.88 319.73 222.02 317.21 C 213.69 299.62 209.77 280.30 207.46 261.09 C 206.87 245.38 207.01 229.62 205.62 213.94 C 205.41 209.01 204.99 204.04 205.43 199.11 C 205.31 196.08 208.74 195.53 210.99 194.87 C 225.42 191.73 240.28 191.89 254.93 190.64 M 267.37 199.30 C 266.80 204.40 268.17 209.44 268.94 214.45 C 269.98 219.62 270.59 224.86 271.44 230.06 C 271.54 232.62 275.60 233.27 276.70 231.01 C 277.03 229.05 276.65 227.06 276.38 225.11 C 274.84 216.47 273.02 207.85 270.37 199.47 C 269.37 199.41 268.37 199.35 267.37 199.30 M 278.27 200.28 C 277.16 201.62 276.66 203.45 276.69 205.17 C 277.21 207.01 279.78 207.40 280.96 205.98 C 282.00 204.54 282.85 202.77 282.43 200.95 C 281.60 199.67 279.24 198.67 278.27 200.28 M 231.66 202.95 C 231.10 208.46 231.86 213.99 231.85 219.51 C 228.77 219.54 225.70 219.78 222.67 220.33 C 222.29 216.94 222.49 213.48 221.91 210.12 C 221.62 207.89 219.12 208.43 217.54 208.44 C 216.37 212.24 217.70 216.21 217.83 220.09 C 218.81 225.93 218.13 231.92 219.29 237.73 C 219.87 237.73 221.04 237.72 221.62 237.71 C 222.88 233.76 222.42 229.55 223.26 225.53 C 226.38 225.48 229.50 225.35 232.62 225.25 C 233.42 229.57 233.67 234.00 234.88 238.24 C 236.14 241.43 241.76 239.34 240.21 235.94 C 237.82 225.00 236.58 213.87 235.20 202.78 C 234.63 202.42 233.48 201.72 232.90 201.36 C 232.59 201.76 231.97 202.55 231.66 202.95 M 241.59 202.63 C 241.35 203.23 240.86 204.44 240.62 205.05 C 240.91 205.66 241.49 206.89 241.78 207.50 C 243.26 207.70 244.89 208.02 246.21 207.10 C 247.04 205.79 246.62 204.22 246.47 202.80 C 245.85 202.52 244.60 201.95 243.98 201.67 C 243.39 201.91 242.19 202.39 241.59 202.63 M 300.16 212.94 C 298.91 211.23 297.38 209.21 295.01 209.34 C 291.49 208.88 289.37 212.12 287.81 214.72 C 287.24 213.62 286.70 212.52 286.20 211.40 C 284.79 211.40 283.39 211.62 282.52 212.87 C 284.08 218.40 284.68 224.19 286.63 229.62 C 287.45 231.46 289.85 230.54 291.38 230.37 C 291.97 225.16 291.11 219.47 294.25 214.89 C 297.87 218.85 296.76 224.72 298.63 229.43 C 300.24 229.60 303.10 230.31 303.44 228.01 C 304.35 223.25 303.23 217.51 307.17 213.85 C 310.04 218.49 308.87 224.23 309.66 229.38 C 310.48 231.78 314.29 231.73 315.20 229.34 C 315.51 224.43 315.10 219.46 314.03 214.67 C 313.24 211.39 310.86 207.54 306.94 208.14 C 303.81 208.03 302.12 211.02 300.16 212.94 M 243.42 213.65 C 243.53 221.63 243.96 229.92 246.75 237.46 C 248.67 237.73 251.32 237.55 251.52 235.05 C 250.53 227.83 248.68 220.76 247.23 213.63 C 245.97 213.29 244.67 213.19 243.42 213.65 M 258.75 231.84 C 257.59 234.86 256.13 237.97 256.40 241.30 C 257.06 241.59 258.38 242.17 259.04 242.47 C 259.57 242.16 260.62 241.56 261.15 241.26 C 262.07 238.22 263.77 235.21 263.38 231.94 C 262.53 230.11 259.47 229.71 258.75 231.84 M 299.43 255.33 C 299.64 265.34 298.82 275.28 298.16 285.25 C 299.51 285.81 301.20 286.92 302.45 285.50 C 304.06 282.40 303.24 278.69 303.76 275.34 C 307.53 278.56 311.36 281.91 316.08 283.65 C 316.66 283.25 317.80 282.44 318.38 282.04 C 318.50 280.58 318.60 278.74 316.90 278.20 C 313.04 275.86 309.38 273.16 306.06 270.12 C 307.17 267.42 312.35 266.82 311.29 263.07 C 309.35 259.42 305.71 262.99 303.78 264.74 C 303.58 261.78 303.69 258.78 303.13 255.86 C 302.34 254.55 300.62 255.37 299.43 255.33 M 279.37 256.61 C 275.52 258.96 274.21 263.82 273.75 268.05 C 273.19 274.59 275.36 282.01 280.98 285.88 C 286.32 288.79 293.26 285.41 295.20 279.87 C 297.32 273.28 296.45 265.45 292.01 259.99 C 289.12 256.15 283.82 254.34 279.37 256.61 M 251.71 262.35 C 251.12 262.42 249.94 262.56 249.35 262.63 C 249.12 263.76 248.64 264.87 248.87 266.05 C 249.97 276.09 251.83 286.04 252.85 296.09 C 253.21 298.50 255.92 297.73 257.59 297.50 C 258.28 292.53 256.65 287.66 256.29 282.74 C 260.86 285.96 264.59 290.54 269.98 292.49 C 272.54 293.38 274.46 290.09 273.06 288.05 C 269.56 285.76 265.34 283.61 263.12 280.08 C 266.59 277.16 269.25 272.65 267.94 267.97 C 266.60 261.03 257.07 257.76 251.71 262.35 M 220.51 271.59 C 217.15 276.78 218.02 283.50 220.03 289.03 C 222.29 295.56 227.04 301.76 233.89 303.79 C 237.52 304.98 241.90 303.37 243.64 299.90 C 246.02 295.44 244.85 289.82 241.67 286.05 C 243.27 285.18 245.11 284.53 246.27 283.05 C 247.26 280.95 245.12 278.50 242.91 279.23 C 239.43 280.62 236.19 282.59 232.66 283.91 C 230.89 284.45 230.89 286.87 231.88 288.12 C 233.91 289.22 237.01 288.28 238.41 290.55 C 239.82 292.75 240.67 296.45 238.31 298.30 C 235.18 299.79 231.67 297.82 229.58 295.46 C 225.19 290.51 222.36 283.68 223.44 277.01 C 224.01 273.65 226.73 271.20 229.99 270.52 C 232.23 271.42 234.31 273.04 236.85 272.90 C 237.50 268.63 232.67 266.22 229.05 266.30 C 225.38 266.04 222.41 268.76 220.51 271.59 Z" />
<path fill="#ffdf63" stroke="#ffdf63" stroke-width="0.09375" opacity="1.00" d=" M 282.18 261.01 C 283.68 259.66 285.98 260.51 287.18 261.86 C 290.71 265.56 291.16 271.11 290.37 275.93 C 289.79 278.76 287.28 281.95 284.03 280.71 C 280.88 279.10 279.82 275.24 279.27 272.01 C 279.19 268.26 279.00 263.64 282.18 261.01 Z" />
<path fill="#ffdf63" stroke="#ffdf63" stroke-width="0.09375" opacity="1.00" d=" M 255.39 265.63 C 258.17 264.54 262.03 265.85 262.58 269.03 C 263.86 273.33 258.31 277.62 254.65 275.59 C 254.05 272.44 251.48 267.60 255.39 265.63 Z" />
</g>
<g id="#3ed41bff">
<path fill="#3ed41b" stroke="#3ed41b" stroke-width="0.09375" opacity="1.00" d=" M 347.44 270.61 C 362.60 272.07 377.66 274.88 392.35 278.83 C 387.65 287.59 382.25 295.96 377.42 304.65 C 377.15 304.69 376.60 304.77 376.32 304.81 C 369.01 296.39 361.95 287.73 354.55 279.38 C 352.09 276.53 349.57 273.72 347.44 270.61 Z" />
<path fill="#3ed41b" stroke="#3ed41b" stroke-width="0.09375" opacity="1.00" d=" M 111.41 302.66 C 131.13 294.74 151.41 288.10 172.09 283.18 C 161.04 298.33 149.29 312.98 138.14 328.07 C 137.52 329.41 135.94 328.52 135.26 327.78 C 126.74 320.24 118.05 312.88 109.53 305.34 C 107.85 303.91 110.33 303.14 111.41 302.66 Z" />
</g>
<g id="#c3c3c3ff">
<path fill="#c3c3c3" stroke="#c3c3c3" stroke-width="0.09375" opacity="1.00" d=" M 402.73 283.15 C 403.08 282.91 403.77 282.42 404.12 282.18 C 411.76 284.12 419.00 287.37 426.46 289.89 C 414.81 349.21 374.81 402.24 320.95 429.70 C 320.36 429.92 319.17 430.35 318.58 430.56 C 322.22 426.21 327.12 423.20 330.89 418.97 C 342.97 406.34 346.08 388.24 356.35 374.40 C 360.74 366.99 367.05 361.07 373.33 355.30 C 382.44 347.50 392.71 340.71 399.93 330.97 C 405.12 321.71 409.95 311.78 410.70 301.02 C 411.14 294.33 408.95 286.60 402.73 283.15 Z" />
</g>
<g id="#e0e0e0ff">
<path fill="#e0e0e0" stroke="#e0e0e0" stroke-width="0.09375" opacity="1.00" d=" M 255.94 482.55 C 268.15 475.40 277.15 464.05 284.06 451.91 C 289.91 454.37 293.35 460.41 295.62 466.04 C 299.88 477.55 299.24 489.99 300.40 502.01 C 301.57 520.76 310.47 537.70 316.64 555.13 C 325.52 579.42 334.36 604.78 332.63 631.04 C 327.89 629.84 323.96 626.72 320.18 623.78 C 307.30 613.04 294.99 601.55 284.13 588.75 C 277.82 581.14 272.68 572.04 271.94 562.00 C 271.27 557.66 272.50 553.36 272.42 549.04 C 272.60 546.95 270.44 546.15 268.74 546.44 C 265.91 556.69 267.17 567.78 270.87 577.66 C 262.70 575.76 254.27 575.45 245.92 575.17 C 235.64 574.36 225.31 574.61 215.01 574.79 C 204.36 575.54 193.55 575.25 183.08 577.64 C 186.82 567.80 187.97 556.78 185.28 546.54 C 181.11 545.43 181.18 550.24 181.67 552.99 C 182.86 560.26 181.65 567.72 178.96 574.54 L 178.70 574.57 C 178.32 574.61 177.56 574.69 177.18 574.73 C 170.34 583.07 162.18 590.20 153.54 596.60 C 146.17 601.76 138.90 607.16 130.89 611.29 C 131.25 605.13 133.71 599.40 135.59 593.60 C 141.80 575.23 155.16 560.16 160.34 541.36 C 165.95 522.98 159.89 503.73 162.81 485.04 C 164.08 475.75 166.51 465.38 174.68 459.69 C 184.34 474.63 199.46 486.52 217.06 490.26 C 230.36 493.65 244.43 489.36 255.94 482.55 Z" />
<path fill="#e0e0e0" stroke="#e0e0e0" stroke-width="0.09375" opacity="1.00" d=" M 333.78 454.65 C 339.48 452.27 345.30 457.03 349.09 460.91 C 361.58 476.74 369.08 495.68 378.97 513.11 C 386.84 528.36 397.49 542.33 402.71 558.85 C 398.39 555.61 393.46 552.90 387.98 552.50 C 378.69 551.72 369.90 555.48 360.92 557.20 C 356.23 558.06 351.60 559.27 347.15 561.02 C 349.07 549.58 344.61 538.61 342.10 527.66 C 341.17 527.51 340.25 527.37 339.33 527.25 C 339.23 528.99 339.19 530.73 339.18 532.49 C 337.69 528.08 337.53 523.37 336.36 518.88 C 334.70 506.94 337.06 494.96 337.61 483.02 C 338.61 473.74 335.72 464.46 337.49 455.23 C 336.25 455.02 335.02 454.83 333.78 454.65 Z" />
<path fill="#e0e0e0" stroke="#e0e0e0" stroke-width="0.09375" opacity="1.00" d=" M 119.18 468.61 C 119.74 467.63 120.32 466.66 120.92 465.71 C 121.07 469.35 120.84 473.03 121.35 476.65 C 121.93 486.54 124.53 496.16 125.41 506.01 C 126.16 516.10 123.87 526.02 123.03 536.02 C 122.45 542.05 122.88 548.13 122.55 554.17 C 121.04 560.93 119.17 567.72 115.98 573.90 C 114.73 567.24 111.50 560.91 111.72 554.02 C 112.13 546.93 113.26 539.90 114.48 532.91 C 114.85 531.06 114.82 529.15 114.68 527.28 C 113.73 527.40 112.77 527.53 111.82 527.68 C 111.56 529.00 111.30 530.31 111.04 531.64 L 110.75 531.83 C 107.10 533.74 105.01 537.38 102.46 540.44 C 98.63 545.45 93.17 550.57 93.58 557.39 C 84.43 555.59 75.48 551.81 66.00 552.55 C 62.41 552.72 59.13 554.26 55.86 555.57 C 60.83 539.66 73.91 528.41 82.59 514.62 C 89.87 503.20 94.33 490.19 102.00 479.00 C 106.00 473.44 111.87 468.23 119.18 468.61 Z" />
<path fill="#e0e0e0" stroke="#e0e0e0" stroke-width="0.09375" opacity="1.00" d=" M 359.22 576.32 C 370.24 574.49 380.67 569.82 389.67 563.21 C 389.00 569.00 390.12 575.95 395.44 579.30 C 397.96 580.95 400.95 580.12 403.53 579.14 C 408.60 590.92 411.31 603.50 414.13 615.95 C 418.84 637.17 423.97 658.40 425.88 680.10 C 427.96 702.30 425.92 725.28 416.86 745.86 C 415.25 749.56 413.70 756.31 408.44 755.46 C 399.39 750.52 391.87 742.80 381.95 739.44 C 378.85 738.34 375.42 738.06 372.31 739.27 C 371.90 736.33 371.33 733.43 370.44 730.61 C 366.34 716.42 364.06 701.75 363.18 687.02 C 362.63 674.30 363.95 661.63 364.92 648.97 C 365.09 635.36 365.75 621.64 363.63 608.14 C 362.20 597.88 360.18 587.64 356.66 577.87 C 357.50 577.33 358.36 576.81 359.22 576.32 M 377.24 604.99 C 380.35 631.23 377.18 657.67 378.47 684.00 C 378.70 687.53 378.54 691.13 379.59 694.56 C 380.92 694.51 382.26 694.43 383.59 694.32 C 383.74 678.88 383.29 663.41 382.71 647.97 C 382.44 634.28 381.47 620.57 379.26 607.04 C 379.36 605.77 378.30 605.23 377.24 604.99 Z" />
<path fill="#e0e0e0" stroke="#e0e0e0" stroke-width="0.09375" opacity="1.00" d=" M 395.54 563.31 C 395.87 563.26 396.53 563.15 396.87 563.09 C 398.89 566.01 401.08 569.41 400.45 573.13 C 400.36 574.41 398.82 575.24 397.94 574.17 C 394.85 571.48 394.79 567.01 395.54 563.31 Z" />
<path fill="#e0e0e0" stroke="#e0e0e0" stroke-width="0.09375" opacity="1.00" d=" M 70.20 567.31 C 81.93 574.08 95.95 578.79 109.51 575.44 C 104.15 593.14 99.85 611.42 100.21 630.04 C 99.53 638.67 100.17 647.33 99.92 655.96 C 99.72 684.87 94.38 713.69 84.77 740.94 C 82.11 739.49 79.22 738.01 76.08 738.56 C 68.73 739.59 62.55 744.09 56.58 748.16 C 53.36 744.78 49.06 742.47 46.54 738.45 C 43.89 734.44 41.67 730.08 40.51 725.39 C 38.53 717.38 36.89 709.22 36.87 700.94 C 36.40 685.13 39.39 669.53 41.63 653.95 C 44.82 635.54 45.86 615.94 55.38 599.40 C 59.62 592.38 65.61 586.41 68.59 578.67 C 70.06 575.07 70.13 571.13 70.20 567.31 M 73.78 612.90 C 72.02 613.10 71.94 615.06 71.34 616.33 C 65.75 632.18 63.37 649.28 65.72 666.00 C 66.68 672.40 67.11 679.02 69.58 685.08 C 70.40 687.96 69.91 691.03 70.03 693.99 L 70.56 694.20 C 71.81 694.52 73.10 694.58 74.39 694.56 C 76.11 686.16 75.46 677.49 75.75 668.97 C 76.02 647.67 73.99 626.27 76.77 605.07 C 73.36 605.73 74.79 610.39 73.78 612.90 Z" />
<path fill="#e0e0e0" stroke="#e0e0e0" stroke-width="0.09375" opacity="1.00" d=" M 276.56 635.30 C 289.42 633.70 302.10 630.52 314.03 625.41 C 317.78 628.62 321.74 631.61 326.06 634.03 C 328.28 635.13 329.42 637.42 330.65 639.44 C 334.52 645.90 338.19 652.47 341.64 659.15 C 343.71 663.13 345.29 667.52 345.28 672.06 C 345.02 677.65 342.63 682.82 340.55 687.92 C 332.03 707.60 319.30 725.17 304.94 740.99 C 293.32 753.60 280.00 765.57 263.47 771.15 C 241.67 777.75 218.08 778.22 195.98 772.79 L 196.49 772.52 C 196.84 772.34 197.55 771.97 197.91 771.79 C 187.22 765.22 178.31 756.30 169.79 747.20 C 163.57 739.85 158.43 731.67 153.62 723.35 C 149.85 716.76 145.90 710.27 142.68 703.39 C 137.63 693.74 133.25 683.14 133.84 672.04 C 133.94 658.29 140.78 645.66 148.89 634.95 C 150.15 633.44 150.84 631.59 151.37 629.73 C 173.15 636.71 196.27 637.29 218.94 637.67 C 238.16 637.73 257.45 637.66 276.56 635.30 Z" />
</g>
</svg>
