<?xml version="1.0" encoding="UTF-8" ?>
<!DOCTYPE svg PUBLIC "-//W3C//DTD SVG 1.1//EN" "http://www.w3.org/Graphics/SVG/1.1/DTD/svg11.dtd">
<svg width="841pt" height="1189pt" viewBox="0 0 841 1189" version="1.1" xmlns="http://www.w3.org/2000/svg">
<g id="#286a86ff">
</g>
<g id="#ffffffff">
<path fill="#ffffff" stroke="#ffffff" stroke-width="0.09375" opacity="1.00" d=" M 319.66 64.69 C 386.31 45.11 458.70 45.58 525.07 66.10 C 586.70 85.00 642.83 121.20 685.71 169.31 C 729.24 217.91 759.06 278.67 770.50 342.93 C 784.25 418.52 772.89 498.51 738.00 567.03 C 722.05 598.47 701.52 627.66 676.92 652.95 C 671.97 653.93 668.47 657.71 664.52 660.50 C 644.06 675.16 622.14 687.87 598.97 697.72 C 587.14 702.16 575.51 707.26 563.25 710.42 C 535.63 719.13 506.93 724.61 478.00 726.17 C 439.19 728.25 399.94 724.81 362.42 714.42 C 322.92 704.07 285.62 686.07 252.07 662.90 C 239.14 653.27 226.14 643.66 214.32 632.65 C 201.42 620.17 188.72 607.40 177.77 593.14 C 163.91 576.48 152.34 558.06 141.76 539.19 C 133.95 524.50 127.41 509.17 121.36 493.68 C 106.60 453.56 99.26 410.77 99.71 368.04 C 100.10 360.71 100.32 353.38 100.47 346.05 C 102.37 318.97 107.47 292.13 115.19 266.11 C 117.71 256.78 121.62 247.91 124.87 238.83 C 127.75 230.72 131.54 222.98 135.08 215.15 C 137.28 210.26 140.88 206.20 143.28 201.42 C 147.61 192.68 153.12 184.60 158.25 176.32 C 164.62 165.95 172.21 156.41 179.83 146.94 C 181.75 144.54 183.30 141.88 184.90 139.27 C 197.34 127.73 211.15 117.66 225.28 108.27 C 254.38 89.23 286.28 74.47 319.66 64.69 M 373.90 445.08 C 328.46 446.49 283.02 449.47 237.94 455.47 C 215.08 458.60 192.24 462.41 169.97 468.57 C 158.24 472.04 146.26 475.79 136.20 482.99 C 137.59 484.76 138.97 486.55 140.35 488.34 C 148.11 482.94 157.09 479.70 166.03 476.85 C 176.87 473.49 187.94 470.93 199.07 468.74 C 213.73 484.83 228.36 500.96 243.02 517.05 C 261.13 496.72 279.27 476.42 297.33 456.05 C 335.47 452.96 373.74 451.53 412.00 451.16 C 460.07 450.88 508.18 452.43 556.05 456.98 C 571.82 476.09 587.54 495.24 603.33 514.34 C 616.94 499.73 630.57 485.12 644.17 470.49 C 663.61 475.13 683.10 480.70 700.67 490.44 C 701.76 488.46 702.87 486.48 703.99 484.51 C 691.26 477.34 677.40 472.47 663.41 468.42 C 621.58 456.80 578.24 451.86 535.07 448.34 C 481.46 444.32 427.63 443.55 373.90 445.08 Z" />
<path fill="#ffffff" stroke="#ffffff" stroke-width="0.09375" opacity="1.00" d=" M 150.62 892.60 C 151.66 892.60 153.73 892.59 154.77 892.59 C 154.75 897.61 154.90 902.64 154.57 907.66 C 158.91 902.02 170.15 901.67 172.79 909.03 C 174.12 916.31 173.09 923.81 173.41 931.18 C 172.00 931.18 170.60 931.18 169.20 931.21 C 169.07 924.81 169.41 918.41 169.07 912.02 C 168.66 904.85 156.61 905.61 155.37 912.00 C 154.17 918.31 155.02 924.80 154.76 931.20 C 153.38 931.18 152.01 931.18 150.64 931.18 C 150.61 918.32 150.65 905.46 150.62 892.60 Z" />
<path fill="#ffffff" stroke="#ffffff" stroke-width="0.09375" opacity="1.00" d=" M 179.25 931.19 C 179.30 918.30 179.17 905.41 179.32 892.52 C 180.34 892.55 182.38 892.60 183.40 892.63 C 183.39 897.64 183.55 902.65 183.24 907.66 C 186.73 903.29 193.22 902.38 198.08 904.84 C 201.01 906.37 202.02 909.87 202.02 912.97 C 202.15 919.03 202.00 925.11 202.05 931.18 C 200.65 931.17 199.26 931.17 197.87 931.19 C 197.68 924.47 198.25 917.71 197.58 911.02 C 196.70 906.63 191.11 906.33 187.71 907.68 C 184.76 908.75 183.67 912.07 183.52 914.94 C 183.26 920.34 183.50 925.77 183.41 931.19 C 182.02 931.18 180.64 931.18 179.25 931.19 Z" />
<path fill="#ffffff" stroke="#ffffff" stroke-width="0.09375" opacity="1.00" d=" M 419.38 892.59 C 420.40 892.59 422.44 892.60 423.46 892.60 C 423.44 905.46 423.47 918.33 423.45 931.19 C 422.61 931.20 420.94 931.20 420.10 931.20 C 420.00 930.33 419.80 928.59 419.71 927.72 C 417.36 930.01 414.43 932.03 410.99 931.71 C 406.04 932.17 401.47 928.53 400.34 923.80 C 398.98 918.19 399.04 911.51 402.86 906.85 C 407.17 901.93 415.60 902.59 419.63 907.55 C 419.25 902.57 419.40 897.57 419.38 892.59 M 408.44 907.53 C 403.10 910.50 403.37 917.91 404.56 923.09 C 405.83 929.73 416.77 930.15 418.65 923.79 C 419.77 919.75 419.67 915.35 418.47 911.35 C 417.21 907.29 412.04 906.08 408.44 907.53 Z" />
<path fill="#ffffff" stroke="#ffffff" stroke-width="0.09375" opacity="1.00" d=" M 103.58 894.49 C 106.91 891.63 109.72 898.18 105.99 899.40 C 103.10 900.28 101.75 896.21 103.58 894.49 Z" />
<path fill="#ffffff" stroke="#ffffff" stroke-width="0.09375" opacity="1.00" d=" M 391.20 894.37 C 394.42 891.90 397.19 897.72 393.92 899.20 C 390.97 900.70 389.21 896.23 391.20 894.37 Z" />
<path fill="#ffffff" stroke="#ffffff" stroke-width="0.09375" opacity="1.00" d=" M 68.86 894.93 C 70.28 894.92 71.70 894.93 73.12 894.94 C 73.12 900.09 73.11 905.24 73.14 910.40 C 79.49 910.38 85.84 910.41 92.18 910.37 C 92.16 905.22 92.17 900.07 92.17 894.93 C 93.59 894.92 95.01 894.91 96.42 894.92 C 96.43 907.01 96.43 919.10 96.43 931.19 C 95.01 931.18 93.59 931.18 92.18 931.19 C 92.17 925.51 92.17 919.84 92.17 914.16 C 85.82 914.17 79.47 914.16 73.13 914.17 C 73.12 919.84 73.12 925.51 73.12 931.19 C 71.70 931.18 70.28 931.18 68.86 931.19 C 68.85 919.10 68.86 907.02 68.86 894.93 Z" />
<path fill="#ffffff" stroke="#ffffff" stroke-width="0.09375" opacity="1.00" d=" M 285.45 894.93 C 287.00 894.92 288.54 894.92 290.10 894.93 C 289.80 899.29 289.44 903.64 289.12 908.00 C 288.45 907.99 287.11 907.96 286.44 907.94 C 286.12 903.60 285.77 899.26 285.45 894.93 Z" />
<path fill="#ffffff" stroke="#ffffff" stroke-width="0.09375" opacity="1.00" d=" M 334.98 896.80 C 341.51 893.25 349.43 894.06 356.23 896.39 C 355.69 897.59 355.16 898.80 354.54 899.97 C 348.93 898.48 342.49 896.88 337.17 900.15 C 329.84 904.76 329.38 915.65 333.28 922.65 C 337.37 929.00 345.91 928.47 352.42 927.30 C 352.42 923.53 352.43 919.76 352.44 915.99 C 349.71 915.98 346.98 915.98 344.25 915.99 C 344.25 914.72 344.25 913.46 344.26 912.22 C 348.39 912.23 352.53 912.23 356.67 912.23 C 356.65 918.15 356.66 924.07 356.66 930.00 C 349.48 931.78 341.28 933.12 334.44 929.56 C 327.70 925.80 325.69 917.27 326.61 910.12 C 327.16 904.72 330.06 899.36 334.98 896.80 Z" />
<path fill="#ffffff" stroke="#ffffff" stroke-width="0.09375" opacity="1.00" d=" M 113.72 903.43 C 114.77 901.16 114.54 897.28 117.92 897.37 C 117.97 899.59 117.98 901.81 117.99 904.04 C 120.63 904.04 123.27 904.04 125.92 904.05 C 125.91 904.86 125.90 906.48 125.90 907.28 C 123.26 907.27 120.62 907.26 117.98 907.26 C 118.22 913.43 117.45 919.69 118.38 925.81 C 119.51 929.06 123.42 928.16 126.07 928.10 C 126.08 928.89 126.09 930.47 126.09 931.26 C 122.94 931.59 119.35 932.37 116.57 930.38 C 114.51 928.95 113.86 926.32 113.82 923.97 C 113.67 918.41 113.84 912.85 113.78 907.30 C 112.33 907.26 110.88 907.22 109.42 907.19 C 109.87 905.00 112.02 904.34 113.72 903.43 Z" />
<path fill="#ffffff" stroke="#ffffff" stroke-width="0.09375" opacity="1.00" d=" M 103.15 904.05 C 104.54 904.04 105.93 904.03 107.32 904.04 C 107.30 913.09 107.32 922.14 107.31 931.19 C 105.93 931.17 104.54 931.17 103.16 931.19 C 103.15 922.14 103.16 913.09 103.15 904.05 Z" />
<path fill="#ffffff" stroke="#ffffff" stroke-width="0.09375" opacity="1.00" d=" M 133.21 905.15 C 137.46 902.65 142.65 903.41 147.14 904.76 C 146.72 905.93 146.31 907.12 145.89 908.31 C 142.52 907.47 138.61 906.34 135.42 908.35 C 132.24 910.37 131.70 914.51 131.71 917.97 C 131.73 921.39 132.54 925.47 135.81 927.26 C 139.26 928.96 143.19 927.73 146.68 926.81 C 146.66 928.08 146.64 929.35 146.62 930.64 C 141.80 932.01 135.95 932.61 131.81 929.25 C 127.95 926.12 127.13 920.76 127.44 916.09 C 127.67 911.87 129.36 907.32 133.21 905.15 Z" />
<path fill="#ffffff" stroke="#ffffff" stroke-width="0.09375" opacity="1.00" d=" M 207.90 904.06 C 209.28 904.04 210.66 904.04 212.04 904.05 C 212.04 913.09 212.04 922.14 212.04 931.18 C 210.66 931.17 209.28 931.17 207.91 931.18 C 207.89 922.14 207.93 913.10 207.90 904.06 Z" />
<path fill="#ffffff" stroke="#ffffff" stroke-width="0.09375" opacity="1.00" d=" M 242.55 909.56 C 245.67 902.76 256.06 901.31 260.93 906.95 C 263.74 910.03 263.82 914.42 263.98 918.35 C 257.60 918.39 251.23 918.31 244.85 918.41 C 245.44 921.50 246.00 925.18 249.02 926.89 C 253.25 929.27 258.33 927.71 262.67 926.45 C 262.65 927.39 262.63 929.26 262.61 930.19 C 257.02 932.04 249.99 932.96 245.12 928.91 C 239.82 924.16 239.73 915.66 242.55 909.56 M 248.34 908.32 C 246.20 909.84 245.73 912.57 244.92 914.90 C 249.81 915.04 254.71 915.02 259.60 915.02 C 259.19 913.29 259.00 911.49 258.22 909.89 C 256.33 906.48 251.28 906.10 248.34 908.32 Z" />
<path fill="#ffffff" stroke="#ffffff" stroke-width="0.09375" opacity="1.00" d=" M 297.00 904.97 C 301.81 902.43 307.46 903.62 312.40 905.11 C 311.91 906.25 311.42 907.40 310.93 908.56 C 307.26 907.43 303.16 906.09 299.42 907.69 C 297.48 908.41 296.81 911.22 298.43 912.63 C 302.27 915.79 307.92 915.92 311.46 919.58 C 314.35 923.00 312.83 928.89 308.66 930.54 C 303.91 932.52 298.45 931.85 293.67 930.29 C 293.65 929.31 293.62 927.34 293.61 926.35 C 297.73 927.83 302.39 929.25 306.67 927.57 C 309.13 926.72 309.75 923.03 307.58 921.54 C 303.95 918.84 299.12 918.36 295.62 915.45 C 292.34 912.70 293.15 906.81 297.00 904.97 Z" />
<path fill="#ffffff" stroke="#ffffff" stroke-width="0.09375" opacity="1.00" d=" M 361.83 904.05 C 363.24 904.04 364.64 904.05 366.05 904.06 C 366.19 910.66 365.77 917.29 366.25 923.88 C 366.81 928.68 372.89 929.04 376.43 927.52 C 379.37 926.27 380.27 922.84 380.40 919.94 C 380.61 914.66 380.42 909.37 380.44 904.09 C 381.82 904.06 383.21 904.04 384.60 904.03 C 384.57 913.10 384.64 922.16 384.56 931.23 C 383.70 931.22 381.99 931.19 381.13 931.17 C 381.03 930.32 380.84 928.61 380.74 927.76 C 376.16 933.30 364.43 933.67 362.27 925.77 C 361.32 918.58 362.08 911.28 361.83 904.05 Z" />
<path fill="#ffffff" stroke="#ffffff" stroke-width="0.09375" opacity="1.00" d=" M 429.81 909.93 C 432.70 902.91 443.22 901.21 448.24 906.82 C 451.18 909.89 451.27 914.36 451.40 918.36 C 445.02 918.39 438.64 918.31 432.26 918.42 C 432.91 921.44 433.39 925.07 436.32 926.82 C 440.57 929.29 445.73 927.75 450.11 926.44 C 450.10 927.36 450.10 929.22 450.09 930.14 C 444.60 932.03 437.78 932.92 432.86 929.17 C 427.36 924.61 427.18 916.08 429.81 909.93 M 435.50 908.53 C 433.57 910.10 433.12 912.67 432.41 914.92 C 437.30 914.99 442.19 915.02 447.08 914.89 C 446.61 913.07 446.40 911.14 445.42 909.53 C 443.29 906.35 438.30 906.18 435.50 908.53 Z" />
<path fill="#ffffff" stroke="#ffffff" stroke-width="0.09375" opacity="1.00" d=" M 137.91 939.02 C 139.29 939.01 140.68 939.01 142.06 939.02 C 142.05 944.01 142.16 949.00 141.92 953.98 C 146.58 947.95 159.25 948.34 160.43 957.01 C 161.07 963.86 160.53 970.78 160.71 977.67 C 159.30 977.64 157.89 977.64 156.48 977.65 C 156.45 971.76 156.55 965.88 156.48 960.01 C 156.51 957.80 155.97 955.19 153.78 954.16 C 151.17 953.05 147.98 953.22 145.49 954.56 C 142.92 956.06 142.24 959.24 142.13 961.99 C 141.93 967.21 142.13 972.43 142.06 977.66 C 140.67 977.65 139.29 977.65 137.92 977.66 C 137.91 964.78 137.92 951.90 137.91 939.02 Z" />
<path fill="#ffffff" stroke="#ffffff" stroke-width="0.09375" opacity="1.00" d=" M 205.90 946.95 C 212.12 939.57 223.18 939.78 231.57 942.81 C 231.04 944.07 230.51 945.37 229.99 946.66 C 224.88 944.77 219.05 943.65 213.87 945.91 C 209.46 947.81 206.82 952.47 206.50 957.13 C 206.01 962.31 206.83 968.40 211.21 971.80 C 215.96 975.39 222.34 974.60 227.84 973.74 C 227.87 969.96 227.86 966.19 227.86 962.42 C 225.14 962.41 222.42 962.40 219.70 962.41 C 219.70 961.47 219.70 959.60 219.70 958.66 C 223.84 958.65 227.98 958.65 232.13 958.66 C 232.13 964.55 232.10 970.45 232.15 976.36 C 223.86 978.60 213.23 980.13 206.57 973.41 C 200.34 966.29 200.21 954.43 205.90 946.95 Z" />
<path fill="#ffffff" stroke="#ffffff" stroke-width="0.09375" opacity="1.00" d=" M 70.27 944.12 C 70.87 944.12 72.08 944.13 72.68 944.14 C 72.68 946.24 72.68 948.34 72.68 950.46 C 75.32 950.45 77.96 950.45 80.60 950.46 C 80.60 951.52 80.61 952.60 80.61 953.69 C 77.96 953.68 75.31 953.69 72.67 953.70 C 72.89 959.77 72.20 965.90 73.04 971.93 C 73.95 975.52 78.21 974.66 80.96 974.51 C 80.88 975.34 80.73 976.98 80.66 977.81 C 76.60 978.47 70.80 978.69 69.17 973.94 C 67.81 967.32 68.87 960.45 68.54 953.73 C 67.07 953.67 65.60 953.60 64.14 953.53 C 64.78 951.37 66.88 950.69 68.62 949.73 C 69.18 947.85 69.72 945.98 70.27 944.12 Z" />
<path fill="#ffffff" stroke="#ffffff" stroke-width="0.09375" opacity="1.00" d=" M 124.48 944.19 C 125.09 944.16 126.31 944.09 126.93 944.06 C 126.95 946.18 126.96 948.31 126.98 950.45 C 129.61 950.44 132.24 950.44 134.87 950.44 C 134.88 951.52 134.88 952.60 134.89 953.70 C 132.25 953.69 129.60 953.69 126.95 953.69 C 127.15 959.76 126.55 965.88 127.26 971.92 C 128.16 975.49 132.40 974.68 135.13 974.51 C 135.06 975.34 134.91 977.00 134.83 977.83 C 131.69 978.04 128.03 978.81 125.35 976.67 C 123.27 975.10 122.82 972.33 122.78 969.90 C 122.69 964.52 122.81 959.13 122.76 953.75 C 121.27 953.66 119.78 953.57 118.29 953.48 C 119.09 951.50 121.05 950.70 122.79 949.78 C 123.37 947.92 123.93 946.05 124.48 944.19 Z" />
<path fill="#ffffff" stroke="#ffffff" stroke-width="0.09375" opacity="1.00" d=" M 90.39 950.53 C 95.53 948.92 101.96 950.31 104.89 955.14 C 108.06 960.44 108.03 967.62 104.98 972.97 C 100.33 980.58 87.03 979.81 83.62 971.42 C 80.44 964.27 81.92 953.15 90.39 950.53 M 90.34 954.52 C 87.16 956.44 86.47 960.53 86.46 963.96 C 86.45 967.47 87.13 971.68 90.39 973.68 C 93.70 975.47 98.56 975.11 100.87 971.89 C 102.91 969.01 103.03 965.28 102.77 961.90 C 102.54 959.00 101.40 955.84 98.70 954.40 C 96.11 953.17 92.87 953.15 90.34 954.52 Z" />
<path fill="#ffffff" stroke="#ffffff" stroke-width="0.09375" opacity="1.00" d=" M 166.84 955.95 C 169.99 949.08 180.60 947.73 185.33 953.60 C 188.03 956.67 188.06 960.93 188.20 964.79 C 181.83 964.81 175.47 964.77 169.10 964.82 C 169.72 968.01 170.30 971.87 173.55 973.50 C 177.81 975.61 182.67 974.12 186.96 972.87 C 186.91 974.13 186.86 975.39 186.82 976.67 C 181.08 978.54 173.82 979.43 168.99 975.02 C 164.08 970.13 164.01 961.92 166.84 955.95 M 171.21 956.16 C 170.16 957.73 169.78 959.62 169.16 961.39 C 174.07 961.46 178.98 961.46 183.89 961.38 C 183.26 959.13 183.17 956.43 181.24 954.83 C 178.31 952.49 173.38 953.03 171.21 956.16 Z" />
<path fill="#ffffff" stroke="#ffffff" stroke-width="0.09375" opacity="1.00" d=" M 238.68 952.13 C 243.41 950.24 249.01 948.81 253.83 951.19 C 256.65 952.59 257.53 955.97 257.51 958.89 C 257.59 965.14 257.49 971.40 257.53 977.66 C 256.47 977.64 255.42 977.63 254.37 977.63 C 254.16 976.39 253.96 975.16 253.76 973.94 C 250.31 977.86 244.56 979.45 239.71 977.29 C 234.60 974.99 234.23 966.66 239.01 963.82 C 243.40 961.19 248.73 961.56 253.65 961.31 C 253.24 958.80 253.63 955.40 250.95 954.06 C 247.30 952.46 243.41 954.18 239.92 955.38 C 239.51 954.28 239.09 953.20 238.68 952.13 M 242.74 965.71 C 239.25 967.09 238.98 973.06 242.65 974.37 C 245.82 975.33 249.79 974.61 251.88 971.87 C 253.53 969.71 253.22 966.82 253.52 964.29 C 249.92 964.50 246.12 964.26 242.74 965.71 Z" />
<path fill="#ffffff" stroke="#ffffff" stroke-width="0.09375" opacity="1.00" d=" M 274.61 952.14 C 279.33 950.23 284.94 948.81 289.76 951.19 C 292.64 952.61 293.46 956.04 293.44 959.00 C 293.52 965.23 293.42 971.46 293.45 977.69 C 292.65 977.66 291.05 977.61 290.26 977.58 C 290.10 976.65 289.80 974.80 289.65 973.87 C 286.29 977.90 280.51 979.42 275.67 977.30 C 270.55 975.04 270.14 966.77 274.85 963.88 C 279.23 961.17 284.64 961.57 289.58 961.32 C 289.20 958.81 289.54 955.49 286.95 954.08 C 283.30 952.44 279.36 954.16 275.86 955.37 C 275.44 954.28 275.02 953.21 274.61 952.14 M 278.65 965.72 C 275.22 967.08 274.92 972.97 278.48 974.33 C 281.70 975.36 285.75 974.61 287.86 971.81 C 289.46 969.66 289.16 966.80 289.49 964.30 C 285.87 964.51 282.05 964.25 278.65 965.72 Z" />
<path fill="#ffffff" stroke="#ffffff" stroke-width="0.09375" opacity="1.00" d=" M 296.48 950.46 C 298.06 950.45 299.65 950.45 301.24 950.46 C 303.61 953.93 305.99 957.39 308.42 960.83 C 310.77 957.35 313.15 953.91 315.53 950.46 C 318.22 950.44 320.91 950.44 323.61 950.45 C 326.45 958.15 329.74 965.71 332.12 973.59 C 334.53 965.81 337.59 958.27 340.14 950.54 C 341.67 950.49 343.20 950.45 344.73 950.42 C 340.98 960.44 337.15 970.43 333.42 980.46 C 332.17 983.56 330.83 987.04 327.77 988.79 C 325.29 990.31 322.27 989.78 319.53 989.67 C 319.48 988.56 319.43 987.45 319.39 986.36 C 321.87 986.30 324.85 986.81 326.73 984.76 C 328.44 982.81 329.12 980.22 330.14 977.89 C 326.62 969.07 323.05 960.28 319.55 951.46 C 316.58 955.53 313.66 959.64 310.76 963.78 C 314.08 968.39 317.37 973.02 320.70 977.63 C 319.15 977.64 317.61 977.66 316.08 977.71 C 313.44 974.08 310.94 970.36 308.37 966.70 C 305.83 970.35 303.28 974.00 300.73 977.66 C 299.15 977.65 297.58 977.65 296.01 977.67 C 299.32 973.03 302.63 968.39 305.94 963.75 C 302.79 959.31 299.63 954.89 296.48 950.46 Z" />
<path fill="#ffffff" stroke="#ffffff" stroke-width="0.09375" opacity="1.00" d=" M 63.88 991.78 C 240.40 991.77 416.91 991.78 593.43 991.77 C 593.43 992.88 593.43 994.00 593.45 995.13 C 416.92 995.12 240.40 995.12 63.88 995.13 C 63.88 994.29 63.88 992.62 63.88 991.78 Z" />
</g>
<g id="#e5e5e5ff">
<path fill="#e5e5e5" stroke="#e5e5e5" stroke-width="0.09375" opacity="1.00" d=" M 165.96 156.93 C 172.09 150.86 178.08 144.57 184.90 139.27 C 183.30 141.88 181.75 144.54 179.83 146.94 C 172.21 156.41 164.62 165.95 158.25 176.32 C 153.12 184.60 147.61 192.68 143.28 201.42 C 140.88 206.20 137.28 210.26 135.08 215.15 C 131.54 222.98 127.75 230.72 124.87 238.83 C 121.62 247.91 117.71 256.78 115.19 266.11 C 107.47 292.13 102.37 318.97 100.47 346.05 C 100.32 353.38 100.10 360.71 99.71 368.04 C 99.26 410.77 106.60 453.56 121.36 493.68 C 127.41 509.17 133.95 524.50 141.76 539.19 C 152.34 558.06 163.91 576.48 177.77 593.14 C 188.72 607.40 201.42 620.17 214.32 632.65 C 226.14 643.66 239.14 653.27 252.07 662.90 C 285.62 686.07 322.92 704.07 362.42 714.42 C 399.94 724.81 439.19 728.25 478.00 726.17 C 506.93 724.61 535.63 719.13 563.25 710.42 C 575.51 707.26 587.14 702.16 598.97 697.72 C 622.14 687.87 644.06 675.16 664.52 660.50 C 668.47 657.71 671.97 653.93 676.92 652.95 C 631.42 700.93 571.97 735.46 507.89 751.68 C 434.18 770.47 354.47 764.95 284.18 735.78 C 224.81 711.34 172.40 670.40 134.14 618.86 C 112.87 590.29 95.90 558.52 84.08 524.92 C 62.18 463.07 58.05 395.12 71.91 331.01 C 85.90 265.61 119.03 204.54 165.96 156.93 Z" />
</g>
<g id="#3e3e3eff">
<path fill="#3e3e3e" stroke="#3e3e3e" stroke-width="0.09375" opacity="1.00" d=" M 373.90 445.08 C 427.63 443.55 481.46 444.32 535.07 448.34 C 578.24 451.86 621.58 456.80 663.41 468.42 C 677.40 472.47 691.26 477.34 703.99 484.51 C 702.87 486.48 701.76 488.46 700.67 490.44 C 683.10 480.70 663.61 475.13 644.17 470.49 C 630.57 485.12 616.94 499.73 603.33 514.34 C 587.54 495.24 571.82 476.09 556.05 456.98 C 508.18 452.43 460.07 450.88 412.00 451.16 C 373.74 451.53 335.47 452.96 297.33 456.05 C 279.27 476.42 261.13 496.72 243.02 517.05 C 228.36 500.96 213.73 484.83 199.07 468.74 C 187.94 470.93 176.87 473.49 166.03 476.85 C 157.09 479.70 148.11 482.94 140.35 488.34 C 138.97 486.55 137.59 484.76 136.20 482.99 C 146.26 475.79 158.24 472.04 169.97 468.57 C 192.24 462.41 215.08 458.60 237.94 455.47 C 283.02 449.47 328.46 446.49 373.90 445.08 M 207.77 468.02 C 219.33 481.15 231.25 493.95 242.99 506.92 C 257.46 490.62 271.98 474.37 286.46 458.08 C 260.20 461.17 234.01 464.79 207.77 468.02 M 566.89 459.38 C 579.11 474.31 591.32 489.25 603.72 504.03 C 614.21 492.55 625.00 481.34 635.43 469.81 C 612.59 466.29 589.75 462.75 566.89 459.38 Z" />
</g>
<g id="#06c405ff">
<path fill="#06c405" stroke="#06c405" stroke-width="0.09375" opacity="1.00" d=" M 207.77 468.02 C 234.01 464.79 260.20 461.17 286.46 458.08 C 271.98 474.37 257.46 490.62 242.99 506.92 C 231.25 493.95 219.33 481.15 207.77 468.02 Z" />
<path fill="#06c405" stroke="#06c405" stroke-width="0.09375" opacity="1.00" d=" M 566.89 459.38 C 589.75 462.75 612.59 466.29 635.43 469.81 C 625.00 481.34 614.21 492.55 603.72 504.03 C 591.32 489.25 579.11 474.31 566.89 459.38 Z" />
</g>
<g id="#feffffff">
<path fill="#feffff" stroke="#feffff" stroke-width="0.09375" opacity="1.00" d=" M 218.23 892.60 C 219.60 892.58 220.97 892.58 222.34 892.58 C 222.29 900.84 222.54 909.10 222.17 917.36 C 225.90 912.65 230.24 908.48 234.28 904.05 C 235.94 904.04 237.61 904.03 239.27 904.04 C 235.60 907.92 231.90 911.76 228.26 915.67 C 232.21 920.81 236.09 926.02 240.02 931.19 C 238.33 931.18 236.65 931.18 234.97 931.19 C 231.74 926.93 228.60 922.59 225.29 918.39 C 224.30 919.32 223.32 920.28 222.33 921.23 C 222.36 924.54 222.35 927.86 222.35 931.19 C 220.98 931.18 219.61 931.18 218.24 931.20 C 218.23 918.33 218.24 905.47 218.23 892.60 Z" />
<path fill="#feffff" stroke="#feffff" stroke-width="0.09375" opacity="1.00" d=" M 208.30 894.37 C 211.61 891.79 214.43 898.01 210.85 899.26 C 207.98 900.53 206.46 896.22 208.30 894.37 Z" />
<path fill="#feffff" stroke="#feffff" stroke-width="0.09375" opacity="1.00" d=" M 268.40 904.06 C 269.56 904.04 270.72 904.02 271.88 904.03 C 271.98 905.66 272.07 907.30 272.17 908.95 C 273.72 907.27 275.12 905.29 277.24 904.28 C 279.39 903.24 281.84 903.61 284.15 903.60 C 283.96 904.84 283.77 906.10 283.59 907.36 C 278.94 906.38 273.82 908.94 272.90 913.82 C 272.10 919.55 272.75 925.39 272.54 931.17 C 271.52 931.18 269.47 931.21 268.45 931.22 C 268.35 922.16 268.43 913.11 268.40 904.06 Z" />
<path fill="#feffff" stroke="#feffff" stroke-width="0.09375" opacity="1.00" d=" M 128.51 998.64 C 130.05 1002.92 129.00 1007.58 129.31 1012.03 C 129.11 1014.54 130.00 1017.49 128.18 1019.59 C 127.93 1012.62 127.51 1005.56 128.51 998.64 Z" />
<path fill="#feffff" stroke="#feffff" stroke-width="0.09375" opacity="1.00" d=" M 190.54 998.76 C 191.20 1000.05 191.58 1001.46 191.48 1002.95 C 191.45 1008.41 191.52 1013.87 191.35 1019.34 C 191.11 1018.84 190.63 1017.84 190.39 1017.34 C 187.89 1019.21 183.94 1020.08 181.62 1017.44 C 179.36 1014.40 179.49 1009.70 181.73 1006.69 C 183.99 1004.12 187.87 1004.92 190.31 1006.81 C 190.18 1004.11 190.17 1001.42 190.54 998.76 M 183.21 1006.99 C 181.11 1008.99 181.11 1012.32 181.74 1014.96 C 182.38 1018.65 188.37 1019.22 189.71 1015.78 C 190.43 1013.43 190.42 1010.81 189.71 1008.47 C 188.81 1005.92 185.18 1005.60 183.21 1006.99 Z" />
<path fill="#feffff" stroke="#feffff" stroke-width="0.09375" opacity="1.00" d=" M 67.09 1000.69 C 71.06 1000.83 75.91 999.93 78.90 1003.21 C 81.80 1006.75 81.67 1012.43 79.01 1016.07 C 76.04 1019.48 71.13 1018.81 67.09 1018.93 C 67.07 1012.85 67.07 1006.77 67.09 1000.69 M 68.41 1001.84 C 68.42 1007.15 68.39 1012.46 68.43 1017.78 C 71.73 1017.61 75.82 1018.04 78.06 1015.04 C 80.08 1011.89 80.17 1007.30 77.93 1004.24 C 75.61 1001.42 71.64 1002.01 68.41 1001.84 Z" />
<path fill="#feffff" stroke="#feffff" stroke-width="0.09375" opacity="1.00" d=" M 163.36 1019.54 C 165.48 1012.88 168.29 1006.46 171.03 1000.04 C 173.89 1006.39 176.50 1012.89 178.64 1019.52 C 176.18 1017.98 175.75 1014.94 174.68 1012.49 C 172.21 1012.46 169.74 1012.47 167.27 1012.51 C 166.23 1014.96 165.78 1017.98 163.36 1019.54 M 167.80 1011.31 C 169.93 1011.30 172.08 1011.30 174.22 1011.31 C 173.17 1008.50 172.11 1005.69 171.06 1002.90 C 169.97 1005.69 168.88 1008.50 167.80 1011.31 Z" />
<path fill="#feffff" stroke="#feffff" stroke-width="0.09375" opacity="1.00" d=" M 87.37 1005.57 C 90.33 1004.17 94.36 1005.43 95.43 1008.68 C 97.18 1012.79 95.32 1019.42 89.97 1019.13 C 83.11 1019.30 81.80 1008.33 87.37 1005.57 M 87.30 1006.97 C 85.00 1008.89 84.94 1012.41 85.79 1015.07 C 86.70 1018.28 91.45 1019.02 93.44 1016.45 C 95.06 1014.09 95.05 1010.77 93.80 1008.27 C 92.59 1006.01 89.31 1005.60 87.30 1006.97 Z" />
<path fill="#feffff" stroke="#feffff" stroke-width="0.09375" opacity="1.00" d=" M 99.47 1012.05 C 99.61 1009.57 98.94 1006.76 100.53 1004.62 C 101.05 1008.38 100.57 1012.20 101.06 1015.97 C 101.94 1018.74 105.98 1018.42 107.81 1016.83 C 110.33 1013.23 107.50 1008.24 110.04 1004.65 C 110.38 1009.57 110.22 1014.52 110.11 1019.45 C 109.76 1018.99 109.06 1018.08 108.71 1017.62 C 106.53 1018.87 103.75 1019.85 101.39 1018.48 C 99.25 1017.12 99.60 1014.23 99.47 1012.05 Z" />
<path fill="#feffff" stroke="#feffff" stroke-width="0.09375" opacity="1.00" d=" M 115.87 1005.92 C 118.94 1004.20 122.68 1005.60 125.98 1005.80 C 125.27 1005.96 123.86 1006.28 123.15 1006.43 C 123.27 1008.21 124.19 1010.31 122.96 1011.94 C 121.68 1014.00 118.97 1013.64 116.90 1014.03 C 116.60 1014.63 116.00 1015.82 115.70 1016.42 C 118.76 1017.47 124.20 1015.76 125.10 1019.93 C 125.56 1025.13 118.36 1025.96 114.82 1024.22 C 111.95 1022.78 113.02 1019.09 115.28 1017.65 C 115.11 1016.19 115.40 1014.83 115.83 1013.49 C 114.10 1011.33 113.25 1007.76 115.87 1005.92 M 118.20 1006.13 C 115.46 1006.31 114.56 1010.10 116.27 1011.94 C 118.21 1013.65 122.34 1012.97 122.40 1009.95 C 122.87 1007.49 120.54 1005.54 118.20 1006.13 M 115.10 1019.08 C 114.00 1020.28 114.08 1023.27 116.12 1023.50 C 118.54 1024.16 122.07 1024.25 123.58 1021.89 C 125.13 1017.09 117.72 1017.67 115.10 1019.08 Z" />
<path fill="#feffff" stroke="#feffff" stroke-width="0.09375" opacity="1.00" d=" M 133.39 1006.88 C 135.88 1004.81 140.83 1003.87 142.48 1007.37 C 143.37 1011.30 142.79 1015.40 142.91 1019.41 C 142.57 1018.89 141.90 1017.83 141.56 1017.30 C 139.64 1018.47 137.40 1019.75 135.08 1018.86 C 132.24 1018.06 131.81 1013.67 134.32 1012.22 C 136.63 1010.82 139.49 1011.09 142.07 1010.68 C 141.39 1009.27 141.60 1007.06 139.90 1006.44 C 137.73 1006.04 135.55 1006.77 133.39 1006.88 M 135.22 1012.99 C 132.92 1014.36 134.16 1018.39 136.93 1018.01 C 140.47 1018.36 141.84 1014.79 141.86 1011.88 C 139.64 1012.15 137.28 1012.01 135.22 1012.99 Z" />
<path fill="#feffff" stroke="#feffff" stroke-width="0.09375" opacity="1.00" d=" M 147.84 1005.85 C 150.37 1004.48 153.73 1004.75 155.94 1006.64 C 153.40 1006.91 148.94 1004.89 147.71 1008.06 C 148.21 1012.19 155.36 1010.81 155.71 1015.19 C 155.63 1020.04 147.95 1020.31 145.39 1017.27 C 148.39 1017.44 154.17 1019.54 154.51 1014.98 C 153.06 1012.70 150.02 1012.44 147.91 1011.00 C 145.94 1010.03 145.90 1006.86 147.84 1005.85 Z" />
<path fill="#feffff" stroke="#feffff" stroke-width="0.09375" opacity="1.00" d=" M 195.74 1006.87 C 198.27 1004.92 202.97 1003.86 204.80 1007.20 C 205.72 1011.24 205.20 1015.45 205.11 1019.56 C 204.80 1018.97 204.18 1017.78 203.88 1017.19 C 201.27 1020.03 194.68 1019.91 195.03 1014.98 C 195.65 1010.61 201.09 1011.16 204.33 1010.78 C 203.93 1009.41 203.78 1007.95 203.00 1006.76 C 200.70 1005.73 198.14 1006.80 195.74 1006.87 M 196.58 1014.08 C 195.41 1016.74 198.40 1018.79 200.78 1017.83 C 203.62 1017.34 203.93 1014.24 204.27 1011.95 C 201.71 1012.34 198.30 1011.63 196.58 1014.08 Z" />
<path fill="#feffff" stroke="#feffff" stroke-width="0.09375" opacity="1.00" d=" M 209.59 1004.95 C 210.09 1005.39 210.59 1005.84 211.09 1006.31 C 213.58 1004.63 216.61 1004.81 218.94 1006.67 C 221.29 1005.02 225.41 1003.96 227.07 1007.04 C 228.20 1010.87 227.43 1014.98 227.61 1018.93 C 227.30 1018.91 226.68 1018.89 226.37 1018.87 C 226.32 1015.25 226.66 1011.60 226.11 1008.02 C 225.36 1005.55 221.82 1005.83 220.23 1007.22 C 217.86 1010.95 220.70 1015.95 218.18 1019.61 C 217.72 1015.79 218.20 1011.93 217.72 1008.12 C 216.83 1005.02 211.30 1005.80 211.06 1008.99 C 210.57 1012.51 210.98 1016.09 210.54 1019.63 C 208.24 1015.20 210.01 1009.77 209.59 1004.95 Z" />
<path fill="#feffff" stroke="#feffff" stroke-width="0.09375" opacity="1.00" d=" M 231.11 1008.89 C 231.11 1004.20 238.03 1004.03 240.69 1006.66 C 238.03 1006.87 234.03 1004.99 232.38 1007.93 C 232.84 1012.14 239.78 1010.78 240.46 1014.99 C 240.59 1020.03 232.86 1020.30 230.15 1017.32 C 233.07 1017.33 237.44 1019.30 239.21 1016.00 C 238.97 1011.67 232.14 1012.94 231.11 1008.89 Z" />
</g>
<g id="#fffffeff">
<path fill="#fffffe" stroke="#fffffe" stroke-width="0.09375" opacity="1.00" d=" M 390.75 904.05 C 392.14 904.04 393.53 904.04 394.92 904.04 C 394.92 913.09 394.92 922.14 394.92 931.19 C 393.52 931.18 392.13 931.18 390.75 931.19 C 390.74 922.14 390.75 913.09 390.75 904.05 Z" />
<path fill="#fffffe" stroke="#fffffe" stroke-width="0.09375" opacity="1.00" d=" M 263.47 939.03 C 264.85 939.01 266.24 939.01 267.63 939.02 C 267.61 951.90 267.62 964.78 267.62 977.67 C 266.24 977.64 264.86 977.64 263.49 977.64 C 263.48 964.77 263.51 951.90 263.47 939.03 Z" />
</g>
<g id="#296b87ff">
</g>
<g id="#286b86ff">
</g>
<g id="#2b6986ff">
</g>
<g id="#2a6986ff">
</g>
<g id="#286b84ff">
</g>
<g id="#286985ff">
</g>
<g id="#296a86ff">
</g>
</svg>
