<?xml version="1.0" encoding="UTF-8" ?>
<!DOCTYPE svg PUBLIC "-//W3C//DTD SVG 1.1//EN" "http://www.w3.org/Graphics/SVG/1.1/DTD/svg11.dtd">
<svg width="300pt" height="375pt" viewBox="0 0 300 375" version="1.1" xmlns="http://www.w3.org/2000/svg">
<g id="#fdfdfdff">
</g>
<g id="#f3f4f4ff">
</g>
<g id="#becbd0ff">
<path fill="#becbd0" stroke="#becbd0" stroke-width="0.09375" opacity="1.00" d=" M 140.21 47.24 C 155.61 46.07 171.00 48.54 185.95 52.08 L 185.69 53.20 C 183.15 52.75 180.66 52.10 178.14 51.59 C 171.89 50.24 165.53 49.58 159.21 48.66 C 147.77 46.56 136.40 49.25 124.99 49.92 C 129.91 48.26 135.08 47.75 140.21 47.24 Z" />
</g>
<g id="#407f96ff">
<path fill="#407f96" stroke="#407f96" stroke-width="0.09375" opacity="1.00" d=" M 124.99 49.92 C 136.40 49.25 147.77 46.56 159.21 48.66 C 150.08 49.14 145.97 59.36 139.09 64.19 C 138.67 61.70 140.81 56.58 137.27 57.17 C 128.87 53.02 128.53 61.12 130.95 65.99 C 131.08 74.63 131.01 83.28 130.94 91.92 C 126.77 90.66 124.58 97.07 121.20 99.13 C 121.28 98.63 121.43 97.64 121.51 97.14 C 122.82 94.77 122.82 92.67 121.50 90.85 C 117.38 77.81 101.90 85.26 92.24 84.89 C 87.39 79.91 97.84 73.25 102.19 76.85 C 105.37 79.38 108.60 75.63 111.23 73.98 C 109.67 71.77 107.54 70.01 105.15 68.75 C 99.58 69.37 92.31 67.80 93.81 60.97 C 97.19 59.30 100.62 57.74 104.02 56.13 C 111.01 54.06 118.33 52.93 124.99 49.92 Z" />
</g>
<g id="#3f7588ff">
<path fill="#3f7588" stroke="#3f7588" stroke-width="0.09375" opacity="1.00" d=" M 139.09 64.19 C 145.97 59.36 150.08 49.14 159.21 48.66 C 165.53 49.58 171.89 50.24 178.14 51.59 C 169.51 55.35 164.42 64.30 157.22 70.19 C 154.23 72.00 155.53 75.47 155.73 78.29 C 154.48 76.28 152.17 74.53 152.00 72.08 C 156.23 66.45 161.50 61.53 166.07 56.12 C 153.48 53.87 147.97 66.15 140.74 73.68 C 136.45 75.72 139.88 66.70 139.09 64.19 Z" />
</g>
<g id="#b8c7cdff">
<path fill="#b8c7cd" stroke="#b8c7cd" stroke-width="0.09375" opacity="1.00" d=" M 104.02 56.13 C 110.00 51.69 117.92 51.23 124.99 49.92 C 118.33 52.93 111.01 54.06 104.02 56.13 Z" />
</g>
<g id="#32687cff">
<path fill="#32687c" stroke="#32687c" stroke-width="0.09375" opacity="1.00" d=" M 157.22 70.19 C 164.42 64.30 169.51 55.35 178.14 51.59 C 180.66 52.10 183.15 52.75 185.69 53.20 C 190.59 55.01 195.62 56.55 200.31 58.90 C 192.30 67.33 181.92 75.30 180.62 87.63 C 177.73 95.03 176.53 104.23 169.67 109.15 C 162.22 107.20 154.57 105.92 146.86 105.88 C 151.58 102.80 151.31 96.25 154.81 92.74 C 155.53 93.87 156.25 95.00 157.04 96.08 C 158.34 96.53 170.52 99.55 167.30 95.14 C 163.28 89.63 159.44 84.00 155.73 78.29 C 155.53 75.47 154.23 72.00 157.22 70.19 Z" />
</g>
<g id="#eeeeeeff">
</g>
<g id="#f5fafbff">
<path fill="#f5fafb" stroke="#f5fafb" stroke-width="0.09375" opacity="1.00" d=" M 140.74 73.68 C 147.97 66.15 153.48 53.87 166.07 56.12 C 161.50 61.53 156.23 66.45 152.00 72.08 C 152.17 74.53 154.48 76.28 155.73 78.29 C 159.44 84.00 163.28 89.63 167.30 95.14 C 163.90 95.66 160.49 96.11 157.04 96.08 C 156.25 95.00 155.53 93.87 154.81 92.74 C 151.89 88.07 149.48 83.02 145.96 78.76 C 138.49 82.30 140.12 90.16 139.86 96.99 C 138.38 95.20 131.78 99.30 131.71 95.27 C 130.90 85.69 134.15 75.14 130.95 65.99 C 129.17 59.86 131.20 56.65 137.27 57.17 C 140.81 56.58 138.67 61.70 139.09 64.19 C 139.88 66.70 136.45 75.72 140.74 73.68 Z" />
</g>
<g id="#83a4b0ff">
<path fill="#83a4b0" stroke="#83a4b0" stroke-width="0.09375" opacity="1.00" d=" M 130.95 65.99 C 128.53 61.12 128.87 53.02 137.27 57.17 C 131.20 56.65 129.17 59.86 130.95 65.99 Z" />
</g>
<g id="#2c5e70ff">
<path fill="#2c5e70" stroke="#2c5e70" stroke-width="0.09375" opacity="1.00" d=" M 200.31 58.90 C 204.93 61.02 209.57 63.12 214.00 65.62 C 209.30 68.63 210.51 75.65 206.33 79.28 C 202.61 93.69 192.25 105.95 190.99 120.84 C 184.49 115.91 177.13 112.36 169.67 109.15 C 176.53 104.23 177.73 95.03 180.62 87.63 C 181.92 75.30 192.30 67.33 200.31 58.90 Z" />
</g>
<g id="#488da6ff">
<path fill="#488da6" stroke="#488da6" stroke-width="0.09375" opacity="1.00" d=" M 66.14 77.99 C 75.06 71.87 83.70 65.06 93.81 60.97 C 92.31 67.80 99.58 69.37 105.15 68.75 C 94.64 67.00 78.32 75.64 83.94 88.04 C 89.96 98.40 101.97 90.49 110.91 90.99 C 116.14 92.86 112.39 101.09 107.90 101.91 C 104.02 104.61 100.62 100.79 97.16 99.41 C 93.59 101.03 89.04 103.36 93.74 106.75 C 93.74 109.60 93.57 112.53 90.76 114.08 C 80.13 111.95 69.60 109.32 59.00 107.06 C 55.54 102.53 64.40 106.88 65.95 103.72 C 65.52 98.19 65.26 92.21 63.82 87.03 C 57.37 87.78 54.69 95.23 48.76 96.99 C 53.55 89.78 60.65 84.60 66.14 77.99 Z" />
</g>
<g id="#b0cdd7ff">
<path fill="#b0cdd7" stroke="#b0cdd7" stroke-width="0.09375" opacity="1.00" d=" M 130.95 65.99 C 134.15 75.14 130.90 85.69 131.71 95.27 C 131.41 94.16 131.16 93.04 130.94 91.92 C 131.01 83.28 131.08 74.63 130.95 65.99 Z" />
</g>
<g id="#275363ff">
<path fill="#275363" stroke="#275363" stroke-width="0.09375" opacity="1.00" d=" M 206.33 79.28 C 210.51 75.65 209.30 68.63 214.00 65.62 C 221.27 69.77 227.95 74.88 234.07 80.57 C 232.39 81.59 230.12 82.30 229.24 84.19 C 226.32 92.51 220.41 99.45 218.16 108.04 C 216.00 118.66 207.11 126.38 205.78 137.31 C 203.59 134.48 201.54 131.53 199.20 128.82 C 196.63 125.99 193.95 123.26 190.99 120.84 C 192.25 105.95 202.61 93.69 206.33 79.28 Z" />
</g>
<g id="#f2f9fbff">
<path fill="#f2f9fb" stroke="#f2f9fb" stroke-width="0.09375" opacity="1.00" d=" M 83.94 88.04 C 78.32 75.64 94.64 67.00 105.15 68.75 C 107.54 70.01 109.67 71.77 111.23 73.98 C 108.60 75.63 105.37 79.38 102.19 76.85 C 97.84 73.25 87.39 79.91 92.24 84.89 C 101.90 85.26 117.38 77.81 121.50 90.85 C 120.28 92.78 120.41 95.18 121.51 97.14 C 121.43 97.64 121.28 98.63 121.20 99.13 C 120.44 100.02 119.67 100.91 118.89 101.80 C 112.78 108.18 101.44 113.57 93.74 106.75 C 89.04 103.36 93.59 101.03 97.16 99.41 C 100.62 100.79 104.02 104.61 107.90 101.91 C 112.39 101.09 116.14 92.86 110.91 90.99 C 101.97 90.49 89.96 98.40 83.94 88.04 Z" />
</g>
<g id="#e9e9e9ff">
</g>
<g id="#39758aff">
<path fill="#39758a" stroke="#39758a" stroke-width="0.09375" opacity="1.00" d=" M 139.86 96.99 C 140.12 90.16 138.49 82.30 145.96 78.76 C 149.48 83.02 151.89 88.07 154.81 92.74 C 151.31 96.25 151.58 102.80 146.86 105.88 C 137.92 105.57 129.35 108.22 121.09 111.28 C 120.97 107.42 125.98 100.38 118.89 101.80 C 119.67 100.91 120.44 100.02 121.20 99.13 C 124.58 97.07 126.77 90.66 130.94 91.92 C 131.16 93.04 131.41 94.16 131.71 95.27 C 131.78 99.30 138.38 95.20 139.86 96.99 Z" />
</g>
<g id="#224754ff">
<path fill="#224754" stroke="#224754" stroke-width="0.09375" opacity="1.00" d=" M 229.24 84.19 C 230.12 82.30 232.39 81.59 234.07 80.57 C 235.07 81.32 236.10 82.05 237.12 82.78 C 239.40 85.86 241.91 88.85 245.13 90.98 C 246.95 93.06 248.80 95.10 250.73 97.08 C 252.04 99.34 253.58 101.46 255.03 103.64 C 246.72 110.49 238.19 117.98 231.81 126.65 C 233.14 126.93 235.81 127.47 237.15 127.74 C 230.49 125.98 225.70 134.26 231.07 138.87 C 220.90 138.79 222.03 154.09 215.05 159.36 C 212.55 151.79 210.19 144.04 205.78 137.31 C 207.11 126.38 216.00 118.66 218.16 108.04 C 220.41 99.45 226.32 92.51 229.24 84.19 Z" />
</g>
<g id="#909ea2ff">
<path fill="#909ea2" stroke="#909ea2" stroke-width="0.09375" opacity="1.00" d=" M 237.12 82.78 C 240.78 84.33 243.19 87.64 245.13 90.98 C 241.91 88.85 239.40 85.86 237.12 82.78 Z" />
</g>
<g id="#4998b4ff">
<path fill="#4998b4" stroke="#4998b4" stroke-width="0.09375" opacity="1.00" d=" M 48.76 96.99 C 54.69 95.23 57.37 87.78 63.82 87.03 C 65.26 92.21 65.52 98.19 65.95 103.72 C 64.40 106.88 55.54 102.53 59.00 107.06 C 53.94 104.62 49.63 109.12 49.02 113.89 C 53.22 120.72 58.16 127.08 62.64 133.75 C 69.28 154.20 64.21 176.34 60.29 197.19 C 60.03 199.34 58.31 200.58 56.72 201.80 C 49.30 201.07 44.61 210.34 51.98 214.30 C 54.95 222.84 47.43 229.41 44.87 236.92 C 43.40 242.77 38.50 237.86 35.68 236.16 C 32.58 230.31 29.53 224.32 28.09 217.81 C 30.70 219.78 33.63 229.14 36.59 223.63 C 44.19 201.84 46.38 178.59 46.20 155.63 C 46.90 149.52 41.17 143.65 45.04 138.08 C 39.02 134.70 44.22 126.77 38.46 123.53 C 35.93 119.26 33.23 126.90 30.71 127.82 C 32.85 122.10 35.61 116.66 38.20 111.14 C 42.05 106.68 44.80 101.38 48.76 96.99 Z" />
</g>
<g id="#97b9c3ff">
<path fill="#97b9c3" stroke="#97b9c3" stroke-width="0.09375" opacity="1.00" d=" M 121.50 90.85 C 122.82 92.67 122.82 94.77 121.51 97.14 C 120.41 95.18 120.28 92.78 121.50 90.85 Z" />
</g>
<g id="#8aaeb9ff">
<path fill="#8aaeb9" stroke="#8aaeb9" stroke-width="0.09375" opacity="1.00" d=" M 167.30 95.14 C 170.52 99.55 158.34 96.53 157.04 96.08 C 160.49 96.11 163.90 95.66 167.30 95.14 Z" />
</g>
<g id="#e4e4e4ff">
</g>
<g id="#42849bff">
<path fill="#42849b" stroke="#42849b" stroke-width="0.09375" opacity="1.00" d=" M 93.74 106.75 C 101.44 113.57 112.78 108.18 118.89 101.80 C 125.98 100.38 120.97 107.42 121.09 111.28 C 108.26 117.55 97.01 126.93 89.55 139.20 C 90.12 133.27 92.17 127.36 92.03 121.13 C 94.14 117.89 96.56 114.02 90.76 114.08 C 93.57 112.53 93.74 109.60 93.74 106.75 Z" />
</g>
<g id="#1e3b47ff">
<path fill="#1e3b47" stroke="#1e3b47" stroke-width="0.09375" opacity="1.00" d=" M 231.81 126.65 C 238.19 117.98 246.72 110.49 255.03 103.64 C 259.40 109.92 263.20 116.65 265.94 123.82 C 249.49 136.74 238.45 154.56 230.47 173.58 C 221.16 188.94 212.48 204.54 202.71 219.57 C 200.72 225.52 195.56 231.35 195.76 237.33 C 194.04 240.09 191.77 242.61 190.81 245.77 C 190.31 248.39 190.07 251.10 189.95 253.78 C 186.97 251.85 184.48 255.57 183.80 258.11 C 181.50 249.24 170.47 249.65 163.75 253.27 C 167.54 248.01 173.55 243.90 174.81 236.71 C 199.42 226.44 216.54 200.71 216.08 173.99 C 216.02 169.08 215.48 164.23 215.05 159.36 C 222.03 154.09 220.90 138.79 231.07 138.87 C 238.32 142.51 243.83 131.05 237.15 127.74 C 235.81 127.47 233.14 126.93 231.81 126.65 Z" />
</g>
<g id="#f4fbfcff">
<path fill="#f4fbfc" stroke="#f4fbfc" stroke-width="0.09375" opacity="1.00" d=" M 49.02 113.89 C 49.63 109.12 53.94 104.62 59.00 107.06 C 69.60 109.32 80.13 111.95 90.76 114.08 C 96.56 114.02 94.14 117.89 92.03 121.13 C 88.48 122.94 84.70 120.73 81.11 120.29 C 78.22 124.39 75.22 128.55 73.04 133.09 C 73.38 136.19 76.51 138.27 77.96 140.98 C 76.54 143.58 74.82 146.01 72.92 148.27 C 69.18 143.65 66.23 138.48 62.64 133.75 C 58.16 127.08 53.22 120.72 49.02 113.89 M 59.78 115.20 C 62.57 119.41 67.39 132.42 71.25 123.24 C 77.27 115.83 64.59 117.13 59.78 115.20 Z" />
</g>
<g id="#e3e9ecff">
<path fill="#e3e9ec" stroke="#e3e9ec" stroke-width="0.09375" opacity="1.00" d=" M 121.09 111.28 C 129.35 108.22 137.92 105.57 146.86 105.88 C 154.57 105.92 162.22 107.20 169.67 109.15 C 177.13 112.36 184.49 115.91 190.99 120.84 C 193.95 123.26 196.63 125.99 199.20 128.82 C 199.52 130.93 199.71 133.05 199.67 135.19 C 197.44 134.32 195.37 132.95 192.89 132.94 C 187.50 127.82 181.66 122.96 174.58 120.43 C 167.41 116.49 170.81 121.33 171.45 123.61 C 174.25 129.41 174.62 135.91 175.52 142.18 C 175.44 145.50 175.26 148.83 175.14 152.16 C 174.73 155.45 173.64 158.60 172.91 161.82 C 165.48 162.46 158.09 163.35 150.85 165.18 L 150.05 164.90 C 149.99 164.42 149.89 163.46 149.83 162.98 C 149.08 157.68 148.08 152.40 147.98 147.03 C 149.30 138.00 152.33 129.15 152.05 119.93 C 143.61 126.96 139.46 138.10 138.96 148.87 C 138.86 151.83 139.08 154.82 138.92 157.79 C 131.83 156.25 123.94 160.19 120.02 166.06 C 116.74 171.16 114.84 177.06 114.15 183.07 L 114.03 183.91 C 113.98 184.37 113.86 185.29 113.80 185.75 C 113.58 186.12 113.13 186.87 112.91 187.24 C 109.86 187.71 109.71 185.17 109.71 182.79 C 110.15 179.13 111.24 175.59 112.32 172.08 C 114.67 166.10 117.48 160.22 122.03 155.54 C 125.73 153.71 129.50 151.84 133.73 151.63 C 134.99 146.79 136.79 141.98 137.04 136.95 C 134.25 136.23 131.65 139.29 129.15 138.15 C 132.97 132.37 142.43 125.07 137.27 117.67 C 128.72 115.32 120.71 121.77 113.25 125.40 C 112.66 129.25 118.65 130.29 120.83 132.83 C 123.85 130.59 125.65 125.59 130.01 125.93 C 130.75 130.29 126.72 133.13 124.75 136.52 C 119.41 143.27 112.77 149.26 109.18 157.22 C 107.41 161.68 105.54 166.24 104.99 171.05 C 104.03 178.27 104.85 185.46 108.12 191.94 C 106.74 193.41 105.20 194.76 103.22 195.33 C 100.49 191.03 99.75 185.90 98.87 180.98 C 98.89 179.22 98.93 175.69 98.95 173.93 C 99.03 172.34 99.13 170.76 99.25 169.19 C 99.72 162.73 102.03 156.63 104.95 150.92 C 108.57 145.87 112.29 140.89 115.92 135.85 C 116.61 131.61 109.06 132.62 106.98 132.08 C 97.68 135.23 93.53 145.40 90.99 154.14 C 89.78 158.39 88.31 162.64 88.01 167.08 C 87.93 169.74 87.91 172.40 87.97 175.06 C 88.03 177.74 87.87 180.48 88.44 183.13 C 90.19 190.40 92.87 197.55 96.69 203.99 C 97.61 205.32 98.61 206.59 99.54 207.90 C 98.09 210.58 94.80 211.37 92.08 212.20 C 89.70 208.85 87.85 205.18 85.79 201.64 C 82.47 191.60 80.15 181.32 79.64 170.73 C 80.87 159.69 84.02 148.88 89.55 139.20 C 97.01 126.93 108.26 117.55 121.09 111.28 Z" />
</g>
<g id="#e2e3e3ff">
</g>
<g id="#5493aaff">
<path fill="#5493aa" stroke="#5493aa" stroke-width="0.09375" opacity="1.00" d=" M 59.78 115.20 C 64.59 117.13 77.27 115.83 71.25 123.24 C 67.39 132.42 62.57 119.41 59.78 115.20 Z" />
</g>
<g id="#dcdcdcff">
<path fill="#dcdcdc" stroke="#dcdcdc" stroke-width="0.09375" opacity="1.00" d=" M 113.25 125.40 C 120.71 121.77 128.72 115.32 137.27 117.67 C 142.43 125.07 132.97 132.37 129.15 138.15 C 127.80 137.32 126.28 136.87 124.75 136.52 C 126.72 133.13 130.75 130.29 130.01 125.93 C 125.65 125.59 123.85 130.59 120.83 132.83 C 118.65 130.29 112.66 129.25 113.25 125.40 Z" />
</g>
<g id="#458fa8ff">
<path fill="#458fa8" stroke="#458fa8" stroke-width="0.09375" opacity="1.00" d=" M 81.11 120.29 C 84.70 120.73 88.48 122.94 92.03 121.13 C 92.17 127.36 90.12 133.27 89.55 139.20 C 84.02 148.88 80.87 159.69 79.64 170.73 C 76.33 187.79 74.24 206.36 65.55 221.44 C 63.68 231.29 56.08 238.86 53.45 248.58 C 52.17 252.45 48.02 252.36 44.82 251.17 C 41.57 246.30 38.27 241.43 35.68 236.16 C 38.50 237.86 43.40 242.77 44.87 236.92 C 47.43 229.41 54.95 222.84 51.98 214.30 C 59.32 215.81 64.56 205.08 56.72 201.80 C 58.31 200.58 60.03 199.34 60.29 197.19 C 64.21 176.34 69.28 154.20 62.64 133.75 C 66.23 138.48 69.18 143.65 72.92 148.27 C 74.82 146.01 76.54 143.58 77.96 140.98 C 76.51 138.27 73.38 136.19 73.04 133.09 C 75.22 128.55 78.22 124.39 81.11 120.29 Z" />
</g>
<g id="#c9cacbff">
<path fill="#c9cacb" stroke="#c9cacb" stroke-width="0.09375" opacity="1.00" d=" M 138.96 148.87 C 139.46 138.10 143.61 126.96 152.05 119.93 C 152.33 129.15 149.30 138.00 147.98 147.03 C 144.97 147.61 141.92 148.07 138.96 148.87 Z" />
</g>
<g id="#c8c9caff">
<path fill="#c8c9ca" stroke="#c8c9ca" stroke-width="0.09375" opacity="1.00" d=" M 171.45 123.61 C 170.81 121.33 167.41 116.49 174.58 120.43 C 181.66 122.96 187.50 127.82 192.89 132.94 C 194.06 134.47 195.22 136.02 196.34 137.59 C 193.22 137.87 189.45 137.04 187.60 140.06 C 186.18 138.76 184.88 136.51 182.65 137.56 C 179.51 137.65 176.26 138.72 175.52 142.18 C 174.62 135.91 174.25 129.41 171.45 123.61 Z" />
</g>
<g id="#4ea0beff">
<path fill="#4ea0be" stroke="#4ea0be" stroke-width="0.09375" opacity="1.00" d=" M 30.71 127.82 C 33.23 126.90 35.93 119.26 38.46 123.53 C 44.22 126.77 39.02 134.70 45.04 138.08 C 41.17 143.65 46.90 149.52 46.20 155.63 C 46.38 178.59 44.19 201.84 36.59 223.63 C 33.63 229.14 30.70 219.78 28.09 217.81 C 27.42 216.81 26.73 215.82 26.07 214.81 C 24.71 208.93 23.14 203.09 21.90 197.19 C 21.16 183.77 20.59 170.37 22.01 156.99 C 23.37 153.72 24.17 150.29 23.82 146.75 C 26.06 140.42 27.92 133.94 30.71 127.82 Z" />
</g>
<g id="#18303aff">
<path fill="#18303a" stroke="#18303a" stroke-width="0.09375" opacity="1.00" d=" M 230.47 173.58 C 238.45 154.56 249.49 136.74 265.94 123.82 C 266.56 124.58 267.19 125.33 267.83 126.09 C 269.26 132.07 272.22 137.58 272.92 143.78 C 261.62 156.39 255.83 173.09 245.61 186.62 C 242.39 194.20 236.13 200.15 233.71 208.06 C 226.47 203.08 217.90 208.20 215.66 215.84 C 214.18 218.14 213.45 221.39 215.79 223.18 C 217.80 228.40 221.55 230.26 223.99 224.75 C 222.98 233.31 214.69 239.77 211.88 248.12 C 209.44 250.23 210.46 252.70 212.30 254.85 C 215.94 252.24 221.11 247.07 223.32 253.73 C 223.29 258.37 218.92 262.89 214.61 264.72 C 200.80 268.52 188.70 243.11 204.86 238.63 C 206.23 239.15 207.63 239.25 209.07 238.93 C 212.79 241.14 214.88 236.39 217.12 234.09 C 210.01 229.72 201.77 232.49 195.76 237.33 C 195.56 231.35 200.72 225.52 202.71 219.57 C 212.48 204.54 221.16 188.94 230.47 173.58 Z" />
</g>
<g id="#bcbec0ff">
</g>
<g id="#e5e8e9ff">
</g>
<g id="#d2dde1ff">
<path fill="#d2dde1" stroke="#d2dde1" stroke-width="0.09375" opacity="1.00" d=" M 199.20 128.82 C 201.54 131.53 203.59 134.48 205.78 137.31 C 210.19 144.04 212.55 151.79 215.05 159.36 C 215.48 164.23 216.02 169.08 216.08 173.99 C 214.12 173.22 212.12 172.56 210.13 171.92 L 210.02 171.07 C 209.84 163.59 207.32 156.45 204.11 149.78 C 202.18 145.35 199.56 141.19 196.34 137.59 C 195.22 136.02 194.06 134.47 192.89 132.94 C 195.37 132.95 197.44 134.32 199.67 135.19 C 199.71 133.05 199.52 130.93 199.20 128.82 Z" />
</g>
<g id="#d1d2d3ff">
<path fill="#d1d2d3" stroke="#d1d2d3" stroke-width="0.09375" opacity="1.00" d=" M 106.98 132.08 C 109.06 132.62 116.61 131.61 115.92 135.85 C 112.29 140.89 108.57 145.87 104.95 150.92 C 100.03 149.18 95.66 153.19 90.99 154.14 C 93.53 145.40 97.68 135.23 106.98 132.08 Z" />
</g>
<g id="#c0c2c3ff">
<path fill="#c0c2c3" stroke="#c0c2c3" stroke-width="0.09375" opacity="1.00" d=" M 109.18 157.22 C 112.77 149.26 119.41 143.27 124.75 136.52 C 126.28 136.87 127.80 137.32 129.15 138.15 C 131.65 139.29 134.25 136.23 137.04 136.95 C 136.79 141.98 134.99 146.79 133.73 151.63 C 129.50 151.84 125.73 153.71 122.03 155.54 C 117.61 154.64 113.37 156.09 109.18 157.22 Z" />
</g>
<g id="#d8e1e3ff">
<path fill="#d8e1e3" stroke="#d8e1e3" stroke-width="0.09375" opacity="1.00" d=" M 182.65 137.56 C 184.88 136.51 186.18 138.76 187.60 140.06 C 190.15 144.04 192.48 148.15 194.87 152.23 C 196.53 157.09 198.22 162.08 198.33 167.26 C 196.57 167.16 194.81 167.08 193.05 167.01 C 192.82 166.48 192.36 165.43 192.12 164.90 C 191.56 162.09 190.88 159.25 189.32 156.81 C 188.73 159.52 188.21 162.25 187.96 165.01 C 186.65 165.00 185.34 164.99 184.03 164.98 L 184.04 163.98 C 184.08 162.72 184.13 161.47 184.19 160.23 C 184.82 156.74 184.85 153.25 184.27 149.76 C 184.17 145.63 183.51 141.58 182.65 137.56 Z" />
</g>
<g id="#b2b6b8ff">
<path fill="#b2b6b8" stroke="#b2b6b8" stroke-width="0.09375" opacity="1.00" d=" M 175.52 142.18 C 176.26 138.72 179.51 137.65 182.65 137.56 C 183.51 141.58 184.17 145.63 184.27 149.76 C 181.26 150.71 178.21 151.49 175.14 152.16 C 175.26 148.83 175.44 145.50 175.52 142.18 Z" />
</g>
<g id="#aeb2b4ff">
<path fill="#aeb2b4" stroke="#aeb2b4" stroke-width="0.09375" opacity="1.00" d=" M 187.60 140.06 C 189.45 137.04 193.22 137.87 196.34 137.59 C 199.56 141.19 202.18 145.35 204.11 149.78 C 200.98 150.42 197.90 151.26 194.87 152.23 C 192.48 148.15 190.15 144.04 187.60 140.06 Z" />
</g>
<g id="#11202cff">
<path fill="#11202c" stroke="#11202c" stroke-width="0.09375" opacity="1.00" d=" M 245.61 186.62 C 255.83 173.09 261.62 156.39 272.92 143.78 C 275.55 151.15 277.02 158.89 277.36 166.70 C 276.99 173.20 276.93 179.73 277.23 186.24 C 274.24 238.10 235.95 285.12 186.15 299.38 C 180.88 296.75 191.14 293.57 190.67 289.76 C 196.11 283.60 196.52 275.40 201.23 268.88 C 212.44 275.26 225.73 266.93 230.04 256.03 C 233.05 249.62 226.33 244.66 222.02 240.86 C 218.56 243.16 215.83 246.61 211.88 248.12 C 214.69 239.77 222.98 233.31 223.99 224.75 C 222.76 220.68 218.57 216.26 223.86 212.71 C 225.27 213.17 226.68 213.17 228.10 212.70 C 238.33 219.42 234.02 235.51 244.81 242.16 C 248.65 234.83 252.39 227.45 255.96 219.99 C 255.22 218.98 254.09 218.38 253.15 217.61 C 251.96 216.02 249.57 216.88 249.91 218.92 C 247.73 221.96 247.50 228.52 243.35 228.85 C 240.60 221.76 240.06 213.13 233.71 208.06 C 236.13 200.15 242.39 194.20 245.61 186.62 Z" />
</g>
<g id="#a5b9c0ff">
<path fill="#a5b9c0" stroke="#a5b9c0" stroke-width="0.09375" opacity="1.00" d=" M 22.01 156.99 C 22.25 153.52 22.51 150.01 23.82 146.75 C 24.17 150.29 23.37 153.72 22.01 156.99 Z" />
</g>
<g id="#a6abaeff">
<path fill="#a6abae" stroke="#a6abae" stroke-width="0.09375" opacity="1.00" d=" M 138.96 148.87 C 141.92 148.07 144.97 147.61 147.98 147.03 C 148.08 152.40 149.08 157.68 149.83 162.98 C 139.76 162.48 130.10 166.26 120.02 166.06 C 123.94 160.19 131.83 156.25 138.92 157.79 C 139.08 154.82 138.86 151.83 138.96 148.87 Z" />
</g>
<g id="#b9bcbeff">
<path fill="#b9bcbe" stroke="#b9bcbe" stroke-width="0.09375" opacity="1.00" d=" M 90.99 154.14 C 95.66 153.19 100.03 149.18 104.95 150.92 C 102.03 156.63 99.72 162.73 99.25 169.19 C 99.96 162.87 91.69 167.71 88.01 167.08 C 88.31 162.64 89.78 158.39 90.99 154.14 Z" />
</g>
<g id="#989fa2ff">
<path fill="#989fa2" stroke="#989fa2" stroke-width="0.09375" opacity="1.00" d=" M 175.14 152.16 C 178.21 151.49 181.26 150.71 184.27 149.76 C 184.16 153.24 184.07 156.74 184.19 160.23 C 184.13 161.47 184.08 162.72 184.04 163.98 C 180.28 163.39 176.51 163.02 172.73 162.70 L 172.91 161.82 C 173.64 158.60 174.73 155.45 175.14 152.16 Z" />
</g>
<g id="#bec5c8ff">
<path fill="#bec5c8" stroke="#bec5c8" stroke-width="0.09375" opacity="1.00" d=" M 184.27 149.76 C 184.85 153.25 184.82 156.74 184.19 160.23 C 184.07 156.74 184.16 153.24 184.27 149.76 Z" />
</g>
<g id="#8e9699ff">
<path fill="#8e9699" stroke="#8e9699" stroke-width="0.09375" opacity="1.00" d=" M 194.87 152.23 C 197.90 151.26 200.98 150.42 204.11 149.78 C 207.32 156.45 209.84 163.59 210.02 171.07 C 206.24 170.56 202.19 166.92 198.57 169.02 C 198.51 168.58 198.39 167.70 198.33 167.26 C 198.22 162.08 196.53 157.09 194.87 152.23 Z" />
<path fill="#8e9699" stroke="#8e9699" stroke-width="0.09375" opacity="1.00" d=" M 189.32 156.81 C 190.88 159.25 191.56 162.09 192.12 164.90 C 190.73 164.93 189.34 164.97 187.96 165.01 C 188.21 162.25 188.73 159.52 189.32 156.81 Z" />
</g>
<g id="#a5abaeff">
<path fill="#a5abae" stroke="#a5abae" stroke-width="0.09375" opacity="1.00" d=" M 109.18 157.22 C 113.37 156.09 117.61 154.64 122.03 155.54 C 117.48 160.22 114.67 166.10 112.32 172.08 C 110.97 168.86 107.51 170.73 104.99 171.05 C 105.54 166.24 107.41 161.68 109.18 157.22 Z" />
</g>
<g id="#a9b8bdff">
<path fill="#a9b8bd" stroke="#a9b8bd" stroke-width="0.09375" opacity="1.00" d=" M 19.76 169.75 C 20.31 165.46 21.09 161.21 22.01 156.99 C 20.59 170.37 21.16 183.77 21.90 197.19 C 19.59 188.21 20.20 178.92 19.76 169.75 Z" />
</g>
<g id="#cad6dbff">
<path fill="#cad6db" stroke="#cad6db" stroke-width="0.09375" opacity="1.00" d=" M 150.85 165.18 C 158.09 163.35 165.48 162.46 172.91 161.82 L 172.73 162.70 C 171.63 165.55 170.40 168.35 169.13 171.14 C 166.10 177.10 158.38 177.61 154.14 172.90 C 152.82 170.43 151.35 167.98 150.85 165.18 Z" />
</g>
<g id="#8c9599ff">
<path fill="#8c9599" stroke="#8c9599" stroke-width="0.09375" opacity="1.00" d=" M 120.02 166.06 C 130.10 166.26 139.76 162.48 149.83 162.98 C 149.89 163.46 149.99 164.42 150.05 164.90 C 144.54 166.40 138.85 167.64 133.90 170.60 C 135.35 170.96 136.81 171.27 138.24 171.73 C 136.15 171.88 134.06 172.05 131.99 172.38 C 125.28 174.17 119.45 178.64 114.15 183.07 C 114.84 177.06 116.74 171.16 120.02 166.06 Z" />
</g>
<g id="#586264ff">
<path fill="#586264" stroke="#586264" stroke-width="0.09375" opacity="1.00" d=" M 169.13 171.14 C 170.40 168.35 171.63 165.55 172.73 162.70 C 176.51 163.02 180.28 163.39 184.04 163.98 L 184.03 164.98 C 183.55 166.99 183.07 169.00 182.48 170.99 C 178.06 169.64 173.54 170.28 169.13 171.14 Z" />
</g>
<g id="#596367ff">
<path fill="#596367" stroke="#596367" stroke-width="0.09375" opacity="1.00" d=" M 133.90 170.60 C 138.85 167.64 144.54 166.40 150.05 164.90 L 150.85 165.18 C 151.35 167.98 152.82 170.43 154.14 172.90 C 150.63 173.48 147.06 173.77 143.64 174.80 C 141.93 173.64 140.24 172.35 138.24 171.73 C 136.81 171.27 135.35 170.96 133.90 170.60 Z" />
</g>
<g id="#b9cbd1ff">
<path fill="#b9cbd1" stroke="#b9cbd1" stroke-width="0.09375" opacity="1.00" d=" M 184.03 164.98 C 185.34 164.99 186.65 165.00 187.96 165.01 C 186.35 171.41 185.01 177.95 181.94 183.85 C 178.60 189.14 174.59 194.71 167.98 195.90 C 160.39 196.94 161.55 206.29 159.98 212.10 C 162.98 211.90 165.52 210.14 168.25 209.09 C 165.80 215.05 159.58 218.90 158.39 225.43 C 155.67 229.74 160.40 235.18 165.03 233.04 C 174.19 231.70 182.29 226.10 189.27 220.35 C 184.90 220.05 178.09 219.84 177.56 214.05 C 174.90 217.61 171.68 221.73 166.91 222.10 C 171.90 209.62 184.55 201.88 189.39 189.16 C 192.46 182.20 193.32 174.55 193.05 167.01 C 194.81 167.08 196.57 167.16 198.33 167.26 C 198.39 167.70 198.51 168.58 198.57 169.02 C 199.18 174.42 198.25 179.79 197.15 185.06 C 195.14 195.70 187.47 203.93 181.01 212.11 C 181.62 216.75 189.69 216.74 193.37 215.36 C 203.53 208.52 207.05 195.54 209.46 184.14 C 209.88 180.08 210.01 176.00 210.13 171.92 C 212.12 172.56 214.12 173.22 216.08 173.99 C 216.54 200.71 199.42 226.44 174.81 236.71 C 166.75 239.44 158.45 241.63 149.90 241.97 L 148.80 241.92 C 152.31 239.68 157.08 240.37 160.06 236.01 C 157.51 234.29 155.32 232.28 156.79 229.01 C 154.09 229.02 148.70 229.04 146.00 229.05 C 157.01 219.16 158.94 203.62 159.89 190.23 C 161.20 190.32 163.81 190.50 165.12 190.59 C 169.94 188.91 174.28 186.06 177.43 182.02 C 180.03 178.85 181.32 174.86 182.48 170.99 C 183.07 169.00 183.55 166.99 184.03 164.98 M 151.16 226.16 C 150.16 230.80 155.80 225.16 151.16 226.16 Z" />
</g>
<g id="#464f53ff">
<path fill="#464f53" stroke="#464f53" stroke-width="0.09375" opacity="1.00" d=" M 187.96 165.01 C 189.34 164.97 190.73 164.93 192.12 164.90 C 192.36 165.43 192.82 166.48 193.05 167.01 C 193.32 174.55 192.46 182.20 189.39 189.16 C 189.14 185.43 185.76 181.77 181.94 183.85 C 185.01 177.95 186.35 171.41 187.96 165.01 Z" />
</g>
<g id="#96a1a6ff">
<path fill="#96a1a6" stroke="#96a1a6" stroke-width="0.09375" opacity="1.00" d=" M 88.01 167.08 C 91.69 167.71 99.96 162.87 99.25 169.19 C 99.13 170.76 99.03 172.34 98.95 173.93 C 95.25 173.92 91.57 174.21 87.97 175.06 C 87.91 172.40 87.93 169.74 88.01 167.08 Z" />
</g>
<g id="#60696bff">
<path fill="#60696b" stroke="#60696b" stroke-width="0.09375" opacity="1.00" d=" M 277.36 166.70 C 278.92 173.10 277.88 179.79 277.23 186.24 C 276.93 179.73 276.99 173.20 277.36 166.70 Z" />
</g>
<g id="#454d51ff">
<path fill="#454d51" stroke="#454d51" stroke-width="0.09375" opacity="1.00" d=" M 198.57 169.02 C 202.19 166.92 206.24 170.56 210.02 171.07 L 210.13 171.92 C 210.01 176.00 209.88 180.08 209.46 184.14 C 207.37 178.52 200.56 183.11 197.15 185.06 C 198.25 179.79 199.18 174.42 198.57 169.02 Z" />
</g>
<g id="#dadcddff">
</g>
<g id="#788289ff">
<path fill="#788289" stroke="#788289" stroke-width="0.09375" opacity="1.00" d=" M 104.99 171.05 C 107.51 170.73 110.97 168.86 112.32 172.08 C 111.24 175.59 110.15 179.13 109.71 182.79 C 108.84 185.66 109.82 189.34 108.12 191.94 C 104.85 185.46 104.03 178.27 104.99 171.05 Z" />
</g>
<g id="#424d51ff">
<path fill="#424d51" stroke="#424d51" stroke-width="0.09375" opacity="1.00" d=" M 169.13 171.14 C 173.54 170.28 178.06 169.64 182.48 170.99 C 181.32 174.86 180.03 178.85 177.43 182.02 C 176.37 180.72 174.95 179.47 173.14 180.17 C 164.84 182.19 156.30 182.67 147.91 184.16 C 146.67 180.96 145.21 177.85 143.64 174.80 C 147.06 173.77 150.63 173.48 154.14 172.90 C 158.38 177.61 166.10 177.10 169.13 171.14 Z" />
</g>
<g id="#41879fff">
<path fill="#41879f" stroke="#41879f" stroke-width="0.09375" opacity="1.00" d=" M 65.55 221.44 C 74.24 206.36 76.33 187.79 79.64 170.73 C 80.15 181.32 82.47 191.60 85.79 201.64 C 85.77 208.26 84.09 214.77 80.46 220.45 C 77.21 233.14 68.43 243.65 63.77 255.87 C 62.17 259.99 59.91 264.32 54.81 263.28 C 51.03 259.63 47.85 255.44 44.82 251.17 C 48.02 252.36 52.17 252.45 53.45 248.58 C 56.08 238.86 63.68 231.29 65.55 221.44 Z" />
</g>
<g id="#3f4a50ff">
<path fill="#3f4a50" stroke="#3f4a50" stroke-width="0.09375" opacity="1.00" d=" M 114.15 183.07 C 119.45 178.64 125.28 174.17 131.99 172.38 C 128.02 176.41 126.42 182.01 124.41 187.16 C 123.20 183.05 117.36 184.73 114.03 183.91 L 114.15 183.07 Z" />
</g>
<g id="#c9d8ddff">
<path fill="#c9d8dd" stroke="#c9d8dd" stroke-width="0.09375" opacity="1.00" d=" M 131.99 172.38 C 134.06 172.05 136.15 171.88 138.24 171.73 C 140.24 172.35 141.93 173.64 143.64 174.80 C 145.21 177.85 146.67 180.96 147.91 184.16 C 148.18 186.38 148.69 188.56 149.29 190.71 C 149.20 195.21 149.20 199.72 149.19 204.23 C 147.40 213.01 145.19 221.74 141.94 230.11 C 143.32 229.86 144.67 229.48 146.00 229.05 C 148.70 229.04 154.09 229.02 156.79 229.01 C 155.32 232.28 157.51 234.29 160.06 236.01 C 157.08 240.37 152.31 239.68 148.80 241.92 C 141.55 242.08 134.39 240.67 127.40 238.87 C 121.43 236.45 115.52 233.90 110.04 230.48 C 105.77 227.13 101.83 223.42 98.00 219.60 C 95.75 217.37 93.77 214.88 92.08 212.20 C 94.80 211.37 98.09 210.58 99.54 207.90 C 107.41 217.40 117.00 228.86 130.14 230.03 C 127.19 223.25 122.78 217.02 122.62 209.29 C 122.85 204.44 122.93 199.60 122.78 194.75 C 123.12 192.18 123.80 189.68 124.41 187.16 C 126.42 182.01 128.02 176.41 131.99 172.38 Z" />
</g>
<g id="#75848cff">
<path fill="#75848c" stroke="#75848c" stroke-width="0.09375" opacity="1.00" d=" M 87.97 175.06 C 91.57 174.21 95.25 173.92 98.95 173.93 C 98.93 175.69 98.89 179.22 98.87 180.98 C 95.22 180.71 91.26 180.44 88.44 183.13 C 87.87 180.48 88.03 177.74 87.97 175.06 Z" />
</g>
<g id="#30363aff">
<path fill="#30363a" stroke="#30363a" stroke-width="0.09375" opacity="1.00" d=" M 147.91 184.16 C 156.30 182.67 164.84 182.19 173.14 180.17 C 174.95 179.47 176.37 180.72 177.43 182.02 C 174.28 186.06 169.94 188.91 165.12 190.59 C 163.68 189.49 161.38 188.84 159.89 190.23 C 158.94 203.62 157.01 219.16 146.00 229.05 C 144.67 229.48 143.32 229.86 141.94 230.11 C 145.19 221.74 147.40 213.01 149.19 204.23 C 149.92 199.80 150.81 195.07 149.29 190.71 C 148.69 188.56 148.18 186.38 147.91 184.16 Z" />
</g>
<g id="#616269ff">
<path fill="#616269" stroke="#616269" stroke-width="0.09375" opacity="1.00" d=" M 88.44 183.13 C 91.26 180.44 95.22 180.71 98.87 180.98 C 99.75 185.90 100.49 191.03 103.22 195.33 L 102.70 195.87 C 100.17 198.14 97.86 200.75 96.69 203.99 C 92.87 197.55 90.19 190.40 88.44 183.13 Z" />
</g>
<g id="#2d3337ff">
<path fill="#2d3337" stroke="#2d3337" stroke-width="0.09375" opacity="1.00" d=" M 197.15 185.06 C 200.56 183.11 207.37 178.52 209.46 184.14 C 207.05 195.54 203.53 208.52 193.37 215.36 C 189.69 216.74 181.62 216.75 181.01 212.11 C 187.47 203.93 195.14 195.70 197.15 185.06 Z" />
</g>
<g id="#cfdaddff">
<path fill="#cfdadd" stroke="#cfdadd" stroke-width="0.09375" opacity="1.00" d=" M 108.12 191.94 C 109.82 189.34 108.84 185.66 109.71 182.79 C 109.71 185.17 109.86 187.71 112.91 187.24 C 113.09 192.24 112.39 197.38 113.63 202.29 C 113.69 205.12 116.09 208.61 113.85 211.01 C 108.62 207.42 106.07 201.13 102.70 195.87 L 103.22 195.33 C 105.20 194.76 106.74 193.41 108.12 191.94 Z" />
</g>
<g id="#2c3337ff">
<path fill="#2c3337" stroke="#2c3337" stroke-width="0.09375" opacity="1.00" d=" M 181.94 183.85 C 185.76 181.77 189.14 185.43 189.39 189.16 C 184.55 201.88 171.90 209.62 166.91 222.10 C 171.68 221.73 174.90 217.61 177.56 214.05 C 178.09 219.84 184.90 220.05 189.27 220.35 C 182.29 226.10 174.19 231.70 165.03 233.04 C 160.40 235.18 155.67 229.74 158.39 225.43 C 159.58 218.90 165.80 215.05 168.25 209.09 C 165.52 210.14 162.98 211.90 159.98 212.10 C 161.55 206.29 160.39 196.94 167.98 195.90 C 174.59 194.71 178.60 189.14 181.94 183.85 Z" />
</g>
<g id="#2b3034ff">
<path fill="#2b3034" stroke="#2b3034" stroke-width="0.09375" opacity="1.00" d=" M 114.03 183.91 C 117.36 184.73 123.20 183.05 124.41 187.16 C 123.80 189.68 123.12 192.18 122.78 194.75 C 122.01 199.53 121.34 204.54 122.62 209.29 C 122.78 217.02 127.19 223.25 130.14 230.03 C 117.00 228.86 107.41 217.40 99.54 207.90 C 98.61 206.59 97.61 205.32 96.69 203.99 C 97.86 200.75 100.17 198.14 102.70 195.87 C 106.07 201.13 108.62 207.42 113.85 211.01 C 116.09 208.61 113.69 205.12 113.63 202.29 C 113.82 196.77 114.17 191.26 113.80 185.75 C 113.86 185.29 113.98 184.37 114.03 183.91 Z" />
</g>
<g id="#6e7578ff">
<path fill="#6e7578" stroke="#6e7578" stroke-width="0.09375" opacity="1.00" d=" M 112.91 187.24 C 113.13 186.87 113.58 186.12 113.80 185.75 C 114.17 191.26 113.82 196.77 113.63 202.29 C 112.39 197.38 113.09 192.24 112.91 187.24 Z" />
</g>
<g id="#7a8489ff">
<path fill="#7a8489" stroke="#7a8489" stroke-width="0.09375" opacity="1.00" d=" M 159.89 190.23 C 161.38 188.84 163.68 189.49 165.12 190.59 C 163.81 190.50 161.20 190.32 159.89 190.23 Z" />
</g>
<g id="#626c6fff">
<path fill="#626c6f" stroke="#626c6f" stroke-width="0.09375" opacity="1.00" d=" M 149.29 190.71 C 150.81 195.07 149.92 199.80 149.19 204.23 C 149.20 199.72 149.20 195.21 149.29 190.71 Z" />
</g>
<g id="#8c959aff">
<path fill="#8c959a" stroke="#8c959a" stroke-width="0.09375" opacity="1.00" d=" M 122.62 209.29 C 121.34 204.54 122.01 199.53 122.78 194.75 C 122.93 199.60 122.85 204.44 122.62 209.29 Z" />
</g>
<g id="#e9f0f2ff">
</g>
<g id="#3c7d94ff">
<path fill="#3c7d94" stroke="#3c7d94" stroke-width="0.09375" opacity="1.00" d=" M 80.46 220.45 C 84.09 214.77 85.77 208.26 85.79 201.64 C 87.85 205.18 89.70 208.85 92.08 212.20 C 93.77 214.88 95.75 217.37 98.00 219.60 C 90.86 228.65 89.14 241.58 81.87 250.86 C 77.41 258.99 74.81 270.15 65.64 274.08 C 61.92 270.59 58.42 266.87 54.81 263.28 C 59.91 264.32 62.17 259.99 63.77 255.87 C 68.43 243.65 77.21 233.14 80.46 220.45 Z" />
</g>
<g id="#f1f4f5ff">
<path fill="#f1f4f5" stroke="#f1f4f5" stroke-width="0.09375" opacity="1.00" d=" M 215.66 215.84 C 217.90 208.20 226.47 203.08 233.71 208.06 C 240.06 213.13 240.60 221.76 243.35 228.85 C 247.50 228.52 247.73 221.96 249.91 218.92 C 251.04 218.62 252.12 218.18 253.15 217.61 C 254.09 218.38 255.22 218.98 255.96 219.99 C 252.39 227.45 248.65 234.83 244.81 242.16 C 234.02 235.51 238.33 219.42 228.10 212.70 C 227.03 211.44 224.82 211.18 223.86 212.71 C 218.57 216.26 222.76 220.68 223.99 224.75 C 221.55 230.26 217.80 228.40 215.79 223.18 C 215.76 221.35 215.69 217.67 215.66 215.84 Z" />
</g>
<g id="#708790ff">
<path fill="#708790" stroke="#708790" stroke-width="0.09375" opacity="1.00" d=" M 223.86 212.71 C 224.82 211.18 227.03 211.44 228.10 212.70 C 226.68 213.17 225.27 213.17 223.86 212.71 Z" />
</g>
<g id="#8a9399ff">
<path fill="#8a9399" stroke="#8a9399" stroke-width="0.09375" opacity="1.00" d=" M 215.79 223.18 C 213.45 221.39 214.18 218.14 215.66 215.84 C 215.69 217.67 215.76 221.35 215.79 223.18 Z" />
</g>
<g id="#939699ff">
<path fill="#939699" stroke="#939699" stroke-width="0.09375" opacity="1.00" d=" M 249.91 218.92 C 249.57 216.88 251.96 216.02 253.15 217.61 C 252.12 218.18 251.04 218.62 249.91 218.92 Z" />
</g>
<g id="#387288ff">
<path fill="#387288" stroke="#387288" stroke-width="0.09375" opacity="1.00" d=" M 81.87 250.86 C 89.14 241.58 90.86 228.65 98.00 219.60 C 101.83 223.42 105.77 227.13 110.04 230.48 C 99.86 248.25 92.82 268.49 78.87 283.82 C 74.18 280.99 69.75 277.69 65.64 274.08 C 74.81 270.15 77.41 258.99 81.87 250.86 Z" />
</g>
<g id="#c2d3daff">
<path fill="#c2d3da" stroke="#c2d3da" stroke-width="0.09375" opacity="1.00" d=" M 151.16 226.16 C 155.80 225.16 150.16 230.80 151.16 226.16 Z" />
</g>
<g id="#32667bff">
<path fill="#32667b" stroke="#32667b" stroke-width="0.09375" opacity="1.00" d=" M 78.87 283.82 C 92.82 268.49 99.86 248.25 110.04 230.48 C 115.52 233.90 121.43 236.45 127.40 238.87 C 127.40 242.67 121.48 248.04 127.12 249.73 C 124.93 249.61 123.62 250.60 123.66 252.86 C 122.54 254.04 122.62 255.74 123.27 257.14 C 122.98 258.51 122.69 259.89 122.36 261.25 C 122.93 253.25 112.62 256.13 110.82 261.80 C 103.93 271.03 100.49 283.07 91.88 290.81 C 90.23 290.17 88.57 289.59 86.89 289.04 C 84.30 287.18 81.63 285.42 78.87 283.82 Z" />
</g>
<g id="#f2f5f6ff">
<path fill="#f2f5f6" stroke="#f2f5f6" stroke-width="0.09375" opacity="1.00" d=" M 195.76 237.33 C 201.77 232.49 210.01 229.72 217.12 234.09 C 214.88 236.39 212.79 241.14 209.07 238.93 C 208.18 237.30 206.03 237.38 204.86 238.63 C 188.70 243.11 200.80 268.52 214.61 264.72 C 218.92 262.89 223.29 258.37 223.32 253.73 C 221.11 247.07 215.94 252.24 212.30 254.85 C 210.46 252.70 209.44 250.23 211.88 248.12 C 215.83 246.61 218.56 243.16 222.02 240.86 C 226.33 244.66 233.05 249.62 230.04 256.03 C 225.73 266.93 212.44 275.26 201.23 268.88 C 196.33 265.58 192.06 261.25 190.69 255.30 C 190.71 252.10 190.79 248.95 190.81 245.77 C 191.77 242.61 194.04 240.09 195.76 237.33 Z" />
<path fill="#f2f5f6" stroke="#f2f5f6" stroke-width="0.09375" opacity="1.00" d=" M 163.75 253.27 C 170.47 249.65 181.50 249.24 183.80 258.11 C 184.84 267.44 177.59 274.26 173.94 282.11 C 179.57 284.02 190.93 274.21 190.04 284.86 C 181.81 287.20 173.49 289.25 165.14 291.08 C 165.60 286.42 167.27 282.07 169.38 277.94 C 172.19 273.47 175.44 269.05 177.02 264.02 C 179.66 257.46 169.68 252.76 166.75 258.94 C 165.59 259.92 165.66 261.55 165.96 262.90 C 163.72 263.51 161.44 263.93 159.12 264.15 C 159.41 260.03 160.97 256.28 163.75 253.27 Z" />
</g>
<g id="#23445bff">
<path fill="#23445b" stroke="#23445b" stroke-width="0.09375" opacity="1.00" d=" M 149.90 241.97 C 158.45 241.63 166.75 239.44 174.81 236.71 C 173.55 243.90 167.54 248.01 163.75 253.27 C 160.97 256.28 159.41 260.03 159.12 264.15 C 161.44 263.93 163.72 263.51 165.96 262.90 C 167.85 262.62 167.12 260.15 166.75 258.94 C 169.68 252.76 179.66 257.46 177.02 264.02 C 175.44 269.05 172.19 273.47 169.38 277.94 C 167.87 277.32 166.34 276.78 164.75 276.41 C 154.05 282.68 150.26 296.41 140.78 304.04 C 133.99 304.84 127.58 302.13 120.87 302.04 C 118.59 301.19 116.23 300.62 113.89 300.01 C 111.80 297.31 115.53 295.79 116.81 293.80 C 118.80 291.74 118.33 287.26 122.17 287.82 C 127.82 287.43 125.77 277.67 127.03 272.92 C 128.39 272.55 129.72 272.10 131.05 271.64 C 135.40 273.08 144.32 271.22 142.94 277.92 C 141.34 279.22 141.63 281.39 142.31 283.10 C 141.60 285.72 140.80 288.31 140.25 290.97 C 142.73 291.07 145.27 291.67 147.78 291.75 C 149.39 279.16 151.92 266.70 153.96 254.18 C 152.36 253.97 150.75 253.86 149.15 253.74 C 142.30 252.56 150.02 246.04 149.90 241.97 Z" />
</g>
<g id="#778d98ff">
<path fill="#778d98" stroke="#778d98" stroke-width="0.09375" opacity="1.00" d=" M 204.86 238.63 C 206.03 237.38 208.18 237.30 209.07 238.93 C 207.63 239.25 206.23 239.15 204.86 238.63 Z" />
</g>
<g id="#2c5467ff">
<path fill="#2c5467" stroke="#2c5467" stroke-width="0.09375" opacity="1.00" d=" M 127.40 238.87 C 134.39 240.67 141.55 242.08 148.80 241.92 L 149.90 241.97 C 150.02 246.04 142.30 252.56 149.15 253.74 C 148.62 253.83 147.56 254.02 147.03 254.11 C 146.76 255.57 146.23 258.50 145.96 259.96 C 145.83 261.52 145.57 264.64 145.44 266.20 C 141.72 270.24 134.90 266.42 130.02 265.87 C 126.14 262.40 135.76 249.23 127.12 249.73 C 121.48 248.04 127.40 242.67 127.40 238.87 Z" />
</g>
<g id="#9fa7abff">
<path fill="#9fa7ab" stroke="#9fa7ab" stroke-width="0.09375" opacity="1.00" d=" M 189.95 253.78 C 190.07 251.10 190.31 248.39 190.81 245.77 C 190.79 248.95 190.71 252.10 190.69 255.30 C 190.51 254.92 190.14 254.16 189.95 253.78 Z" />
</g>
<g id="#f5f9f9ff">
<path fill="#f5f9f9" stroke="#f5f9f9" stroke-width="0.09375" opacity="1.00" d=" M 123.66 252.86 C 123.62 250.60 124.93 249.61 127.12 249.73 C 135.76 249.23 126.14 262.40 130.02 265.87 C 134.90 266.42 141.72 270.24 145.44 266.20 C 145.57 264.64 145.83 261.52 145.96 259.96 C 146.23 258.50 146.76 255.57 147.03 254.11 C 147.56 254.02 148.62 253.83 149.15 253.74 C 150.75 253.86 152.36 253.97 153.96 254.18 C 151.92 266.70 149.39 279.16 147.78 291.75 C 145.27 291.67 142.73 291.07 140.25 290.97 C 140.80 288.31 141.60 285.72 142.31 283.10 C 143.44 281.59 143.37 279.65 142.94 277.92 C 144.32 271.22 135.40 273.08 131.05 271.64 C 129.68 270.29 126.57 270.36 127.03 272.92 C 125.77 277.67 127.82 287.43 122.17 287.82 C 114.60 289.37 118.32 284.54 119.39 281.13 C 120.49 279.57 120.37 277.60 119.76 275.88 L 120.16 275.17 C 120.38 273.62 120.82 270.53 121.04 268.98 C 122.68 267.76 122.34 265.60 121.76 263.92 C 121.91 263.25 122.21 261.92 122.36 261.25 C 122.69 259.89 122.98 258.51 123.27 257.14 C 124.51 256.01 124.38 254.23 123.66 252.86 Z" />
</g>
<g id="#a3afb4ff">
<path fill="#a3afb4" stroke="#a3afb4" stroke-width="0.09375" opacity="1.00" d=" M 123.27 257.14 C 122.62 255.74 122.54 254.04 123.66 252.86 C 124.38 254.23 124.51 256.01 123.27 257.14 Z" />
</g>
<g id="#192f49ff">
<path fill="#192f49" stroke="#192f49" stroke-width="0.09375" opacity="1.00" d=" M 183.80 258.11 C 184.48 255.57 186.97 251.85 189.95 253.78 C 190.14 254.16 190.51 254.92 190.69 255.30 C 192.06 261.25 196.33 265.58 201.23 268.88 C 196.52 275.40 196.11 283.60 190.67 289.76 C 191.14 293.57 180.88 296.75 186.15 299.38 C 185.10 299.88 184.04 300.39 183.00 300.92 C 174.94 301.50 167.14 304.05 159.01 304.06 C 152.93 304.01 146.86 303.93 140.78 304.04 C 150.26 296.41 154.05 282.68 164.75 276.41 C 166.34 276.78 167.87 277.32 169.38 277.94 C 167.27 282.07 165.60 286.42 165.14 291.08 C 173.49 289.25 181.81 287.20 190.04 284.86 C 190.93 274.21 179.57 284.02 173.94 282.11 C 177.59 274.26 184.84 267.44 183.80 258.11 Z" />
</g>
<g id="#8b959bff">
<path fill="#8b959b" stroke="#8b959b" stroke-width="0.09375" opacity="1.00" d=" M 145.96 259.96 C 146.23 258.50 146.76 255.57 147.03 254.11 C 146.76 255.57 146.23 258.50 145.96 259.96 Z" />
</g>
<g id="#2d5a71ff">
<path fill="#2d5a71" stroke="#2d5a71" stroke-width="0.09375" opacity="1.00" d=" M 110.82 261.80 C 112.62 256.13 122.93 253.25 122.36 261.25 C 122.21 261.92 121.91 263.25 121.76 263.92 C 120.55 265.34 120.58 267.27 121.04 268.98 C 120.82 270.53 120.38 273.62 120.16 275.17 L 119.76 275.88 C 118.37 277.33 118.64 279.43 119.39 281.13 C 118.32 284.54 114.60 289.37 122.17 287.82 C 118.33 287.26 118.80 291.74 116.81 293.80 C 115.53 295.79 111.80 297.31 113.89 300.01 C 108.88 298.66 104.08 296.67 99.20 294.91 C 96.81 293.46 94.36 292.10 91.88 290.81 C 100.49 283.07 103.93 271.03 110.82 261.80 Z" />
</g>
<g id="#8099a8ff">
<path fill="#8099a8" stroke="#8099a8" stroke-width="0.09375" opacity="1.00" d=" M 165.96 262.90 C 165.66 261.55 165.59 259.92 166.75 258.94 C 167.12 260.15 167.85 262.62 165.96 262.90 Z" />
</g>
<g id="#8f9aa2ff">
<path fill="#8f9aa2" stroke="#8f9aa2" stroke-width="0.09375" opacity="1.00" d=" M 145.44 266.20 C 145.57 264.64 145.83 261.52 145.96 259.96 C 145.83 261.52 145.57 264.64 145.44 266.20 Z" />
</g>
<g id="#98a4abff">
<path fill="#98a4ab" stroke="#98a4ab" stroke-width="0.09375" opacity="1.00" d=" M 121.04 268.98 C 120.58 267.27 120.55 265.34 121.76 263.92 C 122.34 265.60 122.68 267.76 121.04 268.98 Z" />
</g>
<g id="#98a1a7ff">
<path fill="#98a1a7" stroke="#98a1a7" stroke-width="0.09375" opacity="1.00" d=" M 120.16 275.17 C 120.38 273.62 120.82 270.53 121.04 268.98 C 120.82 270.53 120.38 273.62 120.16 275.17 Z" />
</g>
<g id="#a5b7bfff">
<path fill="#a5b7bf" stroke="#a5b7bf" stroke-width="0.09375" opacity="1.00" d=" M 127.03 272.92 C 126.57 270.36 129.68 270.29 131.05 271.64 C 129.72 272.10 128.39 272.55 127.03 272.92 Z" />
</g>
<g id="#9fa9b0ff">
<path fill="#9fa9b0" stroke="#9fa9b0" stroke-width="0.09375" opacity="1.00" d=" M 119.39 281.13 C 118.64 279.43 118.37 277.33 119.76 275.88 C 120.37 277.60 120.49 279.57 119.39 281.13 Z" />
</g>
<g id="#8c9499ff">
<path fill="#8c9499" stroke="#8c9499" stroke-width="0.09375" opacity="1.00" d=" M 142.31 283.10 C 141.63 281.39 141.34 279.22 142.94 277.92 C 143.37 279.65 143.44 281.59 142.31 283.10 Z" />
</g>
<g id="#8d999eff">
<path fill="#8d999e" stroke="#8d999e" stroke-width="0.09375" opacity="1.00" d=" M 86.89 289.04 C 88.57 289.59 90.23 290.17 91.88 290.81 C 94.36 292.10 96.81 293.46 99.20 294.91 C 94.47 294.72 90.57 291.69 86.89 289.04 Z" />
</g>
<g id="#8d9398ff">
<path fill="#8d9398" stroke="#8d9398" stroke-width="0.09375" opacity="1.00" d=" M 159.01 304.06 C 167.14 304.05 174.94 301.50 183.00 300.92 C 175.54 304.21 167.09 305.12 159.00 305.04 L 159.01 304.06 Z" />
</g>
<g id="#889096ff">
<path fill="#889096" stroke="#889096" stroke-width="0.09375" opacity="1.00" d=" M 120.87 302.04 C 127.58 302.13 133.99 304.84 140.78 304.04 L 141.09 305.00 C 134.30 304.91 127.22 304.66 120.87 302.04 Z" />
</g>
<g id="#525d66ff">
<path fill="#525d66" stroke="#525d66" stroke-width="0.09375" opacity="1.00" d=" M 140.78 304.04 C 146.86 303.93 152.93 304.01 159.01 304.06 L 159.00 305.04 C 153.03 305.05 147.06 305.01 141.09 305.00 L 140.78 304.04 Z" />
</g>
</svg>
